<?xml version="1.0" encoding="utf-8"?>
<!-- Generator: Adobe Illustrator 18.1.1, SVG Export Plug-In . SVG Version: 6.00 Build 0)  -->
<svg version="1.1" id="Layer_1" xmlns="http://www.w3.org/2000/svg" xmlns:xlink="http://www.w3.org/1999/xlink" x="0px" y="0px"
	 viewBox="0 0 360 124" enable-background="new 0 0 360 124" xml:space="preserve">
<g id="Frame_1_">
	
		<linearGradient id="SVGID_1_" gradientUnits="userSpaceOnUse" x1="-5470.2529" y1="1922.6832" x2="-5465.7485" y2="2616.4697" gradientTransform="matrix(0.1333 0 0 0.1333 904.8 -241.8)">
		<stop  offset="0" style="stop-color:#01002F"/>
		<stop  offset="0.5285" style="stop-color:#024570"/>
		<stop  offset="0.5872" style="stop-color:#024A74"/>
		<stop  offset="0.6593" style="stop-color:#025980"/>
		<stop  offset="0.7384" style="stop-color:#027293"/>
		<stop  offset="0.8226" style="stop-color:#0295AF"/>
		<stop  offset="0.9108" style="stop-color:#01C2D1"/>
		<stop  offset="1" style="stop-color:#01F7FB"/>
	</linearGradient>
	<path fill="url(#SVGID_1_)" d="M19,74.4V48.9c0-19,15.4-34.3,34.3-34.3h244.8c19,0,34.3,15.4,34.3,34.3v25.5
		c0,19-15.4,34.3-34.3,34.3H53.4C34.4,108.7,19,93.4,19,74.4z"/>
	<defs>
		<filter id="Adobe_OpacityMaskFilter" filterUnits="userSpaceOnUse" x="23.4" y="17.3" width="305.6" height="65.3">
			<feColorMatrix  type="matrix" values="1 0 0 0 0  0 1 0 0 0  0 0 1 0 0  0 0 0 1 0"/>
		</filter>
	</defs>
	<mask maskUnits="userSpaceOnUse" x="23.4" y="17.3" width="305.6" height="65.3" id="SVGID_13_">
		<g filter="url(#Adobe_OpacityMaskFilter)">
			
				<linearGradient id="SVGID_2_" gradientUnits="userSpaceOnUse" x1="-5464.3594" y1="1804.7463" x2="-5464.3594" y2="2405.5247" gradientTransform="matrix(0.1333 0 0 0.1333 904.8 -241.8)">
				<stop  offset="0.1743" style="stop-color:#FFFFFF"/>
				<stop  offset="0.2767" style="stop-color:#BEBEBE"/>
				<stop  offset="0.3792" style="stop-color:#858585"/>
				<stop  offset="0.4787" style="stop-color:#555555"/>
				<stop  offset="0.5726" style="stop-color:#303030"/>
				<stop  offset="0.6594" style="stop-color:#161616"/>
				<stop  offset="0.7368" style="stop-color:#060606"/>
				<stop  offset="0.7967" style="stop-color:#000000"/>
			</linearGradient>
			<path fill="url(#SVGID_2_)" d="M328,82.6L23.9,82.4l-0.5-31c0-18.8,15.3-34.1,34.1-34.1H295c18.8,0,34.1,15.3,34.1,34.1L328,82.6
				z"/>
		</g>
	</mask>
	<path mask="url(#SVGID_13_)" fill="#FFFFFF" d="M328,82.6L23.9,82.4l-0.5-31c0-18.8,15.3-34.1,34.1-34.1H295
		c18.8,0,34.1,15.3,34.1,34.1L328,82.6z"/>
	
		<linearGradient id="SVGID_3_" gradientUnits="userSpaceOnUse" x1="-5470.0967" y1="1885.0045" x2="-5465.1118" y2="2652.811" gradientTransform="matrix(0.1333 0 0 0.1333 904.8 -241.8)">
		<stop  offset="0" style="stop-color:#898B8D"/>
		<stop  offset="0.2765" style="stop-color:#FCFCFC"/>
		<stop  offset="0.5503" style="stop-color:#515153"/>
		<stop  offset="0.7793" style="stop-color:#FCFCFC"/>
		<stop  offset="0.7931" style="stop-color:#EAEBEB"/>
		<stop  offset="0.8201" style="stop-color:#CDCED0"/>
		<stop  offset="0.8434" style="stop-color:#BBBDC0"/>
		<stop  offset="0.8603" style="stop-color:#B5B7BA"/>
		<stop  offset="0.8732" style="stop-color:#BDBEC1"/>
		<stop  offset="0.9141" style="stop-color:#D0CFD2"/>
		<stop  offset="0.956" style="stop-color:#DBDADD"/>
		<stop  offset="1" style="stop-color:#DFDDE0"/>
	</linearGradient>
	<path fill="url(#SVGID_3_)" d="M299.1,9.5H52.5C30.6,9.5,12.9,27.2,12.9,49v25.3c0,21.8,17.7,39.5,39.5,39.5h246.6
		c21.8,0,39.5-17.7,39.5-39.5V49C338.7,27.2,321,9.5,299.1,9.5z M331,71.9c0,20.2-16.4,36.6-36.6,36.6H57.2
		c-20.2,0-36.6-16.4-36.6-36.6V51.8c0-20.2,16.4-36.6,36.6-36.6h237.2c20.2,0,36.6,16.4,36.6,36.6V71.9z"/>
</g>
<g>
	
		<linearGradient id="SVGID_4_" gradientUnits="userSpaceOnUse" x1="-6211.3096" y1="1962.5414" x2="-6211.3096" y2="2584.1602" gradientTransform="matrix(0.1333 0 0 0.1333 904.8 -241.8)">
		<stop  offset="8.379891e-002" style="stop-color:#01002F"/>
		<stop  offset="0.364" style="stop-color:#051D57"/>
		<stop  offset="1" style="stop-color:#0F5EB0"/>
	</linearGradient>
	<ellipse fill="url(#SVGID_4_)" cx="76.6" cy="61.7" rx="41.4" ry="41.3"/>
	
		<linearGradient id="SVGID_5_" gradientUnits="userSpaceOnUse" x1="-6523.0098" y1="2276.2236" x2="-5899.6099" y2="2276.2236" gradientTransform="matrix(0.1333 0 0 0.1333 904.8 -241.8)">
		<stop  offset="0" style="stop-color:#3290C5"/>
		<stop  offset="1" style="stop-color:#0F5EB0"/>
	</linearGradient>
	<path fill="url(#SVGID_5_)" d="M76.6,103.2c-22.9,0-41.6-18.6-41.6-41.5s18.6-41.5,41.6-41.5s41.6,18.6,41.6,41.5
		S99.5,103.2,76.6,103.2z M76.6,20.6c-22.7,0-41.2,18.4-41.2,41.1s18.5,41.1,41.2,41.1s41.2-18.4,41.2-41.1S99.3,20.6,76.6,20.6z"/>
</g>
<radialGradient id="SVGID_6_" cx="-6209.7095" cy="2278.7236" r="310.3041" gradientTransform="matrix(0.1333 0 0 0.1333 904.8 -241.8)" gradientUnits="userSpaceOnUse">
	<stop  offset="0.8408" style="stop-color:#000000"/>
	<stop  offset="0.855" style="stop-color:#191919"/>
	<stop  offset="0.9275" style="stop-color:#939393"/>
	<stop  offset="0.9773" style="stop-color:#E1E1E1"/>
	<stop  offset="1" style="stop-color:#FFFFFF"/>
</radialGradient>
<ellipse fill="url(#SVGID_6_)" cx="76.8" cy="62" rx="41.6" ry="41.2"/>
<ellipse cx="76.5" cy="62.5" rx="36.6" ry="36.2"/>
<linearGradient id="SVGID_7_" gradientUnits="userSpaceOnUse" x1="-6211.9097" y1="2011.3264" x2="-6211.9097" y2="2548.1199" gradientTransform="matrix(0.1333 0 0 0.1333 904.8 -241.8)">
	<stop  offset="0.1788" style="stop-color:#01002F"/>
	<stop  offset="0.3411" style="stop-color:#012054"/>
	<stop  offset="0.5702" style="stop-color:#004983"/>
	<stop  offset="0.6849" style="stop-color:#005995"/>
	<stop  offset="0.7416" style="stop-color:#005C97"/>
	<stop  offset="0.7917" style="stop-color:#00679E"/>
	<stop  offset="0.8393" style="stop-color:#0079AA"/>
	<stop  offset="0.8853" style="stop-color:#0093BA"/>
	<stop  offset="0.9303" style="stop-color:#01B4D0"/>
	<stop  offset="0.9738" style="stop-color:#01DBE9"/>
	<stop  offset="1" style="stop-color:#01F7FB"/>
</linearGradient>
<ellipse fill="url(#SVGID_7_)" cx="76.5" cy="62.5" rx="36" ry="35.7"/>
<g>
	<polygon fill="#FFFFFF" points="68.4,39.9 50.5,45.5 52.1,52.5 62.6,91.3 90,84.8 68.4,39.9 	"/>
	<path fill="#FFFFFF" d="M65.1,61C65.1,61,65.1,61,65.1,61c0,1.4,0,2.8,0,4.2c0,6.3,0,12.6,0,18.8c0,1,0.3,1.4,1.4,1.4
		c10.6,0,21.1,0,31.7,0c1,0,1.4-0.3,1.4-1.4c0-11.4,0-22.7,0-34.1c0-0.7-0.2-1.2-0.7-1.6c-3.8-3.7-7.5-7.5-11.3-11.3
		c-0.3-0.3-0.7-0.5-1.2-0.5c-6.6,0-13.2,0-19.8,0c-1.2,0-1.5,0.3-1.5,1.5C65.1,45.7,65.1,53.3,65.1,61z"/>
	<path fill="#FFFFFF" d="M64.4,41.1c-0.2,0-0.3,0.1-0.4,0.1c-1.9,0.5-3.8,1-5.8,1.5c-2.5,0.7-5.1,1.4-7.6,2c-0.7,0.2-1,0.7-0.8,1.4
		c0,0.2,0.1,0.4,0.1,0.5c3.9,14.7,7.9,29.4,11.8,44.1c0.3,1.1,0.7,1.3,1.8,1c6.1-1.6,12.2-3.3,18.3-4.9c1-0.3,1.9-0.5,2.9-0.8
		c-1.3-0.1-2.7-0.1-4-0.1c-0.4,0-0.7,0-1.1,0.1c-5,1.3-9.9,2.7-14.9,4c-0.6,0.1-1.1,0.3-1.7,0.5C59,75.8,55,60.9,51,46
		c0.7-0.2,1.4-0.4,2-0.5c3.6-1,7.2-1.9,10.8-2.9c0.2-0.1,0.4-0.2,0.5-0.4C64.4,41.8,64.4,41.5,64.4,41.1z"/>
	<path d="M65.1,61c0-7.7,0-15.3,0-23c0-1.2,0.3-1.5,1.5-1.5c6.6,0,13.2,0,19.8,0c0.5,0,0.9,0.2,1.2,0.5c3.7,3.8,7.5,7.5,11.3,11.3
		c0.5,0.5,0.7,1,0.7,1.6c0,11.4,0,22.7,0,34.1c0,1.1-0.3,1.4-1.4,1.4c-10.6,0-21.1,0-31.7,0c-1,0-1.4-0.4-1.4-1.4
		c0-6.3,0-12.6,0-18.8C65.1,63.8,65.1,62.4,65.1,61C65.1,61,65.1,61,65.1,61z M98.3,84.1c0-0.3,0-0.5,0-0.7c0-11.1,0-22.2,0-33.3
		c0-0.8-0.1-0.9-0.9-0.9c-3.3,0-6.6,0-9.8,0c-0.8,0-0.8,0-0.8-0.8c0-3.2,0-6.4,0-9.6c0-0.9-0.1-1-1-1c-6.3,0-12.5,0-18.8,0
		c-0.2,0-0.4,0-0.6,0c0,15.5,0,30.8,0,46.3C77.1,84.1,87.6,84.1,98.3,84.1z M92.1,47.9c1.1,0,2.2,0,3.4,0c0.2,0,0.4-0.1,0.6-0.2
		c-0.1-0.2-0.1-0.4-0.3-0.6c-2.3-2.3-4.6-4.6-6.9-7c-0.1-0.1-0.4-0.2-0.5-0.2c-0.1,0.2-0.2,0.4-0.2,0.6c0,2.3,0,4.5,0,6.8
		c0,0.5,0.2,0.6,0.6,0.6C89.8,47.9,91,47.9,92.1,47.9z"/>
	<path d="M64.4,41.1c0,0.4,0.1,0.7,0,1.1c0,0.2-0.3,0.3-0.5,0.4c-3.6,1-7.2,1.9-10.8,2.9c-0.6,0.2-1.3,0.3-2,0.5
		c4,14.9,8,29.8,12,44.7c0.6-0.2,1.2-0.3,1.7-0.5c5-1.3,9.9-2.7,14.9-4c0.3-0.1,0.7-0.1,1.1-0.1c1.3,0,2.7,0,4,0.1
		c-1,0.3-1.9,0.5-2.9,0.8c-6.1,1.6-12.2,3.3-18.3,4.9c-1.1,0.3-1.5,0.1-1.8-1c-3.9-14.7-7.9-29.4-11.8-44.1c0-0.2-0.1-0.4-0.1-0.5
		c-0.2-0.7,0.1-1.2,0.8-1.4c2.5-0.7,5.1-1.4,7.6-2c1.9-0.5,3.8-1,5.8-1.5C64.1,41.2,64.2,41.2,64.4,41.1z"/>
	<path fill="#FFFFFF" d="M98.3,84.1c-10.6,0-21.2,0-31.8,0c0-15.4,0-30.8,0-46.3c0.2,0,0.4,0,0.6,0c6.3,0,12.5,0,18.8,0
		c0.9,0,1,0.1,1,1c0,3.2,0,6.4,0,9.6c0,0.7,0,0.8,0.8,0.8c3.3,0,6.6,0,9.8,0c0.8,0,0.9,0.1,0.9,0.9c0,11.1,0,22.2,0,33.3
		C98.3,83.6,98.3,83.9,98.3,84.1z M82.2,53.2c1,0,1.9,0,2.9,0c3.1,0,6.2,0,9.2,0c0.2,0,0.5-0.1,0.5-0.2c0.3-0.6,0-1.1-0.7-1.1
		c-8,0-16,0-24,0c-0.1,0-0.3,0-0.4,0c-0.1,0-0.3,0.1-0.3,0.1c0,0.3,0,0.7,0,1c0,0.1,0.4,0.1,0.6,0.1C74.2,53.2,78.2,53.2,82.2,53.2z
		 M82.2,58.3c-3.5,0-7.1,0-10.6,0c-0.6,0-1.1,0-1.7,0c-0.3,0-0.4,0.1-0.4,0.4c0,0.9,0,0.9,0.8,0.9c7.8,0,15.6,0,23.4,0
		c0.3,0,0.5,0,0.8,0c0.1,0,0.3-0.1,0.3-0.1c0-0.3,0.1-0.7,0-1c0-0.1-0.4-0.2-0.6-0.2C90.3,58.3,86.2,58.3,82.2,58.3z M82.2,72.4
		c4,0,7.9,0,11.9,0c0.2,0,0.3,0,0.5,0c0.1,0,0.3-0.1,0.3-0.2c0.2-0.7,0-1-0.7-1c-8,0-15.9,0-23.9,0c-0.1,0-0.3,0-0.4,0
		c-0.1,0-0.2,0.1-0.3,0.2c-0.3,0.6,0,1.1,0.7,1.1C74.2,72.4,78.2,72.4,82.2,72.4z M82.2,78.8c4,0,8,0,12,0c0.1,0,0.3,0,0.4,0
		c0.1,0,0.2-0.1,0.3-0.2c0.2-0.7,0-1-0.7-1c-8,0-16,0-23.9,0c-0.1,0-0.3,0-0.4,0c-0.1,0-0.2,0.1-0.2,0.2c-0.3,0.6,0,1.1,0.7,1.1
		C74.2,78.8,78.2,78.8,82.2,78.8z M82.2,66C82.2,66,82.2,66,82.2,66c2.4,0,4.8,0,7.3,0c1.6,0,3.3,0,4.9,0c0.2,0,0.4-0.1,0.5-0.2
		c0.3-0.6,0-1.1-0.7-1.1c-8,0-16.1,0-24.1,0c-0.5,0-0.6,0.2-0.6,0.6c0,0.4,0,0.7,0.6,0.7C74.2,65.9,78.2,66,82.2,66z M76.9,46.8
		c2.2,0,4.5,0,6.7,0c0.5,0,0.6-0.2,0.6-0.7c0-0.4,0-0.7-0.6-0.7c-4.5,0-8.9,0-13.4,0c-0.5,0-0.6,0.2-0.6,0.6c0,0.4,0,0.7,0.6,0.7
		C72.4,46.7,74.6,46.8,76.9,46.8z"/>
	<path fill="#FFFFFF" d="M92.1,47.9c-1.1,0-2.2,0-3.4,0c-0.5,0-0.6-0.2-0.6-0.6c0-2.3,0-4.5,0-6.8c0-0.2,0.1-0.4,0.2-0.6
		c0.2,0.1,0.4,0.1,0.5,0.2c2.3,2.3,4.6,4.6,6.9,7c0.1,0.1,0.2,0.4,0.3,0.6c-0.2,0.1-0.4,0.2-0.6,0.2C94.3,47.9,93.2,47.9,92.1,47.9z
		"/>
	<path d="M82.2,53.2c-4,0-8,0-12.1,0c-0.2,0-0.6-0.1-0.6-0.1c-0.1-0.3,0-0.7,0-1c0,0,0.2-0.1,0.3-0.1c0.1,0,0.3,0,0.4,0
		c8,0,16,0,24,0c0.6,0,1,0.5,0.7,1.1c-0.1,0.1-0.4,0.2-0.5,0.2c-3.1,0-6.2,0-9.2,0C84.2,53.2,83.2,53.2,82.2,53.2z"/>
	<path d="M82.2,58.3c4,0,8,0,12,0c0.2,0,0.6,0.1,0.6,0.2c0.1,0.3,0,0.6,0,1c0,0.1-0.2,0.1-0.3,0.1c-0.3,0-0.5,0-0.8,0
		c-7.8,0-15.6,0-23.4,0c-0.9,0-0.9,0-0.8-0.9c0-0.3,0.1-0.4,0.4-0.4c0.6,0,1.1,0,1.7,0C75.2,58.3,78.7,58.3,82.2,58.3z"/>
	<path d="M82.2,72.4c-4,0-8,0-12,0c-0.6,0-1-0.5-0.7-1.1c0-0.1,0.2-0.2,0.3-0.2c0.1,0,0.3,0,0.4,0c8,0,15.9,0,23.9,0
		c0.7,0,1,0.3,0.7,1c0,0.1-0.2,0.2-0.3,0.2c-0.2,0-0.3,0-0.5,0C90.2,72.4,86.2,72.4,82.2,72.4z"/>
	<path d="M82.2,78.8c-4,0-8,0-11.9,0c-0.6,0-0.9-0.5-0.7-1.1c0-0.1,0.2-0.1,0.2-0.2c0.1,0,0.3,0,0.4,0c8,0,16,0,23.9,0
		c0.7,0,1,0.3,0.7,1c0,0.1-0.2,0.2-0.3,0.2c-0.1,0-0.3,0-0.4,0C90.2,78.8,86.2,78.8,82.2,78.8z"/>
	<path d="M82.2,66c-4,0-8,0-12,0c-0.6,0-0.6-0.3-0.6-0.7c0-0.4,0.1-0.6,0.6-0.6c8,0,16.1,0,24.1,0c0.7,0,1,0.5,0.7,1.1
		c-0.1,0.1-0.3,0.2-0.5,0.2c-1.6,0-3.3,0-4.9,0C87,66,84.6,66,82.2,66C82.2,66,82.2,66,82.2,66z"/>
	<path d="M76.9,46.8c-2.2,0-4.5,0-6.7,0c-0.6,0-0.6-0.3-0.6-0.7c0-0.5,0.1-0.6,0.6-0.6c4.5,0,8.9,0,13.4,0c0.5,0,0.6,0.2,0.6,0.7
		c0,0.4,0,0.7-0.6,0.7C81.3,46.7,79.1,46.8,76.9,46.8z"/>
</g>
<g>
	<path d="M140.5,46.4h12.4c2.5,0,4.3,0.1,5.5,0.3c1.2,0.2,2.3,0.6,3.2,1.3s1.7,1.5,2.4,2.6c0.6,1.1,1,2.3,1,3.6c0,1.5-0.4,2.8-1.2,4
		c-0.8,1.2-1.8,2.1-3.2,2.7c1.9,0.6,3.3,1.5,4.4,2.8s1.5,2.9,1.5,4.7c0,1.4-0.3,2.8-1,4.1c-0.7,1.3-1.6,2.4-2.7,3.2
		c-1.1,0.8-2.5,1.3-4.2,1.5c-1,0.1-3.6,0.2-7.6,0.2h-10.6V46.4z M146.7,51.6v7.2h4.1c2.4,0,4,0,4.6-0.1c1.1-0.1,1.9-0.5,2.5-1.1
		s0.9-1.4,0.9-2.4c0-1-0.3-1.7-0.8-2.3c-0.5-0.6-1.3-1-2.4-1.1c-0.6-0.1-2.4-0.1-5.4-0.1H146.7z M146.7,63.9v8.3h5.8
		c2.3,0,3.7-0.1,4.3-0.2c0.9-0.2,1.7-0.6,2.3-1.2c0.6-0.7,0.9-1.5,0.9-2.6c0-0.9-0.2-1.7-0.7-2.4c-0.5-0.6-1.1-1.1-2-1.4
		s-2.7-0.4-5.6-0.4H146.7z"/>
	<path d="M171.6,77.5V46.4h6.3v31.1H171.6z"/>
	<path d="M184,77.5V46.7h6.3v25.6h15.6v5.2H184z"/>
	<path d="M210.5,77.5V46.7h6.3v25.6h15.6v5.2H210.5z"/>
	<path d="M236.6,77.5V46.4h6.3v31.1H236.6z"/>
	<path d="M248.9,77.5V46.4h6.1l12.7,20.7V46.4h5.8v31.1h-6.3l-12.5-20.2v20.2H248.9z"/>
	<path d="M294.6,66.1v-5.2h13.5v12.4c-1.3,1.3-3.2,2.4-5.7,3.4c-2.5,1-5,1.5-7.6,1.5c-3.2,0-6.1-0.7-8.5-2c-2.4-1.4-4.2-3.3-5.4-5.8
		c-1.2-2.5-1.8-5.3-1.8-8.3c0-3.2,0.7-6.1,2-8.6s3.3-4.4,6-5.8c2-1,4.5-1.5,7.4-1.5c3.9,0,6.9,0.8,9,2.4c2.2,1.6,3.6,3.9,4.2,6.7
		l-6.2,1.2c-0.4-1.5-1.3-2.7-2.5-3.6c-1.2-0.9-2.7-1.3-4.5-1.3c-2.7,0-4.9,0.9-6.5,2.6c-1.6,1.7-2.4,4.3-2.4,7.7
		c0,3.7,0.8,6.4,2.5,8.3c1.6,1.8,3.8,2.8,6.4,2.8c1.3,0,2.6-0.3,4-0.8s2.5-1.1,3.4-1.9v-3.9H294.6z"/>
</g>
<g>
	<path fill="#FFFFFF" d="M143,48h12.4c2.5,0,4.3,0.1,5.5,0.3c1.2,0.2,2.3,0.6,3.2,1.3s1.7,1.5,2.4,2.6s1,2.3,1,3.6
		c0,1.5-0.4,2.8-1.2,4c-0.8,1.2-1.8,2.1-3.2,2.7c1.9,0.6,3.3,1.5,4.4,2.8s1.5,2.9,1.5,4.7c0,1.4-0.3,2.8-1,4.1
		c-0.7,1.3-1.6,2.4-2.7,3.2c-1.1,0.8-2.5,1.3-4.2,1.5c-1,0.1-3.6,0.2-7.6,0.2H143V48z M149.3,53.1v7.2h4.1c2.4,0,4,0,4.6-0.1
		c1.1-0.1,1.9-0.5,2.5-1.1s0.9-1.4,0.9-2.4c0-1-0.3-1.7-0.8-2.3c-0.5-0.6-1.3-1-2.4-1.1c-0.6-0.1-2.4-0.1-5.4-0.1H149.3z
		 M149.3,65.5v8.3h5.8c2.3,0,3.7-0.1,4.3-0.2c0.9-0.2,1.7-0.6,2.3-1.2c0.6-0.7,0.9-1.5,0.9-2.6c0-0.9-0.2-1.7-0.7-2.4
		c-0.5-0.6-1.1-1.1-2-1.4s-2.7-0.4-5.6-0.4H149.3z"/>
	<path fill="#FFFFFF" d="M174.1,79V48h6.3V79H174.1z"/>
	<path fill="#FFFFFF" d="M186.5,79V48.2h6.3v25.6h15.6V79H186.5z"/>
	<path fill="#FFFFFF" d="M213,79V48.2h6.3v25.6h15.6V79H213z"/>
	<path fill="#FFFFFF" d="M239.2,79V48h6.3V79H239.2z"/>
	<path fill="#FFFFFF" d="M251.5,79V48h6.1l12.7,20.7V48h5.8V79h-6.3l-12.5-20.2V79H251.5z"/>
	<path fill="#FFFFFF" d="M297.2,67.6v-5.2h13.5v12.4c-1.3,1.3-3.2,2.4-5.7,3.4c-2.5,1-5,1.5-7.6,1.5c-3.2,0-6.1-0.7-8.5-2
		c-2.4-1.4-4.2-3.3-5.4-5.8c-1.2-2.5-1.8-5.3-1.8-8.3c0-3.2,0.7-6.1,2-8.6s3.3-4.4,6-5.8c2-1,4.5-1.5,7.4-1.5c3.9,0,6.9,0.8,9,2.4
		c2.2,1.6,3.6,3.9,4.2,6.7l-6.2,1.2c-0.4-1.5-1.3-2.7-2.5-3.6c-1.2-0.9-2.7-1.3-4.5-1.3c-2.7,0-4.9,0.9-6.5,2.6
		c-1.6,1.7-2.4,4.3-2.4,7.7c0,3.7,0.8,6.4,2.5,8.3c1.6,1.8,3.8,2.8,6.4,2.8c1.3,0,2.6-0.3,4-0.8s2.5-1.1,3.4-1.9v-3.9H297.2z"/>
</g>
</svg>
