<?xml version="1.0" encoding="utf-8"?>
<!-- Generator: Adobe Illustrator 19.0.0, SVG Export Plug-In . SVG Version: 6.00 Build 0)  -->
<svg version="1.1" id="Capa_1" xmlns="http://www.w3.org/2000/svg" xmlns:xlink="http://www.w3.org/1999/xlink" x="0px" y="0px"
	 viewBox="0 0 2122 2122" enable-background="new 0 0 2122 2122" xml:space="preserve">
<path fill="#A6C2CC" d="M1464.9,1381.4V343.7c0-52.7-42.7-95.5-95.5-95.5c-52.7,0-95.5,42.7-95.5,95.5v1141h280.4
	C1554.3,1484.8,1463.5,1468.6,1464.9,1381.4z"/>
<path fill="#E6E8E6" d="M1464.6,365.6v1023.7c0,52.7,42.7,95.5,95.5,95.5c52.7,0,95.5-42.7,95.5-95.5V365.6H1464.6z"/>
<path fill="#E6E8E6" d="M1364.8,248.2H358.5v1608.4l30.3,32l30.7-32.4l30.7,32.4l30.7-32.4l30.7,32.4l30.7-32.4l30.7,32.4l30.7-32.4
	l30.7,32.4l30.7-32.4l30.7,32.4l30.7-32.4l30.7,32.4l30.7-32.4l30.7,32.4l30.7-32.4l30.7,32.4l30.7-32.4l30.7,32.4l30.7-32.4
	l30.7,32.4l30.6-32.4l30.7,32.4l30.7-32.4l30.7,32.4l30.7-32.4l30.7,32.4l30.7-32.4l30.7,32.4l25.9-27.4V352
	C1273.9,352,1265.4,261.3,1364.8,248.2z"/>
<polygon fill="#DBDAD7" points="819.2,248.2 358.5,248.2 358.5,1856.6 388.8,1888.6 419.5,1856.2 450.1,1888.6 480.8,1856.2 
	511.5,1888.6 542.1,1856.2 572.8,1888.6 603.5,1856.2 634.2,1888.6 664.8,1856.2 695.5,1888.6 726.2,1856.2 756.9,1888.6 
	787.6,1856.2 818.2,1888.6 819.2,1887.6 "/>
<polygon fill="#D2CECC" points="573.7,248.2 358.5,248.2 358.5,1856.6 388.8,1888.6 419.5,1856.2 450.1,1888.6 480.8,1856.2 
	511.5,1888.6 542.1,1856.2 572.8,1888.6 573.7,1887.8 "/>
<path fill="#EFF2F0" d="M1364.8,248.2h-245.6v1634.3l5.8,6.1l30.7-32.4l30.7,32.4l30.7-32.4l30.7,32.4l25.9-27.4V352
	C1273.9,352,1265.4,261.3,1364.8,248.2z"/>
<polyline fill="#A2BBC4" points="473.9,1030.7 600.8,1030.7 600.8,1010.8 473.9,1010.8 "/>
<polyline fill="#A2BBC4" points="988.3,1030.7 1142.8,1030.7 1142.8,1010.8 988.3,1010.8 "/>
<polyline fill="#A2BBC4" points="988.3,1101.1 1142.8,1101.1 1142.8,1081.1 988.3,1081.1 "/>
<polyline fill="#A2BBC4" points="988.3,1172.7 1142.8,1172.7 1142.8,1152.8 988.3,1152.8 "/>
<polyline fill="#EC524F" points="988.3,1672.1 1144.1,1672.1 1144.1,1652.2 988.3,1652.2 "/>
<polyline fill="#A2BBC4" points="473.9,1170.5 782.9,1170.5 782.9,1150.5 473.9,1150.5 "/>
<polyline fill="#A2BBC4" points="473.9,1101.1 694.1,1101.1 694.1,1081.1 473.9,1081.1 "/>
<polyline fill="#A2BBC4" points="473.9,1258.2 782.9,1258.2 782.9,1238.2 473.9,1238.2 "/>
<polyline fill="#A2BBC4" points="988.3,1258.2 1142.8,1258.2 1142.8,1238.2 988.3,1238.2 "/>
<polyline fill="#A2BBC4" points="988.3,1328.5 1142.8,1328.5 1142.8,1308.6 988.3,1308.6 "/>
<polyline fill="#A2BBC4" points="988.3,1400.2 1142.8,1400.2 1142.8,1380.2 988.3,1380.2 "/>
<polyline fill="#A2BBC4" points="473.9,1397.9 680.7,1397.9 680.7,1377.9 473.9,1377.9 "/>
<polyline fill="#A2BBC4" points="473.9,1328.5 578,1328.5 578,1308.6 473.9,1308.6 "/>
<polyline fill="#A2BBC4" points="473.9,594.1 600.8,594.1 600.8,574.2 473.9,574.2 "/>
<polyline fill="#A2BBC4" points="988.3,594.1 1142.8,594.1 1142.8,574.2 988.3,574.2 "/>
<polyline fill="#A2BBC4" points="988.3,664.5 1142.8,664.5 1142.8,644.5 988.3,644.5 "/>
<polyline fill="#A2BBC4" points="988.3,736.1 1142.8,736.1 1142.8,716.2 988.3,716.2 "/>
<polyline fill="#A2BBC4" points="473.9,733.9 782.9,733.9 782.9,713.9 473.9,713.9 "/>
<polyline fill="#A2BBC4" points="473.9,664.5 694.1,664.5 694.1,644.5 473.9,644.5 "/>
<polyline fill="#A2BBC4" points="473.9,821.6 782.9,821.6 782.9,801.6 473.9,801.6 "/>
<polyline fill="#A2BBC4" points="988.3,821.6 1142.8,821.6 1142.8,801.6 988.3,801.6 "/>
<polyline fill="#A2BBC4" points="988.3,891.9 1142.8,891.9 1142.8,872 988.3,872 "/>
<polyline fill="#A2BBC4" points="988.3,963.6 1142.8,963.6 1142.8,943.6 988.3,943.6 "/>
<polyline fill="#A2BBC4" points="473.9,961.3 680.7,961.3 680.7,941.3 473.9,941.3 "/>
<polyline fill="#A2BBC4" points="473.9,891.9 578,891.9 578,872 473.9,872 "/>
<rect x="466.1" y="1598.5" fill="#A2BBC4" width="271.9" height="104.6"/>
<polyline fill="#A2BBC4" points="593,375.5 1045.4,375.5 1045.4,355.6 593,355.6 "/>
<polyline fill="#A2BBC4" points="706.1,428.4 932.3,428.4 932.3,408.5 706.1,408.5 "/>
</svg>
