<?xml version="1.0" encoding="utf-8"?>
<!-- Generator: Adobe Illustrator 18.1.1, SVG Export Plug-In . SVG Version: 6.00 Build 0)  -->
<svg version="1.1" id="Layer_1" xmlns="http://www.w3.org/2000/svg" xmlns:xlink="http://www.w3.org/1999/xlink" x="0px" y="0px"
	 viewBox="216 0 282 187" enable-background="new 216 0 282 187" xml:space="preserve">
<path fill="#FFFFFF" d="M358,181.2c-34,0-68.2,0-102.2,0c-9.4,0-16.8-3.8-20.8-12.5c-1.5-3.3-2.3-7.2-2.3-10.8
	c-0.1-42.6-0.1-85.4-0.1-128.1c0-14,9.5-23.2,23.5-23.2c68.1,0,136.1,0,204.2,0c11.5,0,19.5,5.9,22.5,16.6c0.7,2.3,0.9,4.7,0.9,7.1
	c0,42.4,0,84.9,0,127.3c0,14.5-9.4,23.7-23.9,23.7C425.8,181.2,391.9,181.2,358,181.2z M265.5,142.7c29.1,0,57.9,0,86.9,0
	c-0.4-7.7-4.4-13-10.9-16.4c-5.6-2.8-11.5-5-17.1-7.9c-5.2-2.7-7.7-10-5.7-15.6c0.2-0.4,0.7-0.8,1.1-1.1c2.9-2.4,4.7-5.5,5.8-9.1
	c0.3-1,0.9-2,1.5-2.6c3.2-3.3,3.8-6.8,2.1-11c-0.4-1.1-0.4-2.5-0.3-3.7c0.4-4.5,1.3-8.9,1.3-13.4c0.1-5.8-2.7-10.1-6.9-11.1
	c-2.5-0.7-4.4-1.6-6.3-3.3c-8.9-6.9-25.2-1.1-28.1,10c-1.5,5.8-1,11.6,0.2,17.3c0.2,1.2,0.3,2.7-0.2,3.7c-2,4.1-1.4,8.2,1.7,11.5
	c0.5,0.5,1,1.4,1.4,2.2c1.6,2.8,2.9,5.9,5.1,8.3c1.6,1.9,2.5,3.5,2.3,5.8c-0.1,1.2-0.1,2.3,0,3.5c0.2,3.3-1.3,5.7-3.8,7.4
	c-1.4,1-3.1,1.9-4.6,2.6c-4.7,2.2-9.5,4-14.1,6.3C270.2,129.5,266,134.9,265.5,142.7z M412.9,61.3L412.9,61.3c-10.1,0-20.2,0-30.3,0
	c-1,0-2,0-2.9,0.1c-2.8,0.2-4.8,2.3-5,4.9c-0.2,2.5,1.4,4.8,4.1,5.5c1,0.2,2.1,0.3,3.2,0.3c8.7,0,17.6,0,26.3,0
	c11.7,0,23.2,0,34.9,0c0.8,0,1.6,0,2.4,0c3.2-0.3,5.5-2.8,5.3-5.6c-0.1-2.9-2.4-5.1-5.7-5.1C434.2,61.2,423.5,61.3,412.9,61.3z
	 M412.5,99.3c6.9,0,13.9,0,20.7,0c3.6,0,7.3,0,10.9,0c4,0,6.5-2.2,6.5-5.5s-2.6-5.2-6.7-5.3c-0.1,0-0.2,0-0.2,0
	c-20.8,0-41.7,0-62.5,0c-0.7,0-1.4,0-2.1,0.1c-2.7,0.4-4.7,2.7-4.6,5.3c0,2.6,2,4.9,4.7,5.2c0.9,0.1,1.7,0.1,2.6,0.1
	C392.1,99.3,402.4,99.3,412.5,99.3z M412.5,126.6c7.2,0,14.4,0,21.6,0c3.9,0,7.9,0.1,11.7-0.1c2.7-0.1,4.8-2.4,4.9-5
	c0.1-2.3-1.5-4.6-4-5.3c-0.9-0.2-2-0.3-2.8-0.3c-20.8,0-41.7,0-62.5,0c-1.1,0-2.6-0.1-3.3,0.5c-1.4,1.2-3.1,2.8-3.2,4.4
	c-0.1,1.5,1.1,3.6,2.4,4.8c0.9,0.9,2.8,1,4.3,1C391.8,126.6,402.2,126.6,412.5,126.6z"/>
</svg>
