<?xml version="1.0" encoding="utf-8"?>
<!-- Generator: Adobe Illustrator 18.1.1, SVG Export Plug-In . SVG Version: 6.00 Build 0)  -->
<svg version="1.1" id="Layer_1" xmlns="http://www.w3.org/2000/svg" xmlns:xlink="http://www.w3.org/1999/xlink" x="0px" y="0px"
	 viewBox="0 0 360 127.3" enable-background="new 0 0 360 127.3" xml:space="preserve">
<linearGradient id="SVGID_1_" gradientUnits="userSpaceOnUse" x1="-5438.6924" y1="1932.7426" x2="-5434.1885" y2="2626.4456" gradientTransform="matrix(0.1333 0 0 0.1333 904.8 -241.8)">
	<stop  offset="2.150538e-002" style="stop-color:#7F0003"/>
	<stop  offset="0.5285" style="stop-color:#FF151B"/>
	<stop  offset="0.5872" style="stop-color:#FF002A"/>
	<stop  offset="0.6593" style="stop-color:#FF1549"/>
	<stop  offset="0.7384" style="stop-color:#FF2A30"/>
	<stop  offset="0.8226" style="stop-color:#FF2A42"/>
	<stop  offset="0.9108" style="stop-color:#FF5571"/>
	<stop  offset="1" style="stop-color:#FF555E"/>
</linearGradient>
<path fill="url(#SVGID_1_)" d="M23.2,75.7V50.2c0-19,15.4-34.3,34.3-34.3h244.7c19,0,34.3,15.4,34.3,34.3v25.5
	c0,19-15.4,34.3-34.3,34.3H57.6C38.6,110.1,23.2,94.7,23.2,75.7z"/>
<defs>
	<filter id="Adobe_OpacityMaskFilter" filterUnits="userSpaceOnUse" x="27" y="15.9" width="305.6" height="65.3">
		<feColorMatrix  type="matrix" values="1 0 0 0 0  0 1 0 0 0  0 0 1 0 0  0 0 0 1 0"/>
	</filter>
</defs>
<mask maskUnits="userSpaceOnUse" x="27" y="15.9" width="305.6" height="65.3" id="SVGID_2_">
	<g filter="url(#Adobe_OpacityMaskFilter)">
		
			<linearGradient id="SVGID_3_" gradientUnits="userSpaceOnUse" x1="-5437.5996" y1="1794.4207" x2="-5437.5996" y2="2395.1265" gradientTransform="matrix(0.1333 0 0 0.1333 904.8 -241.8)">
			<stop  offset="0.1743" style="stop-color:#FFFFFF"/>
			<stop  offset="0.2767" style="stop-color:#BEBEBE"/>
			<stop  offset="0.3792" style="stop-color:#858585"/>
			<stop  offset="0.4787" style="stop-color:#555555"/>
			<stop  offset="0.5726" style="stop-color:#303030"/>
			<stop  offset="0.6594" style="stop-color:#161616"/>
			<stop  offset="0.7368" style="stop-color:#060606"/>
			<stop  offset="0.7967" style="stop-color:#000000"/>
		</linearGradient>
		<path fill="url(#SVGID_3_)" d="M331.5,81.2L27.5,81L27,50c0-18.8,15.3-34.1,34.1-34.1h237.5c18.8,0,34.1,15.3,34.1,34.1
			L331.5,81.2z"/>
	</g>
</mask>
<path mask="url(#SVGID_2_)" fill="#FFFFFF" d="M331.5,81.2L27.5,81L27,50c0-18.8,15.3-34.1,34.1-34.1h237.5
	c18.8,0,34.1,15.3,34.1,34.1L331.5,81.2z"/>
<linearGradient id="SVGID_4_" gradientUnits="userSpaceOnUse" x1="-5438.5371" y1="1895.0684" x2="-5433.5527" y2="2662.782" gradientTransform="matrix(0.1333 0 0 0.1333 904.8 -241.8)">
	<stop  offset="0" style="stop-color:#898B8D"/>
	<stop  offset="0.2765" style="stop-color:#FCFCFC"/>
	<stop  offset="0.5503" style="stop-color:#515153"/>
	<stop  offset="0.7793" style="stop-color:#FCFCFC"/>
	<stop  offset="0.7931" style="stop-color:#EAEBEB"/>
	<stop  offset="0.8201" style="stop-color:#CDCED0"/>
	<stop  offset="0.8434" style="stop-color:#BBBDC0"/>
	<stop  offset="0.8603" style="stop-color:#B5B7BA"/>
	<stop  offset="0.8732" style="stop-color:#BDBEC1"/>
	<stop  offset="0.9141" style="stop-color:#D0CFD2"/>
	<stop  offset="0.956" style="stop-color:#DBDADD"/>
	<stop  offset="1" style="stop-color:#DFDDE0"/>
</linearGradient>
<path fill="url(#SVGID_4_)" d="M303.3,10.8H56.7c-21.8,0-39.5,17.7-39.5,39.5v25.3c0,21.8,17.7,39.5,39.5,39.5h246.6
	c21.8,0,39.5-17.7,39.5-39.5V50.4C342.8,28.5,325.1,10.8,303.3,10.8z M335.2,73.2c0,20.2-16.4,36.6-36.6,36.6H61.4
	c-20.2,0-36.6-16.4-36.6-36.6V53.1c0-20.2,16.4-36.6,36.6-36.6h237.1c20.2,0,36.6,16.4,36.6,36.6L335.2,73.2L335.2,73.2z"/>
<g>
	
		<linearGradient id="SVGID_5_" gradientUnits="userSpaceOnUse" x1="-6179.7495" y1="1972.5964" x2="-6179.7495" y2="2594.1401" gradientTransform="matrix(0.1333 0 0 0.1333 904.8 -241.8)">
		<stop  offset="8.379891e-002" style="stop-color:#01002F"/>
		<stop  offset="0.364" style="stop-color:#051D57"/>
		<stop  offset="1" style="stop-color:#0F5EB0"/>
	</linearGradient>
	<ellipse fill="url(#SVGID_5_)" cx="80.8" cy="63" rx="41.4" ry="41.3"/>
	
		<linearGradient id="SVGID_6_" gradientUnits="userSpaceOnUse" x1="-6491.4497" y1="2286.2" x2="-5868.0498" y2="2286.2" gradientTransform="matrix(0.1333 0 0 0.1333 904.8 -241.8)">
		<stop  offset="0" style="stop-color:#3290C5"/>
		<stop  offset="1" style="stop-color:#0F5EB0"/>
	</linearGradient>
	<path fill="url(#SVGID_6_)" d="M80.8,104.5c-22.9,0-41.6-18.6-41.6-41.5s18.6-41.5,41.6-41.5s41.6,18.6,41.6,41.5
		S103.8,104.5,80.8,104.5z M80.8,21.9c-22.7,0-41.2,18.4-41.2,41.1s18.5,41.1,41.2,41.1S122,85.7,122,63S103.5,21.9,80.8,21.9z"/>
</g>
<radialGradient id="SVGID_7_" cx="-6178.1494" cy="2288.7" r="310.2539" gradientTransform="matrix(0.1333 0 0 0.1333 904.8 -241.8)" gradientUnits="userSpaceOnUse">
	<stop  offset="0.8408" style="stop-color:#000000"/>
	<stop  offset="0.855" style="stop-color:#191919"/>
	<stop  offset="0.9275" style="stop-color:#939393"/>
	<stop  offset="0.9773" style="stop-color:#E1E1E1"/>
	<stop  offset="1" style="stop-color:#FFFFFF"/>
</radialGradient>
<ellipse fill="url(#SVGID_7_)" cx="81" cy="63.4" rx="41.6" ry="41.2"/>
<ellipse cx="80.8" cy="63.8" rx="36.6" ry="36.2"/>
<linearGradient id="SVGID_8_" gradientUnits="userSpaceOnUse" x1="-6180.3496" y1="2021.3756" x2="-6180.3496" y2="2558.1042" gradientTransform="matrix(0.1333 0 0 0.1333 904.8 -241.8)">
	<stop  offset="2.150538e-002" style="stop-color:#7F0003"/>
	<stop  offset="0.5285" style="stop-color:#FF151B"/>
	<stop  offset="0.5872" style="stop-color:#FF002A"/>
	<stop  offset="0.6593" style="stop-color:#FF1549"/>
	<stop  offset="0.7384" style="stop-color:#FF2A30"/>
	<stop  offset="0.8226" style="stop-color:#FF2A42"/>
	<stop  offset="0.9108" style="stop-color:#FF5571"/>
	<stop  offset="1" style="stop-color:#FF555E"/>
</linearGradient>
<ellipse fill="url(#SVGID_8_)" cx="80.8" cy="63.8" rx="36" ry="35.7"/>
<g>
	<path d="M171.6,66.4l7.6,2.4c-1.2,4.2-3.1,7.3-5.8,9.4c-2.7,2-6.1,3.1-10.3,3.1c-5.1,0-9.3-1.7-12.6-5.3c-3.3-3.5-4.9-8.3-4.9-14.4
		c0-6.4,1.7-11.4,5-15c3.3-3.6,7.7-5.3,13.1-5.3c4.7,0,8.6,1.4,11.5,4.2c1.8,1.7,3.1,4,3.9,7.1l-7.7,1.8c-0.5-2-1.4-3.6-2.9-4.7
		c-1.5-1.2-3.2-1.7-5.3-1.7c-2.9,0-5.2,1-7,3.1c-1.8,2.1-2.7,5.4-2.7,10c0,4.9,0.9,8.4,2.6,10.4s4,3.1,6.9,3.1c2.1,0,3.9-0.7,5.3-2
		C169.8,71.3,170.9,69.2,171.6,66.4z"/>
	<path d="M191.3,61.2l-6.7-1.2c0.8-2.7,2.1-4.7,3.9-6c1.8-1.3,4.6-1.9,8.2-1.9c3.3,0,5.8,0.4,7.4,1.2c1.6,0.8,2.7,1.8,3.4,3
		c0.7,1.2,1,3.4,1,6.6l-0.1,8.6c0,2.5,0.1,4.3,0.4,5.4s0.7,2.4,1.3,3.8h-7.3c-0.2-0.5-0.4-1.2-0.7-2.2c-0.1-0.4-0.2-0.7-0.3-0.9
		c-1.3,1.2-2.6,2.1-4.1,2.8c-1.4,0.6-3,0.9-4.6,0.9c-2.9,0-5.1-0.8-6.8-2.3c-1.7-1.6-2.5-3.5-2.5-5.9c0-1.6,0.4-3,1.1-4.2
		s1.8-2.2,3.2-2.8c1.4-0.7,3.3-1.2,5.9-1.7c3.5-0.7,5.9-1.3,7.2-1.8v-0.7c0-1.4-0.3-2.4-1.1-3c-0.7-0.6-2-0.9-4-0.9
		c-1.3,0-2.3,0.3-3.1,0.8C192.3,59,191.7,59.9,191.3,61.2z M201.2,67.2c-0.9,0.3-2.5,0.7-4.5,1.1c-2.1,0.4-3.4,0.9-4,1.3
		c-1,0.7-1.5,1.6-1.5,2.6c0,1,0.4,1.9,1.2,2.7c0.8,0.8,1.8,1.1,2.9,1.1c1.3,0,2.6-0.4,3.8-1.3c0.9-0.7,1.5-1.5,1.8-2.5
		c0.2-0.6,0.3-1.8,0.3-3.6L201.2,67.2L201.2,67.2z"/>
	<path d="M241.2,80.6h-7.4V66.3c0-3-0.2-5-0.5-5.9c-0.3-0.9-0.8-1.6-1.5-2.1c-0.7-0.5-1.6-0.7-2.6-0.7c-1.3,0-2.4,0.3-3.5,1.1
		c-1,0.7-1.7,1.6-2.1,2.8c-0.4,1.2-0.6,3.3-0.6,6.4v12.7h-7.4v-28h6.9v4.1c2.4-3.2,5.5-4.7,9.2-4.7c1.6,0,3.1,0.3,4.5,0.9
		c1.3,0.6,2.4,1.3,3.1,2.3s1.2,1.9,1.5,3.1c0.3,1.2,0.4,2.8,0.4,5L241.2,80.6L241.2,80.6z"/>
	<path d="M273.1,60.9l-7.3,1.3c-0.2-1.5-0.8-2.6-1.7-3.3s-2-1.1-3.4-1.1c-1.8,0-3.3,0.6-4.4,1.9c-1.1,1.3-1.6,3.4-1.6,6.4
		c0,3.3,0.6,5.7,1.7,7c1.1,1.4,2.6,2.1,4.5,2.1c1.4,0,2.6-0.4,3.5-1.2c0.9-0.8,1.5-2.2,1.9-4.1l7.3,1.2c-0.8,3.3-2.2,5.9-4.3,7.6
		c-2.1,1.7-5,2.6-8.6,2.6c-4.1,0-7.4-1.3-9.8-3.9c-2.4-2.6-3.7-6.2-3.7-10.7c0-4.6,1.2-8.2,3.7-10.8c2.4-2.6,5.7-3.9,9.9-3.9
		c3.4,0,6.1,0.7,8.1,2.2C270.8,55.7,272.2,57.9,273.1,60.9z"/>
	<path d="M294.9,71.7l7.4,1.2c-0.9,2.7-2.4,4.8-4.5,6.2c-2,1.4-4.6,2.1-7.7,2.1c-4.9,0-8.5-1.6-10.8-4.8c-1.8-2.5-2.8-5.8-2.8-9.6
		c0-4.6,1.2-8.3,3.6-10.9s5.5-3.9,9.2-3.9c4.2,0,7.4,1.4,9.9,4.1c2.4,2.7,3.6,7,3.5,12.6h-18.5c0.1,2.2,0.7,3.9,1.8,5.1
		c1.1,1.2,2.6,1.8,4.3,1.8c1.2,0,2.1-0.3,2.9-0.9C293.9,74.1,294.5,73.1,294.9,71.7z M295.4,64.2c-0.1-2.1-0.6-3.8-1.7-4.9
		c-1.1-1.1-2.3-1.7-3.8-1.7c-1.6,0-2.9,0.6-4,1.8c-1.1,1.2-1.6,2.8-1.6,4.8H295.4z"/>
	<path d="M308.7,80.6V42h7.4v38.6H308.7z"/>
</g>
<g>
	<path fill="#FFFFFF" d="M174.9,66.5l7.6,2.4c-1.2,4.2-3.1,7.3-5.8,9.4c-2.7,2-6.1,3.1-10.3,3.1c-5.1,0-9.3-1.7-12.6-5.3
		c-3.3-3.5-4.9-8.3-4.9-14.4c0-6.4,1.7-11.4,5-15c3.3-3.6,7.7-5.3,13.1-5.3c4.7,0,8.6,1.4,11.5,4.2c1.8,1.7,3.1,4,3.9,7.1l-7.7,1.8
		c-0.5-2-1.4-3.6-2.9-4.7c-1.5-1.2-3.2-1.7-5.3-1.7c-2.9,0-5.2,1-7,3.1c-1.8,2.1-2.7,5.4-2.7,10c0,4.9,0.9,8.4,2.6,10.4
		c1.8,2.1,4,3.1,6.9,3.1c2.1,0,3.9-0.7,5.3-2C173.2,71.4,174.2,69.4,174.9,66.5z"/>
	<path fill="#FFFFFF" d="M194.6,61.3l-6.7-1.2c0.8-2.7,2.1-4.7,3.9-6c1.8-1.3,4.6-1.9,8.2-1.9c3.3,0,5.8,0.4,7.4,1.2s2.7,1.8,3.4,3
		c0.7,1.2,1,3.4,1,6.6l-0.1,8.6c0,2.5,0.1,4.3,0.4,5.4s0.7,2.4,1.3,3.8h-7.3c-0.2-0.5-0.4-1.2-0.7-2.2c-0.1-0.4-0.2-0.7-0.3-0.9
		c-1.3,1.2-2.6,2.1-4.1,2.8c-1.4,0.6-3,0.9-4.6,0.9c-2.9,0-5.1-0.8-6.8-2.3c-1.7-1.6-2.5-3.5-2.5-5.9c0-1.6,0.4-3,1.1-4.2
		c0.8-1.2,1.8-2.2,3.2-2.8c1.4-0.7,3.3-1.2,5.9-1.7c3.5-0.7,5.9-1.3,7.2-1.8v-0.7c0-1.4-0.3-2.4-1.1-3c-0.7-0.6-2-0.9-4-0.9
		c-1.3,0-2.3,0.3-3.1,0.8C195.7,59.1,195.1,60,194.6,61.3z M204.5,67.3c-0.9,0.3-2.5,0.7-4.5,1.1c-2.1,0.4-3.4,0.9-4,1.3
		c-1,0.7-1.5,1.6-1.5,2.6c0,1,0.4,1.9,1.2,2.7c0.8,0.8,1.8,1.1,2.9,1.1c1.3,0,2.6-0.4,3.8-1.3c0.9-0.7,1.5-1.5,1.8-2.5
		c0.2-0.6,0.3-1.8,0.3-3.6L204.5,67.3L204.5,67.3z"/>
	<path fill="#FFFFFF" d="M244.5,80.7h-7.4V66.5c0-3-0.2-5-0.5-5.9c-0.3-0.9-0.8-1.6-1.5-2.1c-0.7-0.5-1.6-0.7-2.6-0.7
		c-1.3,0-2.4,0.3-3.5,1.1c-1,0.7-1.7,1.6-2.1,2.8c-0.4,1.2-0.6,3.3-0.6,6.4v12.7H219v-28h6.9v4.1c2.4-3.2,5.5-4.7,9.2-4.7
		c1.6,0,3.1,0.3,4.5,0.9c1.3,0.6,2.4,1.3,3.1,2.3c0.7,0.9,1.2,1.9,1.5,3.1c0.3,1.2,0.4,2.8,0.4,5L244.5,80.7L244.5,80.7z"/>
	<path fill="#FFFFFF" d="M276.4,61l-7.3,1.3c-0.2-1.5-0.8-2.6-1.7-3.3c-0.9-0.7-2-1.1-3.4-1.1c-1.8,0-3.3,0.6-4.4,1.9
		c-1.1,1.3-1.6,3.4-1.6,6.4c0,3.3,0.6,5.7,1.7,7c1.1,1.4,2.6,2.1,4.5,2.1c1.4,0,2.6-0.4,3.5-1.2c0.9-0.8,1.5-2.2,1.9-4.1l7.3,1.2
		c-0.8,3.3-2.2,5.9-4.3,7.6c-2.1,1.7-5,2.6-8.6,2.6c-4.1,0-7.4-1.3-9.8-3.9c-2.4-2.6-3.7-6.2-3.7-10.7c0-4.6,1.2-8.2,3.7-10.8
		c2.4-2.6,5.7-3.9,9.9-3.9c3.4,0,6.1,0.7,8.1,2.2C274.1,55.8,275.6,58,276.4,61z"/>
	<path fill="#FFFFFF" d="M298.3,71.8l7.4,1.2c-0.9,2.7-2.4,4.8-4.5,6.2c-2,1.4-4.6,2.1-7.7,2.1c-4.9,0-8.5-1.6-10.8-4.8
		c-1.8-2.5-2.8-5.8-2.8-9.6c0-4.6,1.2-8.3,3.6-10.9s5.5-3.9,9.2-3.9c4.2,0,7.4,1.4,9.9,4.1c2.4,2.7,3.6,7,3.5,12.6h-18.5
		c0.1,2.2,0.7,3.9,1.8,5.1c1.1,1.2,2.6,1.8,4.3,1.8c1.2,0,2.1-0.3,2.9-0.9C297.3,74.3,297.9,73.2,298.3,71.8z M298.7,64.4
		c-0.1-2.1-0.6-3.8-1.7-4.9s-2.3-1.7-3.8-1.7c-1.6,0-2.9,0.6-4,1.8c-1.1,1.2-1.6,2.8-1.6,4.8H298.7z"/>
	<path fill="#FFFFFF" d="M312.1,80.7V42.1h7.4v38.6H312.1z"/>
</g>
<g>
	<path fill="#FFFFFF" d="M57.9,81.4l16.8-17.6L59.5,47.6h11.6L81,58.5l9.7-10.9h11.5L86.8,64l16.8,17.4h-12L80.8,69.7L69.8,81.4
		H57.9z"/>
</g>
</svg>
