<?xml version="1.0" encoding="utf-8"?>
<!-- Generator: Adobe Illustrator 19.0.0, SVG Export Plug-In . SVG Version: 6.00 Build 0)  -->
<svg version="1.1" id="Layer_1" xmlns="http://www.w3.org/2000/svg" xmlns:xlink="http://www.w3.org/1999/xlink" x="0px" y="0px"
	 viewBox="1044 -441 2700 1890" enable-background="new 1044 -441 2700 1890" xml:space="preserve">
<linearGradient id="SVGID_1_" gradientUnits="userSpaceOnUse" x1="2399.957" y1="1164.7573" x2="2404.4612" y2="471.0544" gradientTransform="matrix(1 0 0 -1 0 1008)">
	<stop  offset="2.150538e-002" style="stop-color:#7F0003"/>
	<stop  offset="0.5285" style="stop-color:#FF151B"/>
	<stop  offset="0.5872" style="stop-color:#FF002A"/>
	<stop  offset="0.6593" style="stop-color:#FF1549"/>
	<stop  offset="0.7384" style="stop-color:#FF2A30"/>
	<stop  offset="0.8226" style="stop-color:#FF2A42"/>
	<stop  offset="0.9108" style="stop-color:#FF5571"/>
	<stop  offset="1" style="stop-color:#FF555E"/>
</linearGradient>
<path fill="url(#SVGID_1_)" d="M1227,292V100.8c0-142.2,115.3-257.5,257.5-257.5H3320c142.2,0,257.5,115.3,257.5,257.5V292
	c0,142.2-115.3,257.5-257.5,257.5H1484.5C1342.2,549.5,1227,434.2,1227,292z"/>
<defs>
	<filter id="Adobe_OpacityMaskFilter" filterUnits="userSpaceOnUse" x="1255.1" y="-156.7" width="2291.9" height="489.8">
		<feColorMatrix  type="matrix" values="1 0 0 0 0  0 1 0 0 0  0 0 1 0 0  0 0 0 1 0"/>
	</filter>
</defs>
<mask maskUnits="userSpaceOnUse" x="1255.1" y="-156.7" width="2291.9" height="489.8" id="SVGID_2_">
	<g filter="url(#Adobe_OpacityMaskFilter)">
		
			<linearGradient id="SVGID_3_" gradientUnits="userSpaceOnUse" x1="2401" y1="1303.0792" x2="2401" y2="702.3735" gradientTransform="matrix(1 0 0 -1 0 1008)">
			<stop  offset="0.1743" style="stop-color:#FFFFFF"/>
			<stop  offset="0.2767" style="stop-color:#BEBEBE"/>
			<stop  offset="0.3792" style="stop-color:#858585"/>
			<stop  offset="0.4787" style="stop-color:#555555"/>
			<stop  offset="0.5726" style="stop-color:#303030"/>
			<stop  offset="0.6594" style="stop-color:#161616"/>
			<stop  offset="0.7368" style="stop-color:#060606"/>
			<stop  offset="0.7967" style="stop-color:#000000"/>
		</linearGradient>
		<path fill="url(#SVGID_3_)" d="M3538.9,333.1l-2280.1-1.7l-3.7-232.6c0-141.1,114.4-255.5,255.5-255.5h1780.9
			c141.1,0,255.5,114.4,255.5,255.5L3538.9,333.1z"/>
	</g>
</mask>
<path mask="url(#SVGID_2_)" fill="#FFFFFF" d="M3538.9,333.1l-2280.1-1.7l-3.7-232.6c0-141.1,114.4-255.5,255.5-255.5h1780.9
	c141.1,0,255.5,114.4,255.5,255.5L3538.9,333.1z"/>
<linearGradient id="SVGID_4_" gradientUnits="userSpaceOnUse" x1="2400.1125" y1="1202.4315" x2="2405.0969" y2="434.7179" gradientTransform="matrix(1 0 0 -1 0 1008)">
	<stop  offset="0" style="stop-color:#898B8D"/>
	<stop  offset="0.2765" style="stop-color:#FCFCFC"/>
	<stop  offset="0.5503" style="stop-color:#515153"/>
	<stop  offset="0.7793" style="stop-color:#FCFCFC"/>
	<stop  offset="0.7931" style="stop-color:#EAEBEB"/>
	<stop  offset="0.8201" style="stop-color:#CDCED0"/>
	<stop  offset="0.8434" style="stop-color:#BBBDC0"/>
	<stop  offset="0.8603" style="stop-color:#B5B7BA"/>
	<stop  offset="0.8732" style="stop-color:#BDBEC1"/>
	<stop  offset="0.9141" style="stop-color:#D0CFD2"/>
	<stop  offset="0.956" style="stop-color:#DBDADD"/>
	<stop  offset="1" style="stop-color:#DFDDE0"/>
</linearGradient>
<path fill="url(#SVGID_4_)" d="M3327.4-194.9H1477.9c-163.8,0-296.6,132.8-296.6,296.6v189.4c0,163.8,132.8,296.6,296.6,296.6
	h1849.5c163.8,0,296.6-132.8,296.6-296.6V101.7C3624-62.1,3491.2-194.9,3327.4-194.9z M3566.6,273.1c0,151.7-123,274.8-274.8,274.8
	H1513.4c-151.8,0-274.8-123-274.8-274.8V122.3c0-151.8,123-274.8,274.8-274.8h1778.4c151.8,0,274.8,123,274.8,274.8V273.1z"/>
<g>
	
		<linearGradient id="SVGID_5_" gradientUnits="userSpaceOnUse" x1="1658.9" y1="1124.9034" x2="1658.9" y2="503.3598" gradientTransform="matrix(1 0 0 -1 0 1008)">
		<stop  offset="8.379891e-002" style="stop-color:#01002F"/>
		<stop  offset="0.364" style="stop-color:#051D57"/>
		<stop  offset="1" style="stop-color:#0F5EB0"/>
	</linearGradient>
	<ellipse fill="url(#SVGID_5_)" cx="1658.9" cy="196.7" rx="310.2" ry="309.7"/>
	
		<linearGradient id="SVGID_6_" gradientUnits="userSpaceOnUse" x1="1347.2" y1="811.3" x2="1970.6001" y2="811.3" gradientTransform="matrix(1 0 0 -1 0 1008)">
		<stop  offset="0" style="stop-color:#3290C5"/>
		<stop  offset="1" style="stop-color:#0F5EB0"/>
	</linearGradient>
	<path fill="url(#SVGID_6_)" d="M1658.9,507.9c-171.9,0-311.7-139.6-311.7-311.2s139.8-311.2,311.7-311.2s311.7,139.6,311.7,311.2
		S1830.8,507.9,1658.9,507.9z M1658.9-111.6c-170.2,0-308.7,138.3-308.7,308.3S1488.7,505,1658.9,505s308.7-138.3,308.7-308.3
		S1829.1-111.6,1658.9-111.6z"/>
</g>
<radialGradient id="SVGID_7_" cx="1660.5" cy="808.8" r="310.2539" gradientTransform="matrix(1 0 0 -1 0 1008)" gradientUnits="userSpaceOnUse">
	<stop  offset="0.8408" style="stop-color:#000000"/>
	<stop  offset="0.855" style="stop-color:#191919"/>
	<stop  offset="0.9275" style="stop-color:#939393"/>
	<stop  offset="0.9773" style="stop-color:#E1E1E1"/>
	<stop  offset="1" style="stop-color:#FFFFFF"/>
</radialGradient>
<ellipse fill="url(#SVGID_7_)" cx="1660.5" cy="199.2" rx="311.8" ry="308.7"/>
<ellipse cx="1658.3" cy="202.7" rx="274.5" ry="271.7"/>
<linearGradient id="SVGID_8_" gradientUnits="userSpaceOnUse" x1="1658.2999" y1="1076.1243" x2="1658.3" y2="539.3955" gradientTransform="matrix(1 0 0 -1 0 1008)">
	<stop  offset="2.150538e-002" style="stop-color:#7F0003"/>
	<stop  offset="0.5285" style="stop-color:#FF151B"/>
	<stop  offset="0.5872" style="stop-color:#FF002A"/>
	<stop  offset="0.6593" style="stop-color:#FF1549"/>
	<stop  offset="0.7384" style="stop-color:#FF2A30"/>
	<stop  offset="0.8226" style="stop-color:#FF2A42"/>
	<stop  offset="0.9108" style="stop-color:#FF5571"/>
	<stop  offset="1" style="stop-color:#FF555E"/>
</linearGradient>
<ellipse fill="url(#SVGID_8_)" cx="1658.3" cy="202.7" rx="270.2" ry="267.5"/>
<g>
	<path d="M2339.3,222.1l56.7,18c-8.7,31.6-23.2,55.1-43.4,70.4c-20.2,15.3-45.9,23-77,23c-38.5,0-70.1-13.1-94.8-39.4
		c-24.8-26.3-37.1-62.2-37.1-107.8c0-48.2,12.4-85.7,37.3-112.3c24.9-26.7,57.6-40,98.2-40c35.4,0,64.2,10.5,86.3,31.4
		c13.2,12.4,23,30.2,29.6,53.3l-57.9,13.8c-3.4-15-10.6-26.9-21.4-35.6c-10.9-8.7-24.1-13-39.6-13c-21.5,0-38.9,7.7-52.3,23.1
		c-13.4,15.4-20.1,40.4-20.1,74.9c0,36.6,6.6,62.7,19.8,78.2c13.2,15.5,30.3,23.3,51.4,23.3c15.5,0,28.9-4.9,40.1-14.8
		C2326.4,258.8,2334.4,243.3,2339.3,222.1z"/>
	<path d="M2487.3,182.8l-50.4-9.1c5.7-20.3,15.4-35.3,29.2-45c13.8-9.7,34.4-14.6,61.6-14.6c24.8,0,43.2,2.9,55.3,8.8
		c12.1,5.9,20.6,13.3,25.6,22.3c4.9,9,7.4,25.6,7.4,49.7l-0.6,64.8c0,18.4,0.9,32,2.7,40.8c1.8,8.8,5.1,18.1,10,28.2h-54.9
		c-1.5-3.7-3.2-9.2-5.3-16.4c-0.9-3.3-1.6-5.5-2-6.5c-9.5,9.2-19.6,16.1-30.4,20.7c-10.8,4.6-22.3,6.9-34.6,6.9
		c-21.6,0-38.6-5.9-51.1-17.6c-12.4-11.7-18.7-26.5-18.7-44.5c0-11.9,2.8-22.4,8.5-31.7c5.7-9.3,13.6-16.4,23.8-21.3
		c10.2-4.9,24.9-9.3,44.2-12.9c25.9-4.9,43.9-9.4,53.9-13.6v-5.5c0-10.7-2.6-18.3-7.9-22.8c-5.3-4.5-15.2-6.8-29.8-6.8
		c-9.9,0-17.6,1.9-23.1,5.8C2495.2,166.2,2490.7,173,2487.3,182.8z M2561.6,227.8c-7.1,2.4-18.4,5.2-33.8,8.5
		c-15.4,3.3-25.5,6.5-30.2,9.7c-7.2,5.1-10.9,11.7-10.9,19.6c0,7.8,2.9,14.5,8.7,20.2c5.8,5.7,13.2,8.5,22.1,8.5
		c10,0,19.6-3.3,28.6-9.9c6.7-5,11.1-11.1,13.2-18.4c1.4-4.7,2.2-13.8,2.2-27.1V227.8z"/>
	<path d="M2861.7,328.6h-55.5V221.5c0-22.7-1.2-37.3-3.6-44c-2.4-6.7-6.2-11.8-11.6-15.5c-5.3-3.7-11.8-5.5-19.3-5.5
		c-9.6,0-18.2,2.6-25.9,7.9c-7.6,5.3-12.9,12.3-15.7,20.9c-2.8,8.7-4.2,24.8-4.2,48.2v95h-55.5V118.7h51.6v30.8
		c18.3-23.7,41.4-35.6,69.2-35.6c12.3,0,23.4,2.2,33.6,6.6c10.1,4.4,17.8,10,23,16.9c5.2,6.9,8.8,14.6,10.9,23.3
		c2,8.7,3.1,21.1,3.1,37.3V328.6z"/>
	<path d="M3101,180.8l-54.7,9.9c-1.8-10.9-6-19.2-12.5-24.7c-6.5-5.5-15-8.3-25.4-8.3c-13.8,0-24.9,4.8-33.1,14.3
		c-8.2,9.6-12.3,25.5-12.3,47.9c0,24.9,4.2,42.5,12.5,52.8c8.4,10.3,19.6,15.4,33.7,15.4c10.5,0,19.2-3,25.9-9
		c6.7-6,11.5-16.3,14.2-30.9l54.5,9.3c-5.7,25-16.5,43.9-32.6,56.7c-16.1,12.8-37.6,19.2-64.6,19.2c-30.7,0-55.2-9.7-73.4-29
		c-18.2-19.4-27.4-46.2-27.4-80.4c0-34.6,9.2-61.6,27.5-80.9c18.3-19.3,43.1-28.9,74.3-28.9c25.6,0,45.9,5.5,61,16.5
		C3083.6,141.5,3094.4,158.3,3101,180.8z"/>
	<path d="M3264.6,261.8l55.3,9.3c-7.1,20.3-18.3,35.7-33.7,46.3c-15.3,10.6-34.5,15.9-57.6,15.9c-36.5,0-63.5-11.9-81-35.8
		c-13.8-19.1-20.7-43.2-20.7-72.3c0-34.8,9.1-62,27.3-81.7c18.2-19.7,41.2-29.5,69-29.5c31.2,0,55.8,10.3,73.9,30.9
		c18,20.6,26.7,52.2,25.9,94.7h-139.1c0.4,16.5,4.9,29.3,13.4,38.4c8.6,9.2,19.2,13.7,32,13.7c8.7,0,16-2.4,21.9-7.1
		C3257.1,280,3261.6,272.3,3264.6,261.8z M3267.8,205.7c-0.4-16.1-4.5-28.3-12.4-36.7c-7.9-8.4-17.5-12.5-28.8-12.5
		c-12.1,0-22.1,4.4-30,13.2c-7.9,8.8-11.8,20.8-11.7,36H3267.8z"/>
	<path d="M3368.1,328.6V38.9h55.5v289.7H3368.1z"/>
</g>
<g>
	<path fill="#FFFFFF" d="M2364.3,223.1l56.7,18c-8.7,31.6-23.2,55.1-43.4,70.4c-20.2,15.3-45.9,23-77,23
		c-38.5,0-70.1-13.1-94.8-39.4c-24.8-26.3-37.1-62.2-37.1-107.8c0-48.2,12.4-85.7,37.3-112.3c24.9-26.7,57.6-40,98.2-40
		c35.4,0,64.2,10.5,86.3,31.4c13.2,12.4,23,30.2,29.6,53.3l-57.9,13.8c-3.4-15-10.6-26.9-21.4-35.6c-10.9-8.7-24.1-13-39.6-13
		c-21.5,0-38.9,7.7-52.3,23.1c-13.4,15.4-20.1,40.4-20.1,74.9c0,36.6,6.6,62.7,19.8,78.2c13.2,15.5,30.3,23.3,51.4,23.3
		c15.5,0,28.9-4.9,40.1-14.8C2351.4,259.8,2359.4,244.3,2364.3,223.1z"/>
	<path fill="#FFFFFF" d="M2512.3,183.8l-50.4-9.1c5.7-20.3,15.4-35.3,29.2-45c13.8-9.7,34.4-14.6,61.6-14.6
		c24.8,0,43.2,2.9,55.3,8.8c12.1,5.9,20.6,13.3,25.6,22.3c4.9,9,7.4,25.6,7.4,49.7l-0.6,64.8c0,18.4,0.9,32,2.7,40.8
		c1.8,8.8,5.1,18.1,10,28.2h-54.9c-1.5-3.7-3.2-9.2-5.3-16.4c-0.9-3.3-1.6-5.5-2-6.5c-9.5,9.2-19.6,16.1-30.4,20.7
		c-10.8,4.6-22.3,6.9-34.6,6.9c-21.6,0-38.6-5.9-51.1-17.6c-12.4-11.7-18.7-26.5-18.7-44.5c0-11.9,2.8-22.4,8.5-31.7
		c5.7-9.3,13.6-16.4,23.8-21.3c10.2-4.9,24.9-9.3,44.2-12.9c25.9-4.9,43.9-9.4,53.9-13.6v-5.5c0-10.7-2.6-18.3-7.9-22.8
		c-5.3-4.5-15.2-6.8-29.8-6.8c-9.9,0-17.6,1.9-23.1,5.8C2520.2,167.2,2515.7,174,2512.3,183.8z M2586.6,228.8
		c-7.1,2.4-18.4,5.2-33.8,8.5c-15.4,3.3-25.5,6.5-30.2,9.7c-7.2,5.1-10.9,11.7-10.9,19.6c0,7.8,2.9,14.5,8.7,20.2
		c5.8,5.7,13.2,8.5,22.1,8.5c10,0,19.6-3.3,28.6-9.9c6.7-5,11.1-11.1,13.2-18.4c1.4-4.7,2.2-13.8,2.2-27.1V228.8z"/>
	<path fill="#FFFFFF" d="M2886.7,329.6h-55.5V222.5c0-22.7-1.2-37.3-3.6-44c-2.4-6.7-6.2-11.8-11.6-15.5c-5.3-3.7-11.8-5.5-19.3-5.5
		c-9.6,0-18.2,2.6-25.9,7.9c-7.6,5.3-12.9,12.3-15.7,20.9c-2.8,8.7-4.2,24.8-4.2,48.2v95h-55.5V119.7h51.6v30.8
		c18.3-23.7,41.4-35.6,69.2-35.6c12.3,0,23.4,2.2,33.6,6.6c10.1,4.4,17.8,10,23,16.9c5.2,6.9,8.8,14.6,10.9,23.3
		c2,8.7,3.1,21.1,3.1,37.3V329.6z"/>
	<path fill="#FFFFFF" d="M3126,181.8l-54.7,9.9c-1.8-10.9-6-19.2-12.5-24.7c-6.5-5.5-15-8.3-25.4-8.3c-13.8,0-24.9,4.8-33.1,14.3
		c-8.2,9.6-12.3,25.5-12.3,47.9c0,24.9,4.2,42.5,12.5,52.8c8.4,10.3,19.6,15.4,33.7,15.4c10.5,0,19.2-3,25.9-9
		c6.7-6,11.5-16.3,14.2-30.9l54.5,9.3c-5.7,25-16.5,43.9-32.6,56.7c-16.1,12.8-37.6,19.2-64.6,19.2c-30.7,0-55.2-9.7-73.4-29
		c-18.2-19.4-27.4-46.2-27.4-80.4c0-34.6,9.2-61.6,27.5-80.9c18.3-19.3,43.1-28.9,74.3-28.9c25.6,0,45.9,5.5,61,16.5
		C3108.6,142.5,3119.4,159.3,3126,181.8z"/>
	<path fill="#FFFFFF" d="M3289.6,262.8l55.3,9.3c-7.1,20.3-18.3,35.7-33.7,46.3c-15.3,10.6-34.5,15.9-57.6,15.9
		c-36.5,0-63.5-11.9-81-35.8c-13.8-19.1-20.7-43.2-20.7-72.3c0-34.8,9.1-62,27.3-81.7c18.2-19.7,41.2-29.5,69-29.5
		c31.2,0,55.8,10.3,73.9,30.9c18,20.6,26.7,52.2,25.9,94.7h-139.1c0.4,16.5,4.9,29.3,13.4,38.4c8.6,9.2,19.2,13.7,32,13.7
		c8.7,0,16-2.4,21.9-7.1C3282.1,281,3286.6,273.3,3289.6,262.8z M3292.8,206.7c-0.4-16.1-4.5-28.3-12.4-36.7
		c-7.9-8.4-17.5-12.5-28.8-12.5c-12.1,0-22.1,4.4-30,13.2c-7.9,8.8-11.8,20.8-11.7,36H3292.8z"/>
	<path fill="#FFFFFF" d="M3393.1,329.6V39.9h55.5v289.7H3393.1z"/>
</g>
<g>
	<path fill="#FFFFFF" d="M1487.2,334.5l125.9-132.2L1499,81.2h87l73.9,81.4l72.4-81.4h86.2l-114.6,123l125.9,130.3H1740l-81.7-87.6
		l-81.9,87.6H1487.2z"/>
</g>
</svg>
