<?xml version="1.0" encoding="utf-8"?>
<!-- Generator: Adobe Illustrator 23.0.3, SVG Export Plug-In . SVG Version: 6.00 Build 0)  -->
<svg version="1.1" id="Layer_1" xmlns="http://www.w3.org/2000/svg" xmlns:xlink="http://www.w3.org/1999/xlink" x="0px" y="0px"
	 viewBox="0 0 450 400" style="enable-background:new 0 0 450 400;" xml:space="preserve">
<style type="text/css">
	.st0{fill:#2465AF;}
	.st1{fill:none;stroke:#2465AF;stroke-width:7.9451;stroke-miterlimit:10;}
	.st2{fill:#FFFFFF;}
</style>
<ellipse class="st0" cx="224.7" cy="200.7" rx="178.8" ry="158.9"/>
<ellipse class="st1" cx="224.7" cy="200.7" rx="218.6" ry="194.4"/>
<path class="st2" d="M224.6,280.7c-31.2,0-62.5,0-93.7,0c-8.6,0-15.4-3.5-19.1-11.5c-1.4-3-2.1-6.6-2.1-9.9
	c-0.1-39.1-0.1-78.3-0.1-117.4c0-12.8,8.7-21.3,21.5-21.3c62.4,0,124.8,0,187.2,0c10.5,0,17.9,5.4,20.6,15.2
	c0.6,2.1,0.8,4.3,0.8,6.5c0,38.9,0,77.8,0,116.7c0,13.3-8.6,21.7-21.9,21.7C286.8,280.7,255.7,280.7,224.6,280.7z M139.8,245.4
	c26.7,0,53.1,0,79.7,0c-0.4-7.1-4-11.9-10-15c-5.1-2.6-10.5-4.6-15.7-7.2c-4.8-2.5-7.1-9.2-5.2-14.3c0.2-0.4,0.6-0.7,1-1
	c2.7-2.2,4.3-5,5.3-8.3c0.3-0.9,0.8-1.8,1.4-2.4c2.9-3,3.5-6.2,1.9-10.1c-0.4-1-0.4-2.3-0.3-3.4c0.4-4.1,1.2-8.2,1.2-12.3
	c0.1-5.3-2.5-9.3-6.3-10.2c-2.3-0.6-4-1.5-5.8-3c-8.2-6.3-23.1-1-25.8,9.2c-1.4,5.3-0.9,10.6,0.2,15.9c0.2,1.1,0.3,2.5-0.2,3.4
	c-1.8,3.8-1.3,7.5,1.6,10.5c0.5,0.5,0.9,1.3,1.3,2c1.5,2.6,2.7,5.4,4.7,7.6c1.5,1.7,2.3,3.2,2.1,5.3c-0.1,1.1-0.1,2.1,0,3.2
	c0.2,3-1.2,5.2-3.5,6.8c-1.3,0.9-2.8,1.7-4.2,2.4c-4.3,2-8.7,3.7-12.9,5.8C144.1,233.3,140.3,238.2,139.8,245.4z M274.9,170.8
	C274.9,170.8,274.9,170.8,274.9,170.8c-9.3,0-18.5,0-27.8,0c-0.9,0-1.8,0-2.7,0.1c-2.6,0.2-4.4,2.1-4.6,4.5c-0.2,2.3,1.3,4.4,3.8,5
	c0.9,0.2,1.9,0.3,2.9,0.3c8,0,16.1,0,24.1,0c10.7,0,21.3,0,32,0c0.7,0,1.5,0,2.2,0c2.9-0.3,5-2.6,4.9-5.1c-0.1-2.7-2.2-4.7-5.2-4.7
	C294.5,170.7,284.7,170.8,274.9,170.8z M274.6,205.6c6.3,0,12.7,0,19,0c3.3,0,6.7,0,10,0c3.7,0,6-2,6-5c0-3-2.4-4.8-6.1-4.9
	c-0.1,0-0.2,0-0.2,0c-19.1,0-38.2,0-57.3,0c-0.6,0-1.3,0-1.9,0.1c-2.5,0.4-4.3,2.5-4.2,4.9c0,2.4,1.8,4.5,4.3,4.8
	c0.8,0.1,1.6,0.1,2.4,0.1C255.9,205.6,265.3,205.6,274.6,205.6z M274.6,230.6c6.6,0,13.2,0,19.8,0c3.6,0,7.2,0.1,10.7-0.1
	c2.5-0.1,4.4-2.2,4.5-4.6c0.1-2.1-1.4-4.2-3.7-4.9c-0.8-0.2-1.8-0.3-2.6-0.3c-19.1,0-38.2,0-57.3,0c-1,0-2.4-0.1-3,0.5
	c-1.3,1.1-2.8,2.6-2.9,4c-0.1,1.4,1,3.3,2.2,4.4c0.8,0.8,2.6,0.9,3.9,0.9C255.6,230.6,265.1,230.6,274.6,230.6z"/>
</svg>
