<?xml version="1.0" encoding="utf-8"?>
<!-- Generator: Adobe Illustrator 18.1.1, SVG Export Plug-In . SVG Version: 6.00 Build 0)  -->
<svg version="1.1" id="Layer_1" xmlns="http://www.w3.org/2000/svg" xmlns:xlink="http://www.w3.org/1999/xlink" x="0px" y="0px"
	 viewBox="0 0 1291.4 274" enable-background="new 0 0 1291.4 274" xml:space="preserve">
<g>
	<defs>
		<rect id="SVGID_1_" x="0" width="1291.4" height="274"/>
	</defs>
	<clipPath id="SVGID_2_">
		<use xlink:href="#SVGID_1_"  overflow="visible"/>
	</clipPath>
	<rect x="48" y="-17.9" clip-path="url(#SVGID_2_)" fill="#ED2383" width="883.5" height="381"/>
	<polygon clip-path="url(#SVGID_2_)" fill="#60CAE3" points="141,-38.9 646.6,405.1 820.5,310.6 504.7,-88.4 	"/>
	<polygon clip-path="url(#SVGID_2_)" fill="#F58321" points="48,-17.9 130.5,289.6 57,363.1 -103.5,312.1 -46.5,-71.9 	"/>
	<polygon clip-path="url(#SVGID_2_)" fill="#DDA3CA" points="511.5,-10.4 802.5,421.6 894,330.1 849,-38.9 	"/>
	<polygon clip-path="url(#SVGID_2_)" fill="#23AA4A" points="706.5,-25.4 886.5,369.1 1025.9,324.1 955.5,-25.4 	"/>
	<polygon clip-path="url(#SVGID_2_)" fill="#F7D71B" points="915,-38.9 978,384.1 1336.4,345.1 1175.9,-17.9 	"/>
	<polygon clip-path="url(#SVGID_2_)" fill="#465DAA" points="1058.9,-56.9 1229.9,337.6 1529.9,298.6 1411.4,0 	"/>
	<rect x="277.4" clip-path="url(#SVGID_2_)" fill="none" width="1014" height="274"/>
	<path opacity="0.13" clip-path="url(#SVGID_2_)" fill="#FFFFFF" d="M432-6.7c0,0,637.5,408,834,9S432-6.7,432-6.7z"/>
	<polygon opacity="0.21" clip-path="url(#SVGID_2_)" fill="#FFFFFF" points="826.5,-85.4 518.8,334.6 375,-106.4 	"/>
	<rect x="277.4" clip-path="url(#SVGID_2_)" fill="none" width="1014" height="274"/>
</g>
<g>
	<path opacity="0.4" fill="#F7B818" d="M1058.7,27.1l-2.4,2l1.7,2.1c0,0,1.5,1.3,1.5,2c0.9,14.1-3.7,47-67.6,37.7l-2.4,2.1
		c0,0,30.1,47.1-22.6,62.9l-2.4,2c0,0,58.2,21.6,26.5,63.7c0,0,52.9-13.3,58.5,39.9c0,0,14-15.3,45.5-16.4
		c31.5-1.1,34.4,8.3,26.8,14.8s-13.3,17.5,2.7,17.5s37.8-6.6,40.5,0c2.7,6.6-7,27.5-7,27.5s18.9-23,16.7-33.9
		c-2.3-10.9-19.6-6.7-28.3-4.7c-8.7,2.1-7.2-2.4,2.1-9.8c9.3-7.4,13.4-15.6,5.3-14.4c-7.2,1-10.2-7.7,2.2-16.9
		c10.9-8.2,45.1-6.3,65.6-2c1.5,0.3,5,3.8,5,3.8l2.4-2c0,0-44.3-54.5,14-76.4c1.1-0.4,4.1-0.2,4.1-0.2l2.4-2c0,0-79.4-7.7-46.1-80.1
		c0,0-66.9,40.8-64.4-24.3l-2.4,2c0,0-0.3,1.7-0.6,2.1C1127.2,36.8,1099.9,62.5,1058.7,27.1z"/>
	<path fill="#FFFFFF" d="M1051.3,23.6l-2.4,2l1.7,2.1c0,0,1.5,1.3,1.5,2c0.9,14.1-3.7,47-67.6,37.7l-2.4,2.1
		c0,0,30.1,47.1-22.6,62.9l-2.4,2c0,0,58.2,21.6,26.5,63.7c0,0,52.9-13.3,58.5,39.9c0,0,14-15.3,45.5-16.4
		c31.5-1.1,34.4,8.3,26.8,14.8c-7.6,6.4-13.3,17.5,2.7,17.5s37.8-6.6,40.5,0c2.7,6.6-7,27.5-7,27.5s18.9-23,16.7-33.9
		c-2.3-10.9-19.6-6.7-28.3-4.7c-8.7,2.1-7.2-2.4,2.1-9.8c9.3-7.4,13.4-15.6,5.3-14.4c-7.2,1-10.2-7.7,2.2-16.9
		c10.9-8.2,45.1-6.3,65.6-2c1.5,0.3,5,3.8,5,3.8l2.4-2c0,0-44.3-54.5,14-76.4c1.1-0.4,4.1-0.2,4.1-0.2l2.4-2c0,0-79.4-7.7-46.1-80.1
		c0,0-66.9,40.8-64.4-24.3l-2.4,2c0,0-0.3,1.7-0.6,2.1C1119.8,33.4,1092.5,59.1,1051.3,23.6z"/>
	<path fill="none" stroke="#010101" stroke-width="3" stroke-linecap="round" stroke-linejoin="round" stroke-miterlimit="10" d="
		M1045.1,17.3l-2.4,2l1.7,2.1c0,0,1.5,1.3,1.5,2c0.9,14.1-3.7,47-67.6,37.7l-2.4,2.1c0,0,30.1,47.1-22.6,62.9l-2.4,2
		c0,0,58.2,21.6,26.5,63.7c0,0,52.9-13.3,58.5,39.9c0,0,14-15.3,45.5-16.4c31.5-1.1,34.4,8.3,26.8,14.8c-7.6,6.4-13.3,17.5,2.7,17.5
		s37.8-6.6,40.5,0c2.7,6.6-7,27.5-7,27.5s18.9-23,16.7-33.9c-2.3-10.9-19.6-6.7-28.3-4.7c-8.7,2.1-7.2-2.4,2.1-9.8
		c9.3-7.4,13.4-15.6,5.3-14.4c-7.2,1-7.9-8,4.4-17.3c10.9-8.2,42.8-5.9,63.4-1.6c1.5,0.3,5,3.8,5,3.8l2.4-2c0,0-44.3-54.5,14-76.4
		c1.1-0.4,4.1-0.2,4.1-0.2l2.4-2c0,0-79.4-7.7-46.1-80.1c0,0-66.9,40.8-64.4-24.3l-2.4,2c0,0-0.3,1.7-0.6,2.1
		C1113.6,27,1086.3,52.7,1045.1,17.3z"/>
	
		<line fill="none" stroke="#010101" stroke-width="3" stroke-linecap="round" stroke-linejoin="round" stroke-miterlimit="10" x1="1264.4" y1="179.3" x2="1231.5" y2="164.6"/>
	
		<line fill="none" stroke="#FFFFFF" stroke-width="3" stroke-linecap="round" stroke-linejoin="round" stroke-miterlimit="10" x1="968.4" y1="230.5" x2="995.9" y2="209.3"/>
	
		<line fill="none" stroke="#010101" stroke-width="3" stroke-linecap="round" stroke-linejoin="round" stroke-miterlimit="10" x1="995.9" y1="224.6" x2="1008.2" y2="215.1"/>
	<path fill="#FFFFFF" d="M1202.3,14.3c3.2,5.9-3.6,11.6-10.6,8.8c-1.3-0.5-2.5-1.5-3.2-2.7c-3.2-5.9,3.6-11.6,10.6-8.8
		C1200.4,12.1,1201.6,13.1,1202.3,14.3z"/>
	
		<path fill="#FFFFFF" stroke="#010101" stroke-width="3" stroke-linecap="round" stroke-linejoin="round" stroke-miterlimit="10" d="
		M1068.3,244.7c3.5,6.4-4,12.6-11.5,9.5c-1.4-0.6-2.6-1.6-3.3-2.9c-3.5-6.4,4-12.6,11.5-9.5C1066.4,242.4,1067.6,243.4,1068.3,244.7
		z"/>
	<path fill="none" stroke="#FFFFFF" stroke-width="3" stroke-linecap="round" stroke-linejoin="round" stroke-miterlimit="10" d="
		M1246.7,85.8c3.4,6.2-3.8,12.2-11.2,9.2c-1.3-0.6-2.5-1.5-3.2-2.8c-3.4-6.2,3.8-12.2,11.2-9.2C1244.9,83.6,1246,84.5,1246.7,85.8z"
		/>
	<g>
		
			<line fill="none" stroke="#FFFFFF" stroke-width="3" stroke-linecap="round" stroke-linejoin="round" stroke-miterlimit="10" x1="960.1" y1="97" x2="928" y2="81"/>
		
			<line fill="#FFFFFF" stroke="#010101" stroke-width="3" stroke-linecap="round" stroke-linejoin="round" stroke-miterlimit="10" x1="966.1" y1="87.2" x2="953.5" y2="73.9"/>
		
			<line fill="#FFFFFF" stroke="#010101" stroke-width="3" stroke-linecap="round" stroke-linejoin="round" stroke-miterlimit="10" x1="953.6" y1="104.5" x2="932.4" y2="104.6"/>
	</g>
	
		<polyline fill="none" stroke="#010101" stroke-width="3" stroke-linecap="round" stroke-linejoin="round" stroke-miterlimit="10" points="
		1212,63.1 1227.5,66.5 1231.5,53.6 1246.9,57 1250.9,44 	"/>
	
		<line fill="none" stroke="#FFFFFF" stroke-width="3" stroke-linecap="round" stroke-linejoin="round" stroke-miterlimit="10" x1="1232" y1="153.9" x2="1254.2" y2="153.9"/>
	
		<polygon fill="#FFFFFF" stroke="#010101" stroke-width="3" stroke-linecap="round" stroke-linejoin="round" stroke-miterlimit="10" points="
		940.3,183.7 957.6,172.5 940.5,165.2 	"/>
	
		<polygon fill="#FFFFFF" stroke="#010101" stroke-width="3" stroke-linecap="round" stroke-linejoin="round" stroke-miterlimit="10" points="
		1201.8,228.4 1193.1,212.9 1181.6,225.8 	"/>
	
		<polygon fill="#FFFFFF" stroke="#010101" stroke-width="3" stroke-linecap="round" stroke-linejoin="round" stroke-miterlimit="10" points="
		1012.2,32.9 1003.5,17.4 991.9,30.3 	"/>
	
		<line fill="none" stroke="#FFFFFF" stroke-width="3" stroke-linecap="round" stroke-linejoin="round" stroke-miterlimit="10" x1="1227.9" y1="172.6" x2="1235" y2="186"/>
	<path fill="none" stroke="#FFFFFF" stroke-width="3" stroke-linecap="round" stroke-linejoin="round" stroke-miterlimit="10" d="
		M1032.9,29.3c0,0,0,27.5-36.9,23.6"/>
	<path fill="none" stroke="#010101" stroke-width="3" stroke-linecap="round" stroke-linejoin="round" stroke-miterlimit="10" d="
		M946.7,141.6c0,0,15.5,0.4,21.8,15.7"/>
	
		<polygon fill="#FFFFFF" stroke="#010101" stroke-width="3" stroke-linecap="round" stroke-linejoin="round" stroke-miterlimit="10" points="
		1160.4,11.7 1150.4,20.1 1160.7,28.8 1170.8,20.2 	"/>
	
		<line fill="none" stroke="#010101" stroke-width="3" stroke-linecap="round" stroke-linejoin="round" stroke-miterlimit="10" x1="1087.9" y1="18.2" x2="1081.6" y2="-5"/>
	
		<line fill="none" stroke="#FFFFFF" stroke-width="3" stroke-linecap="round" stroke-linejoin="round" stroke-miterlimit="10" x1="1095.9" y1="15.5" x2="1100.3" y2="4.5"/>
	
		<line fill="none" stroke="#FFFFFF" stroke-width="3" stroke-linecap="round" stroke-linejoin="round" stroke-miterlimit="10" x1="1079" y1="18.2" x2="1068.2" y2="8.9"/>
</g>
<g>
	<g>
		<path d="M1004.5,105.9l-6.7-27.6h5.8l4.2,18.9l5.1-18.9h6.8l4.9,19.3l4.3-19.3h5.7l-6.8,27.6h-6l-5.6-20.6l-5.6,20.6H1004.5z"/>
		<path d="M1048.7,99.6l5.4,0.9c-0.7,1.9-1.8,3.4-3.3,4.4c-1.5,1-3.4,1.5-5.6,1.5c-3.5,0-6.2-1.1-7.9-3.4c-1.3-1.8-2-4.1-2-6.9
			c0-3.3,0.9-5.9,2.7-7.8c1.8-1.9,4-2.8,6.7-2.8c3,0,5.4,1,7.2,2.9c1.8,2,2.6,5,2.5,9h-13.5c0,1.6,0.5,2.8,1.3,3.7
			c0.8,0.9,1.9,1.3,3.1,1.3c0.8,0,1.6-0.2,2.1-0.7C1048,101.3,1048.4,100.6,1048.7,99.6z M1049,94.2c0-1.5-0.4-2.7-1.2-3.5
			c-0.8-0.8-1.7-1.2-2.8-1.2c-1.2,0-2.2,0.4-2.9,1.3c-0.8,0.8-1.1,2-1.1,3.4H1049z"/>
		<path d="M1058.8,105.9V78.3h5.4v27.6H1058.8z"/>
		<path d="M1087.5,91.8l-5.3,0.9c-0.2-1-0.6-1.8-1.2-2.4c-0.6-0.5-1.5-0.8-2.5-0.8c-1.3,0-2.4,0.5-3.2,1.4c-0.8,0.9-1.2,2.4-1.2,4.6
			c0,2.4,0.4,4,1.2,5c0.8,1,1.9,1.5,3.3,1.5c1,0,1.9-0.3,2.5-0.9c0.7-0.6,1.1-1.6,1.4-2.9l5.3,0.9c-0.6,2.4-1.6,4.2-3.2,5.4
			c-1.6,1.2-3.7,1.8-6.3,1.8c-3,0-5.4-0.9-7.1-2.8c-1.8-1.8-2.7-4.4-2.7-7.7c0-3.3,0.9-5.9,2.7-7.7c1.8-1.8,4.2-2.8,7.2-2.8
			c2.5,0,4.5,0.5,5.9,1.6C1085.8,88.1,1086.9,89.7,1087.5,91.8z"/>
		<path d="M1090.3,95.6c0-1.8,0.4-3.5,1.3-5.1c0.9-1.6,2.1-2.9,3.8-3.8c1.6-0.9,3.4-1.3,5.4-1.3c3.1,0,5.6,1,7.6,2.9
			c2,2,3,4.4,3,7.4c0,3-1,5.5-3,7.5c-2,2-4.5,3-7.5,3c-1.9,0-3.7-0.4-5.4-1.2s-3-2-3.9-3.6C1090.8,99.9,1090.3,97.9,1090.3,95.6z
			 M1095.9,95.9c0,2,0.5,3.5,1.4,4.6c1,1.1,2.1,1.6,3.6,1.6c1.4,0,2.6-0.5,3.5-1.6c1-1.1,1.4-2.6,1.4-4.6c0-2-0.5-3.5-1.4-4.5
			c-1-1.1-2.1-1.6-3.5-1.6c-1.4,0-2.6,0.5-3.6,1.6C1096.4,92.4,1095.9,93.9,1095.9,95.9z"/>
		<path d="M1115.2,85.9h5v2.7c1.8-2.1,3.9-3.2,6.4-3.2c1.3,0,2.4,0.3,3.4,0.8c1,0.5,1.7,1.3,2.4,2.4c0.9-1.1,1.9-1.9,2.9-2.4
			c1-0.5,2.1-0.8,3.3-0.8c1.5,0,2.8,0.3,3.8,0.9c1,0.6,1.8,1.5,2.3,2.6c0.4,0.9,0.6,2.2,0.6,4.1v12.8h-5.4V94.5c0-2-0.2-3.3-0.6-3.8
			c-0.5-0.8-1.3-1.1-2.3-1.1c-0.8,0-1.5,0.2-2.1,0.7s-1.1,1.1-1.4,2c-0.3,0.9-0.4,2.2-0.4,4.1v9.6h-5.4V95c0-1.9-0.1-3.2-0.3-3.8
			c-0.2-0.6-0.5-1-0.9-1.3c-0.4-0.3-1-0.4-1.6-0.4c-0.8,0-1.6,0.2-2.2,0.7c-0.7,0.4-1.1,1.1-1.4,1.9c-0.3,0.8-0.4,2.2-0.4,4.1v9.7
			h-5.4V85.9z"/>
		<path d="M1162.4,99.6l5.4,0.9c-0.7,1.9-1.8,3.4-3.3,4.4c-1.5,1-3.4,1.5-5.6,1.5c-3.5,0-6.2-1.1-7.9-3.4c-1.3-1.8-2-4.1-2-6.9
			c0-3.3,0.9-5.9,2.7-7.8c1.8-1.9,4-2.8,6.7-2.8c3,0,5.4,1,7.2,2.9c1.8,2,2.6,5,2.5,9h-13.5c0,1.6,0.5,2.8,1.3,3.7
			c0.8,0.9,1.9,1.3,3.1,1.3c0.8,0,1.6-0.2,2.1-0.7C1161.7,101.3,1162.1,100.6,1162.4,99.6z M1162.7,94.2c0-1.5-0.4-2.7-1.2-3.5
			c-0.8-0.8-1.7-1.2-2.8-1.2c-1.2,0-2.2,0.4-2.9,1.3c-0.8,0.8-1.1,2-1.1,3.4H1162.7z"/>
		<path d="M1172.4,100.6h5.4v3.8c0,1.5-0.1,2.7-0.4,3.6c-0.3,0.9-0.8,1.7-1.5,2.4c-0.7,0.7-1.7,1.3-2.9,1.7l-1.1-2.2
			c1.1-0.4,1.9-0.8,2.3-1.4c0.5-0.6,0.7-1.5,0.7-2.5h-2.6V100.6z"/>
	</g>
	<g>
		<path d="M998.2,134.2v-14.6h11.1v2.5h-8v3.2h7.5v2.5h-7.5v4h8.3v2.5H998.2z"/>
		<path d="M1010.7,134.2l3.9-5.4l-3.7-5.1h3.5l1.9,2.9l2-2.9h3.4l-3.7,5l4,5.6h-3.5l-2.2-3.3l-2.2,3.3H1010.7z"/>
		<path d="M1023.6,123.6h2.7v1.6c0.3-0.5,0.8-1,1.4-1.3c0.6-0.3,1.2-0.5,2-0.5c1.3,0,2.3,0.5,3.2,1.4c0.9,1,1.3,2.3,1.3,4
			c0,1.8-0.4,3.1-1.3,4.1c-0.9,1-1.9,1.5-3.2,1.5c-0.6,0-1.1-0.1-1.6-0.3c-0.5-0.2-1-0.6-1.5-1.2v5.3h-2.9V123.6z M1026.4,128.7
			c0,1.2,0.2,2.1,0.7,2.6c0.5,0.6,1.1,0.9,1.8,0.9c0.7,0,1.2-0.3,1.7-0.8c0.4-0.5,0.7-1.4,0.7-2.6c0-1.1-0.2-1.9-0.7-2.5
			c-0.5-0.5-1-0.8-1.7-0.8c-0.7,0-1.3,0.3-1.7,0.8C1026.6,126.9,1026.4,127.7,1026.4,128.7z"/>
		<path d="M1042.6,130.8l2.8,0.5c-0.4,1-0.9,1.8-1.7,2.3c-0.8,0.5-1.8,0.8-3,0.8c-1.9,0-3.3-0.6-4.2-1.8c-0.7-1-1.1-2.2-1.1-3.6
			c0-1.8,0.5-3.1,1.4-4.1c0.9-1,2.1-1.5,3.5-1.5c1.6,0,2.9,0.5,3.8,1.6c0.9,1,1.4,2.6,1.3,4.8h-7.2c0,0.8,0.3,1.5,0.7,1.9
			c0.4,0.5,1,0.7,1.6,0.7c0.4,0,0.8-0.1,1.1-0.4C1042.2,131.8,1042.5,131.4,1042.6,130.8z M1042.8,128c0-0.8-0.2-1.4-0.6-1.8
			c-0.4-0.4-0.9-0.6-1.5-0.6c-0.6,0-1.1,0.2-1.5,0.7c-0.4,0.4-0.6,1-0.6,1.8H1042.8z"/>
		<path d="M1050.7,134.2h-2.9v-10.6h2.7v1.5c0.5-0.7,0.9-1.2,1.2-1.4c0.4-0.2,0.8-0.3,1.2-0.3c0.7,0,1.3,0.2,1.9,0.5l-0.9,2.4
			c-0.5-0.3-0.9-0.5-1.3-0.5c-0.4,0-0.7,0.1-1,0.3c-0.3,0.2-0.5,0.6-0.7,1.2c-0.2,0.6-0.2,1.7-0.2,3.5V134.2z"/>
		<path d="M1056,122.2v-2.6h2.9v2.6H1056z M1056,134.2v-10.6h2.9v10.6H1056z"/>
		<path d="M1068.1,130.8l2.8,0.5c-0.4,1-0.9,1.8-1.7,2.3c-0.8,0.5-1.8,0.8-3,0.8c-1.9,0-3.3-0.6-4.2-1.8c-0.7-1-1.1-2.2-1.1-3.6
			c0-1.8,0.5-3.1,1.4-4.1c0.9-1,2.1-1.5,3.6-1.5c1.6,0,2.9,0.5,3.8,1.6c0.9,1,1.4,2.6,1.3,4.8h-7.2c0,0.8,0.3,1.5,0.7,1.9
			c0.4,0.5,1,0.7,1.6,0.7c0.4,0,0.8-0.1,1.1-0.4C1067.7,131.8,1067.9,131.4,1068.1,130.8z M1068.3,128c0-0.8-0.2-1.4-0.6-1.8
			c-0.4-0.4-0.9-0.6-1.5-0.6c-0.6,0-1.1,0.2-1.5,0.7c-0.4,0.4-0.6,1-0.6,1.8H1068.3z"/>
		<path d="M1083.2,134.2h-2.9v-5.4c0-1.1-0.1-1.9-0.2-2.2c-0.1-0.3-0.3-0.6-0.6-0.8c-0.3-0.2-0.6-0.3-1-0.3c-0.5,0-0.9,0.1-1.3,0.4
			c-0.4,0.3-0.7,0.6-0.8,1.1s-0.2,1.2-0.2,2.4v4.8h-2.9v-10.6h2.7v1.6c0.9-1.2,2.1-1.8,3.6-1.8c0.6,0,1.2,0.1,1.7,0.3
			c0.5,0.2,0.9,0.5,1.2,0.9c0.3,0.3,0.5,0.7,0.6,1.2c0.1,0.4,0.2,1.1,0.2,1.9V134.2z"/>
		<path d="M1095.6,126.8l-2.8,0.5c-0.1-0.6-0.3-1-0.6-1.2c-0.3-0.3-0.8-0.4-1.3-0.4c-0.7,0-1.3,0.2-1.7,0.7
			c-0.4,0.5-0.6,1.3-0.6,2.4c0,1.3,0.2,2.1,0.6,2.7c0.4,0.5,1,0.8,1.7,0.8c0.5,0,1-0.2,1.3-0.5c0.3-0.3,0.6-0.8,0.7-1.6l2.8,0.5
			c-0.3,1.3-0.9,2.2-1.7,2.9c-0.8,0.6-1.9,1-3.3,1c-1.6,0-2.8-0.5-3.8-1.5s-1.4-2.3-1.4-4.1c0-1.7,0.5-3.1,1.4-4.1
			c0.9-1,2.2-1.5,3.8-1.5c1.3,0,2.4,0.3,3.1,0.8C1094.7,124.8,1095.2,125.6,1095.6,126.8z"/>
		<path d="M1104,130.8l2.8,0.5c-0.4,1-0.9,1.8-1.7,2.3c-0.8,0.5-1.8,0.8-3,0.8c-1.9,0-3.3-0.6-4.2-1.8c-0.7-1-1.1-2.2-1.1-3.6
			c0-1.8,0.5-3.1,1.4-4.1c0.9-1,2.1-1.5,3.5-1.5c1.6,0,2.9,0.5,3.8,1.6c0.9,1,1.4,2.6,1.3,4.8h-7.2c0,0.8,0.3,1.5,0.7,1.9
			c0.4,0.5,1,0.7,1.6,0.7c0.4,0,0.8-0.1,1.1-0.4C1103.6,131.8,1103.8,131.4,1104,130.8z M1104.1,128c0-0.8-0.2-1.4-0.6-1.8
			c-0.4-0.4-0.9-0.6-1.5-0.6c-0.6,0-1.1,0.2-1.5,0.7c-0.4,0.4-0.6,1-0.6,1.8H1104.1z"/>
		<path d="M1121.4,130.8l2.8,0.5c-0.4,1-0.9,1.8-1.7,2.3c-0.8,0.5-1.8,0.8-3,0.8c-1.9,0-3.3-0.6-4.2-1.8c-0.7-1-1.1-2.2-1.1-3.6
			c0-1.8,0.5-3.1,1.4-4.1c0.9-1,2.1-1.5,3.5-1.5c1.6,0,2.9,0.5,3.8,1.6c0.9,1,1.4,2.6,1.3,4.8h-7.2c0,0.8,0.3,1.5,0.7,1.9
			c0.4,0.5,1,0.7,1.6,0.7c0.4,0,0.8-0.1,1.1-0.4C1121,131.8,1121.2,131.4,1121.4,130.8z M1121.5,128c0-0.8-0.2-1.4-0.6-1.8
			c-0.4-0.4-0.9-0.6-1.5-0.6c-0.6,0-1.1,0.2-1.5,0.7c-0.4,0.4-0.6,1-0.6,1.8H1121.5z"/>
		<path d="M1128.8,126.9l-2.6-0.5c0.3-1,0.8-1.8,1.5-2.3c0.7-0.5,1.8-0.7,3.2-0.7c1.3,0,2.2,0.1,2.8,0.4c0.6,0.3,1.1,0.7,1.3,1.1
			c0.3,0.5,0.4,1.3,0.4,2.5l0,3.3c0,0.9,0,1.6,0.1,2.1c0.1,0.4,0.3,0.9,0.5,1.4h-2.8c-0.1-0.2-0.2-0.5-0.3-0.8
			c0-0.2-0.1-0.3-0.1-0.3c-0.5,0.5-1,0.8-1.6,1c-0.6,0.2-1.2,0.3-1.8,0.3c-1.1,0-2-0.3-2.6-0.9c-0.6-0.6-1-1.3-1-2.2
			c0-0.6,0.1-1.1,0.4-1.6c0.3-0.5,0.7-0.8,1.2-1.1c0.5-0.2,1.3-0.5,2.3-0.7c1.3-0.2,2.3-0.5,2.8-0.7V127c0-0.5-0.1-0.9-0.4-1.2
			c-0.3-0.2-0.8-0.3-1.5-0.3c-0.5,0-0.9,0.1-1.2,0.3C1129.2,126,1129,126.4,1128.8,126.9z M1132.6,129.1c-0.4,0.1-0.9,0.3-1.7,0.4
			c-0.8,0.2-1.3,0.3-1.6,0.5c-0.4,0.3-0.6,0.6-0.6,1c0,0.4,0.1,0.7,0.4,1c0.3,0.3,0.7,0.4,1.1,0.4c0.5,0,1-0.2,1.5-0.5
			c0.3-0.3,0.6-0.6,0.7-0.9c0.1-0.2,0.1-0.7,0.1-1.4V129.1z"/>
		<path d="M1137.3,131.2l2.9-0.4c0.1,0.5,0.4,1,0.7,1.2c0.4,0.3,0.9,0.4,1.6,0.4c0.7,0,1.3-0.1,1.7-0.4c0.3-0.2,0.4-0.4,0.4-0.7
			c0-0.2-0.1-0.4-0.2-0.5c-0.1-0.1-0.5-0.3-1-0.4c-2.3-0.5-3.8-1-4.4-1.4c-0.9-0.6-1.3-1.4-1.3-2.4c0-0.9,0.4-1.7,1.1-2.3
			c0.7-0.6,1.9-0.9,3.4-0.9c1.5,0,2.6,0.2,3.3,0.7c0.7,0.5,1.2,1.2,1.5,2.1l-2.7,0.5c-0.1-0.4-0.3-0.7-0.7-0.9s-0.8-0.3-1.4-0.3
			c-0.8,0-1.3,0.1-1.6,0.3c-0.2,0.1-0.3,0.3-0.3,0.6c0,0.2,0.1,0.4,0.3,0.5c0.3,0.2,1.1,0.4,2.7,0.8c1.5,0.3,2.6,0.8,3.2,1.2
			c0.6,0.5,0.9,1.2,0.9,2.1c0,1-0.4,1.8-1.2,2.5c-0.8,0.7-2.1,1-3.7,1c-1.5,0-2.6-0.3-3.5-0.9S1137.5,132.2,1137.3,131.2z"/>
		<path d="M1156.1,130.8l2.8,0.5c-0.4,1-0.9,1.8-1.7,2.3c-0.8,0.5-1.8,0.8-3,0.8c-1.9,0-3.3-0.6-4.2-1.8c-0.7-1-1.1-2.2-1.1-3.6
			c0-1.8,0.5-3.1,1.4-4.1c0.9-1,2.1-1.5,3.6-1.5c1.6,0,2.9,0.5,3.8,1.6c0.9,1,1.4,2.6,1.3,4.8h-7.2c0,0.8,0.3,1.5,0.7,1.9
			c0.4,0.5,1,0.7,1.6,0.7c0.4,0,0.8-0.1,1.1-0.4C1155.7,131.8,1156,131.4,1156.1,130.8z M1156.3,128c0-0.8-0.2-1.4-0.6-1.8
			c-0.4-0.4-0.9-0.6-1.5-0.6c-0.6,0-1.1,0.2-1.5,0.7c-0.4,0.4-0.6,1-0.6,1.8H1156.3z"/>
		<path d="M1166.6,128.8c0-0.9,0.2-1.8,0.7-2.7c0.5-0.9,1.1-1.5,2-2c0.9-0.5,1.8-0.7,2.9-0.7c1.6,0,3,0.5,4,1.6c1,1,1.6,2.4,1.6,3.9
			c0,1.6-0.5,2.9-1.6,4c-1.1,1.1-2.4,1.6-4,1.6c-1,0-1.9-0.2-2.8-0.7c-0.9-0.4-1.6-1.1-2-1.9C1166.8,131,1166.6,130,1166.6,128.8z
			 M1169.5,128.9c0,1,0.3,1.9,0.8,2.4c0.5,0.6,1.1,0.8,1.9,0.8c0.7,0,1.4-0.3,1.9-0.8c0.5-0.6,0.8-1.4,0.8-2.4c0-1-0.3-1.8-0.8-2.4
			c-0.5-0.6-1.1-0.8-1.9-0.8c-0.7,0-1.4,0.3-1.9,0.8C1169.7,127.1,1169.5,127.9,1169.5,128.9z"/>
		<path d="M1178.7,123.6h1.6v-0.8c0-0.9,0.1-1.6,0.3-2c0.2-0.4,0.5-0.8,1.1-1.1c0.5-0.3,1.2-0.4,2-0.4c0.8,0,1.6,0.1,2.4,0.4l-0.4,2
			c-0.5-0.1-0.9-0.2-1.3-0.2c-0.4,0-0.7,0.1-0.9,0.3c-0.2,0.2-0.3,0.6-0.3,1.1v0.7h2.1v2.2h-2.1v8.4h-2.9v-8.4h-1.6V123.6z"/>
	</g>
	<path d="M1010.9,159.5h-2.6V158c-0.4,0.6-0.9,1.1-1.5,1.3c-0.6,0.3-1.2,0.4-1.8,0.4c-1.2,0-2.3-0.5-3.1-1.5c-0.9-1-1.3-2.3-1.3-4.1
		c0-1.8,0.4-3.2,1.3-4.1c0.8-0.9,1.9-1.4,3.2-1.4c1.2,0,2.2,0.5,3.1,1.5v-5.3h2.8V159.5z M1003.4,154c0,1.1,0.2,1.9,0.5,2.5
		c0.5,0.7,1.1,1.1,1.9,1.1c0.6,0,1.2-0.3,1.6-0.8c0.5-0.5,0.7-1.4,0.7-2.5c0-1.2-0.2-2.1-0.7-2.6c-0.4-0.5-1-0.8-1.7-0.8
		c-0.7,0-1.2,0.3-1.7,0.8C1003.6,152.2,1003.4,153,1003.4,154z"/>
	<path d="M1013,154.1c0-0.9,0.2-1.8,0.7-2.7c0.5-0.9,1.1-1.5,1.9-2c0.8-0.5,1.8-0.7,2.8-0.7c1.6,0,2.9,0.5,3.9,1.6
		c1,1,1.5,2.4,1.5,3.9c0,1.6-0.5,2.9-1.6,4c-1,1.1-2.3,1.6-3.9,1.6c-1,0-1.9-0.2-2.8-0.7s-1.6-1.1-2-1.9
		C1013.2,156.4,1013,155.3,1013,154.1z M1015.9,154.3c0,1,0.2,1.9,0.7,2.4c0.5,0.6,1.1,0.8,1.8,0.8c0.7,0,1.3-0.3,1.8-0.8
		c0.5-0.6,0.7-1.4,0.7-2.4c0-1-0.2-1.8-0.7-2.4c-0.5-0.6-1.1-0.8-1.8-0.8c-0.7,0-1.3,0.3-1.8,0.8
		C1016.1,152.4,1015.9,153.2,1015.9,154.3z"/>
	<path d="M1026.1,147.5v-2.6h2.8v2.6H1026.1z M1026.1,159.5V149h2.8v10.6H1026.1z"/>
	<path d="M1041.4,159.5h-2.8v-5.4c0-1.1-0.1-1.9-0.2-2.2c-0.1-0.3-0.3-0.6-0.6-0.8c-0.3-0.2-0.6-0.3-1-0.3c-0.5,0-0.9,0.1-1.3,0.4
		c-0.4,0.3-0.7,0.6-0.8,1.1c-0.1,0.4-0.2,1.2-0.2,2.4v4.8h-2.8V149h2.6v1.6c0.9-1.2,2.1-1.8,3.5-1.8c0.6,0,1.2,0.1,1.7,0.3
		c0.5,0.2,0.9,0.5,1.2,0.9c0.3,0.3,0.4,0.7,0.5,1.2c0.1,0.4,0.2,1.1,0.2,1.9V159.5z"/>
	<path d="M1044,160.2l3.2,0.4c0.1,0.4,0.2,0.6,0.4,0.8c0.3,0.2,0.7,0.3,1.3,0.3c0.7,0,1.3-0.1,1.6-0.3c0.2-0.1,0.4-0.4,0.6-0.7
		c0.1-0.2,0.1-0.7,0.1-1.3v-1.5c-0.8,1.1-1.9,1.7-3.2,1.7c-1.4,0-2.5-0.6-3.4-1.8c-0.7-0.9-1-2.1-1-3.5c0-1.8,0.4-3.1,1.3-4.1
		c0.9-0.9,1.9-1.4,3.2-1.4c1.3,0,2.4,0.6,3.2,1.7V149h2.6v9.5c0,1.2-0.1,2.2-0.3,2.8c-0.2,0.6-0.5,1.1-0.9,1.5
		c-0.4,0.4-0.9,0.6-1.5,0.8c-0.6,0.2-1.4,0.3-2.4,0.3c-1.8,0-3.1-0.3-3.8-0.9c-0.8-0.6-1.1-1.4-1.1-2.3
		C1044,160.5,1044,160.4,1044,160.2z M1046.5,154c0,1.1,0.2,1.9,0.7,2.5c0.4,0.5,1,0.8,1.6,0.8c0.7,0,1.3-0.3,1.7-0.8
		c0.5-0.5,0.7-1.3,0.7-2.4c0-1.1-0.2-1.9-0.7-2.4c-0.5-0.5-1-0.8-1.7-0.8c-0.7,0-1.2,0.3-1.7,0.8
		C1046.7,152.2,1046.5,153,1046.5,154z"/>
	<path d="M1062.3,159.5v-14.6h2.8v5.3c0.9-1,1.9-1.5,3.1-1.5c1.3,0,2.4,0.5,3.2,1.4c0.8,0.9,1.3,2.3,1.3,4c0,1.8-0.4,3.2-1.3,4.2
		c-0.9,1-1.9,1.5-3.1,1.5c-0.6,0-1.2-0.2-1.8-0.5s-1.1-0.7-1.5-1.3v1.6H1062.3z M1065.1,154c0,1.1,0.2,1.9,0.5,2.4
		c0.5,0.7,1.1,1.1,1.9,1.1c0.6,0,1.1-0.3,1.6-0.8c0.4-0.5,0.7-1.4,0.7-2.5c0-1.2-0.2-2.1-0.7-2.6c-0.4-0.5-1-0.8-1.7-0.8
		c-0.7,0-1.2,0.3-1.7,0.8C1065.3,152.2,1065.1,153,1065.1,154z"/>
	<path d="M1081.8,159.5V158c-0.4,0.6-0.9,1-1.5,1.3s-1.3,0.5-2,0.5c-0.7,0-1.3-0.2-1.9-0.5c-0.6-0.3-1-0.8-1.2-1.3
		c-0.3-0.6-0.4-1.3-0.4-2.3V149h2.8v4.9c0,1.5,0.1,2.4,0.2,2.7c0.1,0.3,0.3,0.6,0.6,0.8c0.3,0.2,0.6,0.3,1,0.3
		c0.5,0,0.9-0.1,1.3-0.4c0.4-0.3,0.6-0.6,0.8-1c0.1-0.4,0.2-1.3,0.2-2.9V149h2.8v10.6H1081.8z"/>
	<path d="M1086.4,156.5l2.8-0.4c0.1,0.5,0.4,1,0.7,1.2c0.4,0.3,0.9,0.4,1.5,0.4c0.7,0,1.3-0.1,1.6-0.4c0.2-0.2,0.4-0.4,0.4-0.7
		c0-0.2-0.1-0.4-0.2-0.5c-0.1-0.1-0.5-0.3-0.9-0.4c-2.3-0.5-3.7-1-4.3-1.4c-0.8-0.6-1.3-1.4-1.3-2.4c0-0.9,0.4-1.7,1.1-2.3
		c0.7-0.6,1.8-0.9,3.4-0.9c1.4,0,2.5,0.2,3.2,0.7c0.7,0.5,1.2,1.2,1.5,2.1l-2.6,0.5c-0.1-0.4-0.3-0.7-0.6-0.9
		c-0.3-0.2-0.8-0.3-1.4-0.3c-0.7,0-1.3,0.1-1.6,0.3c-0.2,0.1-0.3,0.3-0.3,0.6c0,0.2,0.1,0.4,0.3,0.5c0.3,0.2,1.1,0.4,2.6,0.8
		c1.5,0.3,2.5,0.8,3.1,1.2c0.6,0.5,0.9,1.2,0.9,2.1c0,1-0.4,1.8-1.2,2.5c-0.8,0.7-2,1-3.6,1c-1.4,0-2.6-0.3-3.4-0.9
		C1087.2,158.3,1086.6,157.5,1086.4,156.5z"/>
	<path d="M1098.7,147.5v-2.6h2.8v2.6H1098.7z M1098.7,159.5V149h2.8v10.6H1098.7z"/>
	<path d="M1114,159.5h-2.8v-5.4c0-1.1-0.1-1.9-0.2-2.2c-0.1-0.3-0.3-0.6-0.6-0.8c-0.3-0.2-0.6-0.3-1-0.3c-0.5,0-0.9,0.1-1.3,0.4
		c-0.4,0.3-0.7,0.6-0.8,1.1c-0.1,0.4-0.2,1.2-0.2,2.4v4.8h-2.8V149h2.6v1.6c0.9-1.2,2.1-1.8,3.5-1.8c0.6,0,1.2,0.1,1.7,0.3
		c0.5,0.2,0.9,0.5,1.2,0.9c0.3,0.3,0.4,0.7,0.5,1.2c0.1,0.4,0.2,1.1,0.2,1.9V159.5z"/>
	<path d="M1123,156.2l2.8,0.5c-0.4,1-0.9,1.8-1.7,2.3c-0.8,0.5-1.7,0.8-2.9,0.8c-1.8,0-3.2-0.6-4.1-1.8c-0.7-1-1-2.2-1-3.6
		c0-1.8,0.5-3.1,1.4-4.1s2.1-1.5,3.5-1.5c1.6,0,2.8,0.5,3.7,1.6c0.9,1,1.3,2.6,1.3,4.8h-7c0,0.8,0.2,1.5,0.7,1.9
		c0.4,0.5,1,0.7,1.6,0.7c0.4,0,0.8-0.1,1.1-0.4C1122.6,157.1,1122.8,156.7,1123,156.2z M1123.1,153.4c0-0.8-0.2-1.4-0.6-1.8
		c-0.4-0.4-0.9-0.6-1.5-0.6c-0.6,0-1.1,0.2-1.5,0.7c-0.4,0.4-0.6,1-0.6,1.8H1123.1z"/>
	<path d="M1127.2,156.5l2.8-0.4c0.1,0.5,0.4,1,0.7,1.2c0.4,0.3,0.9,0.4,1.5,0.4c0.7,0,1.3-0.1,1.6-0.4c0.2-0.2,0.4-0.4,0.4-0.7
		c0-0.2-0.1-0.4-0.2-0.5c-0.1-0.1-0.5-0.3-0.9-0.4c-2.3-0.5-3.7-1-4.3-1.4c-0.8-0.6-1.3-1.4-1.3-2.4c0-0.9,0.4-1.7,1.1-2.3
		c0.7-0.6,1.8-0.9,3.4-0.9c1.4,0,2.5,0.2,3.2,0.7c0.7,0.5,1.2,1.2,1.5,2.1l-2.6,0.5c-0.1-0.4-0.3-0.7-0.6-0.9
		c-0.3-0.2-0.8-0.3-1.4-0.3c-0.7,0-1.3,0.1-1.6,0.3c-0.2,0.1-0.3,0.3-0.3,0.6c0,0.2,0.1,0.4,0.3,0.5c0.3,0.2,1.1,0.4,2.6,0.8
		c1.5,0.3,2.5,0.8,3.1,1.2c0.6,0.5,0.9,1.2,0.9,2.1c0,1-0.4,1.8-1.2,2.5c-0.8,0.7-2,1-3.6,1c-1.4,0-2.6-0.3-3.4-0.9
		S1127.5,157.5,1127.2,156.5z"/>
	<path d="M1138.6,156.5l2.8-0.4c0.1,0.5,0.4,1,0.7,1.2c0.4,0.3,0.9,0.4,1.5,0.4c0.7,0,1.3-0.1,1.6-0.4c0.2-0.2,0.4-0.4,0.4-0.7
		c0-0.2-0.1-0.4-0.2-0.5c-0.1-0.1-0.5-0.3-0.9-0.4c-2.3-0.5-3.7-1-4.3-1.4c-0.8-0.6-1.3-1.4-1.3-2.4c0-0.9,0.4-1.7,1.1-2.3
		c0.7-0.6,1.8-0.9,3.4-0.9c1.4,0,2.5,0.2,3.2,0.7c0.7,0.5,1.2,1.2,1.5,2.1l-2.6,0.5c-0.1-0.4-0.3-0.7-0.6-0.9
		c-0.3-0.2-0.8-0.3-1.4-0.3c-0.7,0-1.3,0.1-1.6,0.3c-0.2,0.1-0.3,0.3-0.3,0.6c0,0.2,0.1,0.4,0.3,0.5c0.3,0.2,1.1,0.4,2.6,0.8
		c1.5,0.3,2.5,0.8,3.1,1.2c0.6,0.5,0.9,1.2,0.9,2.1c0,1-0.4,1.8-1.2,2.5c-0.8,0.7-2,1-3.6,1c-1.4,0-2.6-0.3-3.4-0.9
		S1138.8,157.5,1138.6,156.5z"/>
	<path d="M1158.6,159.5l-3.3-10.6h2.7l2,6.9l1.8-6.9h2.7l1.8,6.9l2-6.9h2.8l-3.4,10.6h-2.7l-1.8-6.8l-1.8,6.8H1158.6z"/>
	<path d="M1172.5,147.5v-2.6h2.8v2.6H1172.5z M1172.5,159.5V149h2.8v10.6H1172.5z"/>
	<path d="M1183,149v2.2h-1.9v4.3c0,0.9,0,1.4,0.1,1.5c0,0.1,0.1,0.3,0.3,0.4c0.1,0.1,0.3,0.1,0.5,0.1c0.3,0,0.6-0.1,1.1-0.3l0.2,2.2
		c-0.7,0.3-1.4,0.4-2.2,0.4c-0.5,0-1-0.1-1.4-0.3s-0.7-0.4-0.9-0.7c-0.2-0.3-0.3-0.6-0.4-1.1c-0.1-0.3-0.1-1-0.1-2v-4.6h-1.3V149
		h1.3v-2.1l2.8-1.6v3.7H1183z"/>
	<path d="M1187.7,144.9v5.4c0.9-1.1,2-1.6,3.2-1.6c0.6,0,1.2,0.1,1.7,0.4c0.5,0.2,0.9,0.5,1.2,0.9c0.3,0.4,0.4,0.8,0.5,1.2
		c0.1,0.5,0.1,1.2,0.1,2.1v6.2h-2.8V154c0-1.1-0.1-1.8-0.2-2.1c-0.1-0.3-0.3-0.5-0.6-0.7c-0.3-0.2-0.6-0.3-1-0.3
		c-0.5,0-0.9,0.1-1.2,0.3c-0.4,0.2-0.6,0.6-0.8,1c-0.2,0.5-0.3,1.1-0.3,2v5.3h-2.8v-14.6H1187.7z"/>
	<path d="M1008,173.4v2.2h-1.9v4.3c0,0.9,0,1.4,0.1,1.5c0,0.1,0.1,0.3,0.3,0.4c0.1,0.1,0.3,0.1,0.5,0.1c0.3,0,0.6-0.1,1.1-0.3
		l0.2,2.2c-0.7,0.3-1.4,0.4-2.2,0.4c-0.5,0-1-0.1-1.4-0.3c-0.4-0.2-0.7-0.4-0.9-0.7c-0.2-0.3-0.3-0.6-0.4-1.1c-0.1-0.3-0.1-1-0.1-2
		v-4.6h-1.3v-2.2h1.3v-2.1l2.8-1.6v3.7H1008z"/>
	<path d="M1012.8,169.4v5.4c0.9-1.1,2-1.6,3.2-1.6c0.6,0,1.2,0.1,1.7,0.4c0.5,0.2,0.9,0.5,1.2,0.9c0.3,0.4,0.4,0.8,0.5,1.2
		c0.1,0.5,0.1,1.2,0.1,2.1v6.2h-2.8v-5.6c0-1.1-0.1-1.8-0.2-2.1c-0.1-0.3-0.3-0.5-0.6-0.7c-0.3-0.2-0.6-0.3-1-0.3
		c-0.5,0-0.9,0.1-1.2,0.3c-0.4,0.2-0.6,0.6-0.8,1c-0.2,0.5-0.3,1.1-0.3,2v5.3h-2.8v-14.6H1012.8z"/>
	<path d="M1028.6,180.7l2.8,0.5c-0.4,1-0.9,1.8-1.7,2.3c-0.8,0.5-1.7,0.8-2.9,0.8c-1.8,0-3.2-0.6-4.1-1.8c-0.7-1-1-2.2-1-3.6
		c0-1.8,0.5-3.1,1.4-4.1s2.1-1.5,3.5-1.5c1.6,0,2.8,0.5,3.7,1.6c0.9,1,1.3,2.6,1.3,4.8h-7c0,0.8,0.2,1.5,0.7,1.9
		c0.4,0.5,1,0.7,1.6,0.7c0.4,0,0.8-0.1,1.1-0.4C1028.2,181.6,1028.4,181.2,1028.6,180.7z M1028.7,177.8c0-0.8-0.2-1.4-0.6-1.8
		c-0.4-0.4-0.9-0.6-1.5-0.6c-0.6,0-1.1,0.2-1.5,0.7c-0.4,0.4-0.6,1-0.6,1.8H1028.7z"/>
	<path d="M1046.3,178.7v-2.5h6.4v5.8c-0.6,0.6-1.5,1.1-2.7,1.6c-1.2,0.5-2.4,0.7-3.6,0.7c-1.5,0-2.9-0.3-4-1c-1.1-0.6-2-1.6-2.6-2.7
		c-0.6-1.2-0.9-2.5-0.9-3.9c0-1.5,0.3-2.9,1-4.1c0.6-1.2,1.6-2.1,2.8-2.7c0.9-0.5,2.1-0.7,3.5-0.7c1.8,0,3.2,0.4,4.3,1.1
		c1,0.8,1.7,1.8,2,3.2l-2.9,0.5c-0.2-0.7-0.6-1.3-1.2-1.7c-0.6-0.4-1.3-0.6-2.1-0.6c-1.3,0-2.3,0.4-3.1,1.2c-0.8,0.8-1.1,2-1.1,3.6
		c0,1.7,0.4,3,1.2,3.9c0.8,0.9,1.8,1.3,3,1.3c0.6,0,1.2-0.1,1.9-0.4c0.6-0.2,1.2-0.5,1.6-0.9v-1.9H1046.3z"/>
	<path d="M1054.7,178.6c0-0.9,0.2-1.8,0.7-2.7c0.5-0.9,1.1-1.5,1.9-2c0.8-0.5,1.8-0.7,2.8-0.7c1.6,0,2.9,0.5,3.9,1.6
		c1,1,1.5,2.4,1.5,3.9c0,1.6-0.5,2.9-1.6,4c-1,1.1-2.3,1.6-3.9,1.6c-1,0-1.9-0.2-2.8-0.7s-1.6-1.1-2-1.9
		C1054.9,180.8,1054.7,179.8,1054.7,178.6z M1057.6,178.7c0,1,0.2,1.9,0.7,2.4c0.5,0.6,1.1,0.8,1.8,0.8c0.7,0,1.3-0.3,1.8-0.8
		c0.5-0.6,0.7-1.4,0.7-2.4c0-1-0.2-1.8-0.7-2.4c-0.5-0.6-1.1-0.8-1.8-0.8c-0.7,0-1.3,0.3-1.8,0.8
		C1057.8,176.9,1057.6,177.7,1057.6,178.7z"/>
	<path d="M1070.7,184l-4.3-10.6h2.9l2,5.4l0.6,1.8c0.2-0.5,0.2-0.8,0.3-0.9c0.1-0.3,0.2-0.6,0.3-0.9l2-5.4h2.9l-4.2,10.6H1070.7z"/>
	<path d="M1085.3,180.7l2.8,0.5c-0.4,1-0.9,1.8-1.7,2.3c-0.8,0.5-1.7,0.8-2.9,0.8c-1.8,0-3.2-0.6-4.1-1.8c-0.7-1-1-2.2-1-3.6
		c0-1.8,0.5-3.1,1.4-4.1c0.9-1,2.1-1.5,3.5-1.5c1.6,0,2.8,0.5,3.7,1.6c0.9,1,1.3,2.6,1.3,4.8h-7c0,0.8,0.2,1.5,0.7,1.9
		c0.4,0.5,1,0.7,1.6,0.7c0.4,0,0.8-0.1,1.1-0.4C1084.9,181.6,1085.1,181.2,1085.3,180.7z M1085.5,177.8c0-0.8-0.2-1.4-0.6-1.8
		c-0.4-0.4-0.9-0.6-1.5-0.6c-0.6,0-1.1,0.2-1.5,0.7c-0.4,0.4-0.6,1-0.6,1.8H1085.5z"/>
	<path d="M1093.2,184h-2.8v-10.6h2.6v1.5c0.4-0.7,0.8-1.2,1.2-1.4c0.4-0.2,0.8-0.3,1.2-0.3c0.6,0,1.3,0.2,1.8,0.5l-0.9,2.4
		c-0.5-0.3-0.9-0.5-1.3-0.5c-0.4,0-0.7,0.1-1,0.3c-0.3,0.2-0.5,0.6-0.6,1.2c-0.2,0.6-0.2,1.7-0.2,3.5V184z"/>
	<path d="M1098.3,173.4h2.6v1.4c0.9-1.1,2-1.7,3.3-1.7c0.7,0,1.3,0.1,1.8,0.4c0.5,0.3,0.9,0.7,1.2,1.3c0.5-0.6,1-1,1.5-1.3
		c0.5-0.3,1.1-0.4,1.7-0.4c0.8,0,1.4,0.2,2,0.5c0.5,0.3,0.9,0.8,1.2,1.4c0.2,0.5,0.3,1.2,0.3,2.2v6.8h-2.8v-6c0-1-0.1-1.7-0.3-2
		c-0.3-0.4-0.7-0.6-1.2-0.6c-0.4,0-0.8,0.1-1.1,0.4c-0.3,0.2-0.6,0.6-0.7,1.1c-0.2,0.5-0.2,1.2-0.2,2.2v5.1h-2.8v-5.8
		c0-1-0.1-1.7-0.2-2c-0.1-0.3-0.3-0.5-0.5-0.7c-0.2-0.1-0.5-0.2-0.9-0.2c-0.4,0-0.8,0.1-1.2,0.3c-0.3,0.2-0.6,0.6-0.7,1
		c-0.1,0.4-0.2,1.2-0.2,2.2v5.1h-2.8V173.4z"/>
	<path d="M1122.8,180.7l2.8,0.5c-0.4,1-0.9,1.8-1.7,2.3c-0.8,0.5-1.7,0.8-2.9,0.8c-1.8,0-3.2-0.6-4.1-1.8c-0.7-1-1-2.2-1-3.6
		c0-1.8,0.5-3.1,1.4-4.1s2.1-1.5,3.5-1.5c1.6,0,2.8,0.5,3.7,1.6c0.9,1,1.3,2.6,1.3,4.8h-7c0,0.8,0.2,1.5,0.7,1.9s1,0.7,1.6,0.7
		c0.4,0,0.8-0.1,1.1-0.4C1122.4,181.6,1122.6,181.2,1122.8,180.7z M1122.9,177.8c0-0.8-0.2-1.4-0.6-1.8c-0.4-0.4-0.9-0.6-1.5-0.6
		c-0.6,0-1.1,0.2-1.5,0.7c-0.4,0.4-0.6,1-0.6,1.8H1122.9z"/>
	<path d="M1137.6,184h-2.8v-5.4c0-1.1-0.1-1.9-0.2-2.2s-0.3-0.6-0.6-0.8s-0.6-0.3-1-0.3c-0.5,0-0.9,0.1-1.3,0.4
		c-0.4,0.3-0.7,0.6-0.8,1.1c-0.1,0.4-0.2,1.2-0.2,2.4v4.8h-2.8v-10.6h2.6v1.6c0.9-1.2,2.1-1.8,3.5-1.8c0.6,0,1.2,0.1,1.7,0.3
		c0.5,0.2,0.9,0.5,1.2,0.9c0.3,0.3,0.4,0.7,0.5,1.2c0.1,0.4,0.2,1.1,0.2,1.9V184z"/>
	<path d="M1145.3,173.4v2.2h-1.9v4.3c0,0.9,0,1.4,0.1,1.5c0,0.1,0.1,0.3,0.3,0.4c0.1,0.1,0.3,0.1,0.5,0.1c0.3,0,0.6-0.1,1.1-0.3
		l0.2,2.2c-0.7,0.3-1.4,0.4-2.2,0.4c-0.5,0-1-0.1-1.4-0.3c-0.4-0.2-0.7-0.4-0.9-0.7c-0.2-0.3-0.3-0.6-0.4-1.1c-0.1-0.3-0.1-1-0.1-2
		v-4.6h-1.3v-2.2h1.3v-2.1l2.8-1.6v3.7H1145.3z"/>
</g>
</svg>
