<?xml version="1.0" encoding="utf-8"?>
<!-- Generator: Adobe Illustrator 23.0.3, SVG Export Plug-In . SVG Version: 6.00 Build 0)  -->
<svg version="1.1" id="Layer_1" xmlns="http://www.w3.org/2000/svg" xmlns:xlink="http://www.w3.org/1999/xlink" x="0px" y="0px"
	 viewBox="0 0 2700 880.8" style="enable-background:new 0 0 2700 880.8;" xml:space="preserve">
<style type="text/css">
	.st0{fill:url(#SVGID_2_);}
	.st1{filter:url(#Adobe_OpacityMaskFilter);}
	.st2{fill:url(#SVGID_3_);}
	.st3{mask:url(#SVGID_1_);fill:#FFFFFF;}
	.st4{fill:url(#SVGID_4_);}
	.st5{fill:url(#SVGID_5_);}
	.st6{fill:url(#SVGID_6_);}
	.st7{fill:url(#SVGID_7_);}
	.st8{fill:url(#SVGID_8_);}
	.st9{fill:#FFFFFF;}
</style>
<g id="Frame_1_">
	
		<linearGradient id="SVGID_2_" gradientUnits="userSpaceOnUse" x1="1355.7563" y1="-523.1798" x2="1360.2611" y2="170.6068" gradientTransform="matrix(1 0 0 1 0 608)">
		<stop  offset="0" style="stop-color:#01002F"/>
		<stop  offset="0.5285" style="stop-color:#024570"/>
		<stop  offset="0.5872" style="stop-color:#024A74"/>
		<stop  offset="0.6593" style="stop-color:#025980"/>
		<stop  offset="0.7384" style="stop-color:#027293"/>
		<stop  offset="0.8226" style="stop-color:#0295AF"/>
		<stop  offset="0.9108" style="stop-color:#01C2D1"/>
		<stop  offset="1" style="stop-color:#01F7FB"/>
	</linearGradient>
	<path class="st0" d="M182.7,533.7V342.5C182.7,200.3,298,85,440.2,85h1835.7c142.2,0,257.5,115.3,257.5,257.5v191.2
		c0,142.2-115.3,257.5-257.5,257.5H440.2C298,791.2,182.7,675.9,182.7,533.7z"/>
	<defs>
		<filter id="Adobe_OpacityMaskFilter" filterUnits="userSpaceOnUse" x="215.6" y="105.3" width="2292.1" height="489.9">
			<feColorMatrix  type="matrix" values="1 0 0 0 0  0 1 0 0 0  0 0 1 0 0  0 0 0 1 0"/>
		</filter>
	</defs>
	<mask maskUnits="userSpaceOnUse" x="215.6" y="105.3" width="2292.1" height="489.9" id="SVGID_1_">
		<g class="st1">
			
				<linearGradient id="SVGID_3_" gradientUnits="userSpaceOnUse" x1="1361.6501" y1="-641.1167" x2="1361.6501" y2="-40.3384" gradientTransform="matrix(1 0 0 1 0 608)">
				<stop  offset="0.1743" style="stop-color:#FFFFFF"/>
				<stop  offset="0.2767" style="stop-color:#BEBEBE"/>
				<stop  offset="0.3792" style="stop-color:#858585"/>
				<stop  offset="0.4787" style="stop-color:#555555"/>
				<stop  offset="0.5726" style="stop-color:#303030"/>
				<stop  offset="0.6594" style="stop-color:#161616"/>
				<stop  offset="0.7368" style="stop-color:#060606"/>
				<stop  offset="0.7967" style="stop-color:#000000"/>
			</linearGradient>
			<path class="st2" d="M2499.7,595.2l-2280.4-1.7l-3.7-232.7c0-141.1,114.4-255.5,255.5-255.5h1781.1
				c141.1,0,255.5,114.4,255.5,255.5L2499.7,595.2z"/>
		</g>
	</mask>
	<path class="st3" d="M2499.7,595.2l-2280.4-1.7l-3.7-232.7c0-141.1,114.4-255.5,255.5-255.5h1781.1
		c141.1,0,255.5,114.4,255.5,255.5L2499.7,595.2z"/>
	
		<linearGradient id="SVGID_4_" gradientUnits="userSpaceOnUse" x1="1355.9128" y1="-560.8585" x2="1360.8978" y2="206.9479" gradientTransform="matrix(1 0 0 1 0 608)">
		<stop  offset="0" style="stop-color:#898B8D"/>
		<stop  offset="0.2765" style="stop-color:#FCFCFC"/>
		<stop  offset="0.5503" style="stop-color:#515153"/>
		<stop  offset="0.7793" style="stop-color:#FCFCFC"/>
		<stop  offset="0.7931" style="stop-color:#EAEBEB"/>
		<stop  offset="0.8201" style="stop-color:#CDCED0"/>
		<stop  offset="0.8434" style="stop-color:#BBBDC0"/>
		<stop  offset="0.8603" style="stop-color:#B5B7BA"/>
		<stop  offset="0.8732" style="stop-color:#BDBEC1"/>
		<stop  offset="0.9141" style="stop-color:#D0CFD2"/>
		<stop  offset="0.956" style="stop-color:#DBDADD"/>
		<stop  offset="1" style="stop-color:#DFDDE0"/>
	</linearGradient>
	<path class="st4" d="M2283.4,46.7H433.6C269.8,46.7,137,179.5,137,343.3v189.5c0,163.8,132.8,296.6,296.6,296.6h1849.7
		c163.8,0,296.6-132.8,296.6-296.6V343.3C2580,179.5,2447.2,46.7,2283.4,46.7z M2522.7,514.7c0,151.8-123,274.8-274.8,274.8H469.2
		c-151.8,0-274.8-123-274.8-274.8V363.9c0-151.8,123-274.8,274.8-274.8h1778.7c151.8,0,274.8,123,274.8,274.8V514.7z"/>
</g>
<g id="Button_1_">
	<g>
		
			<linearGradient id="SVGID_5_" gradientUnits="userSpaceOnUse" x1="614.6999" y1="-483.3217" x2="614.7" y2="138.2971" gradientTransform="matrix(1 0 0 1 0 608)">
			<stop  offset="8.379891e-02" style="stop-color:#01002F"/>
			<stop  offset="0.364" style="stop-color:#051D57"/>
			<stop  offset="1" style="stop-color:#0F5EB0"/>
		</linearGradient>
		<ellipse class="st5" cx="614.7" cy="438.4" rx="310.2" ry="309.8"/>
		
			<linearGradient id="SVGID_6_" gradientUnits="userSpaceOnUse" x1="303" y1="-169.6394" x2="926.3999" y2="-169.6394" gradientTransform="matrix(1 0 0 1 0 608)">
			<stop  offset="0" style="stop-color:#3290C5"/>
			<stop  offset="1" style="stop-color:#0F5EB0"/>
		</linearGradient>
		<path class="st6" d="M614.7,749.6C442.8,749.6,303,610,303,438.4s139.8-311.2,311.7-311.2s311.7,139.6,311.7,311.2
			S786.6,749.6,614.7,749.6z M614.7,130c-170.3,0-308.8,138.3-308.8,308.3s138.5,308.3,308.8,308.3s308.8-138.3,308.8-308.3
			S784.9,130,614.7,130z"/>
	</g>
	
		<radialGradient id="SVGID_7_" cx="616.3" cy="-167.1394" r="310.3041" gradientTransform="matrix(1 0 0 1 0 608)" gradientUnits="userSpaceOnUse">
		<stop  offset="0.8408" style="stop-color:#000000"/>
		<stop  offset="0.855" style="stop-color:#191919"/>
		<stop  offset="0.9275" style="stop-color:#939393"/>
		<stop  offset="0.9773" style="stop-color:#E1E1E1"/>
		<stop  offset="1" style="stop-color:#FFFFFF"/>
	</radialGradient>
	<ellipse class="st7" cx="616.3" cy="440.9" rx="311.9" ry="308.7"/>
	<ellipse cx="614.1" cy="444.3" rx="274.6" ry="271.8"/>
	
		<linearGradient id="SVGID_8_" gradientUnits="userSpaceOnUse" x1="614.1" y1="-434.5366" x2="614.1" y2="102.257" gradientTransform="matrix(1 0 0 1 0 608)">
		<stop  offset="0.1788" style="stop-color:#01002F"/>
		<stop  offset="0.3411" style="stop-color:#012054"/>
		<stop  offset="0.5702" style="stop-color:#004983"/>
		<stop  offset="0.6849" style="stop-color:#005995"/>
		<stop  offset="0.7416" style="stop-color:#005C97"/>
		<stop  offset="0.7917" style="stop-color:#00679E"/>
		<stop  offset="0.8393" style="stop-color:#0079AA"/>
		<stop  offset="0.8853" style="stop-color:#0093BA"/>
		<stop  offset="0.9303" style="stop-color:#01B4D0"/>
		<stop  offset="0.9738" style="stop-color:#01DBE9"/>
		<stop  offset="1" style="stop-color:#01F7FB"/>
	</linearGradient>
	<ellipse class="st8" cx="614.1" cy="444.3" rx="270.3" ry="267.5"/>
	<g>
		<g>
			<path d="M746.9,419.6v188.1c0,1.6-1.3,2.9-2.9,2.9h-89.3c-1.6,0-2.9-1.3-2.9-2.9v-92.1c0-1.6-1.3-2.9-2.9-2.9h-70.6
				c-1.6,0-2.9,1.3-2.9,2.9v92.1c0,1.6-1.3,2.9-2.9,2.9h-89.7c-1.6,0-2.9-1.3-2.9-2.9V419.6c0-1.6,1.3-2.9,2.9-2.9h261.3
				C745.6,416.6,746.9,418,746.9,419.6z"/>
			<path d="M615.6,252.3l185.9,153.3c1.3,1,1,1.9-0.7,1.9H423.7c-1.6,0-1.9-0.8-0.7-1.9l188-153.3
				C612.3,251.3,614.3,251.3,615.6,252.3z"/>
			<path d="M687.3,276.6v26.7c0,1.6,1,3.8,2.3,4.8l34.6,27.1c1.3,1,2.3,0.5,2.3-1.1v-57.5c0-1.6-1.3-2.9-2.9-2.9h-33.4
				C688.6,273.7,687.3,275,687.3,276.6z"/>
		</g>
		<g>
			<path class="st9" d="M749.8,422.5v188.1c0,1.6-1.3,2.9-2.9,2.9h-89.3c-1.6,0-2.9-1.3-2.9-2.9v-92.1c0-1.6-1.3-2.9-2.9-2.9h-70.6
				c-1.6,0-2.9,1.3-2.9,2.9v92.1c0,1.6-1.3,2.9-2.9,2.9h-89.7c-1.6,0-2.9-1.3-2.9-2.9V422.5c0-1.6,1.3-2.9,2.9-2.9H747
				C748.5,419.6,749.8,420.9,749.8,422.5z"/>
			<path class="st9" d="M618.5,255.2l185.9,153.3c1.3,1,1,1.9-0.7,1.9H426.6c-1.6,0-1.9-0.8-0.7-1.9L614,255.2
				C615.2,254.2,617.3,254.2,618.5,255.2z"/>
			<path class="st9" d="M690.2,279.6v26.7c0,1.6,1,3.8,2.3,4.8l34.6,27.1c1.3,1,2.3,0.5,2.3-1.1v-57.5c0-1.6-1.3-2.9-2.9-2.9h-33.4
				C691.5,276.6,690.2,278,690.2,279.6z"/>
		</g>
	</g>
</g>
<g id="Text_1_">
	<g>
		<path d="M1440,544.4h-42.8V436.3h-90.7v108.1h-42.8V295.6h42.8v102.2h90.7V295.6h42.8V544.4z"/>
		<path d="M1558.7,548.2c-26,0-45.8-9.8-59.5-29.3c-13.7-19.6-20.5-42-20.5-67.2c0-27.2,7.6-49.9,22.7-68
			c15.1-18.1,35.1-27.2,60-27.2c23.6,0,42.9,8.8,58.1,26.4c15.1,17.6,22.7,40.5,22.7,68.7c0,29-7.9,52.4-23.6,70.1
			C1602.8,539.3,1582.9,548.2,1558.7,548.2z M1560.1,513.9c26.7,0,40-20.8,40-62.5c0-18.8-3.2-33.7-9.6-44.6
			c-6.4-10.9-16.2-16.3-29.4-16.3c-13.7,0-23.9,5.6-30.5,16.9c-6.6,11.2-9.9,26.1-9.9,44.7c0,20,3.5,35.4,10.5,45.9
			C1538.3,508.6,1547.9,513.9,1560.1,513.9z"/>
		<path d="M1941.1,544.4h-41.6V429.7c0-23.8-10.1-35.7-30.3-35.7c-11.7,0-21.1,4.5-28.1,13.5s-10.5,22.4-10.5,40.3v96.6h-42.1V429.7
			c0-24.2-9.5-36.3-28.4-36.3c-11.5,0-21.2,4.9-29,14.6s-11.7,23-11.7,39.7v96.6h-40.9v-184h38.5v39.2c12.5-28.7,32.1-43,58.7-43
			c25.9,0,42.7,14.3,50.5,43c14.2-28.7,33.7-43,58.7-43c16.9,0,30.6,5.5,40.9,16.6c10.3,11.1,15.5,24.8,15.5,41.2v130.1H1941.1z"/>
		<path d="M2100.5,485.7l35.9,5.1c-4.6,16.6-13.7,30.4-27.2,41.2c-13.5,10.8-30.4,16.2-50.7,16.2c-24.4,0-44-8.6-58.9-25.7
			c-14.9-17.1-22.3-40.3-22.3-69.6c0-27.8,7.5-50.8,22.5-69.1c15-18.2,35.3-27.3,60.9-27.3c25.1,0,44.5,9,58.2,27
			s20.5,41.1,20.5,69.2l-0.2,4.7h-120.7c0,12.5,1.1,22.5,3.4,30.1c2.3,7.5,6.8,14.1,13.5,19.7c6.7,5.6,15.1,8.4,25.2,8.4
			C2080.5,515.6,2093.7,505.6,2100.5,485.7z M2098.1,430.6c-0.1-13.2-3.9-24.1-11.4-32.4c-7.5-8.4-16.7-12.6-27.8-12.6
			c-10.9,0-20,3.9-27.3,11.8c-7.3,7.8-11.6,18.9-12.9,33.3L2098.1,430.6L2098.1,430.6z"/>
	</g>
	<g>
		<path class="st9" d="M1449.5,553.9h-42.8v-108H1316V554h-42.8V305.2h42.8v102.2h90.7V305.2h42.8V553.9z"/>
		<path class="st9" d="M1568.3,557.7c-26,0-45.8-9.8-59.5-29.3c-13.7-19.6-20.5-42-20.5-67.2c0-27.2,7.6-49.9,22.7-68
			c15.1-18.1,35.1-27.2,60-27.2c23.6,0,42.9,8.8,58.1,26.4c15.1,17.6,22.7,40.5,22.7,68.7c0,29-7.9,52.4-23.6,70.1
			C1612.4,548.9,1592.4,557.7,1568.3,557.7z M1569.7,523.5c26.7,0,40-20.8,40-62.5c0-18.8-3.2-33.7-9.6-44.6
			c-6.4-10.9-16.2-16.3-29.4-16.3c-13.7,0-23.9,5.6-30.5,16.9c-6.6,11.2-9.9,26.1-9.9,44.7c0,20,3.5,35.4,10.5,45.9
			C1547.9,518.2,1557.5,523.5,1569.7,523.5z"/>
		<path class="st9" d="M1950.6,553.9H1909V439.3c0-23.8-10.1-35.7-30.3-35.7c-11.7,0-21.1,4.5-28.1,13.5s-10.5,22.4-10.5,40.3V554
			H1798V439.3c0-24.2-9.5-36.3-28.4-36.3c-11.5,0-21.2,4.9-29,14.6s-11.7,23-11.7,39.7v96.6H1688v-184h38.5v39.2
			c12.5-28.7,32.1-43,58.7-43c25.9,0,42.7,14.3,50.5,43c14.2-28.7,33.7-43,58.7-43c16.9,0,30.6,5.5,40.9,16.6
			c10.3,11.1,15.5,24.8,15.5,41.2v130H1950.6z"/>
		<path class="st9" d="M2110.1,495.2l35.9,5.1c-4.6,16.6-13.7,30.4-27.2,41.2c-13.5,10.8-30.4,16.2-50.7,16.2
			c-24.4,0-44-8.6-58.9-25.7c-14.9-17.1-22.3-40.3-22.3-69.6c0-27.8,7.5-50.8,22.5-69.1c15-18.2,35.3-27.3,60.9-27.3
			c25.1,0,44.5,9,58.2,27s20.5,41.1,20.5,69.2l-0.2,4.7h-120.7c0,12.5,1.1,22.5,3.4,30.1c2.3,7.5,6.8,14.1,13.5,19.7
			c6.7,5.6,15.1,8.4,25.2,8.4C2090,525.1,2103.3,515.2,2110.1,495.2z M2107.7,440.2c-0.1-13.2-3.9-24.1-11.4-32.4
			c-7.5-8.4-16.7-12.6-27.8-12.6c-10.9,0-20,3.9-27.3,11.8c-7.3,7.8-11.6,18.9-12.9,33.3L2107.7,440.2L2107.7,440.2z"/>
	</g>
</g>
</svg>
