<?xml version="1.0" encoding="utf-8"?>
<!-- Generator: Adobe Illustrator 23.0.3, SVG Export Plug-In . SVG Version: 6.00 Build 0)  -->
<svg version="1.1" id="Layer_1" xmlns="http://www.w3.org/2000/svg" xmlns:xlink="http://www.w3.org/1999/xlink" x="0px" y="0px"
	 viewBox="0 0 204 189" style="enable-background:new 0 0 204 189;" xml:space="preserve">
<style type="text/css">
	.st0{fill:#6B6B6B;}
	.st1{enable-background:new    ;}
	.st2{fill:#FFFFFF;}
</style>
<ellipse class="st0" cx="101.2" cy="71.8" rx="61.2" ry="57.2"/>
<g class="st1">
	<path class="st0" d="M32.3,174.5v-32.2h4.6v13.2H55v-13.2h4.6v32.2H55v-15.2H36.9v15.2H32.3z"/>
	<path class="st0" d="M65.9,158.9c0-5.3,1.6-9.5,4.7-12.5c3.1-3,7.1-4.5,12-4.5c3.2,0,6.1,0.7,8.7,2.1s4.5,3.4,5.9,5.9s2,5.4,2,8.6
		c0,3.3-0.7,6.2-2.1,8.8c-1.4,2.6-3.4,4.5-6.1,5.9c-2.6,1.3-5.4,2-8.5,2c-3.3,0-6.2-0.7-8.8-2.2c-2.6-1.5-4.5-3.5-5.9-6
		C66.5,164.4,65.9,161.7,65.9,158.9z M70.6,158.9c0,3.9,1.1,6.9,3.4,9.2s5.1,3.3,8.5,3.3c3.5,0,6.3-1.1,8.6-3.4
		c2.2-2.3,3.4-5.5,3.4-9.6c0-2.6-0.5-4.9-1.4-6.9c-1-2-2.4-3.5-4.2-4.5c-1.8-1.1-3.9-1.6-6.2-1.6c-3.3,0-6.1,1-8.4,3.1
		S70.6,154.1,70.6,158.9z"/>
	<path class="st0" d="M105,174.5v-32.2h6.9l8.2,22.8c0.8,2.1,1.3,3.7,1.7,4.8c0.4-1.2,1-2.9,1.9-5.2l8.3-22.4h6.2v32.2h-4.4v-26.9
		l-10.1,26.9h-4.2l-10.1-27.4v27.4H105z"/>
	<path class="st0" d="M145.7,174.5v-32.2h25.2v3.8h-20.6v9.9h19.3v3.8h-19.3v11h21.4v3.8H145.7z"/>
</g>
<path class="st2" d="M100.1,33L53.4,60.7l4.8,6.1l6.7-4l0.1,40.9h0.1c0.4,1.7,2.1,3,4.2,3l20.7-0.1l-0.1-26.5l20.2-0.1l0.1,26.5
	l20.7-0.1c2,0,3.8-1.3,4.1-3h0.1L135,62.3l7.2,4.2l4.7-6.2L100.1,33z"/>
</svg>
