<?xml version="1.0" encoding="utf-8"?>
<!-- Generator: Adobe Illustrator 18.1.1, SVG Export Plug-In . SVG Version: 6.00 Build 0)  -->
<svg version="1.1" id="Layer_1" xmlns="http://www.w3.org/2000/svg" xmlns:xlink="http://www.w3.org/1999/xlink" x="0px" y="0px"
	 viewBox="-32 -23 180 144" enable-background="new -32 -23 180 144" xml:space="preserve">
<g>
	<g>
		
			<linearGradient id="SVGID_1_" gradientUnits="userSpaceOnUse" x1="431.5461" y1="-2214.4751" x2="431.5461" y2="-1135.9307" gradientTransform="matrix(0.1333 0 0 0.1333 -1.525879e-005 271.68)">
			<stop  offset="8.379891e-002" style="stop-color:#01002F"/>
			<stop  offset="0.364" style="stop-color:#051D57"/>
			<stop  offset="1" style="stop-color:#0F5EB0"/>
		</linearGradient>
		<ellipse fill="url(#SVGID_1_)" cx="57.5" cy="49" rx="90" ry="71.7"/>
		
			<linearGradient id="SVGID_2_" gradientUnits="userSpaceOnUse" x1="-246.9083" y1="-1670.1499" x2="1110" y2="-1670.1499" gradientTransform="matrix(0.1333 0 0 0.1333 -1.525879e-005 271.68)">
			<stop  offset="0" style="stop-color:#3290C5"/>
			<stop  offset="1" style="stop-color:#0F5EB0"/>
		</linearGradient>
		<path fill="url(#SVGID_2_)" d="M57.5,121c-49.9,0-90.5-32.3-90.5-72S7.7-23,57.5-23S148,9.3,148,49S107.4,121,57.5,121z
			 M57.5-22.4c-49.4,0-89.6,32-89.6,71.3s40.2,71.3,89.6,71.3s89.6-32,89.6-71.3S106.9-22.4,57.5-22.4z"/>
	</g>
	<g>
		<g>
			<path d="M95.9,44.6v43.5c0,0.4-0.4,0.7-0.8,0.7H69.1c-0.5,0-0.8-0.3-0.8-0.7V66.9c0-0.4-0.4-0.7-0.8-0.7H47
				c-0.5,0-0.8,0.3-0.8,0.7v21.3c0,0.4-0.4,0.7-0.8,0.7h-26c-0.5,0-0.8-0.3-0.8-0.7V44.6c0-0.4,0.4-0.7,0.8-0.7h75.8
				C95.5,44,95.9,44.3,95.9,44.6z"/>
			<path d="M57.8,5.9l54,35.5c0.4,0.2,0.3,0.4-0.2,0.4H2.1c-0.5,0-0.6-0.2-0.2-0.4L56.5,5.9C56.8,5.7,57.4,5.7,57.8,5.9z"/>
			<path d="M78.6,11.6v6.2c0,0.4,0.3,0.9,0.7,1.1l10,6.3c0.4,0.2,0.7,0.1,0.7-0.3V11.6c0-0.4-0.4-0.7-0.8-0.7h-9.7
				C79,10.9,78.6,11.2,78.6,11.6z"/>
		</g>
		<g>
			<path fill="#FFFFFF" d="M96.7,45.3v43.5c0,0.4-0.4,0.7-0.8,0.7H70c-0.5,0-0.8-0.3-0.8-0.7V67.5c0-0.4-0.4-0.7-0.8-0.7H47.8
				c-0.5,0-0.8,0.3-0.8,0.7v21.3c0,0.4-0.4,0.7-0.8,0.7h-26c-0.5,0-0.8-0.3-0.8-0.7V45.3c0-0.4,0.4-0.7,0.8-0.7h75.8
				C96.4,44.6,96.7,44.9,96.7,45.3z"/>
			<path fill="#FFFFFF" d="M58.6,6.6l54,35.5c0.4,0.2,0.3,0.4-0.2,0.4H2.9c-0.5,0-0.6-0.2-0.2-0.4L57.3,6.6
				C57.7,6.4,58.3,6.4,58.6,6.6z"/>
			<path fill="#FFFFFF" d="M79.5,12.3v6.2c0,0.4,0.3,0.9,0.7,1.1l10,6.3c0.4,0.2,0.7,0.1,0.7-0.3V12.3c0-0.4-0.4-0.7-0.8-0.7h-9.7
				C79.8,11.6,79.5,11.9,79.5,12.3z"/>
		</g>
	</g>
</g>
</svg>
