<?xml version="1.0" encoding="utf-8"?>
<!-- Generator: Adobe Illustrator 23.0.3, SVG Export Plug-In . SVG Version: 6.00 Build 0)  -->
<svg version="1.1" id="Layer_1" xmlns="http://www.w3.org/2000/svg" xmlns:xlink="http://www.w3.org/1999/xlink" x="0px" y="0px"
	 viewBox="0 0 871.1 880.8" style="enable-background:new 0 0 871.1 880.8;" xml:space="preserve">
<style type="text/css">
	.st0{fill-rule:evenodd;clip-rule:evenodd;fill:#6B6B6B;}
	.st1{fill:#6B6B6B;}
</style>
<path class="st0" d="M435.5,46.7l-222,149.4l22.4,33.3l32.1-21.6v221.5h0.4c1.9,9.4,10.1,16.1,19.7,16.1h98.5V301.8h96v143.7h98.5
	c9.6,0,17.8-6.8,19.7-16.1h0.4V206.6l34,22.9l22.4-33.3L435.5,46.7z"/>
<g>
	<path class="st1" d="M72,782.4V605h23.5v72.8h92.2V605h23.5v177.4h-23.5v-83.6H95.5v83.6H72z"/>
	<path class="st1" d="M243.1,696c0-29.4,7.9-52.5,23.7-69.2c15.8-16.7,36.2-25,61.2-25c16.4,0,31.1,3.9,44.3,11.7
		c13.1,7.8,23.2,18.7,30.1,32.7s10.3,29.9,10.3,47.6c0,18-3.6,34.1-10.9,48.3s-17.5,24.9-30.9,32.2c-13.3,7.3-27.7,11-43.1,11
		c-16.7,0-31.6-4-44.8-12.1c-13.1-8.1-23.1-19.1-29.9-33C246.5,726.3,243.1,711.5,243.1,696z M267.3,696.3
		c0,21.4,5.7,38.2,17.2,50.5s25.9,18.5,43.3,18.5c17.7,0,32.2-6.2,43.6-18.6c11.4-12.4,17.1-30,17.1-52.9c0-14.4-2.4-27-7.3-37.8
		s-12-19.1-21.4-25s-19.9-8.9-31.6-8.9c-16.6,0-30.9,5.7-42.9,17.1C273.3,650.6,267.3,669.6,267.3,696.3z"/>
	<path class="st1" d="M442.3,782.4V605h35.3l42,125.6c3.9,11.7,6.7,20.4,8.5,26.3c2-6.5,5.2-15.9,9.4-28.4L580,605h31.6v177.4H589
		V633.9l-51.5,148.5h-21.2l-51.3-151v151H442.3z"/>
	<path class="st1" d="M649.9,782.4V605h128.3v20.9H673.4v54.3h98.1V701h-98.1v60.4h108.9v20.9L649.9,782.4L649.9,782.4z"/>
</g>
</svg>
