<?xml version="1.0" encoding="utf-8"?>
<!-- Generator: Adobe Illustrator 23.0.3, SVG Export Plug-In . SVG Version: 6.00 Build 0)  -->
<svg version="1.1" id="Layer_1" xmlns="http://www.w3.org/2000/svg" xmlns:xlink="http://www.w3.org/1999/xlink" x="0px" y="0px"
	 viewBox="0 0 890 880" style="enable-background:new 0 0 890 880;" xml:space="preserve">
<style type="text/css">
	.st0{fill-rule:evenodd;clip-rule:evenodd;fill:#6B6B6B;}
	.st1{fill:#6B6B6B;}
</style>
<path class="st0" d="M510.4,46.3L273.6,196.4l24.1,33.2l34.2-21.7l0.7,221.5l0.4,0c2.1,9.4,10.8,16.1,21.1,16l105.3-0.3L459,301.6
	l102.6-0.3l0.4,143.7l105.3-0.3c10.3,0,19-6.9,21-16.2l0.4,0l-0.7-222.8l36.4,22.8l23.8-33.4L510.4,46.3z"/>
<g>
	<path class="st1" d="M132.5,782V604.6H157v72.8h96v-72.8h24.5V782h-24.5v-83.6h-96V782H132.5z"/>
	<path class="st1" d="M310.6,695.6c0-29.4,8.2-52.5,24.7-69.2c16.4-16.7,37.7-25,63.7-25c17.1,0,32.4,3.9,46.1,11.7
		c13.6,7.8,24.1,18.7,31.3,32.7s10.7,29.9,10.7,47.6c0,18-3.7,34.1-11.3,48.3c-7.6,14.2-18.2,24.9-32.2,32.2
		c-13.8,7.3-28.8,11-44.9,11c-17.4,0-32.9-4-46.6-12.1c-13.6-8.1-24-19.1-31.1-33C314.1,725.9,310.6,711.1,310.6,695.6z
		 M335.8,695.9c0,21.4,5.9,38.2,17.9,50.5c12,12.3,27,18.5,45.1,18.5c18.4,0,33.5-6.2,45.4-18.6c11.9-12.4,17.8-30,17.8-52.9
		c0-14.4-2.5-27-7.6-37.8c-5.1-10.8-12.5-19.1-22.3-25c-9.8-5.9-20.7-8.9-32.9-8.9c-17.3,0-32.2,5.7-44.7,17.1
		C342,650.2,335.8,669.2,335.8,695.9z"/>
	<path class="st1" d="M517.9,782V604.6h36.7l43.7,125.6c4.1,11.7,7,20.4,8.8,26.3c2.1-6.5,5.4-15.9,9.8-28.4l44.2-123.5h32.9V782
		h-23.5V633.5L617,782H595l-53.4-151v151H517.9z"/>
	<path class="st1" d="M734,782V604.6h133.5v20.9H758.5v54.3h102.1v20.8H758.5V761h113.3v20.9L734,782L734,782z"/>
</g>
</svg>
