<?xml version="1.0" encoding="utf-8"?>
<!-- Generator: Adobe Illustrator 23.0.3, SVG Export Plug-In . SVG Version: 6.00 Build 0)  -->
<svg version="1.1" id="Layer_1" xmlns="http://www.w3.org/2000/svg" xmlns:xlink="http://www.w3.org/1999/xlink" x="0px" y="0px"
	 viewBox="0 0 2700 826.3" style="enable-background:new 0 0 2700 826.3;" xml:space="preserve">
<style type="text/css">
	.st0{fill:url(#SVGID_2_);}
	.st1{filter:url(#Adobe_OpacityMaskFilter);}
	.st2{fill:url(#SVGID_3_);}
	.st3{mask:url(#SVGID_1_);fill:#FFFFFF;}
	.st4{fill:url(#SVGID_4_);}
	.st5{fill:url(#SVGID_5_);}
	.st6{fill:url(#SVGID_6_);}
	.st7{fill:url(#SVGID_7_);}
	.st8{fill:#FFFFFF;}
</style>
<linearGradient id="SVGID_2_" gradientUnits="userSpaceOnUse" x1="1355.7563" y1="-544.1506" x2="1360.2611" y2="149.6359" gradientTransform="matrix(1 0 0 1 0 608)">
	<stop  offset="0" style="stop-color:#01002F"/>
	<stop  offset="0.5285" style="stop-color:#024570"/>
	<stop  offset="0.5872" style="stop-color:#024A74"/>
	<stop  offset="0.6593" style="stop-color:#025980"/>
	<stop  offset="0.7384" style="stop-color:#027293"/>
	<stop  offset="0.8226" style="stop-color:#0295AF"/>
	<stop  offset="0.9108" style="stop-color:#01C2D1"/>
	<stop  offset="1" style="stop-color:#01F7FB"/>
</linearGradient>
<path class="st0" d="M182.7,512.7V321.5C182.7,179.3,298,64,440.2,64h1835.7c142.2,0,257.5,115.3,257.5,257.5v191.2
	c0,142.2-115.3,257.5-257.5,257.5H440.2C298,770.2,182.7,654.9,182.7,512.7z"/>
<defs>
	<filter id="Adobe_OpacityMaskFilter" filterUnits="userSpaceOnUse" x="215.6" y="84.3" width="2292.1" height="489.9">
		<feColorMatrix  type="matrix" values="1 0 0 0 0  0 1 0 0 0  0 0 1 0 0  0 0 0 1 0"/>
	</filter>
</defs>
<mask maskUnits="userSpaceOnUse" x="215.6" y="84.3" width="2292.1" height="489.9" id="SVGID_1_">
	<g class="st1">
		
			<linearGradient id="SVGID_3_" gradientUnits="userSpaceOnUse" x1="1361.6501" y1="-662.0875" x2="1361.6501" y2="-61.3092" gradientTransform="matrix(1 0 0 1 0 608)">
			<stop  offset="0.1743" style="stop-color:#FFFFFF"/>
			<stop  offset="0.2767" style="stop-color:#BEBEBE"/>
			<stop  offset="0.3792" style="stop-color:#858585"/>
			<stop  offset="0.4787" style="stop-color:#555555"/>
			<stop  offset="0.5726" style="stop-color:#303030"/>
			<stop  offset="0.6594" style="stop-color:#161616"/>
			<stop  offset="0.7368" style="stop-color:#060606"/>
			<stop  offset="0.7967" style="stop-color:#000000"/>
		</linearGradient>
		<path class="st2" d="M2499.7,574.2l-2280.4-1.7l-3.7-232.7c0-141.1,114.4-255.5,255.5-255.5h1781.1
			c141.1,0,255.5,114.4,255.5,255.5L2499.7,574.2z"/>
	</g>
</mask>
<path class="st3" d="M2499.7,574.2l-2280.4-1.7l-3.7-232.7c0-141.1,114.4-255.5,255.5-255.5h1781.1c141.1,0,255.5,114.4,255.5,255.5
	L2499.7,574.2z"/>
<g id="Button_1_">
	<g>
		
			<linearGradient id="SVGID_4_" gradientUnits="userSpaceOnUse" x1="614.6999" y1="-504.2925" x2="614.7" y2="117.3262" gradientTransform="matrix(1 0 0 1 0 608)">
			<stop  offset="8.379891e-02" style="stop-color:#01002F"/>
			<stop  offset="0.364" style="stop-color:#051D57"/>
			<stop  offset="1" style="stop-color:#0F5EB0"/>
		</linearGradient>
		<ellipse class="st4" cx="614.7" cy="417.4" rx="310.2" ry="309.8"/>
		
			<linearGradient id="SVGID_5_" gradientUnits="userSpaceOnUse" x1="303" y1="-190.6102" x2="926.3999" y2="-190.6102" gradientTransform="matrix(1 0 0 1 0 608)">
			<stop  offset="0" style="stop-color:#3290C5"/>
			<stop  offset="1" style="stop-color:#0F5EB0"/>
		</linearGradient>
		<path class="st5" d="M614.7,728.6C442.8,728.6,303,589,303,417.4s139.8-311.2,311.7-311.2s311.7,139.6,311.7,311.2
			S786.6,728.6,614.7,728.6z M614.7,109c-170.3,0-308.8,138.3-308.8,308.3s138.5,308.3,308.8,308.3s308.8-138.3,308.8-308.3
			S784.9,109,614.7,109z"/>
	</g>
	
		<radialGradient id="SVGID_6_" cx="616.3" cy="-188.1102" r="310.3041" gradientTransform="matrix(1 0 0 1 0 608)" gradientUnits="userSpaceOnUse">
		<stop  offset="0.8408" style="stop-color:#000000"/>
		<stop  offset="0.855" style="stop-color:#191919"/>
		<stop  offset="0.9275" style="stop-color:#939393"/>
		<stop  offset="0.9773" style="stop-color:#E1E1E1"/>
		<stop  offset="1" style="stop-color:#FFFFFF"/>
	</radialGradient>
	<ellipse class="st6" cx="616.3" cy="419.9" rx="311.9" ry="308.7"/>
	<ellipse cx="614.1" cy="423.3" rx="274.6" ry="271.8"/>
	
		<linearGradient id="SVGID_7_" gradientUnits="userSpaceOnUse" x1="614.1" y1="-455.5074" x2="614.1" y2="81.2861" gradientTransform="matrix(1 0 0 1 0 608)">
		<stop  offset="0.1788" style="stop-color:#01002F"/>
		<stop  offset="0.3411" style="stop-color:#012054"/>
		<stop  offset="0.5702" style="stop-color:#004983"/>
		<stop  offset="0.6849" style="stop-color:#005995"/>
		<stop  offset="0.7416" style="stop-color:#005C97"/>
		<stop  offset="0.7917" style="stop-color:#00679E"/>
		<stop  offset="0.8393" style="stop-color:#0079AA"/>
		<stop  offset="0.8853" style="stop-color:#0093BA"/>
		<stop  offset="0.9303" style="stop-color:#01B4D0"/>
		<stop  offset="0.9738" style="stop-color:#01DBE9"/>
		<stop  offset="1" style="stop-color:#01F7FB"/>
	</linearGradient>
	<ellipse class="st7" cx="614.1" cy="423.3" rx="270.3" ry="267.5"/>
	<g>
		<g>
			<path d="M746.9,398.6v188.1c0,1.6-1.3,2.9-2.9,2.9h-89.3c-1.6,0-2.9-1.3-2.9-2.9v-92.1c0-1.6-1.3-2.9-2.9-2.9h-70.6
				c-1.6,0-2.9,1.3-2.9,2.9v92.1c0,1.6-1.3,2.9-2.9,2.9h-89.7c-1.6,0-2.9-1.3-2.9-2.9V398.6c0-1.6,1.3-2.9,2.9-2.9h261.3
				C745.6,395.6,746.9,397,746.9,398.6z"/>
			<path d="M615.6,231.3l185.9,153.3c1.3,1,1,1.9-0.7,1.9H423.7c-1.6,0-1.9-0.8-0.7-1.9l188-153.3
				C612.3,230.3,614.3,230.3,615.6,231.3z"/>
			<path d="M687.3,255.6v26.7c0,1.6,1,3.8,2.3,4.8l34.6,27.1c1.3,1,2.3,0.5,2.3-1.1v-57.5c0-1.6-1.3-2.9-2.9-2.9h-33.4
				C688.6,252.7,687.3,254,687.3,255.6z"/>
		</g>
		<g>
			<path class="st8" d="M749.8,401.5v188.1c0,1.6-1.3,2.9-2.9,2.9h-89.3c-1.6,0-2.9-1.3-2.9-2.9v-92.1c0-1.6-1.3-2.9-2.9-2.9h-70.6
				c-1.6,0-2.9,1.3-2.9,2.9v92.1c0,1.6-1.3,2.9-2.9,2.9h-89.7c-1.6,0-2.9-1.3-2.9-2.9V401.5c0-1.6,1.3-2.9,2.9-2.9H747
				C748.5,398.6,749.8,399.9,749.8,401.5z"/>
			<path class="st8" d="M618.5,234.2l185.9,153.3c1.3,1,1,1.9-0.7,1.9H426.6c-1.6,0-1.9-0.8-0.7-1.9L614,234.2
				C615.2,233.2,617.3,233.2,618.5,234.2z"/>
			<path class="st8" d="M690.2,258.6v26.7c0,1.6,1,3.8,2.3,4.8l34.6,27.1c1.3,1,2.3,0.5,2.3-1.1v-57.5c0-1.6-1.3-2.9-2.9-2.9h-33.4
				C691.5,255.6,690.2,257,690.2,258.6z"/>
		</g>
	</g>
</g>
<g id="Text_1_">
	<g>
		<path d="M1440,523.4h-42.8V415.3h-90.7v108.1h-42.8V274.6h42.8v102.2h90.7V274.6h42.8V523.4z"/>
		<path d="M1558.7,527.2c-26,0-45.8-9.8-59.5-29.3c-13.7-19.6-20.5-42-20.5-67.2c0-27.2,7.6-49.9,22.7-68
			c15.1-18.1,35.1-27.2,60-27.2c23.6,0,42.9,8.8,58.1,26.4c15.1,17.6,22.7,40.5,22.7,68.7c0,29-7.9,52.4-23.6,70.1
			C1602.8,518.3,1582.9,527.2,1558.7,527.2z M1560.1,492.9c26.7,0,40-20.8,40-62.5c0-18.8-3.2-33.7-9.6-44.6
			c-6.4-10.9-16.2-16.3-29.4-16.3c-13.7,0-23.9,5.6-30.5,16.9c-6.6,11.2-9.9,26.1-9.9,44.7c0,20,3.5,35.4,10.5,45.9
			C1538.3,487.6,1547.9,492.9,1560.1,492.9z"/>
		<path d="M1941.1,523.4h-41.6V408.7c0-23.8-10.1-35.7-30.3-35.7c-11.7,0-21.1,4.5-28.1,13.5s-10.5,22.4-10.5,40.3v96.6h-42.1V408.7
			c0-24.2-9.5-36.3-28.4-36.3c-11.5,0-21.2,4.9-29,14.6s-11.7,23-11.7,39.7v96.6h-40.9v-184h38.5v39.2c12.5-28.7,32.1-43,58.7-43
			c25.9,0,42.7,14.3,50.5,43c14.2-28.7,33.7-43,58.7-43c16.9,0,30.6,5.5,40.9,16.6c10.3,11.1,15.5,24.8,15.5,41.2v130.1H1941.1z"/>
		<path d="M2100.5,464.7l35.9,5.1c-4.6,16.6-13.7,30.4-27.2,41.2s-30.4,16.2-50.7,16.2c-24.4,0-44-8.6-58.9-25.7
			s-22.3-40.3-22.3-69.6c0-27.8,7.5-50.8,22.5-69.1c15-18.2,35.3-27.3,60.9-27.3c25.1,0,44.5,9,58.2,27s20.5,41.1,20.5,69.2
			l-0.2,4.7h-120.7c0,12.5,1.1,22.5,3.4,30.1c2.3,7.5,6.8,14.1,13.5,19.7s15.1,8.4,25.2,8.4C2080.5,494.6,2093.7,484.6,2100.5,464.7
			z M2098.1,409.6c-0.1-13.2-3.9-24.1-11.4-32.4c-7.5-8.4-16.7-12.6-27.8-12.6c-10.9,0-20,3.9-27.3,11.8
			c-7.3,7.8-11.6,18.9-12.9,33.3L2098.1,409.6L2098.1,409.6z"/>
	</g>
	<g>
		<path class="st8" d="M1449.5,532.9h-42.8v-108H1316V533h-42.8V284.2h42.8v102.2h90.7V284.2h42.8V532.9z"/>
		<path class="st8" d="M1568.3,536.7c-26,0-45.8-9.8-59.5-29.3c-13.7-19.6-20.5-42-20.5-67.2c0-27.2,7.6-49.9,22.7-68
			c15.1-18.1,35.1-27.2,60-27.2c23.6,0,42.9,8.8,58.1,26.4c15.1,17.6,22.7,40.5,22.7,68.7c0,29-7.9,52.4-23.6,70.1
			C1612.4,527.9,1592.4,536.7,1568.3,536.7z M1569.7,502.5c26.7,0,40-20.8,40-62.5c0-18.8-3.2-33.7-9.6-44.6
			c-6.4-10.9-16.2-16.3-29.4-16.3c-13.7,0-23.9,5.6-30.5,16.9c-6.6,11.2-9.9,26.1-9.9,44.7c0,20,3.5,35.4,10.5,45.9
			C1547.9,497.2,1557.5,502.5,1569.7,502.5z"/>
		<path class="st8" d="M1950.6,532.9H1909V418.3c0-23.8-10.1-35.7-30.3-35.7c-11.7,0-21.1,4.5-28.1,13.5s-10.5,22.4-10.5,40.3V533
			H1798V418.3c0-24.2-9.5-36.3-28.4-36.3c-11.5,0-21.2,4.9-29,14.6s-11.7,23-11.7,39.7v96.6H1688v-184h38.5v39.2
			c12.5-28.7,32.1-43,58.7-43c25.9,0,42.7,14.3,50.5,43c14.2-28.7,33.7-43,58.7-43c16.9,0,30.6,5.5,40.9,16.6
			c10.3,11.1,15.5,24.8,15.5,41.2v130H1950.6z"/>
		<path class="st8" d="M2110.1,474.2l35.9,5.1c-4.6,16.6-13.7,30.4-27.2,41.2c-13.5,10.8-30.4,16.2-50.7,16.2
			c-24.4,0-44-8.6-58.9-25.7s-22.3-40.3-22.3-69.6c0-27.8,7.5-50.8,22.5-69.1c15-18.2,35.3-27.3,60.9-27.3c25.1,0,44.5,9,58.2,27
			s20.5,41.1,20.5,69.2l-0.2,4.7h-120.7c0,12.5,1.1,22.5,3.4,30.1c2.3,7.5,6.8,14.1,13.5,19.7s15.1,8.4,25.2,8.4
			C2090,504.1,2103.3,494.2,2110.1,474.2z M2107.7,419.2c-0.1-13.2-3.9-24.1-11.4-32.4c-7.5-8.4-16.7-12.6-27.8-12.6
			c-10.9,0-20,3.9-27.3,11.8c-7.3,7.8-11.6,18.9-12.9,33.3L2107.7,419.2L2107.7,419.2z"/>
	</g>
</g>
</svg>
