<?xml version="1.0" encoding="utf-8"?>
<!-- Generator: Adobe Illustrator 19.0.0, SVG Export Plug-In . SVG Version: 6.00 Build 0)  -->
<svg version="1.1" id="Layer_1" xmlns="http://www.w3.org/2000/svg" xmlns:xlink="http://www.w3.org/1999/xlink" x="0px" y="0px"
	 viewBox="1044 -441 2700 1890" enable-background="new 1044 -441 2700 1890" xml:space="preserve">
<g id="Frame_1_">
	
		<linearGradient id="SVGID_1_" gradientUnits="userSpaceOnUse" x1="2399.7563" y1="1162.3405" x2="2404.261" y2="468.5538" gradientTransform="matrix(1 0 0 -1 0 1008)">
		<stop  offset="0" style="stop-color:#01002F"/>
		<stop  offset="0.5285" style="stop-color:#024570"/>
		<stop  offset="0.5872" style="stop-color:#024A74"/>
		<stop  offset="0.6593" style="stop-color:#025980"/>
		<stop  offset="0.7384" style="stop-color:#027293"/>
		<stop  offset="0.8226" style="stop-color:#0295AF"/>
		<stop  offset="0.9108" style="stop-color:#01C2D1"/>
		<stop  offset="1" style="stop-color:#01F7FB"/>
	</linearGradient>
	<path fill="url(#SVGID_1_)" d="M1226.7,294.5V103.3c0-142.2,115.3-257.5,257.5-257.5h1835.7c142.2,0,257.5,115.3,257.5,257.5v191.2
		c0,142.2-115.3,257.5-257.5,257.5H1484.2C1342,552,1226.7,436.7,1226.7,294.5z"/>
	<defs>
		<filter id="Adobe_OpacityMaskFilter" filterUnits="userSpaceOnUse" x="1259.6" y="-133.9" width="2292.1" height="489.9">
			<feColorMatrix  type="matrix" values="1 0 0 0 0  0 1 0 0 0  0 0 1 0 0  0 0 0 1 0"/>
		</filter>
	</defs>
	<mask maskUnits="userSpaceOnUse" x="1259.6" y="-133.9" width="2292.1" height="489.9" id="SVGID_13_">
		<g filter="url(#Adobe_OpacityMaskFilter)">
			
				<linearGradient id="SVGID_2_" gradientUnits="userSpaceOnUse" x1="2405.6499" y1="1280.2773" x2="2405.6499" y2="679.499" gradientTransform="matrix(1 0 0 -1 0 1008)">
				<stop  offset="0.1743" style="stop-color:#FFFFFF"/>
				<stop  offset="0.2767" style="stop-color:#BEBEBE"/>
				<stop  offset="0.3792" style="stop-color:#858585"/>
				<stop  offset="0.4787" style="stop-color:#555555"/>
				<stop  offset="0.5726" style="stop-color:#303030"/>
				<stop  offset="0.6594" style="stop-color:#161616"/>
				<stop  offset="0.7368" style="stop-color:#060606"/>
				<stop  offset="0.7967" style="stop-color:#000000"/>
			</linearGradient>
			<path fill="url(#SVGID_2_)" d="M3543.7,356l-2280.4-1.7l-3.7-232.7c0-141.1,114.4-255.5,255.5-255.5h1781.1
				c141.1,0,255.5,114.4,255.5,255.5L3543.7,356z"/>
		</g>
	</mask>
	<path mask="url(#SVGID_13_)" fill="#FFFFFF" d="M3543.7,356l-2280.4-1.7l-3.7-232.7c0-141.1,114.4-255.5,255.5-255.5h1781.1
		c141.1,0,255.5,114.4,255.5,255.5L3543.7,356z"/>
	
		<linearGradient id="SVGID_3_" gradientUnits="userSpaceOnUse" x1="2399.9128" y1="1200.0192" x2="2404.8979" y2="432.2127" gradientTransform="matrix(1 0 0 -1 0 1008)">
		<stop  offset="0" style="stop-color:#898B8D"/>
		<stop  offset="0.2765" style="stop-color:#FCFCFC"/>
		<stop  offset="0.5503" style="stop-color:#515153"/>
		<stop  offset="0.7793" style="stop-color:#FCFCFC"/>
		<stop  offset="0.7931" style="stop-color:#EAEBEB"/>
		<stop  offset="0.8201" style="stop-color:#CDCED0"/>
		<stop  offset="0.8434" style="stop-color:#BBBDC0"/>
		<stop  offset="0.8603" style="stop-color:#B5B7BA"/>
		<stop  offset="0.8732" style="stop-color:#BDBEC1"/>
		<stop  offset="0.9141" style="stop-color:#D0CFD2"/>
		<stop  offset="0.956" style="stop-color:#DBDADD"/>
		<stop  offset="1" style="stop-color:#DFDDE0"/>
	</linearGradient>
	<path fill="url(#SVGID_3_)" d="M3327.4-192.5H1477.6c-163.8,0-296.6,132.8-296.6,296.6v189.5c0,163.8,132.8,296.6,296.6,296.6
		h1849.7c163.8,0,296.6-132.8,296.6-296.6V104.1C3624-59.7,3491.2-192.5,3327.4-192.5z M3566.7,275.5c0,151.8-123,274.8-274.8,274.8
		H1513.2c-151.8,0-274.8-123-274.8-274.8V124.7c0-151.8,123-274.8,274.8-274.8h1778.7c151.8,0,274.8,123,274.8,274.8V275.5z"/>
</g>
<g id="Button_1_">
	<g>
		
			<linearGradient id="SVGID_4_" gradientUnits="userSpaceOnUse" x1="1658.7" y1="1122.4823" x2="1658.7001" y2="500.8636" gradientTransform="matrix(1 0 0 -1 0 1008)">
			<stop  offset="8.379891e-002" style="stop-color:#01002F"/>
			<stop  offset="0.364" style="stop-color:#051D57"/>
			<stop  offset="1" style="stop-color:#0F5EB0"/>
		</linearGradient>
		<ellipse fill="url(#SVGID_4_)" cx="1658.7" cy="199.2" rx="310.2" ry="309.8"/>
		
			<linearGradient id="SVGID_5_" gradientUnits="userSpaceOnUse" x1="1347" y1="808.8" x2="1970.4" y2="808.8" gradientTransform="matrix(1 0 0 -1 0 1008)">
			<stop  offset="0" style="stop-color:#3290C5"/>
			<stop  offset="1" style="stop-color:#0F5EB0"/>
		</linearGradient>
		<path fill="url(#SVGID_5_)" d="M1658.7,510.4c-171.9,0-311.7-139.6-311.7-311.2S1486.8-112,1658.7-112
			c171.9,0,311.7,139.6,311.7,311.2S1830.6,510.4,1658.7,510.4z M1658.7-109.2c-170.3,0-308.8,138.3-308.8,308.3
			s138.5,308.3,308.8,308.3s308.8-138.3,308.8-308.3S1828.9-109.2,1658.7-109.2z"/>
	</g>
	
		<radialGradient id="SVGID_6_" cx="1660.2999" cy="806.3" r="310.3041" gradientTransform="matrix(1 0 0 -1 0 1008)" gradientUnits="userSpaceOnUse">
		<stop  offset="0.8408" style="stop-color:#000000"/>
		<stop  offset="0.855" style="stop-color:#191919"/>
		<stop  offset="0.9275" style="stop-color:#939393"/>
		<stop  offset="0.9773" style="stop-color:#E1E1E1"/>
		<stop  offset="1" style="stop-color:#FFFFFF"/>
	</radialGradient>
	<ellipse fill="url(#SVGID_6_)" cx="1660.3" cy="201.7" rx="311.9" ry="308.7"/>
	<ellipse cx="1658.1" cy="205.1" rx="274.6" ry="271.8"/>
	
		<linearGradient id="SVGID_7_" gradientUnits="userSpaceOnUse" x1="1658.1" y1="1073.6973" x2="1658.1" y2="536.9037" gradientTransform="matrix(1 0 0 -1 0 1008)">
		<stop  offset="0.1788" style="stop-color:#01002F"/>
		<stop  offset="0.3411" style="stop-color:#012054"/>
		<stop  offset="0.5702" style="stop-color:#004983"/>
		<stop  offset="0.6849" style="stop-color:#005995"/>
		<stop  offset="0.7416" style="stop-color:#005C97"/>
		<stop  offset="0.7917" style="stop-color:#00679E"/>
		<stop  offset="0.8393" style="stop-color:#0079AA"/>
		<stop  offset="0.8853" style="stop-color:#0093BA"/>
		<stop  offset="0.9303" style="stop-color:#01B4D0"/>
		<stop  offset="0.9738" style="stop-color:#01DBE9"/>
		<stop  offset="1" style="stop-color:#01F7FB"/>
	</linearGradient>
	<ellipse fill="url(#SVGID_7_)" cx="1658.1" cy="205.1" rx="270.3" ry="267.5"/>
	<g>
		<g>
			<path d="M1790.9,180.4v188.1c0,1.6-1.3,2.9-2.9,2.9h-89.3c-1.6,0-2.9-1.3-2.9-2.9v-92.1c0-1.6-1.3-2.9-2.9-2.9h-70.6
				c-1.6,0-2.9,1.3-2.9,2.9v92.1c0,1.6-1.3,2.9-2.9,2.9h-89.7c-1.6,0-2.9-1.3-2.9-2.9V180.4c0-1.6,1.3-2.9,2.9-2.9h261.3
				C1789.6,177.4,1790.9,178.8,1790.9,180.4z"/>
			<path d="M1659.6,13.1l185.9,153.3c1.3,1,1,1.9-0.7,1.9h-377.1c-1.6,0-1.9-0.8-0.7-1.9l188-153.3
				C1656.3,12.1,1658.3,12.1,1659.6,13.1z"/>
			<path d="M1731.3,37.4v26.7c0,1.6,1,3.8,2.3,4.8l34.6,27.1c1.3,1,2.3,0.5,2.3-1.1V37.4c0-1.6-1.3-2.9-2.9-2.9h-33.4
				C1732.6,34.5,1731.3,35.8,1731.3,37.4z"/>
		</g>
		<g>
			<path fill="#FFFFFF" d="M1793.8,183.3v188.1c0,1.6-1.3,2.9-2.9,2.9h-89.3c-1.6,0-2.9-1.3-2.9-2.9v-92.1c0-1.6-1.3-2.9-2.9-2.9
				h-70.6c-1.6,0-2.9,1.3-2.9,2.9v92.1c0,1.6-1.3,2.9-2.9,2.9h-89.7c-1.6,0-2.9-1.3-2.9-2.9V183.3c0-1.6,1.3-2.9,2.9-2.9H1791
				C1792.5,180.4,1793.8,181.7,1793.8,183.3z"/>
			<path fill="#FFFFFF" d="M1662.5,16l185.9,153.3c1.3,1,1,1.9-0.7,1.9h-377.1c-1.6,0-1.9-0.8-0.7-1.9L1658,16
				C1659.2,15,1661.3,15,1662.5,16z"/>
			<path fill="#FFFFFF" d="M1734.2,40.4v26.7c0,1.6,1,3.8,2.3,4.8l34.6,27.1c1.3,1,2.3,0.5,2.3-1.1V40.4c0-1.6-1.3-2.9-2.9-2.9
				h-33.4C1735.5,37.4,1734.2,38.8,1734.2,40.4z"/>
		</g>
	</g>
</g>
<g id="Text_1_">
	<g>
		<path d="M2484,305.2h-42.8V197.1h-90.7v108.1h-42.8V56.4h42.8v102.2h90.7V56.4h42.8V305.2z"/>
		<path d="M2602.7,309c-26,0-45.8-9.8-59.5-29.3c-13.7-19.6-20.5-42-20.5-67.2c0-27.2,7.6-49.9,22.7-68s35.1-27.2,60-27.2
			c23.6,0,42.9,8.8,58.1,26.4c15.1,17.6,22.7,40.5,22.7,68.7c0,29-7.9,52.4-23.6,70.1C2646.8,300.1,2626.9,309,2602.7,309z
			 M2604.1,274.7c26.7,0,40-20.8,40-62.5c0-18.8-3.2-33.7-9.6-44.6c-6.4-10.9-16.2-16.3-29.4-16.3c-13.7,0-23.9,5.6-30.5,16.9
			c-6.6,11.2-9.9,26.1-9.9,44.7c0,20,3.5,35.4,10.5,45.9C2582.3,269.4,2591.9,274.7,2604.1,274.7z"/>
		<path d="M2985.1,305.2h-41.6V190.5c0-23.8-10.1-35.7-30.3-35.7c-11.7,0-21.1,4.5-28.1,13.5s-10.5,22.4-10.5,40.3v96.6h-42.1V190.5
			c0-24.2-9.5-36.3-28.4-36.3c-11.5,0-21.2,4.9-29,14.6c-7.8,9.7-11.7,23-11.7,39.7v96.6h-40.9v-184h38.5v39.2
			c12.5-28.7,32.1-43,58.7-43c25.9,0,42.7,14.3,50.5,43c14.2-28.7,33.7-43,58.7-43c16.9,0,30.6,5.5,40.9,16.6
			c10.3,11.1,15.5,24.8,15.5,41.2v130.1H2985.1z"/>
		<path d="M3144.5,246.5l35.9,5.1c-4.6,16.6-13.7,30.4-27.2,41.2s-30.4,16.2-50.7,16.2c-24.4,0-44-8.6-58.9-25.7
			c-14.9-17.1-22.3-40.3-22.3-69.6c0-27.8,7.5-50.8,22.5-69.1c15-18.2,35.3-27.3,60.9-27.3c25.1,0,44.5,9,58.2,27
			s20.5,41.1,20.5,69.2l-0.2,4.7h-120.7c0,12.5,1.1,22.5,3.4,30.1c2.3,7.5,6.8,14.1,13.5,19.7c6.7,5.6,15.1,8.4,25.2,8.4
			C3124.5,276.4,3137.7,266.4,3144.5,246.5z M3142.1,191.4c-0.1-13.2-3.9-24.1-11.4-32.4c-7.5-8.4-16.7-12.6-27.8-12.6
			c-10.9,0-20,3.9-27.3,11.8c-7.3,7.8-11.6,18.9-12.9,33.3L3142.1,191.4L3142.1,191.4z"/>
	</g>
	<g>
		<path fill="#FFFFFF" d="M2493.5,314.7h-42.8v-108H2360v108.1h-42.8V66h42.8v102.2h90.7V66h42.8V314.7z"/>
		<path fill="#FFFFFF" d="M2612.3,318.5c-26,0-45.8-9.8-59.5-29.3c-13.7-19.6-20.5-42-20.5-67.2c0-27.2,7.6-49.9,22.7-68
			s35.1-27.2,60-27.2c23.6,0,42.9,8.8,58.1,26.4c15.1,17.6,22.7,40.5,22.7,68.7c0,29-7.9,52.4-23.6,70.1
			C2656.4,309.7,2636.4,318.5,2612.3,318.5z M2613.7,284.3c26.7,0,40-20.8,40-62.5c0-18.8-3.2-33.7-9.6-44.6
			c-6.4-10.9-16.2-16.3-29.4-16.3c-13.7,0-23.9,5.6-30.5,16.9c-6.6,11.2-9.9,26.1-9.9,44.7c0,20,3.5,35.4,10.5,45.9
			C2591.9,279,2601.5,284.3,2613.7,284.3z"/>
		<path fill="#FFFFFF" d="M2994.6,314.7H2953V200.1c0-23.8-10.1-35.7-30.3-35.7c-11.7,0-21.1,4.5-28.1,13.5s-10.5,22.4-10.5,40.3
			v96.6H2842V200.1c0-24.2-9.5-36.3-28.4-36.3c-11.5,0-21.2,4.9-29,14.6c-7.8,9.7-11.7,23-11.7,39.7v96.6H2732v-184h38.5v39.2
			c12.5-28.7,32.1-43,58.7-43c25.9,0,42.7,14.3,50.5,43c14.2-28.7,33.7-43,58.7-43c16.9,0,30.6,5.5,40.9,16.6
			c10.3,11.1,15.5,24.8,15.5,41.2v130H2994.6z"/>
		<path fill="#FFFFFF" d="M3154.1,256l35.9,5.1c-4.6,16.6-13.7,30.4-27.2,41.2s-30.4,16.2-50.7,16.2c-24.4,0-44-8.6-58.9-25.7
			c-14.9-17.1-22.3-40.3-22.3-69.6c0-27.8,7.5-50.8,22.5-69.1c15-18.2,35.3-27.3,60.9-27.3c25.1,0,44.5,9,58.2,27
			s20.5,41.1,20.5,69.2l-0.2,4.7h-120.7c0,12.5,1.1,22.5,3.4,30.1c2.3,7.5,6.8,14.1,13.5,19.7c6.7,5.6,15.1,8.4,25.2,8.4
			C3134,285.9,3147.3,276,3154.1,256z M3151.7,201c-0.1-13.2-3.9-24.1-11.4-32.4c-7.5-8.4-16.7-12.6-27.8-12.6
			c-10.9,0-20,3.9-27.3,11.8c-7.3,7.8-11.6,18.9-12.9,33.3L3151.7,201L3151.7,201z"/>
	</g>
</g>
</svg>
