<?xml version="1.0" encoding="utf-8"?>
<!-- Generator: Adobe Illustrator 18.1.1, SVG Export Plug-In . SVG Version: 6.00 Build 0)  -->
<svg version="1.1" id="Layer_1" xmlns="http://www.w3.org/2000/svg" xmlns:xlink="http://www.w3.org/1999/xlink" x="0px" y="0px"
	 viewBox="0 0 360 129.6" enable-background="new 0 0 360 129.6" xml:space="preserve">
<linearGradient id="SVGID_1_" gradientUnits="userSpaceOnUse" x1="-5438.6924" y1="1963.0193" x2="-5434.1885" y2="2656.7222" gradientTransform="matrix(0.1333 0 0 0.1333 904.8 -241.8)">
	<stop  offset="2.150538e-002" style="stop-color:#01002F"/>
	<stop  offset="0.5285" style="stop-color:#024570"/>
	<stop  offset="0.5872" style="stop-color:#024A74"/>
	<stop  offset="0.6593" style="stop-color:#025980"/>
	<stop  offset="0.7384" style="stop-color:#027293"/>
	<stop  offset="0.8226" style="stop-color:#0295AF"/>
	<stop  offset="0.9108" style="stop-color:#01C2D1"/>
	<stop  offset="1" style="stop-color:#01F7FB"/>
</linearGradient>
<path fill="url(#SVGID_1_)" d="M23.2,79.8V54.3c0-19,15.4-34.3,34.3-34.3h244.7c19,0,34.3,15.4,34.3,34.3v25.5
	c0,19-15.4,34.3-34.3,34.3H57.6C38.6,114.1,23.2,98.7,23.2,79.8z"/>
<defs>
	<filter id="Adobe_OpacityMaskFilter" filterUnits="userSpaceOnUse" x="27.6" y="22.7" width="305.6" height="65.3">
		<feColorMatrix  type="matrix" values="1 0 0 0 0  0 1 0 0 0  0 0 1 0 0  0 0 0 1 0"/>
	</filter>
</defs>
<mask maskUnits="userSpaceOnUse" x="27.6" y="22.7" width="305.6" height="65.3" id="SVGID_2_">
	<g filter="url(#Adobe_OpacityMaskFilter)">
		
			<linearGradient id="SVGID_3_" gradientUnits="userSpaceOnUse" x1="-5432.8994" y1="1845.0973" x2="-5432.8994" y2="2445.803" gradientTransform="matrix(0.1333 0 0 0.1333 904.8 -241.8)">
			<stop  offset="0.1743" style="stop-color:#FFFFFF"/>
			<stop  offset="0.2767" style="stop-color:#BEBEBE"/>
			<stop  offset="0.3792" style="stop-color:#858585"/>
			<stop  offset="0.4787" style="stop-color:#555555"/>
			<stop  offset="0.5726" style="stop-color:#303030"/>
			<stop  offset="0.6594" style="stop-color:#161616"/>
			<stop  offset="0.7368" style="stop-color:#060606"/>
			<stop  offset="0.7967" style="stop-color:#000000"/>
		</linearGradient>
		<path fill="url(#SVGID_3_)" d="M332.1,88l-304-0.2l-0.5-31c0-18.8,15.3-34.1,34.1-34.1h237.5c18.8,0,34.1,15.3,34.1,34.1L332.1,88
			z"/>
	</g>
</mask>
<path mask="url(#SVGID_2_)" fill="#FFFFFF" d="M332.1,88l-304-0.2l-0.5-31c0-18.8,15.3-34.1,34.1-34.1h237.5
	c18.8,0,34.1,15.3,34.1,34.1L332.1,88z"/>
<linearGradient id="SVGID_4_" gradientUnits="userSpaceOnUse" x1="-5438.5371" y1="1925.3451" x2="-5433.5527" y2="2693.0586" gradientTransform="matrix(0.1333 0 0 0.1333 904.8 -241.8)">
	<stop  offset="0" style="stop-color:#898B8D"/>
	<stop  offset="0.2765" style="stop-color:#FCFCFC"/>
	<stop  offset="0.5503" style="stop-color:#515153"/>
	<stop  offset="0.7793" style="stop-color:#FCFCFC"/>
	<stop  offset="0.7931" style="stop-color:#EAEBEB"/>
	<stop  offset="0.8201" style="stop-color:#CDCED0"/>
	<stop  offset="0.8434" style="stop-color:#BBBDC0"/>
	<stop  offset="0.8603" style="stop-color:#B5B7BA"/>
	<stop  offset="0.8732" style="stop-color:#BDBEC1"/>
	<stop  offset="0.9141" style="stop-color:#D0CFD2"/>
	<stop  offset="0.956" style="stop-color:#DBDADD"/>
	<stop  offset="1" style="stop-color:#DFDDE0"/>
</linearGradient>
<path fill="url(#SVGID_4_)" d="M303.3,14.9H56.7c-21.8,0-39.5,17.7-39.5,39.5v25.3c0,21.8,17.7,39.5,39.5,39.5h246.6
	c21.8,0,39.5-17.7,39.5-39.5V54.4C342.8,32.6,325.1,14.9,303.3,14.9z M335.2,77.3c0,20.2-16.4,36.6-36.6,36.6H61.4
	c-20.2,0-36.6-16.4-36.6-36.6V57.1c0-20.2,16.4-36.6,36.6-36.6h237.1c20.2,0,36.6,16.4,36.6,36.6L335.2,77.3L335.2,77.3z"/>
<g>
	
		<linearGradient id="SVGID_5_" gradientUnits="userSpaceOnUse" x1="-6179.7495" y1="2002.8732" x2="-6179.7495" y2="2624.4167" gradientTransform="matrix(0.1333 0 0 0.1333 904.8 -241.8)">
		<stop  offset="8.379891e-002" style="stop-color:#01002F"/>
		<stop  offset="0.364" style="stop-color:#051D57"/>
		<stop  offset="1" style="stop-color:#0F5EB0"/>
	</linearGradient>
	<ellipse fill="url(#SVGID_5_)" cx="80.8" cy="67.1" rx="41.4" ry="41.3"/>
	
		<linearGradient id="SVGID_6_" gradientUnits="userSpaceOnUse" x1="-6491.4497" y1="2316.4766" x2="-5868.0498" y2="2316.4766" gradientTransform="matrix(0.1333 0 0 0.1333 904.8 -241.8)">
		<stop  offset="0" style="stop-color:#3290C5"/>
		<stop  offset="1" style="stop-color:#0F5EB0"/>
	</linearGradient>
	<path fill="url(#SVGID_6_)" d="M80.8,108.6c-22.9,0-41.6-18.6-41.6-41.5s18.6-41.5,41.6-41.5s41.6,18.6,41.6,41.5
		S103.8,108.6,80.8,108.6z M80.8,26c-22.7,0-41.2,18.4-41.2,41.1s18.5,41.1,41.2,41.1S122,89.7,122,67.1S103.5,26,80.8,26z"/>
</g>
<radialGradient id="SVGID_7_" cx="-6178.1494" cy="2318.9766" r="310.2539" gradientTransform="matrix(0.1333 0 0 0.1333 904.8 -241.8)" gradientUnits="userSpaceOnUse">
	<stop  offset="0.8408" style="stop-color:#000000"/>
	<stop  offset="0.855" style="stop-color:#191919"/>
	<stop  offset="0.9275" style="stop-color:#939393"/>
	<stop  offset="0.9773" style="stop-color:#E1E1E1"/>
	<stop  offset="1" style="stop-color:#FFFFFF"/>
</radialGradient>
<ellipse fill="url(#SVGID_7_)" cx="81" cy="67.4" rx="41.6" ry="41.2"/>
<ellipse cx="80.8" cy="67.9" rx="36.6" ry="36.2"/>
<linearGradient id="SVGID_8_" gradientUnits="userSpaceOnUse" x1="-6180.3496" y1="2051.6523" x2="-6180.3496" y2="2588.3811" gradientTransform="matrix(0.1333 0 0 0.1333 904.8 -241.8)">
	<stop  offset="0.1788" style="stop-color:#01002F"/>
	<stop  offset="0.3411" style="stop-color:#012054"/>
	<stop  offset="0.5702" style="stop-color:#004983"/>
	<stop  offset="0.6849" style="stop-color:#005995"/>
	<stop  offset="0.7416" style="stop-color:#005C97"/>
	<stop  offset="0.7917" style="stop-color:#00679E"/>
	<stop  offset="0.8393" style="stop-color:#0079AA"/>
	<stop  offset="0.8853" style="stop-color:#0093BA"/>
	<stop  offset="0.9303" style="stop-color:#01B4D0"/>
	<stop  offset="0.9738" style="stop-color:#01DBE9"/>
	<stop  offset="1" style="stop-color:#01F7FB"/>
</linearGradient>
<ellipse fill="url(#SVGID_8_)" cx="80.8" cy="67.9" rx="36" ry="35.7"/>
<g>
	<g>
		<polygon fill="#000400" points="82.2,90.2 82.2,77.9 71.8,77.9 71.8,58 82.2,58 82.2,45.5 102.6,67.9 		"/>
		<rect x="64.5" y="58" fill="#000400" width="5.8" height="19.9"/>
		<rect x="58.7" y="58" fill="#000400" width="3.3" height="19.9"/>
	</g>
	<g>
		<polygon fill="#FFFFFF" points="83,91 83,78.6 72.6,78.6 72.6,58.8 83,58.8 83,46.3 103.4,68.6 		"/>
		<rect x="65.3" y="58.8" fill="#FFFFFF" width="5.8" height="19.9"/>
		<rect x="59.5" y="58.8" fill="#FFFFFF" width="3.3" height="19.9"/>
	</g>
</g>
<g>
	<path d="M171.5,84.7V46h7.6l15.8,25.8V46h7.2v38.6h-7.8l-15.6-25.2v25.2H171.5z"/>
	<path d="M226.5,75.7l7.4,1.2c-0.9,2.7-2.4,4.8-4.5,6.2c-2,1.4-4.6,2.1-7.7,2.1c-4.9,0-8.5-1.6-10.8-4.8c-1.8-2.5-2.8-5.8-2.8-9.6
		c0-4.6,1.2-8.3,3.6-10.9c2.4-2.6,5.5-3.9,9.2-3.9c4.2,0,7.4,1.4,9.9,4.1c2.4,2.7,3.6,7,3.5,12.6h-18.5c0.1,2.2,0.7,3.9,1.8,5.1
		c1.1,1.2,2.6,1.8,4.3,1.8c1.2,0,2.1-0.3,2.9-0.9C225.5,78.2,226.1,77.1,226.5,75.7z M226.9,68.3c-0.1-2.1-0.6-3.8-1.7-4.9
		c-1.1-1.1-2.3-1.7-3.8-1.7c-1.6,0-2.9,0.6-4,1.8c-1.1,1.2-1.6,2.8-1.6,4.8H226.9z"/>
	<path d="M236.7,84.7l10.1-14.4l-9.7-13.6h9l4.9,7.7l5.2-7.7h8.7l-9.5,13.3l10.3,14.7h-9.1l-5.7-8.7l-5.7,8.7L236.7,84.7L236.7,84.7
		z"/>
	<path d="M283.1,56.7v5.9h-5.1v11.3c0,2.3,0.1,3.6,0.1,4c0.1,0.4,0.3,0.7,0.7,0.9c0.3,0.2,0.8,0.4,1.3,0.4c0.7,0,1.7-0.2,3-0.7
		l0.6,5.7c-1.7,0.7-3.7,1.1-5.9,1.1c-1.3,0-2.5-0.2-3.6-0.7c-1.1-0.5-1.9-1-2.4-1.7s-0.9-1.7-1-2.9c-0.2-0.9-0.2-2.6-0.2-5.2V62.6
		h-3.4v-5.9h3.4v-5.5l7.4-4.3v9.9L283.1,56.7L283.1,56.7z"/>
</g>
<g>
	<path fill="#FFFFFF" d="M174.1,85.9V47.3h7.6l15.8,25.8V47.3h7.2v38.6h-7.8l-15.5-25.2v25.2H174.1z"/>
	<path fill="#FFFFFF" d="M229.2,77l7.4,1.2c-0.9,2.7-2.4,4.8-4.5,6.2c-2,1.4-4.6,2.1-7.7,2.1c-4.9,0-8.5-1.6-10.8-4.8
		c-1.8-2.5-2.8-5.8-2.8-9.6c0-4.6,1.2-8.3,3.6-10.9c2.4-2.6,5.5-3.9,9.2-3.9c4.2,0,7.4,1.4,9.9,4.1c2.4,2.7,3.6,7,3.5,12.6h-18.5
		c0.1,2.2,0.7,3.9,1.8,5.1c1.1,1.2,2.6,1.8,4.3,1.8c1.2,0,2.1-0.3,2.9-0.9C228.2,79.4,228.8,78.4,229.2,77z M229.6,69.5
		c-0.1-2.1-0.6-3.8-1.7-4.9c-1.1-1.1-2.3-1.7-3.8-1.7c-1.6,0-2.9,0.6-4,1.8c-1.1,1.2-1.6,2.8-1.6,4.8H229.6z"/>
	<path fill="#FFFFFF" d="M239.4,85.9l10.1-14.4l-9.7-13.6h9l4.9,7.7l5.2-7.7h8.7l-9.5,13.3l10.3,14.7h-9.1l-5.7-8.7l-5.7,8.7
		L239.4,85.9L239.4,85.9z"/>
	<path fill="#FFFFFF" d="M285.8,57.9v5.9h-5.1v11.3c0,2.3,0.1,3.6,0.1,4c0.1,0.4,0.3,0.7,0.7,0.9c0.3,0.2,0.8,0.4,1.3,0.4
		c0.7,0,1.7-0.2,3-0.7l0.6,5.7c-1.7,0.7-3.7,1.1-5.9,1.1c-1.3,0-2.5-0.2-3.6-0.7c-1.1-0.5-1.9-1-2.4-1.7s-0.9-1.7-1-2.9
		c-0.2-0.9-0.2-2.6-0.2-5.2V63.8h-3.4v-5.9h3.4v-5.6l7.4-4.3v9.9H285.8z"/>
</g>
</svg>
