<?xml version="1.0" encoding="utf-8"?>
<!-- Generator: Adobe Illustrator 19.0.0, SVG Export Plug-In . SVG Version: 6.00 Build 0)  -->
<svg version="1.1" id="Layer_1" xmlns="http://www.w3.org/2000/svg" xmlns:xlink="http://www.w3.org/1999/xlink" x="0px" y="0px"
	 viewBox="1044 -441 2700 1890" enable-background="new 1044 -441 2700 1890" xml:space="preserve">
<linearGradient id="SVGID_1_" gradientUnits="userSpaceOnUse" x1="2399.957" y1="1164.7573" x2="2404.4612" y2="471.0544" gradientTransform="matrix(1 0 0 -1 0 1008)">
	<stop  offset="2.150538e-002" style="stop-color:#01002F"/>
	<stop  offset="0.5285" style="stop-color:#024570"/>
	<stop  offset="0.5872" style="stop-color:#024A74"/>
	<stop  offset="0.6593" style="stop-color:#025980"/>
	<stop  offset="0.7384" style="stop-color:#027293"/>
	<stop  offset="0.8226" style="stop-color:#0295AF"/>
	<stop  offset="0.9108" style="stop-color:#01C2D1"/>
	<stop  offset="1" style="stop-color:#01F7FB"/>
</linearGradient>
<path fill="url(#SVGID_1_)" d="M1227,292V100.8c0-142.2,115.3-257.5,257.5-257.5H3320c142.2,0,257.5,115.3,257.5,257.5V292
	c0,142.2-115.3,257.5-257.5,257.5H1484.5C1342.2,549.5,1227,434.2,1227,292z"/>
<defs>
	<filter id="Adobe_OpacityMaskFilter" filterUnits="userSpaceOnUse" x="1259.8" y="-136.3" width="2291.9" height="489.8">
		<feColorMatrix  type="matrix" values="1 0 0 0 0  0 1 0 0 0  0 0 1 0 0  0 0 0 1 0"/>
	</filter>
</defs>
<mask maskUnits="userSpaceOnUse" x="1259.8" y="-136.3" width="2291.9" height="489.8" id="SVGID_2_">
	<g filter="url(#Adobe_OpacityMaskFilter)">
		
			<linearGradient id="SVGID_3_" gradientUnits="userSpaceOnUse" x1="2405.75" y1="1282.6793" x2="2405.75" y2="681.9736" gradientTransform="matrix(1 0 0 -1 0 1008)">
			<stop  offset="0.1743" style="stop-color:#FFFFFF"/>
			<stop  offset="0.2767" style="stop-color:#BEBEBE"/>
			<stop  offset="0.3792" style="stop-color:#858585"/>
			<stop  offset="0.4787" style="stop-color:#555555"/>
			<stop  offset="0.5726" style="stop-color:#303030"/>
			<stop  offset="0.6594" style="stop-color:#161616"/>
			<stop  offset="0.7368" style="stop-color:#060606"/>
			<stop  offset="0.7967" style="stop-color:#000000"/>
		</linearGradient>
		<path fill="url(#SVGID_3_)" d="M3543.6,353.5l-2280.1-1.7l-3.7-232.6c0-141.1,114.4-255.5,255.5-255.5h1780.9
			c141.1,0,255.5,114.4,255.5,255.5L3543.6,353.5z"/>
	</g>
</mask>
<path mask="url(#SVGID_2_)" fill="#FFFFFF" d="M3543.6,353.5l-2280.1-1.7l-3.7-232.6c0-141.1,114.4-255.5,255.5-255.5h1780.9
	c141.1,0,255.5,114.4,255.5,255.5L3543.6,353.5z"/>
<linearGradient id="SVGID_4_" gradientUnits="userSpaceOnUse" x1="2400.1125" y1="1202.4315" x2="2405.0969" y2="434.7179" gradientTransform="matrix(1 0 0 -1 0 1008)">
	<stop  offset="0" style="stop-color:#898B8D"/>
	<stop  offset="0.2765" style="stop-color:#FCFCFC"/>
	<stop  offset="0.5503" style="stop-color:#515153"/>
	<stop  offset="0.7793" style="stop-color:#FCFCFC"/>
	<stop  offset="0.7931" style="stop-color:#EAEBEB"/>
	<stop  offset="0.8201" style="stop-color:#CDCED0"/>
	<stop  offset="0.8434" style="stop-color:#BBBDC0"/>
	<stop  offset="0.8603" style="stop-color:#B5B7BA"/>
	<stop  offset="0.8732" style="stop-color:#BDBEC1"/>
	<stop  offset="0.9141" style="stop-color:#D0CFD2"/>
	<stop  offset="0.956" style="stop-color:#DBDADD"/>
	<stop  offset="1" style="stop-color:#DFDDE0"/>
</linearGradient>
<path fill="url(#SVGID_4_)" d="M3327.4-194.9H1477.9c-163.8,0-296.6,132.8-296.6,296.6v189.4c0,163.8,132.8,296.6,296.6,296.6
	h1849.5c163.8,0,296.6-132.8,296.6-296.6V101.7C3624-62.1,3491.2-194.9,3327.4-194.9z M3566.6,273.1c0,151.7-123,274.8-274.8,274.8
	H1513.4c-151.8,0-274.8-123-274.8-274.8V122.3c0-151.8,123-274.8,274.8-274.8h1778.4c151.8,0,274.8,123,274.8,274.8V273.1z"/>
<g>
	
		<linearGradient id="SVGID_5_" gradientUnits="userSpaceOnUse" x1="1658.9" y1="1124.9034" x2="1658.9" y2="503.3598" gradientTransform="matrix(1 0 0 -1 0 1008)">
		<stop  offset="8.379891e-002" style="stop-color:#01002F"/>
		<stop  offset="0.364" style="stop-color:#051D57"/>
		<stop  offset="1" style="stop-color:#0F5EB0"/>
	</linearGradient>
	<ellipse fill="url(#SVGID_5_)" cx="1658.9" cy="196.7" rx="310.2" ry="309.7"/>
	
		<linearGradient id="SVGID_6_" gradientUnits="userSpaceOnUse" x1="1347.2" y1="811.3" x2="1970.6001" y2="811.3" gradientTransform="matrix(1 0 0 -1 0 1008)">
		<stop  offset="0" style="stop-color:#3290C5"/>
		<stop  offset="1" style="stop-color:#0F5EB0"/>
	</linearGradient>
	<path fill="url(#SVGID_6_)" d="M1658.9,507.9c-171.9,0-311.7-139.6-311.7-311.2s139.8-311.2,311.7-311.2s311.7,139.6,311.7,311.2
		S1830.8,507.9,1658.9,507.9z M1658.9-111.6c-170.2,0-308.7,138.3-308.7,308.3S1488.7,505,1658.9,505s308.7-138.3,308.7-308.3
		S1829.1-111.6,1658.9-111.6z"/>
</g>
<radialGradient id="SVGID_7_" cx="1660.5" cy="808.8" r="310.2539" gradientTransform="matrix(1 0 0 -1 0 1008)" gradientUnits="userSpaceOnUse">
	<stop  offset="0.8408" style="stop-color:#000000"/>
	<stop  offset="0.855" style="stop-color:#191919"/>
	<stop  offset="0.9275" style="stop-color:#939393"/>
	<stop  offset="0.9773" style="stop-color:#E1E1E1"/>
	<stop  offset="1" style="stop-color:#FFFFFF"/>
</radialGradient>
<ellipse fill="url(#SVGID_7_)" cx="1660.5" cy="199.2" rx="311.8" ry="308.7"/>
<ellipse cx="1658.3" cy="202.7" rx="274.5" ry="271.7"/>
<linearGradient id="SVGID_8_" gradientUnits="userSpaceOnUse" x1="1658.2999" y1="1076.1243" x2="1658.3" y2="539.3955" gradientTransform="matrix(1 0 0 -1 0 1008)">
	<stop  offset="0.1788" style="stop-color:#01002F"/>
	<stop  offset="0.3411" style="stop-color:#012054"/>
	<stop  offset="0.5702" style="stop-color:#004983"/>
	<stop  offset="0.6849" style="stop-color:#005995"/>
	<stop  offset="0.7416" style="stop-color:#005C97"/>
	<stop  offset="0.7917" style="stop-color:#00679E"/>
	<stop  offset="0.8393" style="stop-color:#0079AA"/>
	<stop  offset="0.8853" style="stop-color:#0093BA"/>
	<stop  offset="0.9303" style="stop-color:#01B4D0"/>
	<stop  offset="0.9738" style="stop-color:#01DBE9"/>
	<stop  offset="1" style="stop-color:#01F7FB"/>
</linearGradient>
<ellipse fill="url(#SVGID_8_)" cx="1658.3" cy="202.7" rx="270.2" ry="267.5"/>
<g>
	<g>
		<polygon fill="#000400" points="1669.4,370.5 1669.4,277.6 1591.2,277.6 1591.2,128.7 1669.4,128.7 1669.4,35.2 1822.4,202.9 		
			"/>
		<rect x="1536.1" y="128.7" fill="#000400" width="43.5" height="148.9"/>
		<rect x="1492.6" y="128.7" fill="#000400" width="25" height="148.9"/>
	</g>
	<g>
		<polygon fill="#FFFFFF" points="1675.4,376.2 1675.4,283.3 1597.3,283.3 1597.3,134.4 1675.4,134.4 1675.4,40.9 1828.5,208.5 		
			"/>
		<rect x="1542.2" y="134.4" fill="#FFFFFF" width="43.5" height="148.9"/>
		<rect x="1498.6" y="134.4" fill="#FFFFFF" width="25" height="148.9"/>
	</g>
</g>
<g>
	<path d="M2338.6,328.6V38.9h56.9L2514,232.4V38.9h54.3v289.7h-58.7l-116.8-188.9v188.9H2338.6z"/>
	<path d="M2751.3,261.8l55.3,9.3c-7.1,20.3-18.3,35.7-33.7,46.3c-15.3,10.6-34.5,15.9-57.6,15.9c-36.5,0-63.5-11.9-81-35.8
		c-13.8-19.1-20.7-43.2-20.7-72.3c0-34.8,9.1-62,27.3-81.7c18.2-19.7,41.2-29.5,69-29.5c31.2,0,55.8,10.3,73.9,30.9
		c18,20.6,26.7,52.2,25.9,94.7h-139.1c0.4,16.5,4.9,29.3,13.4,38.4c8.6,9.2,19.2,13.7,32,13.7c8.7,0,16-2.4,21.9-7.1
		C2743.8,280,2748.3,272.3,2751.3,261.8z M2754.5,205.7c-0.4-16.1-4.5-28.3-12.4-36.7c-7.9-8.4-17.5-12.5-28.8-12.5
		c-12.1,0-22.1,4.4-30,13.2c-7.9,8.8-11.8,20.8-11.7,36H2754.5z"/>
	<path d="M2828.2,328.6l75.7-108.1l-72.5-101.8h67.8l37.1,57.7l39.1-57.7h65.2l-71.1,99.4l77.6,110.4h-68.2l-42.7-65l-43.1,65
		H2828.2z"/>
	<path d="M3176.1,118.7V163h-37.9v84.6c0,17.1,0.4,27.1,1.1,29.9c0.7,2.8,2.4,5.2,4.9,7c2.6,1.8,5.7,2.8,9.4,2.8
		c5.1,0,12.6-1.8,22.3-5.3l4.7,43.1c-12.9,5.5-27.5,8.3-43.9,8.3c-10,0-19-1.7-27.1-5c-8-3.4-13.9-7.7-17.7-13
		c-3.8-5.3-6.4-12.5-7.8-21.6c-1.2-6.5-1.8-19.5-1.8-39.1V163H3057v-44.3h25.5V77.1l55.7-32.4v74.1H3176.1z"/>
</g>
<g>
	<path fill="#FFFFFF" d="M2358.7,337.9V48.2h56.9l118.5,193.4V48.2h54.3v289.7h-58.7L2413.1,149v188.9H2358.7z"/>
	<path fill="#FFFFFF" d="M2771.5,271.1l55.3,9.3c-7.1,20.3-18.3,35.7-33.7,46.3c-15.3,10.6-34.5,15.9-57.6,15.9
		c-36.5,0-63.5-11.9-81-35.8c-13.8-19.1-20.7-43.2-20.7-72.3c0-34.8,9.1-62,27.3-81.7c18.2-19.7,41.2-29.5,69-29.5
		c31.2,0,55.8,10.3,73.9,30.9c18,20.6,26.7,52.2,25.9,94.7h-139.1c0.4,16.5,4.9,29.3,13.4,38.4c8.6,9.2,19.2,13.7,32,13.7
		c8.7,0,16-2.4,21.9-7.1C2764,289.3,2768.4,281.6,2771.5,271.1z M2774.6,215c-0.4-16.1-4.5-28.3-12.4-36.7
		c-7.9-8.4-17.5-12.5-28.8-12.5c-12.1,0-22.1,4.4-30,13.2c-7.9,8.8-11.8,20.8-11.7,36H2774.6z"/>
	<path fill="#FFFFFF" d="M2848.3,337.9l75.7-108.1L2851.5,128h67.8l37.1,57.7l39.1-57.7h65.2l-71.1,99.4l77.6,110.4h-68.2l-42.7-65
		l-43.1,65H2848.3z"/>
	<path fill="#FFFFFF" d="M3196.3,128v44.3h-37.9v84.6c0,17.1,0.4,27.1,1.1,29.9c0.7,2.8,2.4,5.2,4.9,7c2.6,1.8,5.7,2.8,9.4,2.8
		c5.1,0,12.6-1.8,22.3-5.3l4.7,43.1c-12.9,5.5-27.5,8.3-43.9,8.3c-10,0-19-1.7-27.1-5c-8-3.4-13.9-7.7-17.7-13
		c-3.8-5.3-6.4-12.5-7.8-21.6c-1.2-6.5-1.8-19.5-1.8-39.1v-91.5h-25.5V128h25.5V86.3l55.7-32.4V128H3196.3z"/>
</g>
</svg>
