<?xml version="1.0" encoding="utf-8"?>
<!-- Generator: Adobe Illustrator 23.0.3, SVG Export Plug-In . SVG Version: 6.00 Build 0)  -->
<svg version="1.1" id="Layer_1" xmlns="http://www.w3.org/2000/svg" xmlns:xlink="http://www.w3.org/1999/xlink" x="0px" y="0px"
	 viewBox="0 0 266 234" style="enable-background:new 0 0 266 234;" xml:space="preserve">
<g>
	<g>
		<g>
			<path d="M133,235.1c-18,0-35.4-2.9-51.8-8.5c-15.8-5.5-30.1-13.3-42.3-23.2c-12.2-10-21.8-21.6-28.5-34.5
				C3.5,155.5,0,141.3,0,126.7c0-19.8,6.6-39.2,19.2-56.1c12.2-16.4,29.5-29.9,50.1-39.1c6-2.7,13.6-0.9,16.9,4
				c3.3,4.9,1.1,11.1-5,13.8c-34.7,15.5-56.3,45.1-56.3,77.4c0,48.6,48.5,88.1,108.1,88.1c59.6,0,108.1-39.5,108.1-88.1
				c0-32.2-21.6-61.9-56.3-77.4c-6-2.7-8.3-8.9-5-13.8c3.3-4.9,10.9-6.7,16.9-4c20.6,9.2,37.9,22.7,50.1,39.1
				c12.5,16.9,19.2,36.3,19.2,56.1c0,14.6-3.5,28.8-10.5,42.2c-6.7,12.9-16.3,24.5-28.5,34.5c-12.2,10-26.4,17.8-42.3,23.2
				C168.4,232.2,150.9,235.1,133,235.1z"/>
		</g>
	</g>
	<g>
		<path d="M133,109.6c-6.9,0-12.5-4.6-12.5-10.2V10.2C120.5,4.6,126.1,0,133,0c6.9,0,12.5,4.6,12.5,10.2v89.3
			C145.5,105.1,139.9,109.6,133,109.6z"/>
	</g>
</g>
</svg>
