<?xml version="1.0" encoding="utf-8"?>
<!-- Generator: Adobe Illustrator 23.0.3, SVG Export Plug-In . SVG Version: 6.00 Build 0)  -->
<svg version="1.1" id="Layer_1" xmlns="http://www.w3.org/2000/svg" xmlns:xlink="http://www.w3.org/1999/xlink" x="0px" y="0px"
	 viewBox="0 0 266 234" style="enable-background:new 0 0 266 234;" xml:space="preserve">
<style type="text/css">
	.st0{fill:#6B6B6B;}
</style>
<g>
	<g>
		<g>
			<path class="st0" d="M133,211.1c-14.4,0-28.3-2.3-41.4-6.8c-12.7-4.4-24.1-10.6-33.8-18.6c-9.8-8-17.4-17.2-22.8-27.6
				c-5.6-10.7-8.4-22.1-8.4-33.8c0-15.9,5.3-31.4,15.3-44.9C51.6,66.3,65.5,55.5,82,48.1c4.8-2.2,10.9-0.7,13.5,3.2
				c2.6,3.9,0.9,8.9-4,11c-27.8,12.4-45,36.1-45,61.9c0,38.9,38.8,70.5,86.5,70.5c47.7,0,86.5-31.6,86.5-70.5
				c0-25.8-17.3-49.5-45-61.9c-4.8-2.2-6.6-7.1-4-11c2.6-3.9,8.7-5.4,13.5-3.2c16.5,7.4,30.3,18.2,40.1,31.3
				c10,13.5,15.3,29,15.3,44.9c0,11.7-2.8,23.1-8.4,33.8c-5.4,10.3-13,19.6-22.8,27.6c-9.8,8-21.2,14.2-33.8,18.6
				C161.3,208.8,147.4,211.1,133,211.1z"/>
		</g>
	</g>
	<g>
		<path class="st0" d="M133,110.7c-5.5,0-10-3.6-10-8.1V31.1c0-4.5,4.5-8.1,10-8.1c5.5,0,10,3.6,10,8.1v71.5
			C143,107,138.5,110.7,133,110.7z"/>
	</g>
</g>
</svg>
