<?xml version="1.0" encoding="utf-8"?>
<!-- Generator: Adobe Illustrator 23.0.3, SVG Export Plug-In . SVG Version: 6.00 Build 0)  -->
<svg version="1.1" id="Layer_1" xmlns="http://www.w3.org/2000/svg" xmlns:xlink="http://www.w3.org/1999/xlink" x="0px" y="0px"
	 viewBox="0 0 266 234" style="enable-background:new 0 0 266 234;" xml:space="preserve">
<style type="text/css">
	.st0{fill-rule:evenodd;clip-rule:evenodd;fill:#6B6B6B;}
</style>
<path class="st0" d="M132.2,128.6h1.6c11.1,0,20.2-7.5,20.2-16.8V23.5C154,13.8,144.6,6,133,6c-11.6,0-20.9,7.8-20.9,17.5l0,88.2
	C112.1,121.1,121.1,128.6,132.2,128.6L132.2,128.6z"/>
<path class="st0" d="M173.5,59.6c26.1,11.8,44.2,35,44.2,61.8c0,38.6-37.8,70.1-84,70.1c-46.2,0-84.3-31.4-84.3-70.1
	c0-26.6,17.3-49.8,43.6-61.6v-42C40.7,32,3,72.9,3,121.4c0,60.2,58.4,108.9,130.4,108.9c71.9,0,130.5-48.8,130.5-108.9
	c0-48.6-37.9-89.7-90.4-103.7V59.6L173.5,59.6z"/>
</svg>
