<?xml version="1.0" encoding="utf-8"?>
<!-- Generator: Adobe Illustrator 19.0.0, SVG Export Plug-In . SVG Version: 6.00 Build 0)  -->
<svg version="1.1" id="Layer_1" xmlns="http://www.w3.org/2000/svg" xmlns:xlink="http://www.w3.org/1999/xlink" x="0px" y="0px"
	 viewBox="0 0 2700 1890" enable-background="new 0 0 2700 1890" xml:space="preserve">
<rect id="BG" fill="#FFFFFF" width="2700" height="1890"/>
<g id="Frame_1_">
	<linearGradient id="SVGID_1_" gradientUnits="userSpaceOnUse" x1="1355.7913" y1="281.3943" x2="1360.2959" y2="975.181">
		<stop  offset="0" style="stop-color:#01002F"/>
		<stop  offset="0.5285" style="stop-color:#024570"/>
		<stop  offset="0.5872" style="stop-color:#024A74"/>
		<stop  offset="0.6593" style="stop-color:#025980"/>
		<stop  offset="0.7384" style="stop-color:#027293"/>
		<stop  offset="0.8226" style="stop-color:#0295AF"/>
		<stop  offset="0.9108" style="stop-color:#01C2D1"/>
		<stop  offset="1" style="stop-color:#01F7FB"/>
	</linearGradient>
	<path fill="url(#SVGID_1_)" d="M182.7,730.2V539c0-142.2,115.3-257.5,257.5-257.5h1835.7c142.2,0,257.5,115.3,257.5,257.5v191.2
		c0,142.2-115.3,257.5-257.5,257.5H440.2C298,987.7,182.7,872.4,182.7,730.2z"/>
	<defs>
		<filter id="Adobe_OpacityMaskFilter" filterUnits="userSpaceOnUse" x="215.5" y="301.8" width="2292.2" height="489.9">
			<feColorMatrix  type="matrix" values="1 0 0 0 0  0 1 0 0 0  0 0 1 0 0  0 0 0 1 0"/>
		</filter>
	</defs>
	<mask maskUnits="userSpaceOnUse" x="215.5" y="301.8" width="2292.2" height="489.9" id="SVGID_2_">
		<g filter="url(#Adobe_OpacityMaskFilter)">
			<linearGradient id="SVGID_3_" gradientUnits="userSpaceOnUse" x1="1361.6161" y1="163.4578" x2="1361.6161" y2="764.2361">
				<stop  offset="0.1743" style="stop-color:#FFFFFF"/>
				<stop  offset="0.2767" style="stop-color:#BEBEBE"/>
				<stop  offset="0.3792" style="stop-color:#858585"/>
				<stop  offset="0.4787" style="stop-color:#555555"/>
				<stop  offset="0.5726" style="stop-color:#303030"/>
				<stop  offset="0.6594" style="stop-color:#161616"/>
				<stop  offset="0.7368" style="stop-color:#060606"/>
				<stop  offset="0.7967" style="stop-color:#000000"/>
			</linearGradient>
			<path fill="url(#SVGID_3_)" d="M2499.7,791.7L219.3,790l-3.7-232.7c0-141.1,114.4-255.5,255.5-255.5h1781.1
				c141.1,0,255.5,114.4,255.5,255.5L2499.7,791.7z"/>
		</g>
	</mask>
	<path mask="url(#SVGID_2_)" fill="#FFFFFF" d="M2499.7,791.7L219.3,790l-3.7-232.7c0-141.1,114.4-255.5,255.5-255.5h1781.1
		c141.1,0,255.5,114.4,255.5,255.5L2499.7,791.7z"/>
	<linearGradient id="SVGID_4_" gradientUnits="userSpaceOnUse" x1="1355.962" y1="243.7156" x2="1360.9471" y2="1011.5219">
		<stop  offset="0" style="stop-color:#898B8D"/>
		<stop  offset="0.2765" style="stop-color:#FCFCFC"/>
		<stop  offset="0.5503" style="stop-color:#515153"/>
		<stop  offset="0.7793" style="stop-color:#FCFCFC"/>
		<stop  offset="0.7931" style="stop-color:#EAEBEB"/>
		<stop  offset="0.8201" style="stop-color:#CDCED0"/>
		<stop  offset="0.8434" style="stop-color:#BBBDC0"/>
		<stop  offset="0.8603" style="stop-color:#B5B7BA"/>
		<stop  offset="0.8732" style="stop-color:#BDBEC1"/>
		<stop  offset="0.9141" style="stop-color:#D0CFD2"/>
		<stop  offset="0.956" style="stop-color:#DBDADD"/>
		<stop  offset="1" style="stop-color:#DFDDE0"/>
	</linearGradient>
	<path fill="url(#SVGID_4_)" d="M2283.4,243.2H433.6C269.8,243.2,137,376,137,539.9v189.5c0,163.8,132.8,296.6,296.6,296.6h1849.7
		c163.8,0,296.6-132.8,296.6-296.6V539.9C2580,376,2447.2,243.2,2283.4,243.2z M2522.7,711.3c0,151.8-123,274.8-274.8,274.8H469.2
		c-151.8,0-274.8-123-274.8-274.8V560.4c0-151.8,123-274.8,274.8-274.8h1778.7c151.8,0,274.8,123,274.8,274.8V711.3z"/>
</g>
<g id="Button_1_">
	<g>
		<linearGradient id="SVGID_5_" gradientUnits="userSpaceOnUse" x1="614.6872" y1="321.2528" x2="614.6872" y2="942.8715">
			<stop  offset="8.379890e-002" style="stop-color:#01002F"/>
			<stop  offset="0.364" style="stop-color:#051D57"/>
			<stop  offset="1" style="stop-color:#0F5EB0"/>
		</linearGradient>
		<ellipse fill="url(#SVGID_5_)" cx="614.7" cy="634.9" rx="310.2" ry="309.8"/>
		<linearGradient id="SVGID_6_" gradientUnits="userSpaceOnUse" x1="302.9678" y1="634.8888" x2="926.4061" y2="634.8888">
			<stop  offset="0" style="stop-color:#3290C5"/>
			<stop  offset="1" style="stop-color:#0F5EB0"/>
		</linearGradient>
		<path fill="url(#SVGID_6_)" d="M614.7,946.1C442.8,946.1,303,806.5,303,634.9s139.8-311.2,311.7-311.2s311.7,139.6,311.7,311.2
			S786.6,946.1,614.7,946.1z M614.7,326.6c-170.3,0-308.8,138.3-308.8,308.3s138.5,308.3,308.8,308.3s308.8-138.3,308.8-308.3
			S784.9,326.6,614.7,326.6z"/>
	</g>
	<radialGradient id="SVGID_7_" cx="616.2886" cy="637.428" r="310.3017" gradientUnits="userSpaceOnUse">
		<stop  offset="0.8408" style="stop-color:#000000"/>
		<stop  offset="0.855" style="stop-color:#191919"/>
		<stop  offset="0.9275" style="stop-color:#939393"/>
		<stop  offset="0.9773" style="stop-color:#E1E1E1"/>
		<stop  offset="1" style="stop-color:#FFFFFF"/>
	</radialGradient>
	<ellipse fill="url(#SVGID_7_)" cx="616.3" cy="637.4" rx="311.9" ry="308.7"/>
	<ellipse cx="614.1" cy="640.9" rx="274.6" ry="271.8"/>
	<linearGradient id="SVGID_8_" gradientUnits="userSpaceOnUse" x1="614.1289" y1="370.0378" x2="614.1289" y2="906.8313">
		<stop  offset="0.1788" style="stop-color:#01002F"/>
		<stop  offset="0.3411" style="stop-color:#012054"/>
		<stop  offset="0.5702" style="stop-color:#004983"/>
		<stop  offset="0.6849" style="stop-color:#005995"/>
		<stop  offset="0.7416" style="stop-color:#005C97"/>
		<stop  offset="0.7917" style="stop-color:#00679E"/>
		<stop  offset="0.8393" style="stop-color:#0079AA"/>
		<stop  offset="0.8853" style="stop-color:#0093BA"/>
		<stop  offset="0.9303" style="stop-color:#01B4D0"/>
		<stop  offset="0.9738" style="stop-color:#01DBE9"/>
		<stop  offset="1" style="stop-color:#01F7FB"/>
	</linearGradient>
	<ellipse fill="url(#SVGID_8_)" cx="614.1" cy="640.9" rx="270.3" ry="267.5"/>
	<g>
		<g>
			<path d="M779.1,646.2H450.5c-3.4,0-6.2,2.8-6.2,6.2v138.8c0,3.4,2.8,6.2,6.2,6.2h328.6c3.4,0,6.2-2.8,6.2-6.2V652.4
				C785.4,649,782.6,646.2,779.1,646.2z M683,668.5h72.4v17.7c0,0.8-0.7,1.5-1.5,1.5h-69.4c-0.9,0-1.5-0.7-1.5-1.5V668.5z
				 M760.1,775.5c-1.5,1.5-3.6,2.4-5.9,2.4H470c-4.6,0-8.3-3.7-8.3-8.3c0-2.3,0.9-4.4,2.4-5.9c1.5-1.5,3.6-2.4,5.9-2.4h284.2
				c4.6,0,8.3,3.7,8.3,8.3C762.5,771.9,761.6,774,760.1,775.5z"/>
			<path d="M465.4,640.6H765c0.7,0,1.2-0.5,1.2-1.2v-16c0-0.7-0.5-1.2-1.2-1.2H465.4c-0.7,0-1.2,0.5-1.2,1.2v16
				C464.2,640.1,464.7,640.6,465.4,640.6z"/>
			<path d="M530,617.1h181.3c1,0,1.8-0.8,1.8-1.8V513.2c0-1.3-0.5-2.5-1.4-3.5l-39.5-39.5c-0.9-0.9-2.2-1.4-3.5-1.4H530
				c-1,0-1.8,0.8-1.8,1.8v144.7C528.2,616.3,529,617.1,530,617.1z M666.7,475.5L706,516h-39.3V475.5z"/>
		</g>
		<g>
			<path fill="#FFFFFF" d="M782.1,649.2H453.4c-3.4,0-6.2,2.8-6.2,6.2v138.8c0,3.4,2.8,6.2,6.2,6.2h328.6c3.4,0,6.2-2.8,6.2-6.2
				V655.4C788.3,652,785.5,649.2,782.1,649.2z M686,671.5h72.4v17.7c0,0.8-0.7,1.5-1.5,1.5h-69.4c-0.9,0-1.5-0.7-1.5-1.5V671.5z
				 M763,778.5c-1.5,1.5-3.6,2.4-5.9,2.4H473c-4.6,0-8.3-3.7-8.3-8.3c0-2.3,0.9-4.4,2.4-5.9c1.5-1.5,3.6-2.4,5.9-2.4h284.2
				c4.6,0,8.3,3.7,8.3,8.3C765.5,774.9,764.5,776.9,763,778.5z"/>
			<path fill="#FFFFFF" d="M468.3,643.6h299.6c0.7,0,1.2-0.5,1.2-1.2v-16c0-0.7-0.5-1.2-1.2-1.2H468.3c-0.7,0-1.2,0.5-1.2,1.2v16
				C467.2,643,467.7,643.6,468.3,643.6z"/>
			<path fill="#FFFFFF" d="M532.9,620.1h181.3c1,0,1.8-0.8,1.8-1.8V516.2c0-1.3-0.5-2.5-1.4-3.5l-39.5-39.5
				c-0.9-0.9-2.2-1.4-3.5-1.4H533c-1,0-1.8,0.8-1.8,1.8v144.7C531.1,619.3,531.9,620.1,532.9,620.1z M669.7,478.4l39.3,40.5h-39.3
				V478.4z"/>
		</g>
	</g>
</g>
<g id="Text_1_">
	<g>
		<path d="M1295.3,498.3c16.9-3.3,38.3-5.3,61.8-5.3c34.8,0,63,5.3,82.6,20.9c18,14,26.6,35.5,26.6,59.2c0,28-9.3,47.3-24.5,62
			c-19.5,19.4-51.6,28.5-79.6,28.5c-5.4,0-9.9,0-14.7-0.4v107.8h-52.2V498.3z M1347.5,627.3c3.8,0.6,7.6,0.8,12.7,0.8
			c34.5,0,53.7-19.8,53.7-51.6c0-26.1-12.7-48-48.2-48c-7.3,0-13.7,0.8-18.2,2.1V627.3z"/>
		<path d="M1500.4,627.4c0-18.5-1.2-39.4-2-56.4h45.9l2.7,30.2h1.5c9.3-20.3,29.1-33.5,48.7-33.5c5.1,0,8,0.2,11.1,0.7v43.9
			c-3.2-0.5-6.7-0.5-11.2-0.5c-18.2,0-36.5,12.7-42.1,34.3c-1.3,4.8-2.2,11.6-2.2,19.2v105.7h-52.5V627.4z"/>
		<path d="M1688.4,518.7c0.3,15.1-11.9,25.3-29.1,25.3c-15.3,0-27.6-10.2-27.3-25.3c-0.3-15.6,12.6-25.5,28.1-25.5
			C1676.6,493.2,1688.4,503.1,1688.4,518.7z M1634.4,771.1v-200h52.5v200H1634.4z"/>
		<path d="M1735.3,627.4c0-22.6-1.2-38.6-2-56.4h45.5l2.7,23.5h1c11.4-16,31.5-26.8,56.6-26.8c39.9,0,61.2,25.9,61.2,72.3v131h-52.5
			V644.2c0-20-5.1-39.5-28-39.5c-13,0-24.7,8.4-29.4,24.5c-1.5,4.4-2.7,10.9-2.7,18.2v123.7h-52.5V627.4z"/>
		<path d="M2009.7,517.5v53.6h46.5v31.8h-46.5v103.7c0,24.5,11.4,30.7,24.5,30.7c6.2,0,11.1-0.4,16.2-1.2l1.1,34.1
			c-7.9,2.1-19.4,3.3-34.3,3.3c-17,0-32-3.5-42.4-12.4c-11.6-9.9-17.6-24.3-17.6-54.1V602.9h-28.7v-31.8h28.7v-42.4L2009.7,517.5z"
			/>
	</g>
	<g>
		<path fill="#FFFFFF" d="M1305.2,508.2c16.9-3.3,38.3-5.3,61.8-5.3c34.8,0,63,5.3,82.6,20.9c18,14,26.6,35.5,26.6,59.2
			c0,28-9.3,47.3-24.5,62c-19.5,19.4-51.6,28.5-79.6,28.5c-5.4,0-9.9,0-14.7-0.4V781h-52.2V508.2z M1357.5,637.3
			c3.8,0.6,7.6,0.8,12.7,0.8c34.5,0,53.7-19.8,53.7-51.6c0-26.1-12.7-48-48.2-48c-7.3,0-13.7,0.8-18.2,2.1V637.3z"/>
		<path fill="#FFFFFF" d="M1510.3,637.4c0-18.5-1.2-39.4-2-56.4h45.9l2.7,30.2h1.5c9.3-20.3,29.1-33.5,48.7-33.5
			c5.1,0,8,0.2,11.1,0.7v43.9c-3.2-0.5-6.7-0.5-11.2-0.5c-18.2,0-36.5,12.7-42.1,34.3c-1.3,4.8-2.2,11.6-2.2,19.2V781h-52.5V637.4z"
			/>
		<path fill="#FFFFFF" d="M1698.4,528.6c0.3,15.1-11.9,25.3-29.1,25.3c-15.3,0-27.6-10.2-27.3-25.3c-0.3-15.6,12.6-25.5,28.1-25.5
			C1686.5,503.1,1698.4,513,1698.4,528.6z M1644.4,781V581h52.5v200H1644.4z"/>
		<path fill="#FFFFFF" d="M1745.2,637.4c0-22.6-1.2-38.6-2-56.4h45.5l2.7,23.5h1c11.4-16,31.5-26.8,56.6-26.8
			c39.9,0,61.2,25.9,61.2,72.3v131h-52.5V654.2c0-20-5.1-39.5-28-39.5c-13,0-24.7,8.4-29.4,24.5c-1.5,4.4-2.7,10.9-2.7,18.2V781
			h-52.5V637.4z"/>
		<path fill="#FFFFFF" d="M2019.6,527.4V581h46.5v31.8h-46.5v103.7c0,24.5,11.4,30.7,24.5,30.7c6.2,0,11.1-0.4,16.2-1.2l1.1,34.1
			c-7.9,2.1-19.4,3.3-34.3,3.3c-17,0-32-3.5-42.4-12.4c-11.6-9.9-17.6-24.3-17.6-54.1V612.8h-28.7V581h28.7v-42.4L2019.6,527.4z"/>
	</g>
</g>
</svg>
