<?xml version="1.0" encoding="utf-8"?>
<!-- Generator: Adobe Illustrator 18.1.1, SVG Export Plug-In . SVG Version: 6.00 Build 0)  -->
<svg version="1.1" id="Layer_1" xmlns="http://www.w3.org/2000/svg" xmlns:xlink="http://www.w3.org/1999/xlink" x="0px" y="0px"
	 viewBox="0 0 360 127.3" enable-background="new 0 0 360 127.3" xml:space="preserve">
<linearGradient id="SVGID_3_" gradientUnits="userSpaceOnUse" x1="-5435.3179" y1="1948.0238" x2="-5430.814" y2="2641.7268" gradientTransform="matrix(0.1333 0 0 0.1333 904.8 -241.8)">
	<stop  offset="2.150538e-002" style="stop-color:#7F0003"/>
	<stop  offset="0.5285" style="stop-color:#FF151B"/>
	<stop  offset="0.5872" style="stop-color:#FF002A"/>
	<stop  offset="0.6593" style="stop-color:#FF1549"/>
	<stop  offset="0.7384" style="stop-color:#FF2A30"/>
	<stop  offset="0.8226" style="stop-color:#FF2A42"/>
	<stop  offset="0.9108" style="stop-color:#FF5571"/>
	<stop  offset="1" style="stop-color:#FF555E"/>
</linearGradient>
<path fill="url(#SVGID_3_)" d="M23.7,77.8V52.3c0-19,15.4-34.3,34.3-34.3h244.7c19,0,34.3,15.4,34.3,34.3v25.5
	c0,19-15.4,34.3-34.3,34.3H58C39.1,112.1,23.7,96.7,23.7,77.8z"/>
<defs>
	<filter id="Adobe_OpacityMaskFilter" filterUnits="userSpaceOnUse" x="27.4" y="17.9" width="305.6" height="65.3">
		<feColorMatrix  type="matrix" values="1 0 0 0 0  0 1 0 0 0  0 0 1 0 0  0 0 0 1 0"/>
	</filter>
</defs>
<mask maskUnits="userSpaceOnUse" x="27.4" y="17.9" width="305.6" height="65.3" id="SVGID_2_">
	<g filter="url(#Adobe_OpacityMaskFilter)">
		
			<linearGradient id="SVGID_4_" gradientUnits="userSpaceOnUse" x1="-5434.2251" y1="1809.7019" x2="-5434.2251" y2="2410.4077" gradientTransform="matrix(0.1333 0 0 0.1333 904.8 -241.8)">
			<stop  offset="0.1743" style="stop-color:#FFFFFF"/>
			<stop  offset="0.2767" style="stop-color:#BEBEBE"/>
			<stop  offset="0.3792" style="stop-color:#858585"/>
			<stop  offset="0.4787" style="stop-color:#555555"/>
			<stop  offset="0.5726" style="stop-color:#303030"/>
			<stop  offset="0.6594" style="stop-color:#161616"/>
			<stop  offset="0.7368" style="stop-color:#060606"/>
			<stop  offset="0.7967" style="stop-color:#000000"/>
		</linearGradient>
		<path fill="url(#SVGID_4_)" d="M331.9,83.3L27.9,83l-0.5-31c0-18.8,15.3-34.1,34.1-34.1H299c18.8,0,34.1,15.3,34.1,34.1
			L331.9,83.3z"/>
	</g>
</mask>
<path mask="url(#SVGID_2_)" fill="#FFFFFF" d="M331.9,83.3L27.9,83l-0.5-31c0-18.8,15.3-34.1,34.1-34.1H299
	c18.8,0,34.1,15.3,34.1,34.1L331.9,83.3z"/>
<linearGradient id="SVGID_5_" gradientUnits="userSpaceOnUse" x1="-5435.1621" y1="1910.3496" x2="-5430.1777" y2="2678.0632" gradientTransform="matrix(0.1333 0 0 0.1333 904.8 -241.8)">
	<stop  offset="0" style="stop-color:#898B8D"/>
	<stop  offset="0.2765" style="stop-color:#FCFCFC"/>
	<stop  offset="0.5503" style="stop-color:#515153"/>
	<stop  offset="0.7793" style="stop-color:#FCFCFC"/>
	<stop  offset="0.7931" style="stop-color:#EAEBEB"/>
	<stop  offset="0.8201" style="stop-color:#CDCED0"/>
	<stop  offset="0.8434" style="stop-color:#BBBDC0"/>
	<stop  offset="0.8603" style="stop-color:#B5B7BA"/>
	<stop  offset="0.8732" style="stop-color:#BDBEC1"/>
	<stop  offset="0.9141" style="stop-color:#D0CFD2"/>
	<stop  offset="0.956" style="stop-color:#DBDADD"/>
	<stop  offset="1" style="stop-color:#DFDDE0"/>
</linearGradient>
<path fill="url(#SVGID_5_)" d="M303.7,12.9H57.1c-21.8,0-39.5,17.7-39.5,39.5v25.3c0,21.8,17.7,39.5,39.5,39.5h246.6
	c21.8,0,39.5-17.7,39.5-39.5V52.4C343.3,30.6,325.6,12.9,303.7,12.9z M335.6,75.3c0,20.2-16.4,36.6-36.6,36.6H61.9
	c-20.2,0-36.6-16.4-36.6-36.6V55.1c0-20.2,16.4-36.6,36.6-36.6H299c20.2,0,36.6,16.4,36.6,36.6L335.6,75.3L335.6,75.3z"/>
<g>
	
		<linearGradient id="SVGID_6_" gradientUnits="userSpaceOnUse" x1="-6176.375" y1="1987.8777" x2="-6176.375" y2="2609.4214" gradientTransform="matrix(0.1333 0 0 0.1333 904.8 -241.8)">
		<stop  offset="8.379891e-002" style="stop-color:#01002F"/>
		<stop  offset="0.364" style="stop-color:#051D57"/>
		<stop  offset="1" style="stop-color:#0F5EB0"/>
	</linearGradient>
	<ellipse fill="url(#SVGID_6_)" cx="81.3" cy="65.1" rx="41.4" ry="41.3"/>
	
		<linearGradient id="SVGID_7_" gradientUnits="userSpaceOnUse" x1="-6488.0747" y1="2301.4812" x2="-5864.6748" y2="2301.4812" gradientTransform="matrix(0.1333 0 0 0.1333 904.8 -241.8)">
		<stop  offset="0" style="stop-color:#3290C5"/>
		<stop  offset="1" style="stop-color:#0F5EB0"/>
	</linearGradient>
	<path fill="url(#SVGID_7_)" d="M81.3,106.6c-22.9,0-41.6-18.6-41.6-41.5s18.6-41.5,41.6-41.5s41.6,18.6,41.6,41.5
		S104.2,106.6,81.3,106.6z M81.3,24c-22.7,0-41.2,18.4-41.2,41.1s18.5,41.1,41.2,41.1s41.2-18.4,41.2-41.1S104,24,81.3,24z"/>
</g>
<radialGradient id="SVGID_8_" cx="-6174.7749" cy="2303.9812" r="310.2539" gradientTransform="matrix(0.1333 0 0 0.1333 904.8 -241.8)" gradientUnits="userSpaceOnUse">
	<stop  offset="0.8408" style="stop-color:#000000"/>
	<stop  offset="0.855" style="stop-color:#191919"/>
	<stop  offset="0.9275" style="stop-color:#939393"/>
	<stop  offset="0.9773" style="stop-color:#E1E1E1"/>
	<stop  offset="1" style="stop-color:#FFFFFF"/>
</radialGradient>
<ellipse fill="url(#SVGID_8_)" cx="81.5" cy="65.4" rx="41.6" ry="41.2"/>
<ellipse cx="81.2" cy="65.9" rx="36.6" ry="36.2"/>
<linearGradient id="SVGID_9_" gradientUnits="userSpaceOnUse" x1="-6176.9751" y1="2036.6569" x2="-6176.9746" y2="2573.3857" gradientTransform="matrix(0.1333 0 0 0.1333 904.8 -241.8)">
	<stop  offset="2.150538e-002" style="stop-color:#7F0003"/>
	<stop  offset="0.5285" style="stop-color:#FF151B"/>
	<stop  offset="0.5872" style="stop-color:#FF002A"/>
	<stop  offset="0.6593" style="stop-color:#FF1549"/>
	<stop  offset="0.7384" style="stop-color:#FF2A30"/>
	<stop  offset="0.8226" style="stop-color:#FF2A42"/>
	<stop  offset="0.9108" style="stop-color:#FF5571"/>
	<stop  offset="1" style="stop-color:#FF555E"/>
</linearGradient>
<ellipse fill="url(#SVGID_9_)" cx="81.2" cy="65.9" rx="36" ry="35.7"/>
<g>
	<path d="M172,68.5l7.6,2.4c-1.2,4.2-3.1,7.3-5.8,9.4c-2.7,2-6.1,3.1-10.3,3.1c-5.1,0-9.3-1.7-12.6-5.3c-3.3-3.5-4.9-8.3-4.9-14.4
		c0-6.4,1.7-11.4,5-15c3.3-3.6,7.7-5.3,13.1-5.3c4.7,0,8.6,1.4,11.5,4.2c1.8,1.7,3.1,4,3.9,7.1l-7.7,1.8c-0.5-2-1.4-3.6-2.9-4.7
		c-1.5-1.2-3.2-1.7-5.3-1.7c-2.9,0-5.2,1-7,3.1c-1.8,2.1-2.7,5.4-2.7,10c0,4.9,0.9,8.4,2.6,10.4s4,3.1,6.9,3.1c2.1,0,3.9-0.7,5.3-2
		C170.3,73.3,171.3,71.3,172,68.5z"/>
	<path d="M191.7,63.2L185,62c0.8-2.7,2.1-4.7,3.9-6c1.8-1.3,4.6-1.9,8.2-1.9c3.3,0,5.8,0.4,7.4,1.2c1.6,0.8,2.7,1.8,3.4,3
		c0.7,1.2,1,3.4,1,6.6l-0.1,8.6c0,2.5,0.1,4.3,0.4,5.4s0.7,2.4,1.3,3.8h-7.3c-0.2-0.5-0.4-1.2-0.7-2.2c-0.1-0.4-0.2-0.7-0.3-0.9
		c-1.3,1.2-2.6,2.1-4.1,2.8c-1.4,0.6-3,0.9-4.6,0.9c-2.9,0-5.1-0.8-6.8-2.3c-1.7-1.6-2.5-3.5-2.5-5.9c0-1.6,0.4-3,1.1-4.2
		s1.8-2.2,3.2-2.8c1.4-0.7,3.3-1.2,5.9-1.7c3.5-0.7,5.9-1.3,7.2-1.8v-0.7c0-1.4-0.3-2.4-1.1-3c-0.7-0.6-2-0.9-4-0.9
		c-1.3,0-2.3,0.3-3.1,0.8C192.8,61,192.2,61.9,191.7,63.2z M201.6,69.2c-0.9,0.3-2.5,0.7-4.5,1.1c-2.1,0.4-3.4,0.9-4,1.3
		c-1,0.7-1.5,1.6-1.5,2.6c0,1,0.4,1.9,1.2,2.7c0.8,0.8,1.8,1.1,2.9,1.1c1.3,0,2.6-0.4,3.8-1.3c0.9-0.7,1.5-1.5,1.8-2.5
		c0.2-0.6,0.3-1.8,0.3-3.6L201.6,69.2L201.6,69.2z"/>
	<path d="M241.7,82.7h-7.4V68.4c0-3-0.2-5-0.5-5.9c-0.3-0.9-0.8-1.6-1.5-2.1c-0.7-0.5-1.6-0.7-2.6-0.7c-1.3,0-2.4,0.3-3.5,1.1
		c-1,0.7-1.7,1.6-2.1,2.8c-0.4,1.2-0.6,3.3-0.6,6.4v12.7h-7.4v-28h6.9v4.1c2.4-3.2,5.5-4.7,9.2-4.7c1.6,0,3.1,0.3,4.5,0.9
		c1.3,0.6,2.4,1.3,3.1,2.3s1.2,1.9,1.5,3.1c0.3,1.2,0.4,2.8,0.4,5L241.7,82.7L241.7,82.7z"/>
	<path d="M273.6,62.9l-7.3,1.3c-0.2-1.5-0.8-2.6-1.7-3.3s-2-1.1-3.4-1.1c-1.8,0-3.3,0.6-4.4,1.9c-1.1,1.3-1.6,3.4-1.6,6.4
		c0,3.3,0.6,5.7,1.7,7c1.1,1.4,2.6,2.1,4.5,2.1c1.4,0,2.6-0.4,3.5-1.2c0.9-0.8,1.5-2.2,1.9-4.1l7.3,1.2c-0.8,3.3-2.2,5.9-4.3,7.6
		c-2.1,1.7-5,2.6-8.6,2.6c-4.1,0-7.4-1.3-9.8-3.9c-2.4-2.6-3.7-6.2-3.7-10.7c0-4.6,1.2-8.2,3.7-10.8c2.4-2.6,5.7-3.9,9.9-3.9
		c3.4,0,6.1,0.7,8.1,2.2C271.2,57.7,272.7,59.9,273.6,62.9z"/>
	<path d="M295.4,73.7l7.4,1.2c-0.9,2.7-2.4,4.8-4.5,6.2c-2,1.4-4.6,2.1-7.7,2.1c-4.9,0-8.5-1.6-10.8-4.8c-1.8-2.5-2.8-5.8-2.8-9.6
		c0-4.6,1.2-8.3,3.6-10.9s5.5-3.9,9.2-3.9c4.2,0,7.4,1.4,9.9,4.1c2.4,2.7,3.6,7,3.5,12.6h-18.5c0.1,2.2,0.7,3.9,1.8,5.1
		c1.1,1.2,2.6,1.8,4.3,1.8c1.2,0,2.1-0.3,2.9-0.9C294.4,76.2,295,75.1,295.4,73.7z M295.8,66.3c-0.1-2.1-0.6-3.8-1.7-4.9
		c-1.1-1.1-2.3-1.7-3.8-1.7c-1.6,0-2.9,0.6-4,1.8c-1.1,1.2-1.6,2.8-1.6,4.8H295.8z"/>
	<path d="M309.2,82.7V44h7.4v38.6H309.2z"/>
</g>
<g>
	<path fill="#FFFFFF" d="M175.3,68.6l7.6,2.4c-1.2,4.2-3.1,7.3-5.8,9.4c-2.7,2-6.1,3.1-10.3,3.1c-5.1,0-9.3-1.7-12.6-5.3
		c-3.3-3.5-4.9-8.3-4.9-14.4c0-6.4,1.7-11.4,5-15c3.3-3.6,7.7-5.3,13.1-5.3c4.7,0,8.6,1.4,11.5,4.2c1.8,1.7,3.1,4,3.9,7.1l-7.7,1.8
		c-0.5-2-1.4-3.6-2.9-4.7c-1.5-1.2-3.2-1.7-5.3-1.7c-2.9,0-5.2,1-7,3.1c-1.8,2.1-2.7,5.4-2.7,10c0,4.9,0.9,8.4,2.6,10.4
		c1.8,2.1,4,3.1,6.9,3.1c2.1,0,3.9-0.7,5.3-2C173.6,73.5,174.7,71.4,175.3,68.6z"/>
	<path fill="#FFFFFF" d="M195.1,63.3l-6.7-1.2c0.8-2.7,2.1-4.7,3.9-6c1.8-1.3,4.6-1.9,8.2-1.9c3.3,0,5.8,0.4,7.4,1.2s2.7,1.8,3.4,3
		c0.7,1.2,1,3.4,1,6.6l-0.1,8.6c0,2.5,0.1,4.3,0.4,5.4s0.7,2.4,1.3,3.8h-7.3c-0.2-0.5-0.4-1.2-0.7-2.2c-0.1-0.4-0.2-0.7-0.3-0.9
		c-1.3,1.2-2.6,2.1-4.1,2.8c-1.4,0.6-3,0.9-4.6,0.9c-2.9,0-5.1-0.8-6.8-2.3c-1.7-1.6-2.5-3.5-2.5-5.9c0-1.6,0.4-3,1.1-4.2
		c0.8-1.2,1.8-2.2,3.2-2.8c1.4-0.7,3.3-1.2,5.9-1.7c3.5-0.7,5.9-1.3,7.2-1.8v-0.7c0-1.4-0.3-2.4-1.1-3c-0.7-0.6-2-0.9-4-0.9
		c-1.3,0-2.3,0.3-3.1,0.8C196.1,61.1,195.5,62,195.1,63.3z M205,69.3c-0.9,0.3-2.5,0.7-4.5,1.1c-2.1,0.4-3.4,0.9-4,1.3
		c-1,0.7-1.5,1.6-1.5,2.6c0,1,0.4,1.9,1.2,2.7c0.8,0.8,1.8,1.1,2.9,1.1c1.3,0,2.6-0.4,3.8-1.3c0.9-0.7,1.5-1.5,1.8-2.5
		c0.2-0.6,0.3-1.8,0.3-3.6L205,69.3L205,69.3z"/>
	<path fill="#FFFFFF" d="M245,82.8h-7.4V68.5c0-3-0.2-5-0.5-5.9c-0.3-0.9-0.8-1.6-1.5-2.1c-0.7-0.5-1.6-0.7-2.6-0.7
		c-1.3,0-2.4,0.3-3.5,1.1c-1,0.7-1.7,1.6-2.1,2.8c-0.4,1.2-0.6,3.3-0.6,6.4v12.7h-7.4v-28h6.9v4.1c2.4-3.2,5.5-4.7,9.2-4.7
		c1.6,0,3.1,0.3,4.5,0.9c1.3,0.6,2.4,1.3,3.1,2.3c0.7,0.9,1.2,1.9,1.5,3.1c0.3,1.2,0.4,2.8,0.4,5L245,82.8L245,82.8z"/>
	<path fill="#FFFFFF" d="M276.9,63.1l-7.3,1.3c-0.2-1.5-0.8-2.6-1.7-3.3c-0.9-0.7-2-1.1-3.4-1.1c-1.8,0-3.3,0.6-4.4,1.9
		c-1.1,1.3-1.6,3.4-1.6,6.4c0,3.3,0.6,5.7,1.7,7c1.1,1.4,2.6,2.1,4.5,2.1c1.4,0,2.6-0.4,3.5-1.2c0.9-0.8,1.5-2.2,1.9-4.1l7.3,1.2
		c-0.8,3.3-2.2,5.9-4.3,7.6c-2.1,1.7-5,2.6-8.6,2.6c-4.1,0-7.4-1.3-9.8-3.9c-2.4-2.6-3.7-6.2-3.7-10.7c0-4.6,1.2-8.2,3.7-10.8
		c2.4-2.6,5.7-3.9,9.9-3.9c3.4,0,6.1,0.7,8.1,2.2C274.6,57.8,276,60.1,276.9,63.1z"/>
	<path fill="#FFFFFF" d="M298.7,73.9l7.4,1.2c-0.9,2.7-2.4,4.8-4.5,6.2c-2,1.4-4.6,2.1-7.7,2.1c-4.9,0-8.5-1.6-10.8-4.8
		c-1.8-2.5-2.8-5.8-2.8-9.6c0-4.6,1.2-8.3,3.6-10.9s5.5-3.9,9.2-3.9c4.2,0,7.4,1.4,9.9,4.1c2.4,2.7,3.6,7,3.5,12.6h-18.5
		c0.1,2.2,0.7,3.9,1.8,5.1c1.1,1.2,2.6,1.8,4.3,1.8c1.2,0,2.1-0.3,2.9-0.9C297.7,76.3,298.3,75.3,298.7,73.9z M299.1,66.4
		c-0.1-2.1-0.6-3.8-1.7-4.9s-2.3-1.7-3.8-1.7c-1.6,0-2.9,0.6-4,1.8c-1.1,1.2-1.6,2.8-1.6,4.8H299.1z"/>
	<path fill="#FFFFFF" d="M312.5,82.8V44.2h7.4v38.6H312.5z"/>
</g>
<g>
	<path fill="#FFFFFF" d="M58.4,83.4l16.8-17.6L60,49.7h11.6l9.9,10.9l9.7-10.9h11.5L87.3,66.1l16.8,17.4h-12L81.2,71.8L70.3,83.4
		H58.4z"/>
</g>
<g id="Frame_1_">
	
		<linearGradient id="SVGID_10_" gradientUnits="userSpaceOnUse" x1="1344.0313" y1="630.2241" x2="1348.5359" y2="-63.5626" gradientTransform="matrix(0.1333 0 0 -0.1333 -1.525879e-005 102)">
		<stop  offset="0" style="stop-color:#01002F"/>
		<stop  offset="0.5285" style="stop-color:#024570"/>
		<stop  offset="0.5872" style="stop-color:#024A74"/>
		<stop  offset="0.6593" style="stop-color:#025980"/>
		<stop  offset="0.7384" style="stop-color:#027293"/>
		<stop  offset="0.8226" style="stop-color:#0295AF"/>
		<stop  offset="0.9108" style="stop-color:#01C2D1"/>
		<stop  offset="1" style="stop-color:#01F7FB"/>
	</linearGradient>
	<path fill="url(#SVGID_10_)" d="M22.8,77.8V52.3c0-19,15.4-34.3,34.3-34.3h244.8c19,0,34.3,15.4,34.3,34.3v25.5
		c0,19-15.4,34.3-34.3,34.3H57.1C38.2,112.1,22.8,96.8,22.8,77.8z"/>
	<defs>
		<filter id="Adobe_OpacityMaskFilter_1_" filterUnits="userSpaceOnUse" x="27.2" y="20.7" width="305.6" height="65.3">
			<feColorMatrix  type="matrix" values="1 0 0 0 0  0 1 0 0 0  0 0 1 0 0  0 0 0 1 0"/>
		</filter>
	</defs>
	<mask maskUnits="userSpaceOnUse" x="27.2" y="20.7" width="305.6" height="65.3" id="SVGID_1_">
		<g filter="url(#Adobe_OpacityMaskFilter_1_)">
			
				<linearGradient id="SVGID_11_" gradientUnits="userSpaceOnUse" x1="1349.9246" y1="748.1608" x2="1349.9246" y2="147.3825" gradientTransform="matrix(0.1333 0 0 -0.1333 -1.525879e-005 102)">
				<stop  offset="0.1743" style="stop-color:#FFFFFF"/>
				<stop  offset="0.2767" style="stop-color:#BEBEBE"/>
				<stop  offset="0.3792" style="stop-color:#858585"/>
				<stop  offset="0.4787" style="stop-color:#555555"/>
				<stop  offset="0.5726" style="stop-color:#303030"/>
				<stop  offset="0.6594" style="stop-color:#161616"/>
				<stop  offset="0.7368" style="stop-color:#060606"/>
				<stop  offset="0.7967" style="stop-color:#000000"/>
			</linearGradient>
			<path fill="url(#SVGID_11_)" d="M331.7,86L27.7,85.8l-0.5-31c0-18.8,15.3-34.1,34.1-34.1h237.5c18.8,0,34.1,15.3,34.1,34.1
				L331.7,86z"/>
		</g>
	</mask>
	<path mask="url(#SVGID_1_)" fill="#FFFFFF" d="M331.7,86L27.7,85.8l-0.5-31c0-18.8,15.3-34.1,34.1-34.1h237.5
		c18.8,0,34.1,15.3,34.1,34.1L331.7,86z"/>
	
		<linearGradient id="SVGID_12_" gradientUnits="userSpaceOnUse" x1="1344.1871" y1="667.9027" x2="1349.1722" y2="-99.9036" gradientTransform="matrix(0.1333 0 0 -0.1333 -1.525879e-005 102)">
		<stop  offset="0" style="stop-color:#898B8D"/>
		<stop  offset="0.2765" style="stop-color:#FCFCFC"/>
		<stop  offset="0.5503" style="stop-color:#515153"/>
		<stop  offset="0.7793" style="stop-color:#FCFCFC"/>
		<stop  offset="0.7931" style="stop-color:#EAEBEB"/>
		<stop  offset="0.8201" style="stop-color:#CDCED0"/>
		<stop  offset="0.8434" style="stop-color:#BBBDC0"/>
		<stop  offset="0.8603" style="stop-color:#B5B7BA"/>
		<stop  offset="0.8732" style="stop-color:#BDBEC1"/>
		<stop  offset="0.9141" style="stop-color:#D0CFD2"/>
		<stop  offset="0.956" style="stop-color:#DBDADD"/>
		<stop  offset="1" style="stop-color:#DFDDE0"/>
	</linearGradient>
	<path fill="url(#SVGID_12_)" d="M302.9,12.9H56.2c-21.8,0-39.5,17.7-39.5,39.6v25.3c0,21.8,17.7,39.5,39.5,39.5h246.6
		c21.8,0,39.5-17.7,39.5-39.5V52.4C342.4,30.6,324.7,12.9,302.9,12.9z M334.8,75.3c0,20.2-16.4,36.6-36.6,36.6H61
		c-20.2,0-36.6-16.4-36.6-36.6V55.2c0-20.2,16.4-36.6,36.6-36.6h237.2c20.2,0,36.6,16.4,36.6,36.6V75.3z"/>
</g>
<g id="Button_1_">
	<g>
		
			<linearGradient id="SVGID_13_" gradientUnits="userSpaceOnUse" x1="602.9747" y1="590.3658" x2="602.9747" y2="-31.2529" gradientTransform="matrix(0.1333 0 0 -0.1333 -1.525879e-005 102)">
			<stop  offset="8.379891e-002" style="stop-color:#01002F"/>
			<stop  offset="0.364" style="stop-color:#051D57"/>
			<stop  offset="1" style="stop-color:#0F5EB0"/>
		</linearGradient>
		<ellipse fill="url(#SVGID_13_)" cx="80.4" cy="65.1" rx="41.4" ry="41.3"/>
		
			<linearGradient id="SVGID_14_" gradientUnits="userSpaceOnUse" x1="291.2746" y1="276.7187" x2="914.6747" y2="276.7187" gradientTransform="matrix(0.1333 0 0 -0.1333 -1.525879e-005 102)">
			<stop  offset="0" style="stop-color:#3290C5"/>
			<stop  offset="1" style="stop-color:#0F5EB0"/>
		</linearGradient>
		<path fill="url(#SVGID_14_)" d="M80.4,106.6c-22.9,0-41.6-18.6-41.6-41.5s18.6-41.5,41.6-41.5S122,42.2,122,65.1
			S103.3,106.6,80.4,106.6z M80.4,24c-22.7,0-41.2,18.4-41.2,41.1s18.5,41.1,41.2,41.1s41.2-18.4,41.2-41.1S103.1,24,80.4,24z"/>
	</g>
	
		<radialGradient id="SVGID_15_" cx="604.5746" cy="274.2186" r="310.3041" gradientTransform="matrix(0.1333 0 0 -0.1333 -1.525879e-005 102)" gradientUnits="userSpaceOnUse">
		<stop  offset="0.8408" style="stop-color:#000000"/>
		<stop  offset="0.855" style="stop-color:#191919"/>
		<stop  offset="0.9275" style="stop-color:#939393"/>
		<stop  offset="0.9773" style="stop-color:#E1E1E1"/>
		<stop  offset="1" style="stop-color:#FFFFFF"/>
	</radialGradient>
	<ellipse fill="url(#SVGID_15_)" cx="80.6" cy="65.4" rx="41.6" ry="41.2"/>
	<ellipse cx="80.3" cy="65.9" rx="36.6" ry="36.2"/>
	
		<linearGradient id="SVGID_16_" gradientUnits="userSpaceOnUse" x1="602.3746" y1="541.5808" x2="602.3746" y2="4.7874" gradientTransform="matrix(0.1333 0 0 -0.1333 -1.525879e-005 102)">
		<stop  offset="0.1788" style="stop-color:#01002F"/>
		<stop  offset="0.3411" style="stop-color:#012054"/>
		<stop  offset="0.5702" style="stop-color:#004983"/>
		<stop  offset="0.6849" style="stop-color:#005995"/>
		<stop  offset="0.7416" style="stop-color:#005C97"/>
		<stop  offset="0.7917" style="stop-color:#00679E"/>
		<stop  offset="0.8393" style="stop-color:#0079AA"/>
		<stop  offset="0.8853" style="stop-color:#0093BA"/>
		<stop  offset="0.9303" style="stop-color:#01B4D0"/>
		<stop  offset="0.9738" style="stop-color:#01DBE9"/>
		<stop  offset="1" style="stop-color:#01F7FB"/>
	</linearGradient>
	<ellipse fill="url(#SVGID_16_)" cx="80.3" cy="65.9" rx="36" ry="35.7"/>
	<g>
		<g>
			<path d="M102.3,66.6H58.5c-0.5,0-0.8,0.4-0.8,0.8v18.5c0,0.5,0.4,0.8,0.8,0.8h43.8c0.5,0,0.8-0.4,0.8-0.8V67.4
				C103.2,67,102.8,66.6,102.3,66.6z M89.5,69.6h9.7v2.4c0,0.1-0.1,0.2-0.2,0.2h-9.3c-0.1,0-0.2-0.1-0.2-0.2V69.6z M99.8,83.9
				c-0.2,0.2-0.5,0.3-0.8,0.3H61.1c-0.6,0-1.1-0.5-1.1-1.1c0-0.3,0.1-0.6,0.3-0.8c0.2-0.2,0.5-0.3,0.8-0.3H99c0.6,0,1.1,0.5,1.1,1.1
				C100.1,83.4,100,83.7,99.8,83.9z"/>
			<path d="M60.5,65.9h39.9c0.1,0,0.2-0.1,0.2-0.2v-2.1c0-0.1-0.1-0.2-0.2-0.2H60.5c-0.1,0-0.2,0.1-0.2,0.2v2.1
				C60.3,65.8,60.4,65.9,60.5,65.9z"/>
			<path d="M69.1,62.7h24.2c0.1,0,0.2-0.1,0.2-0.2V48.9c0-0.2-0.1-0.3-0.2-0.5l-5.3-5.3C87.9,43,87.8,43,87.6,43H69.1
				c-0.1,0-0.2,0.1-0.2,0.2v19.3C68.9,62.6,69,62.7,69.1,62.7z M87.3,43.9l5.2,5.4h-5.2V43.9z"/>
		</g>
		<g>
			<path fill="#FFFFFF" d="M102.7,67H58.9c-0.5,0-0.8,0.4-0.8,0.8v18.5c0,0.5,0.4,0.8,0.8,0.8h43.8c0.5,0,0.8-0.4,0.8-0.8V67.8
				C103.5,67.4,103.2,67,102.7,67z M89.9,70h9.7v2.4c0,0.1-0.1,0.2-0.2,0.2h-9.3c-0.1,0-0.2-0.1-0.2-0.2V70z M100.2,84.3
				c-0.2,0.2-0.5,0.3-0.8,0.3H61.5c-0.6,0-1.1-0.5-1.1-1.1c0-0.3,0.1-0.6,0.3-0.8c0.2-0.2,0.5-0.3,0.8-0.3h37.9
				c0.6,0,1.1,0.5,1.1,1.1C100.5,83.8,100.4,84,100.2,84.3z"/>
			<path fill="#FFFFFF" d="M60.9,66.3h39.9c0.1,0,0.2-0.1,0.2-0.2V64c0-0.1-0.1-0.2-0.2-0.2H60.9c-0.1,0-0.2,0.1-0.2,0.2v2.1
				C60.7,66.2,60.8,66.3,60.9,66.3z"/>
			<path fill="#FFFFFF" d="M69.5,63.1h24.2c0.1,0,0.2-0.1,0.2-0.2V49.3c0-0.2-0.1-0.3-0.2-0.5l-5.3-5.3c-0.1-0.1-0.3-0.2-0.5-0.2
				H69.5c-0.1,0-0.2,0.1-0.2,0.2v19.3C69.2,63,69.4,63.1,69.5,63.1z M87.7,44.2l5.2,5.4h-5.2V44.2z"/>
		</g>
	</g>
</g>
<g id="Text_1_">
	<g>
		<path d="M171.1,46.9c2.3-0.4,5.1-0.7,8.2-0.7c4.6,0,8.4,0.7,11,2.8c2.4,1.9,3.5,4.7,3.5,7.9c0,3.7-1.2,6.3-3.3,8.3
			c-2.6,2.6-6.9,3.8-10.6,3.8c-0.7,0-1.3,0-2-0.1v14.4h-7L171.1,46.9L171.1,46.9z M178.1,64.1c0.5,0.1,1,0.1,1.7,0.1
			c4.6,0,7.2-2.6,7.2-6.9c0-3.5-1.7-6.4-6.4-6.4c-1,0-1.8,0.1-2.4,0.3V64.1z"/>
		<path d="M198.5,64.1c0-2.5-0.2-5.3-0.3-7.5h6.1l0.4,4h0.2c1.2-2.7,3.9-4.5,6.5-4.5c0.7,0,1.1,0,1.5,0.1v5.9
			c-0.4-0.1-0.9-0.1-1.5-0.1c-2.4,0-4.9,1.7-5.6,4.6c-0.2,0.6-0.3,1.5-0.3,2.6v14.1h-7L198.5,64.1L198.5,64.1z"/>
		<path d="M223.6,49.6c0,2-1.6,3.4-3.9,3.4c-2,0-3.7-1.4-3.6-3.4c0-2.1,1.7-3.4,3.7-3.4C222,46.2,223.6,47.5,223.6,49.6z
			 M216.4,83.3V56.6h7v26.7H216.4z"/>
		<path d="M229.8,64.1c0-3-0.2-5.1-0.3-7.5h6.1l0.4,3.1h0.1c1.5-2.1,4.2-3.6,7.5-3.6c5.3,0,8.2,3.5,8.2,9.6v17.5h-7V66.3
			c0-2.7-0.7-5.3-3.7-5.3c-1.7,0-3.3,1.1-3.9,3.3c-0.2,0.6-0.4,1.5-0.4,2.4v16.5h-7L229.8,64.1L229.8,64.1z"/>
		<path d="M266.4,49.5v7.1h6.2v4.2h-6.2v13.8c0,3.3,1.5,4.1,3.3,4.1c0.8,0,1.5-0.1,2.2-0.2l0.1,4.5c-1.1,0.3-2.6,0.4-4.6,0.4
			c-2.3,0-4.3-0.5-5.7-1.7c-1.5-1.3-2.3-3.2-2.3-7.2V60.8h-3.8v-4.2h3.8v-5.7L266.4,49.5z"/>
	</g>
	<g>
		<path fill="#FFFFFF" d="M172.5,48.2c2.3-0.4,5.1-0.7,8.2-0.7c4.6,0,8.4,0.7,11,2.8c2.4,1.9,3.5,4.7,3.5,7.9c0,3.7-1.2,6.3-3.3,8.3
			c-2.6,2.6-6.9,3.8-10.6,3.8c-0.7,0-1.3,0-2-0.1v14.4h-7L172.5,48.2L172.5,48.2z M179.4,65.4c0.5,0.1,1,0.1,1.7,0.1
			c4.6,0,7.2-2.6,7.2-6.9c0-3.5-1.7-6.4-6.4-6.4c-1,0-1.8,0.1-2.4,0.3V65.4z"/>
		<path fill="#FFFFFF" d="M199.8,65.4c0-2.5-0.2-5.3-0.3-7.5h6.1l0.4,4h0.2c1.2-2.7,3.9-4.5,6.5-4.5c0.7,0,1.1,0,1.5,0.1v5.9
			c-0.4-0.1-0.9-0.1-1.5-0.1c-2.4,0-4.9,1.7-5.6,4.6c-0.2,0.6-0.3,1.5-0.3,2.6v14.1h-7L199.8,65.4L199.8,65.4z"/>
		<path fill="#FFFFFF" d="M224.9,50.9c0,2-1.6,3.4-3.9,3.4c-2,0-3.7-1.4-3.6-3.4c0-2.1,1.7-3.4,3.7-3.4
			C223.3,47.5,224.9,48.9,224.9,50.9z M217.7,84.6V57.9h7v26.7H217.7z"/>
		<path fill="#FFFFFF" d="M231.1,65.4c0-3-0.2-5.1-0.3-7.5h6.1l0.4,3.1h0.1c1.5-2.1,4.2-3.6,7.5-3.6c5.3,0,8.2,3.5,8.2,9.6v17.5h-7
			V67.7c0-2.7-0.7-5.3-3.7-5.3c-1.7,0-3.3,1.1-3.9,3.3c-0.2,0.6-0.4,1.5-0.4,2.4v16.5h-7L231.1,65.4L231.1,65.4z"/>
		<path fill="#FFFFFF" d="M267.7,50.8v7.1h6.2v4.2h-6.2V76c0,3.3,1.5,4.1,3.3,4.1c0.8,0,1.5-0.1,2.2-0.2l0.1,4.5
			c-1.1,0.3-2.6,0.4-4.6,0.4c-2.3,0-4.3-0.5-5.7-1.7c-1.5-1.3-2.3-3.2-2.3-7.2V62.2h-3.8v-4.2h3.8v-5.7L267.7,50.8z"/>
	</g>
</g>
</svg>
