<?xml version="1.0" encoding="utf-8"?>
<!-- Generator: Adobe Illustrator 23.0.3, SVG Export Plug-In . SVG Version: 6.00 Build 0)  -->
<svg version="1.1" id="Layer_1" xmlns="http://www.w3.org/2000/svg" xmlns:xlink="http://www.w3.org/1999/xlink" x="0px" y="0px"
	 viewBox="0 0 274 274" style="enable-background:new 0 0 274 274;" xml:space="preserve">
<style type="text/css">
	.st0{fill:#EEEEEE;stroke:#231F20;stroke-width:1.1022;stroke-miterlimit:10;}
	.st1{fill:#212121;}
	.st2{fill:#BDBDBD;}
	.st3{fill:#D84315;}
	.st4{fill:#FDD835;}
	.st5{fill:#606060;}
</style>
<path class="st0" d="M202.4,18H71.6c-4.1,0-7.2,3.3-7.2,7.2v58c0,4.1,3.3,7.2,7.2,7.2h130.7c4.1,0,7.2-3.3,7.2-7.2V25.4
	C209.6,21.3,206.3,18,202.4,18z"/>
<path class="st1" d="M260.4,76.2H13.6c-4.1,0-7.2,3.3-7.2,7.2v123.4c0,4.1,3.3,7.2,7.2,7.2h246.9c4.1,0,7.2-3.3,7.2-7.2V83.4
	C267.7,79.4,264.4,76.2,260.4,76.2z"/>
<path class="st0" d="M64.4,148.8v14.6v79.8c0,4.1,3.3,7.2,7.2,7.2h130.7c4.1,0,7.2-3.3,7.2-7.2v-79.8v-14.6H64.4z"/>
<path class="st2" d="M64.4,156.2c0,0.9,3.3,1.6,7.2,1.6h130.7c4.1,0,7.2-0.8,7.2-1.6v-7.4H64.4V156.2z"/>
<circle class="st3" cx="28.1" cy="98" r="7.2"/>
<circle class="st4" cx="57.2" cy="98" r="7.2"/>
<g>
	<rect x="93.4" y="177.8" class="st5" width="87.1" height="14.6"/>
</g>
<g>
	<rect x="93.4" y="206.9" class="st5" width="87.1" height="14.6"/>
</g>
</svg>
