<?xml version="1.0" encoding="utf-8"?>
<!-- Generator: Adobe Illustrator 23.0.3, SVG Export Plug-In . SVG Version: 6.00 Build 0)  -->
<svg version="1.1" id="Layer_1" xmlns="http://www.w3.org/2000/svg" xmlns:xlink="http://www.w3.org/1999/xlink" x="0px" y="0px"
	 viewBox="0 0 274 274" style="enable-background:new 0 0 274 274;" xml:space="preserve">
<style type="text/css">
	.st0{fill:#EEEEEE;stroke:#231F20;stroke-width:0.8697;stroke-miterlimit:10;}
	.st1{fill:#212121;}
	.st2{fill:#BDBDBD;}
	.st3{fill:#D84315;}
	.st4{fill:#FDD835;}
	.st5{fill:#606060;}
</style>
<path class="st0" d="M188.6,45.3H85.4c-3.2,0-5.7,2.6-5.7,5.7v45.8c0,3.2,2.6,5.7,5.7,5.7h103.1c3.2,0,5.7-2.6,5.7-5.7V51.1
	C194.3,47.9,191.7,45.3,188.6,45.3z"/>
<path class="st1" d="M234.4,91.2H39.6c-3.2,0-5.7,2.6-5.7,5.7v97.4c0,3.2,2.6,5.7,5.7,5.7h194.8c3.2,0,5.7-2.6,5.7-5.7V96.9
	C240.1,93.7,237.5,91.2,234.4,91.2z"/>
<path class="st0" d="M79.7,148.5v11.5v63c0,3.2,2.6,5.7,5.7,5.7h103.1c3.2,0,5.7-2.6,5.7-5.7v-63v-11.5H79.7z"/>
<path class="st2" d="M79.7,154.3c0,0.7,2.6,1.3,5.7,1.3h103.1c3.2,0,5.7-0.6,5.7-1.3v-5.8H79.7V154.3z"/>
<circle class="st3" cx="51.1" cy="108.4" r="5.7"/>
<circle class="st4" cx="74" cy="108.4" r="5.7"/>
<g>
	<rect x="102.6" y="171.4" class="st5" width="68.7" height="11.5"/>
</g>
<g>
	<rect x="102.6" y="194.3" class="st5" width="68.7" height="11.5"/>
</g>
</svg>
