<?xml version="1.0" encoding="utf-8"?>
<!-- Generator: Adobe Illustrator 19.0.0, SVG Export Plug-In . SVG Version: 6.00 Build 0)  -->
<svg version="1.1" id="Layer_1" xmlns="http://www.w3.org/2000/svg" xmlns:xlink="http://www.w3.org/1999/xlink" x="0px" y="0px"
	 viewBox="0 207 612 454" enable-background="new 0 207 612 454" xml:space="preserve">
<path fill="#FFFFFF" d="M337.4,390.7c-0.1,0-0.2,0-0.3,0h-0.1c-0.1,0-0.2,0-0.3,0s-0.2,0-0.3,0c-0.1,0-0.2,0-0.3,0.1
	c-0.1,0-0.2,0-0.3,0.1l0,0h-0.1c-0.1,0-0.3,0.1-0.4,0.1s-0.2,0.1-0.3,0.1c-0.1,0-0.2,0.1-0.3,0.1s-0.2,0.1-0.3,0.1
	c-0.1,0-0.2,0.1-0.2,0.1c-0.1,0-0.2,0.1-0.2,0.2c-0.1,0.1-0.2,0.1-0.2,0.2c-0.1,0.1-0.1,0.1-0.2,0.2c-0.1,0.1-0.1,0.1-0.2,0.2
	c-0.1,0.1-0.1,0.1-0.2,0.2c-0.1,0.1-0.1,0.1-0.2,0.2c-0.1,0.1-0.1,0.1-0.2,0.2s-0.1,0.2-0.2,0.2c-0.1,0.1-0.1,0.2-0.2,0.2
	c-0.1,0.1-0.1,0.2-0.1,0.2c0,0.1-0.1,0.2-0.1,0.3s-0.1,0.2-0.1,0.3c0,0.1-0.1,0.2-0.1,0.3s-0.1,0.2-0.1,0.3c0,0.1-0.1,0.2-0.1,0.3
	c0,0.1,0,0.2-0.1,0.3c0,0.1,0,0.2-0.1,0.3c0,0.1,0,0.2,0,0.3s0,0.2,0,0.3c0,0.1,0,0.2,0,0.3v0.1c0,0.1,0,0.2,0,0.3v0.1
	c0,0.1,0,0.2,0,0.3s0,0.2,0,0.3c0,0.1,0,0.2,0.1,0.3c0,0.1,0,0.2,0.1,0.3l0,0v0.1c0,0.1,0.1,0.3,0.1,0.4s0.1,0.2,0.1,0.3
	c0,0.1,0.1,0.2,0.1,0.3s0.1,0.2,0.1,0.3c0,0.1,0.1,0.2,0.1,0.2c0.1,0.1,0.1,0.2,0.2,0.2c0.1,0.1,0.1,0.2,0.2,0.2
	c0.1,0.1,0.1,0.1,0.2,0.2c0.1,0.1,0.1,0.1,0.2,0.2c0.1,0.1,0.1,0.1,0.2,0.2c0.1,0.1,0.1,0.1,0.2,0.2c0.1,0.1,0.1,0.1,0.2,0.2
	c0.1,0.1,0.2,0.1,0.2,0.2c0.1,0.1,0.2,0.1,0.2,0.2c0.1,0.1,0.2,0.1,0.2,0.1c0.1,0,0.2,0.1,0.3,0.1s0.2,0.1,0.3,0.1
	c0.1,0,0.2,0.1,0.3,0.1c0.1,0,0.2,0.1,0.3,0.1c0.1,0,0.2,0.1,0.3,0.1c0.1,0,0.2,0.1,0.3,0.1s0.2,0,0.3,0.1c0.1,0,0.2,0,0.3,0
	c0.1,0,0.2,0,0.3,0c0.1,0,0.2,0,0.3,0h0.1c0.1,0,0.2,0,0.3,0h0.1c0.1,0,0.2,0,0.3,0s0.2,0,0.3,0c0.1,0,0.2,0,0.3-0.1
	c0.1,0,0.2,0,0.3-0.1l0,0h0.1c0.1,0,0.3-0.1,0.4-0.1c0.1,0,0.2-0.1,0.3-0.1c0.1,0,0.2-0.1,0.3-0.1c0.1,0,0.2-0.1,0.3-0.1
	c0.1,0,0.2-0.1,0.2-0.1c0.1,0,0.2-0.1,0.2-0.2c0.1-0.1,0.2-0.1,0.2-0.2c0.1-0.1,0.1-0.1,0.2-0.2c0.1-0.1,0.1-0.1,0.2-0.2
	c0.1-0.1,0.1-0.1,0.2-0.2c0.1-0.1,0.1-0.1,0.2-0.2c0.1-0.1,0.1-0.1,0.2-0.2c0.1-0.1,0.1-0.2,0.2-0.2c0.1-0.1,0.1-0.2,0.2-0.2
	c0.1-0.1,0.1-0.2,0.1-0.2c0-0.1,0.1-0.2,0.1-0.3s0.1-0.2,0.1-0.3c0-0.1,0.1-0.2,0.1-0.3c0-0.1,0.1-0.2,0.1-0.3
	c0-0.1,0.1-0.2,0.1-0.3c0-0.1,0.1-0.2,0.1-0.3s0-0.2,0.1-0.3c0-0.1,0-0.2,0-0.3c0-0.1,0-0.2,0-0.3c0-0.1,0-0.2,0-0.3v-0.1
	c0-0.1,0-0.2,0-0.3v-0.1c0-0.1,0-0.2,0-0.3s0-0.2,0-0.3c0-0.1,0-0.2-0.1-0.3c0-0.1,0-0.2-0.1-0.3l0,0v-0.1c0-0.1-0.1-0.3-0.1-0.4
	c0-0.1-0.1-0.2-0.1-0.3c0-0.1-0.1-0.2-0.1-0.3s-0.1-0.2-0.1-0.3c0-0.1-0.1-0.2-0.1-0.2c-0.1-0.1-0.1-0.2-0.2-0.2
	c-0.1-0.1-0.1-0.2-0.2-0.2c-0.1-0.1-0.1-0.1-0.2-0.2c-0.1-0.1-0.1-0.1-0.2-0.2c-0.1-0.1-0.1-0.1-0.2-0.2c-0.1-0.1-0.1-0.1-0.2-0.2
	c-0.1-0.1-0.1-0.1-0.2-0.2s-0.2-0.1-0.2-0.2c-0.1-0.1-0.2-0.1-0.2-0.2c-0.1-0.1-0.2-0.1-0.2-0.1c-0.1,0-0.2-0.1-0.3-0.1
	c-0.1,0-0.2-0.1-0.3-0.1c-0.1,0-0.2-0.1-0.3-0.1s-0.2-0.1-0.3-0.1c-0.1,0-0.2-0.1-0.3-0.1c-0.1,0-0.2-0.1-0.3-0.1s-0.2,0-0.3-0.1
	c-0.1,0-0.2,0-0.3,0s-0.2,0-0.3,0C337.7,390.7,337.6,390.7,337.4,390.7C337.5,390.7,337.5,390.7,337.4,390.7L337.4,390.7z"/>
<path fill="#FFFFFF" d="M337.4,390.7c-0.1,0-0.2,0-0.3,0h-0.1c-0.1,0-0.2,0-0.3,0s-0.2,0-0.3,0c-0.1,0-0.2,0-0.3,0.1
	c-0.1,0-0.2,0-0.3,0.1l0,0h-0.1c-0.1,0-0.3,0.1-0.4,0.1s-0.2,0.1-0.3,0.1c-0.1,0-0.2,0.1-0.3,0.1s-0.2,0.1-0.3,0.1
	c-0.1,0-0.2,0.1-0.2,0.1c-0.1,0-0.2,0.1-0.2,0.2c-0.1,0.1-0.2,0.1-0.2,0.2c-0.1,0.1-0.1,0.1-0.2,0.2c-0.1,0.1-0.1,0.1-0.2,0.2
	c-0.1,0.1-0.1,0.1-0.2,0.2c-0.1,0.1-0.1,0.1-0.2,0.2c-0.1,0.1-0.1,0.1-0.2,0.2s-0.1,0.2-0.2,0.2c-0.1,0.1-0.1,0.2-0.2,0.2
	c-0.1,0.1-0.1,0.2-0.1,0.2c0,0.1-0.1,0.2-0.1,0.3s-0.1,0.2-0.1,0.3c0,0.1-0.1,0.2-0.1,0.3s-0.1,0.2-0.1,0.3c0,0.1-0.1,0.2-0.1,0.3
	c0,0.1,0,0.2-0.1,0.3c0,0.1,0,0.2-0.1,0.3c0,0.1,0,0.2,0,0.3s0,0.2,0,0.3c0,0.1,0,0.2,0,0.3v0.1c0,0.1,0,0.2,0,0.3v0.1
	c0,0.1,0,0.2,0,0.3s0,0.2,0,0.3c0,0.1,0,0.2,0.1,0.3c0,0.1,0,0.2,0.1,0.3l0,0v0.1c0,0.1,0.1,0.3,0.1,0.4s0.1,0.2,0.1,0.3
	c0,0.1,0.1,0.2,0.1,0.3s0.1,0.2,0.1,0.3c0,0.1,0.1,0.2,0.1,0.2c0.1,0.1,0.1,0.2,0.2,0.2c0.1,0.1,0.1,0.2,0.2,0.2
	c0.1,0.1,0.1,0.1,0.2,0.2c0.1,0.1,0.1,0.1,0.2,0.2c0.1,0.1,0.1,0.1,0.2,0.2c0.1,0.1,0.1,0.1,0.2,0.2c0.1,0.1,0.1,0.1,0.2,0.2
	c0.1,0.1,0.2,0.1,0.2,0.2c0.1,0.1,0.2,0.1,0.2,0.2c0.1,0.1,0.2,0.1,0.2,0.1c0.1,0,0.2,0.1,0.3,0.1s0.2,0.1,0.3,0.1
	c0.1,0,0.2,0.1,0.3,0.1c0.1,0,0.2,0.1,0.3,0.1c0.1,0,0.2,0.1,0.3,0.1c0.1,0,0.2,0,0.3,0.1c0.1,0,0.2,0,0.3,0.1c0.1,0,0.2,0,0.3,0
	c0.1,0,0.2,0,0.3,0c0.1,0,0.2,0,0.3,0h0.1c0.1,0,0.2,0,0.3,0h0.1c0.1,0,0.2,0,0.3,0s0.2,0,0.3,0c0.1,0,0.2,0,0.3-0.1
	c0.1,0,0.2,0,0.3-0.1l0,0h0.1c0.1,0,0.3-0.1,0.4-0.1c0.1,0,0.2-0.1,0.3-0.1c0.1,0,0.2-0.1,0.3-0.1c0.1,0,0.2-0.1,0.3-0.1
	c0.1,0,0.2-0.1,0.2-0.1c0.1-0.1,0.2-0.1,0.2-0.2c0.1-0.1,0.2-0.1,0.2-0.2c0.1-0.1,0.1-0.1,0.2-0.2c0.1-0.1,0.1-0.1,0.2-0.2
	c0.1-0.1,0.1-0.1,0.2-0.2c0.1-0.1,0.1-0.1,0.2-0.2c0.1-0.1,0.1-0.1,0.2-0.2c0.1-0.1,0.1-0.2,0.2-0.2c0.1-0.1,0.1-0.2,0.2-0.2
	c0.1-0.1,0.1-0.2,0.1-0.2c0-0.1,0.1-0.2,0.1-0.3s0.1-0.2,0.1-0.3c0-0.1,0.1-0.2,0.1-0.3c0-0.1,0.1-0.2,0.1-0.3
	c0-0.1,0.1-0.2,0.1-0.3c0-0.1,0.1-0.2,0.1-0.3s0-0.2,0.1-0.3c0-0.1,0-0.2,0-0.3c0-0.1,0-0.2,0-0.3c0-0.1,0-0.2,0-0.3v-0.1
	c0-0.1,0-0.2,0-0.3v-0.1c0-0.1,0-0.2,0-0.3s0-0.2,0-0.3c0-0.1,0-0.2-0.1-0.3c0-0.1,0-0.2-0.1-0.3l0,0v-0.1c0-0.1-0.1-0.3-0.1-0.4
	c0-0.1-0.1-0.2-0.1-0.3c0-0.1-0.1-0.2-0.1-0.3s-0.1-0.2-0.1-0.3c0-0.1-0.1-0.2-0.1-0.2c-0.1-0.1-0.1-0.2-0.2-0.2
	c-0.1-0.1-0.1-0.2-0.2-0.2c-0.1-0.1-0.1-0.1-0.2-0.2c-0.1-0.1-0.1-0.1-0.2-0.2c-0.1-0.1-0.1-0.1-0.2-0.2c-0.1-0.1-0.1-0.1-0.2-0.2
	c-0.1-0.1-0.1-0.1-0.2-0.2s-0.2-0.1-0.2-0.2c-0.1-0.1-0.2-0.1-0.2-0.2c-0.1-0.1-0.2-0.1-0.2-0.1c-0.1,0-0.2-0.1-0.3-0.1
	c-0.1,0-0.2-0.1-0.3-0.1c-0.1,0-0.2-0.1-0.3-0.1s-0.2-0.1-0.3-0.1c-0.1,0-0.2-0.1-0.3-0.1c-0.1,0-0.2-0.1-0.3-0.1s-0.2,0-0.3-0.1
	c-0.1,0-0.2,0-0.3,0s-0.2,0-0.3,0C337.7,390.7,337.6,390.7,337.4,390.7C337.5,390.7,337.5,390.7,337.4,390.7L337.4,390.7z"/>
<path fill="#FFFFFF" d="M337.4,390.7c-0.1,0-0.2,0-0.3,0h-0.1c-0.1,0-0.2,0-0.3,0s-0.2,0-0.3,0c-0.1,0-0.2,0-0.3,0.1
	c-0.1,0-0.2,0-0.3,0.1l0,0h-0.1c-0.1,0-0.3,0.1-0.4,0.1s-0.2,0.1-0.3,0.1c-0.1,0-0.2,0.1-0.3,0.1s-0.2,0.1-0.3,0.1
	c-0.1,0-0.2,0.1-0.2,0.1c-0.1,0-0.2,0.1-0.2,0.2c-0.1,0.1-0.2,0.1-0.2,0.2c-0.1,0.1-0.1,0.1-0.2,0.2c-0.1,0.1-0.1,0.1-0.2,0.2
	c-0.1,0.1-0.1,0.1-0.2,0.2c-0.1,0.1-0.1,0.1-0.2,0.2c-0.1,0.1-0.1,0.1-0.2,0.2s-0.1,0.2-0.2,0.2c-0.1,0.1-0.1,0.2-0.2,0.2
	c-0.1,0.1-0.1,0.2-0.1,0.2c0,0.1-0.1,0.2-0.1,0.3s-0.1,0.2-0.1,0.3c0,0.1-0.1,0.2-0.1,0.3s-0.1,0.2-0.1,0.3c0,0.1-0.1,0.2-0.1,0.3
	c0,0.1,0,0.2-0.1,0.3c0,0.1,0,0.2-0.1,0.3c0,0.1,0,0.2,0,0.3s0,0.2,0,0.3c0,0.1,0,0.2,0,0.3v0.1c0,0.1,0,0.2,0,0.3v0.1
	c0,0.1,0,0.2,0,0.3s0,0.2,0,0.3c0,0.1,0,0.2,0.1,0.3c0,0.1,0,0.2,0.1,0.3l0,0v0.1c0,0.1,0.1,0.3,0.1,0.4s0.1,0.2,0.1,0.3
	c0,0.1,0.1,0.2,0.1,0.3s0.1,0.2,0.1,0.3c0,0.1,0.1,0.2,0.1,0.2c0.1,0.1,0.1,0.2,0.2,0.2c0.1,0.1,0.1,0.2,0.2,0.2
	c0.1,0.1,0.1,0.1,0.2,0.2c0.1,0.1,0.1,0.1,0.2,0.2c0.1,0.1,0.1,0.1,0.2,0.2c0.1,0.1,0.1,0.1,0.2,0.2c0.1,0.1,0.1,0.1,0.2,0.2
	c0.1,0.1,0.2,0.1,0.2,0.2c0.1,0.1,0.2,0.1,0.2,0.2c0.1,0.1,0.2,0.1,0.2,0.1c0.1,0,0.2,0.1,0.3,0.1s0.2,0.1,0.3,0.1
	c0.1,0,0.2,0.1,0.3,0.1c0.1,0,0.2,0.1,0.3,0.1c0.1,0,0.2,0.1,0.3,0.1c0.1,0,0.2,0,0.3,0.1c0.1,0,0.2,0,0.3,0.1c0.1,0,0.2,0,0.3,0
	c0.1,0,0.2,0,0.3,0c0.1,0,0.2,0,0.3,0h0.1c0.1,0,0.2,0,0.3,0h0.1c0.1,0,0.2,0,0.3,0s0.2,0,0.3,0c0.1,0,0.2,0,0.3-0.1
	c0.1,0,0.2,0,0.3-0.1l0,0h0.1c0.1,0,0.3-0.1,0.4-0.1c0.1,0,0.2-0.1,0.3-0.1c0.1,0,0.2-0.1,0.3-0.1c0.1,0,0.2-0.1,0.3-0.1
	c0.1,0,0.2-0.1,0.2-0.1c0.1-0.1,0.2-0.1,0.2-0.2c0.1-0.1,0.2-0.1,0.2-0.2c0.1-0.1,0.1-0.1,0.2-0.2c0.1-0.1,0.1-0.1,0.2-0.2
	c0.1-0.1,0.1-0.1,0.2-0.2c0.1-0.1,0.1-0.1,0.2-0.2c0.1-0.1,0.1-0.1,0.2-0.2c0.1-0.1,0.1-0.2,0.2-0.2c0.1-0.1,0.1-0.2,0.2-0.2
	c0.1-0.1,0.1-0.2,0.1-0.2c0-0.1,0.1-0.2,0.1-0.3s0.1-0.2,0.1-0.3c0-0.1,0.1-0.2,0.1-0.3c0-0.1,0.1-0.2,0.1-0.3
	c0-0.1,0.1-0.2,0.1-0.3c0-0.1,0.1-0.2,0.1-0.3s0-0.2,0.1-0.3c0-0.1,0-0.2,0-0.3c0-0.1,0-0.2,0-0.3c0-0.1,0-0.2,0-0.3v-0.1
	c0-0.1,0-0.2,0-0.3v-0.1c0-0.1,0-0.2,0-0.3s0-0.2,0-0.3c0-0.1,0-0.2-0.1-0.3c0-0.1,0-0.2-0.1-0.3l0,0v-0.1c0-0.1-0.1-0.3-0.1-0.4
	c0-0.1-0.1-0.2-0.1-0.3c0-0.1-0.1-0.2-0.1-0.3s-0.1-0.2-0.1-0.3c0-0.1-0.1-0.2-0.1-0.2c-0.1-0.1-0.1-0.2-0.2-0.2
	c-0.1-0.1-0.1-0.2-0.2-0.2c-0.1-0.1-0.1-0.1-0.2-0.2c-0.1-0.1-0.1-0.1-0.2-0.2c-0.1-0.1-0.1-0.1-0.2-0.2c-0.1-0.1-0.1-0.1-0.2-0.2
	c-0.1-0.1-0.1-0.1-0.2-0.2s-0.2-0.1-0.2-0.2c-0.1-0.1-0.2-0.1-0.2-0.2c-0.1-0.1-0.2-0.1-0.2-0.1c-0.1,0-0.2-0.1-0.3-0.1
	c-0.1,0-0.2-0.1-0.3-0.1c-0.1,0-0.2-0.1-0.3-0.1s-0.2-0.1-0.3-0.1c-0.1,0-0.2-0.1-0.3-0.1c-0.1,0-0.2-0.1-0.3-0.1s-0.2,0-0.3-0.1
	c-0.1,0-0.2,0-0.3,0s-0.2,0-0.3,0C337.7,390.7,337.6,390.7,337.4,390.7C337.5,390.7,337.5,390.7,337.4,390.7L337.4,390.7z"/>
<path fill="#FFFFFF" d="M337.4,390.7c-0.1,0-0.2,0-0.3,0h-0.1c-0.1,0-0.2,0-0.3,0s-0.2,0-0.3,0c-0.1,0-0.2,0-0.3,0.1
	c-0.1,0-0.2,0-0.3,0.1l0,0h-0.1c-0.1,0-0.3,0.1-0.4,0.1s-0.2,0.1-0.3,0.1c-0.1,0-0.2,0.1-0.3,0.1s-0.2,0.1-0.3,0.1
	c-0.1,0-0.2,0.1-0.2,0.1c-0.1,0-0.2,0.1-0.2,0.2c-0.1,0.1-0.2,0.1-0.2,0.2c-0.1,0.1-0.1,0.1-0.2,0.2c-0.1,0.1-0.1,0.1-0.2,0.2
	c-0.1,0.1-0.1,0.1-0.2,0.2c-0.1,0.1-0.1,0.1-0.2,0.2c-0.1,0.1-0.1,0.1-0.2,0.2s-0.1,0.2-0.2,0.2c-0.1,0.1-0.1,0.2-0.2,0.2
	c-0.1,0.1-0.1,0.2-0.1,0.2c0,0.1-0.1,0.2-0.1,0.3s-0.1,0.2-0.1,0.3c0,0.1-0.1,0.2-0.1,0.3s-0.1,0.2-0.1,0.3c0,0.1-0.1,0.2-0.1,0.3
	c0,0.1,0,0.2-0.1,0.3c0,0.1,0,0.2-0.1,0.3c0,0.1,0,0.2,0,0.3s0,0.2,0,0.3c0,0.1,0,0.2,0,0.3v0.1c0,0.1,0,0.2,0,0.3v0.1
	c0,0.1,0,0.2,0,0.3s0,0.2,0,0.3c0,0.1,0,0.2,0.1,0.3c0,0.1,0,0.2,0.1,0.3l0,0v0.1c0,0.1,0.1,0.3,0.1,0.4s0.1,0.2,0.1,0.3
	c0,0.1,0.1,0.2,0.1,0.3s0.1,0.2,0.1,0.3c0,0.1,0.1,0.2,0.1,0.2c0.1,0.1,0.1,0.2,0.2,0.2c0.1,0.1,0.1,0.2,0.2,0.2
	c0.1,0.1,0.1,0.1,0.2,0.2c0.1,0.1,0.1,0.1,0.2,0.2c0.1,0.1,0.1,0.1,0.2,0.2c0.1,0.1,0.1,0.1,0.2,0.2c0.1,0.1,0.1,0.1,0.2,0.2
	c0.1,0.1,0.2,0.1,0.2,0.2c0.1,0.1,0.2,0.1,0.2,0.2c0.1,0.1,0.2,0.1,0.2,0.1c0.1,0,0.2,0.1,0.3,0.1s0.2,0.1,0.3,0.1
	c0.1,0,0.2,0.1,0.3,0.1c0.1,0,0.2,0.1,0.3,0.1c0.1,0,0.2,0.1,0.3,0.1c0.1,0,0.2,0,0.3,0.1c0.1,0,0.2,0,0.3,0.1c0.1,0,0.2,0,0.3,0
	c0.1,0,0.2,0,0.3,0c0.1,0,0.2,0,0.3,0h0.1c0.1,0,0.2,0,0.3,0h0.1c0.1,0,0.2,0,0.3,0s0.2,0,0.3,0c0.1,0,0.2,0,0.3-0.1
	c0.1,0,0.2,0,0.3-0.1l0,0h0.1c0.1,0,0.3-0.1,0.4-0.1c0.1,0,0.2-0.1,0.3-0.1c0.1,0,0.2-0.1,0.3-0.1c0.1,0,0.2-0.1,0.3-0.1
	c0.1,0,0.2-0.1,0.2-0.1c0.1-0.1,0.2-0.1,0.2-0.2c0.1-0.1,0.2-0.1,0.2-0.2c0.1-0.1,0.1-0.1,0.2-0.2c0.1-0.1,0.1-0.1,0.2-0.2
	c0.1-0.1,0.1-0.1,0.2-0.2c0.1-0.1,0.1-0.1,0.2-0.2c0.1-0.1,0.1-0.1,0.2-0.2c0.1-0.1,0.1-0.2,0.2-0.2c0.1-0.1,0.1-0.2,0.2-0.2
	c0.1-0.1,0.1-0.2,0.1-0.2c0-0.1,0.1-0.2,0.1-0.3s0.1-0.2,0.1-0.3c0-0.1,0.1-0.2,0.1-0.3c0-0.1,0.1-0.2,0.1-0.3
	c0-0.1,0.1-0.2,0.1-0.3c0-0.1,0.1-0.2,0.1-0.3s0-0.2,0.1-0.3c0-0.1,0-0.2,0-0.3c0-0.1,0-0.2,0-0.3c0-0.1,0-0.2,0-0.3v-0.1
	c0-0.1,0-0.2,0-0.3v-0.1c0-0.1,0-0.2,0-0.3s0-0.2,0-0.3c0-0.1,0-0.2-0.1-0.3c0-0.1,0-0.2-0.1-0.3l0,0v-0.1c0-0.1-0.1-0.3-0.1-0.4
	c0-0.1-0.1-0.2-0.1-0.3c0-0.1-0.1-0.2-0.1-0.3s-0.1-0.2-0.1-0.3c0-0.1-0.1-0.2-0.1-0.2c-0.1-0.1-0.1-0.2-0.2-0.2
	c-0.1-0.1-0.1-0.2-0.2-0.2c-0.1-0.1-0.1-0.1-0.2-0.2c-0.1-0.1-0.1-0.1-0.2-0.2c-0.1-0.1-0.1-0.1-0.2-0.2c-0.1-0.1-0.1-0.1-0.2-0.2
	c-0.1-0.1-0.1-0.1-0.2-0.2s-0.2-0.1-0.2-0.2c-0.1-0.1-0.2-0.1-0.2-0.2c-0.1-0.1-0.2-0.1-0.2-0.1c-0.1,0-0.2-0.1-0.3-0.1
	c-0.1,0-0.2-0.1-0.3-0.1c-0.1,0-0.2-0.1-0.3-0.1s-0.2-0.1-0.3-0.1c-0.1,0-0.2-0.1-0.3-0.1c-0.1,0-0.2-0.1-0.3-0.1s-0.2,0-0.3-0.1
	c-0.1,0-0.2,0-0.3,0s-0.2,0-0.3,0C337.7,390.7,337.6,390.7,337.4,390.7C337.5,390.7,337.5,390.7,337.4,390.7L337.4,390.7z"/>
<path fill="#FFFFFF" d="M337.4,390.7c-0.1,0-0.2,0-0.3,0h-0.1c-0.1,0-0.2,0-0.3,0s-0.2,0-0.3,0c-0.1,0-0.2,0-0.3,0.1
	c-0.1,0-0.2,0-0.3,0.1l0,0h-0.1c-0.1,0-0.3,0.1-0.4,0.1s-0.2,0.1-0.3,0.1c-0.1,0-0.2,0.1-0.3,0.1s-0.2,0.1-0.3,0.1
	c-0.1,0-0.2,0.1-0.2,0.1c-0.1,0-0.2,0.1-0.2,0.2c-0.1,0.1-0.2,0.1-0.2,0.2c-0.1,0.1-0.1,0.1-0.2,0.2c-0.1,0.1-0.1,0.1-0.2,0.2
	c-0.1,0.1-0.1,0.1-0.2,0.2c-0.1,0.1-0.1,0.1-0.2,0.2c-0.1,0.1-0.1,0.1-0.2,0.2s-0.1,0.2-0.2,0.2c-0.1,0.1-0.1,0.2-0.2,0.2
	c-0.1,0.1-0.1,0.2-0.1,0.2c0,0.1-0.1,0.2-0.1,0.3s-0.1,0.2-0.1,0.3c0,0.1-0.1,0.2-0.1,0.3s-0.1,0.2-0.1,0.3c0,0.1-0.1,0.2-0.1,0.3
	c0,0.1,0,0.2-0.1,0.3c0,0.1,0,0.2-0.1,0.3c0,0.1,0,0.2,0,0.3s0,0.2,0,0.3c0,0.1,0,0.2,0,0.3v0.1c0,0.1,0,0.2,0,0.3v0.1
	c0,0.1,0,0.2,0,0.3s0,0.2,0,0.3c0,0.1,0,0.2,0.1,0.3c0,0.1,0,0.2,0.1,0.3l0,0v0.1c0,0.1,0.1,0.3,0.1,0.4s0.1,0.2,0.1,0.3
	c0,0.1,0.1,0.2,0.1,0.3s0.1,0.2,0.1,0.3c0,0.1,0.1,0.2,0.1,0.2c0.1,0.1,0.1,0.2,0.2,0.2c0.1,0.1,0.1,0.2,0.2,0.2
	c0.1,0.1,0.1,0.1,0.2,0.2c0.1,0.1,0.1,0.1,0.2,0.2c0.1,0.1,0.1,0.1,0.2,0.2c0.1,0.1,0.1,0.1,0.2,0.2c0.1,0.1,0.1,0.1,0.2,0.2
	c0.1,0.1,0.2,0.1,0.2,0.2c0.1,0.1,0.2,0.1,0.2,0.2c0.1,0.1,0.2,0.1,0.2,0.1c0.1,0,0.2,0.1,0.3,0.1s0.2,0.1,0.3,0.1
	c0.1,0,0.2,0.1,0.3,0.1c0.1,0,0.2,0.1,0.3,0.1c0.1,0,0.2,0.1,0.3,0.1c0.1,0,0.2,0,0.3,0.1c0.1,0,0.2,0,0.3,0.1c0.1,0,0.2,0,0.3,0
	c0.1,0,0.2,0,0.3,0c0.1,0,0.2,0,0.3,0h0.1c0.1,0,0.2,0,0.3,0h0.1c0.1,0,0.2,0,0.3,0s0.2,0,0.3,0c0.1,0,0.2,0,0.3-0.1
	c0.1,0,0.2,0,0.3-0.1l0,0h0.1c0.1,0,0.3-0.1,0.4-0.1c0.1,0,0.2-0.1,0.3-0.1c0.1,0,0.2-0.1,0.3-0.1c0.1,0,0.2-0.1,0.3-0.1
	c0.1,0,0.2-0.1,0.2-0.1c0.1-0.1,0.2-0.1,0.2-0.2c0.1-0.1,0.2-0.1,0.2-0.2c0.1-0.1,0.1-0.1,0.2-0.2c0.1-0.1,0.1-0.1,0.2-0.2
	c0.1-0.1,0.1-0.1,0.2-0.2c0.1-0.1,0.1-0.1,0.2-0.2c0.1-0.1,0.1-0.1,0.2-0.2c0.1-0.1,0.1-0.2,0.2-0.2c0.1-0.1,0.1-0.2,0.2-0.2
	c0.1-0.1,0.1-0.2,0.1-0.2c0-0.1,0.1-0.2,0.1-0.3s0.1-0.2,0.1-0.3c0-0.1,0.1-0.2,0.1-0.3c0-0.1,0.1-0.2,0.1-0.3
	c0-0.1,0.1-0.2,0.1-0.3c0-0.1,0.1-0.2,0.1-0.3s0-0.2,0.1-0.3c0-0.1,0-0.2,0-0.3c0-0.1,0-0.2,0-0.3c0-0.1,0-0.2,0-0.3v-0.1
	c0-0.1,0-0.2,0-0.3v-0.1c0-0.1,0-0.2,0-0.3s0-0.2,0-0.3c0-0.1,0-0.2-0.1-0.3c0-0.1,0-0.2-0.1-0.3l0,0v-0.1c0-0.1-0.1-0.3-0.1-0.4
	c0-0.1-0.1-0.2-0.1-0.3c0-0.1-0.1-0.2-0.1-0.3s-0.1-0.2-0.1-0.3c0-0.1-0.1-0.2-0.1-0.2c-0.1-0.1-0.1-0.2-0.2-0.2
	c-0.1-0.1-0.1-0.2-0.2-0.2c-0.1-0.1-0.1-0.1-0.2-0.2c-0.1-0.1-0.1-0.1-0.2-0.2c-0.1-0.1-0.1-0.1-0.2-0.2c-0.1-0.1-0.1-0.1-0.2-0.2
	c-0.1-0.1-0.1-0.1-0.2-0.2s-0.2-0.1-0.2-0.2c-0.1-0.1-0.2-0.1-0.2-0.2c-0.1-0.1-0.2-0.1-0.2-0.1c-0.1,0-0.2-0.1-0.3-0.1
	c-0.1,0-0.2-0.1-0.3-0.1c-0.1,0-0.2-0.1-0.3-0.1s-0.2-0.1-0.3-0.1c-0.1,0-0.2-0.1-0.3-0.1c-0.1,0-0.2-0.1-0.3-0.1s-0.2,0-0.3-0.1
	c-0.1,0-0.2,0-0.3,0s-0.2,0-0.3,0C337.7,390.7,337.6,390.7,337.4,390.7C337.5,390.7,337.5,390.7,337.4,390.7L337.4,390.7z"/>
<path fill="#FFFFFF" d="M337.4,390.7c-0.1,0-0.2,0-0.3,0h-0.1c-0.1,0-0.2,0-0.3,0s-0.2,0-0.3,0c-0.1,0-0.2,0-0.3,0.1
	c-0.1,0-0.2,0-0.3,0.1l0,0h-0.1c-0.1,0-0.3,0.1-0.4,0.1s-0.2,0.1-0.3,0.1c-0.1,0-0.2,0.1-0.3,0.1s-0.2,0.1-0.3,0.1
	c-0.1,0-0.2,0.1-0.2,0.1c-0.1,0-0.2,0.1-0.2,0.2c-0.1,0.1-0.2,0.1-0.2,0.2c-0.1,0.1-0.1,0.1-0.2,0.2c-0.1,0.1-0.1,0.1-0.2,0.2
	c-0.1,0.1-0.1,0.1-0.2,0.2c-0.1,0.1-0.1,0.1-0.2,0.2c-0.1,0.1-0.1,0.1-0.2,0.2s-0.1,0.2-0.2,0.2c-0.1,0.1-0.1,0.2-0.2,0.2
	c-0.1,0.1-0.1,0.2-0.1,0.2c0,0.1-0.1,0.2-0.1,0.3s-0.1,0.2-0.1,0.3c0,0.1-0.1,0.2-0.1,0.3s-0.1,0.2-0.1,0.3c0,0.1-0.1,0.2-0.1,0.3
	c0,0.1,0,0.2-0.1,0.3c0,0.1,0,0.2-0.1,0.3c0,0.1,0,0.2,0,0.3s0,0.2,0,0.3c0,0.1,0,0.2,0,0.3v0.1c0,0.1,0,0.2,0,0.3v0.1
	c0,0.1,0,0.2,0,0.3s0,0.2,0,0.3c0,0.1,0,0.2,0.1,0.3c0,0.1,0,0.2,0.1,0.3l0,0v0.1c0,0.1,0.1,0.3,0.1,0.4s0.1,0.2,0.1,0.3
	c0,0.1,0.1,0.2,0.1,0.3s0.1,0.2,0.1,0.3c0,0.1,0.1,0.2,0.1,0.2c0.1,0.1,0.1,0.2,0.2,0.2c0.1,0.1,0.1,0.2,0.2,0.2
	c0.1,0.1,0.1,0.1,0.2,0.2c0.1,0.1,0.1,0.1,0.2,0.2c0.1,0.1,0.1,0.1,0.2,0.2c0.1,0.1,0.1,0.1,0.2,0.2c0.1,0.1,0.1,0.1,0.2,0.2
	c0.1,0.1,0.2,0.1,0.2,0.2c0.1,0.1,0.2,0.1,0.2,0.2c0.1,0.1,0.2,0.1,0.2,0.1c0.1,0,0.2,0.1,0.3,0.1s0.2,0.1,0.3,0.1
	c0.1,0,0.2,0.1,0.3,0.1c0.1,0,0.2,0.1,0.3,0.1c0.1,0,0.2,0.1,0.3,0.1c0.1,0,0.2,0,0.3,0.1c0.1,0,0.2,0,0.3,0.1c0.1,0,0.2,0,0.3,0
	c0.1,0,0.2,0,0.3,0c0.1,0,0.2,0,0.3,0h0.1c0.1,0,0.2,0,0.3,0h0.1c0.1,0,0.2,0,0.3,0s0.2,0,0.3,0c0.1,0,0.2,0,0.3-0.1
	c0.1,0,0.2,0,0.3-0.1l0,0h0.1c0.1,0,0.3-0.1,0.4-0.1c0.1,0,0.2-0.1,0.3-0.1c0.1,0,0.2-0.1,0.3-0.1c0.1,0,0.2-0.1,0.3-0.1
	c0.1,0,0.2-0.1,0.2-0.1c0.1-0.1,0.2-0.1,0.2-0.2c0.1-0.1,0.2-0.1,0.2-0.2c0.1-0.1,0.1-0.1,0.2-0.2c0.1-0.1,0.1-0.1,0.2-0.2
	c0.1-0.1,0.1-0.1,0.2-0.2c0.1-0.1,0.1-0.1,0.2-0.2c0.1-0.1,0.1-0.1,0.2-0.2c0.1-0.1,0.1-0.2,0.2-0.2c0.1-0.1,0.1-0.2,0.2-0.2
	c0.1-0.1,0.1-0.2,0.1-0.2c0-0.1,0.1-0.2,0.1-0.3s0.1-0.2,0.1-0.3c0-0.1,0.1-0.2,0.1-0.3c0-0.1,0.1-0.2,0.1-0.3
	c0-0.1,0.1-0.2,0.1-0.3c0-0.1,0.1-0.2,0.1-0.3s0-0.2,0.1-0.3c0-0.1,0-0.2,0-0.3c0-0.1,0-0.2,0-0.3c0-0.1,0-0.2,0-0.3v-0.1
	c0-0.1,0-0.2,0-0.3v-0.1c0-0.1,0-0.2,0-0.3s0-0.2,0-0.3c0-0.1,0-0.2-0.1-0.3c0-0.1,0-0.2-0.1-0.3l0,0v-0.1c0-0.1-0.1-0.3-0.1-0.4
	c0-0.1-0.1-0.2-0.1-0.3c0-0.1-0.1-0.2-0.1-0.3s-0.1-0.2-0.1-0.3c0-0.1-0.1-0.2-0.1-0.2c-0.1-0.1-0.1-0.2-0.2-0.2
	c-0.1-0.1-0.1-0.2-0.2-0.2c-0.1-0.1-0.1-0.1-0.2-0.2c-0.1-0.1-0.1-0.1-0.2-0.2c-0.1-0.1-0.1-0.1-0.2-0.2c-0.1-0.1-0.1-0.1-0.2-0.2
	c-0.1-0.1-0.1-0.1-0.2-0.2s-0.2-0.1-0.2-0.2c-0.1-0.1-0.2-0.1-0.2-0.2c-0.1-0.1-0.2-0.1-0.2-0.1c-0.1,0-0.2-0.1-0.3-0.1
	c-0.1,0-0.2-0.1-0.3-0.1c-0.1,0-0.2-0.1-0.3-0.1s-0.2-0.1-0.3-0.1c-0.1,0-0.2-0.1-0.3-0.1c-0.1,0-0.2-0.1-0.3-0.1s-0.2,0-0.3-0.1
	c-0.1,0-0.2,0-0.3,0s-0.2,0-0.3,0C337.7,390.7,337.6,390.7,337.4,390.7C337.5,390.7,337.5,390.7,337.4,390.7L337.4,390.7z"/>
<path fill="#FFFFFF" d="M337.4,390.7c-0.1,0-0.2,0-0.3,0h-0.1c-0.1,0-0.2,0-0.3,0s-0.2,0-0.3,0c-0.1,0-0.2,0-0.3,0.1
	c-0.1,0-0.2,0-0.3,0.1l0,0h-0.1c-0.1,0-0.3,0.1-0.4,0.1s-0.2,0.1-0.3,0.1c-0.1,0-0.2,0.1-0.3,0.1s-0.2,0.1-0.3,0.1
	c-0.1,0-0.2,0.1-0.2,0.1c-0.1,0-0.2,0.1-0.2,0.2c-0.1,0.1-0.2,0.1-0.2,0.2c-0.1,0.1-0.1,0.1-0.2,0.2c-0.1,0.1-0.1,0.1-0.2,0.2
	c-0.1,0.1-0.1,0.1-0.2,0.2c-0.1,0.1-0.1,0.1-0.2,0.2c-0.1,0.1-0.1,0.1-0.2,0.2s-0.1,0.2-0.2,0.2c-0.1,0.1-0.1,0.2-0.2,0.2
	c-0.1,0.1-0.1,0.2-0.1,0.2c0,0.1-0.1,0.2-0.1,0.3s-0.1,0.2-0.1,0.3c0,0.1-0.1,0.2-0.1,0.3s-0.1,0.2-0.1,0.3c0,0.1-0.1,0.2-0.1,0.3
	c0,0.1,0,0.2-0.1,0.3c0,0.1,0,0.2-0.1,0.3c0,0.1,0,0.2,0,0.3s0,0.2,0,0.3c0,0.1,0,0.2,0,0.3v0.1c0,0.1,0,0.2,0,0.3v0.1
	c0,0.1,0,0.2,0,0.3s0,0.2,0,0.3c0,0.1,0,0.2,0.1,0.3c0,0.1,0,0.2,0.1,0.3l0,0v0.1c0,0.1,0.1,0.3,0.1,0.4s0.1,0.2,0.1,0.3
	c0,0.1,0.1,0.2,0.1,0.3s0.1,0.2,0.1,0.3c0,0.1,0.1,0.2,0.1,0.2c0.1,0.1,0.1,0.2,0.2,0.2c0.1,0.1,0.1,0.2,0.2,0.2
	c0.1,0.1,0.1,0.1,0.2,0.2c0.1,0.1,0.1,0.1,0.2,0.2c0.1,0.1,0.1,0.1,0.2,0.2c0.1,0.1,0.1,0.1,0.2,0.2c0.1,0.1,0.1,0.1,0.2,0.2
	c0.1,0.1,0.2,0.1,0.2,0.2c0.1,0.1,0.2,0.1,0.2,0.2c0.1,0.1,0.2,0.1,0.2,0.1c0.1,0,0.2,0.1,0.3,0.1s0.2,0.1,0.3,0.1
	c0.1,0,0.2,0.1,0.3,0.1c0.1,0,0.2,0.1,0.3,0.1c0.1,0,0.2,0.1,0.3,0.1c0.1,0,0.2,0,0.3,0.1c0.1,0,0.2,0,0.3,0.1c0.1,0,0.2,0,0.3,0
	c0.1,0,0.2,0,0.3,0c0.1,0,0.2,0,0.3,0h0.1c0.1,0,0.2,0,0.3,0h0.1c0.1,0,0.2,0,0.3,0s0.2,0,0.3,0c0.1,0,0.2,0,0.3-0.1
	c0.1,0,0.2,0,0.3-0.1l0,0h0.1c0.1,0,0.3-0.1,0.4-0.1c0.1,0,0.2-0.1,0.3-0.1c0.1,0,0.2-0.1,0.3-0.1c0.1,0,0.2-0.1,0.3-0.1
	c0.1,0,0.2-0.1,0.2-0.1c0.1-0.1,0.2-0.1,0.2-0.2c0.1-0.1,0.2-0.1,0.2-0.2c0.1-0.1,0.1-0.1,0.2-0.2c0.1-0.1,0.1-0.1,0.2-0.2
	c0.1-0.1,0.1-0.1,0.2-0.2c0.1-0.1,0.1-0.1,0.2-0.2c0.1-0.1,0.1-0.1,0.2-0.2c0.1-0.1,0.1-0.2,0.2-0.2c0.1-0.1,0.1-0.2,0.2-0.2
	c0.1-0.1,0.1-0.2,0.1-0.2c0-0.1,0.1-0.2,0.1-0.3s0.1-0.2,0.1-0.3c0-0.1,0.1-0.2,0.1-0.3c0-0.1,0.1-0.2,0.1-0.3
	c0-0.1,0.1-0.2,0.1-0.3c0-0.1,0.1-0.2,0.1-0.3s0-0.2,0.1-0.3c0-0.1,0-0.2,0-0.3c0-0.1,0-0.2,0-0.3c0-0.1,0-0.2,0-0.3v-0.1
	c0-0.1,0-0.2,0-0.3v-0.1c0-0.1,0-0.2,0-0.3s0-0.2,0-0.3c0-0.1,0-0.2-0.1-0.3c0-0.1,0-0.2-0.1-0.3l0,0v-0.1c0-0.1-0.1-0.3-0.1-0.4
	c0-0.1-0.1-0.2-0.1-0.3c0-0.1-0.1-0.2-0.1-0.3s-0.1-0.2-0.1-0.3c0-0.1-0.1-0.2-0.1-0.2c-0.1-0.1-0.1-0.2-0.2-0.2
	c-0.1-0.1-0.1-0.2-0.2-0.2c-0.1-0.1-0.1-0.1-0.2-0.2c-0.1-0.1-0.1-0.1-0.2-0.2c-0.1-0.1-0.1-0.1-0.2-0.2c-0.1-0.1-0.1-0.1-0.2-0.2
	c-0.1-0.1-0.1-0.1-0.2-0.2s-0.2-0.1-0.2-0.2c-0.1-0.1-0.2-0.1-0.2-0.2c-0.1-0.1-0.2-0.1-0.2-0.1c-0.1,0-0.2-0.1-0.3-0.1
	c-0.1,0-0.2-0.1-0.3-0.1c-0.1,0-0.2-0.1-0.3-0.1s-0.2-0.1-0.3-0.1c-0.1,0-0.2-0.1-0.3-0.1c-0.1,0-0.2-0.1-0.3-0.1s-0.2,0-0.3-0.1
	c-0.1,0-0.2,0-0.3,0s-0.2,0-0.3,0C337.7,390.7,337.6,390.7,337.4,390.7C337.5,390.7,337.5,390.7,337.4,390.7L337.4,390.7z"/>
<path fill="#FFFFFF" d="M337.4,390.7c-0.1,0-0.2,0-0.3,0h-0.1c-0.1,0-0.2,0-0.3,0s-0.2,0-0.3,0c-0.1,0-0.2,0-0.3,0.1
	c-0.1,0-0.2,0-0.3,0.1l0,0h-0.1c-0.1,0-0.3,0.1-0.4,0.1s-0.2,0.1-0.3,0.1c-0.1,0-0.2,0.1-0.3,0.1s-0.2,0.1-0.3,0.1
	c-0.1,0-0.2,0.1-0.2,0.1c-0.1,0-0.2,0.1-0.2,0.2c-0.1,0.1-0.2,0.1-0.2,0.2c-0.1,0.1-0.1,0.1-0.2,0.2c-0.1,0.1-0.1,0.1-0.2,0.2
	c-0.1,0.1-0.1,0.1-0.2,0.2c-0.1,0.1-0.1,0.1-0.2,0.2c-0.1,0.1-0.1,0.1-0.2,0.2s-0.1,0.2-0.2,0.2c-0.1,0.1-0.1,0.2-0.2,0.2
	c-0.1,0.1-0.1,0.2-0.1,0.2c0,0.1-0.1,0.2-0.1,0.3s-0.1,0.2-0.1,0.3c0,0.1-0.1,0.2-0.1,0.3s-0.1,0.2-0.1,0.3c0,0.1-0.1,0.2-0.1,0.3
	c0,0.1,0,0.2-0.1,0.3c0,0.1,0,0.2-0.1,0.3c0,0.1,0,0.2,0,0.3s0,0.2,0,0.3c0,0.1,0,0.2,0,0.3v0.1c0,0.1,0,0.2,0,0.3v0.1
	c0,0.1,0,0.2,0,0.3s0,0.2,0,0.3c0,0.1,0,0.2,0.1,0.3c0,0.1,0,0.2,0.1,0.3l0,0v0.1c0,0.1,0.1,0.3,0.1,0.4s0.1,0.2,0.1,0.3
	c0,0.1,0.1,0.2,0.1,0.3s0.1,0.2,0.1,0.3c0,0.1,0.1,0.2,0.1,0.2c0.1,0.1,0.1,0.2,0.2,0.2c0.1,0.1,0.1,0.2,0.2,0.2
	c0.1,0.1,0.1,0.1,0.2,0.2c0.1,0.1,0.1,0.1,0.2,0.2c0.1,0.1,0.1,0.1,0.2,0.2c0.1,0.1,0.1,0.1,0.2,0.2c0.1,0.1,0.1,0.1,0.2,0.2
	c0.1,0.1,0.2,0.1,0.2,0.2c0.1,0.1,0.2,0.1,0.2,0.2c0.1,0.1,0.2,0.1,0.2,0.1c0.1,0,0.2,0.1,0.3,0.1s0.2,0.1,0.3,0.1
	c0.1,0,0.2,0.1,0.3,0.1c0.1,0,0.2,0.1,0.3,0.1c0.1,0,0.2,0.1,0.3,0.1c0.1,0,0.2,0,0.3,0.1c0.1,0,0.2,0,0.3,0.1c0.1,0,0.2,0,0.3,0
	c0.1,0,0.2,0,0.3,0c0.1,0,0.2,0,0.3,0h0.1c0.1,0,0.2,0,0.3,0h0.1c0.1,0,0.2,0,0.3,0s0.2,0,0.3,0c0.1,0,0.2,0,0.3-0.1
	c0.1,0,0.2,0,0.3-0.1l0,0h0.1c0.1,0,0.3-0.1,0.4-0.1c0.1,0,0.2-0.1,0.3-0.1c0.1,0,0.2-0.1,0.3-0.1c0.1,0,0.2-0.1,0.3-0.1
	c0.1,0,0.2-0.1,0.2-0.1c0.1-0.1,0.2-0.1,0.2-0.2c0.1-0.1,0.2-0.1,0.2-0.2c0.1-0.1,0.1-0.1,0.2-0.2c0.1-0.1,0.1-0.1,0.2-0.2
	c0.1-0.1,0.1-0.1,0.2-0.2c0.1-0.1,0.1-0.1,0.2-0.2c0.1-0.1,0.1-0.1,0.2-0.2c0.1-0.1,0.1-0.2,0.2-0.2c0.1-0.1,0.1-0.2,0.2-0.2
	c0.1-0.1,0.1-0.2,0.1-0.2c0-0.1,0.1-0.2,0.1-0.3s0.1-0.2,0.1-0.3c0-0.1,0.1-0.2,0.1-0.3c0-0.1,0.1-0.2,0.1-0.3
	c0-0.1,0.1-0.2,0.1-0.3c0-0.1,0.1-0.2,0.1-0.3s0-0.2,0.1-0.3c0-0.1,0-0.2,0-0.3c0-0.1,0-0.2,0-0.3c0-0.1,0-0.2,0-0.3v-0.1
	c0-0.1,0-0.2,0-0.3v-0.1c0-0.1,0-0.2,0-0.3s0-0.2,0-0.3c0-0.1,0-0.2-0.1-0.3c0-0.1,0-0.2-0.1-0.3l0,0v-0.1c0-0.1-0.1-0.3-0.1-0.4
	c0-0.1-0.1-0.2-0.1-0.3c0-0.1-0.1-0.2-0.1-0.3s-0.1-0.2-0.1-0.3c0-0.1-0.1-0.2-0.1-0.2c-0.1-0.1-0.1-0.2-0.2-0.2
	c-0.1-0.1-0.1-0.2-0.2-0.2c-0.1-0.1-0.1-0.1-0.2-0.2c-0.1-0.1-0.1-0.1-0.2-0.2c-0.1-0.1-0.1-0.1-0.2-0.2c-0.1-0.1-0.1-0.1-0.2-0.2
	c-0.1-0.1-0.1-0.1-0.2-0.2s-0.2-0.1-0.2-0.2c-0.1-0.1-0.2-0.1-0.2-0.2c-0.1-0.1-0.2-0.1-0.2-0.1c-0.1,0-0.2-0.1-0.3-0.1
	c-0.1,0-0.2-0.1-0.3-0.1c-0.1,0-0.2-0.1-0.3-0.1s-0.2-0.1-0.3-0.1c-0.1,0-0.2-0.1-0.3-0.1c-0.1,0-0.2-0.1-0.3-0.1s-0.2,0-0.3-0.1
	c-0.1,0-0.2,0-0.3,0s-0.2,0-0.3,0C337.7,390.7,337.6,390.7,337.4,390.7C337.5,390.7,337.5,390.7,337.4,390.7L337.4,390.7z"/>
<path fill="#FFFFFF" d="M337.4,390.7c-0.1,0-0.2,0-0.3,0h-0.1c-0.1,0-0.2,0-0.3,0s-0.2,0-0.3,0c-0.1,0-0.2,0-0.3,0.1
	c-0.1,0-0.2,0-0.3,0.1l0,0h-0.1c-0.1,0-0.3,0.1-0.4,0.1s-0.2,0.1-0.3,0.1c-0.1,0-0.2,0.1-0.3,0.1s-0.2,0.1-0.3,0.1
	c-0.1,0-0.2,0.1-0.2,0.1c-0.1,0-0.2,0.1-0.2,0.2c-0.1,0.1-0.2,0.1-0.2,0.2c-0.1,0.1-0.1,0.1-0.2,0.2c-0.1,0.1-0.1,0.1-0.2,0.2
	c-0.1,0.1-0.1,0.1-0.2,0.2c-0.1,0.1-0.1,0.1-0.2,0.2c-0.1,0.1-0.1,0.1-0.2,0.2s-0.1,0.2-0.2,0.2c-0.1,0.1-0.1,0.2-0.2,0.2
	c-0.1,0.1-0.1,0.2-0.1,0.2c0,0.1-0.1,0.2-0.1,0.3s-0.1,0.2-0.1,0.3c0,0.1-0.1,0.2-0.1,0.3s-0.1,0.2-0.1,0.3c0,0.1-0.1,0.2-0.1,0.3
	c0,0.1,0,0.2-0.1,0.3c0,0.1,0,0.2-0.1,0.3c0,0.1,0,0.2,0,0.3s0,0.2,0,0.3c0,0.1,0,0.2,0,0.3v0.1c0,0.1,0,0.2,0,0.3v0.1
	c0,0.1,0,0.2,0,0.3s0,0.2,0,0.3c0,0.1,0,0.2,0.1,0.3c0,0.1,0,0.2,0.1,0.3l0,0v0.1c0,0.1,0.1,0.3,0.1,0.4s0.1,0.2,0.1,0.3
	c0,0.1,0.1,0.2,0.1,0.3s0.1,0.2,0.1,0.3c0,0.1,0.1,0.2,0.1,0.2c0.1,0.1,0.1,0.2,0.2,0.2c0.1,0.1,0.1,0.2,0.2,0.2
	c0.1,0.1,0.1,0.1,0.2,0.2c0.1,0.1,0.1,0.1,0.2,0.2c0.1,0.1,0.1,0.1,0.2,0.2c0.1,0.1,0.1,0.1,0.2,0.2c0.1,0.1,0.1,0.1,0.2,0.2
	c0.1,0.1,0.2,0.1,0.2,0.2c0.1,0.1,0.2,0.1,0.2,0.2c0.1,0.1,0.2,0.1,0.2,0.1c0.1,0,0.2,0.1,0.3,0.1s0.2,0.1,0.3,0.1
	c0.1,0,0.2,0.1,0.3,0.1c0.1,0,0.2,0.1,0.3,0.1c0.1,0,0.2,0.1,0.3,0.1c0.1,0,0.2,0,0.3,0.1c0.1,0,0.2,0,0.3,0.1c0.1,0,0.2,0,0.3,0
	c0.1,0,0.2,0,0.3,0c0.1,0,0.2,0,0.3,0h0.1c0.1,0,0.2,0,0.3,0h0.1c0.1,0,0.2,0,0.3,0s0.2,0,0.3,0c0.1,0,0.2,0,0.3-0.1
	c0.1,0,0.2,0,0.3-0.1l0,0h0.1c0.1,0,0.3-0.1,0.4-0.1c0.1,0,0.2-0.1,0.3-0.1c0.1,0,0.2-0.1,0.3-0.1c0.1,0,0.2-0.1,0.3-0.1
	c0.1,0,0.2-0.1,0.2-0.1c0.1-0.1,0.2-0.1,0.2-0.2c0.1-0.1,0.2-0.1,0.2-0.2c0.1-0.1,0.1-0.1,0.2-0.2c0.1-0.1,0.1-0.1,0.2-0.2
	c0.1-0.1,0.1-0.1,0.2-0.2c0.1-0.1,0.1-0.1,0.2-0.2c0.1-0.1,0.1-0.1,0.2-0.2c0.1-0.1,0.1-0.2,0.2-0.2c0.1-0.1,0.1-0.2,0.2-0.2
	c0.1-0.1,0.1-0.2,0.1-0.2c0-0.1,0.1-0.2,0.1-0.3s0.1-0.2,0.1-0.3c0-0.1,0.1-0.2,0.1-0.3c0-0.1,0.1-0.2,0.1-0.3
	c0-0.1,0.1-0.2,0.1-0.3c0-0.1,0.1-0.2,0.1-0.3s0-0.2,0.1-0.3c0-0.1,0-0.2,0-0.3c0-0.1,0-0.2,0-0.3c0-0.1,0-0.2,0-0.3v-0.1
	c0-0.1,0-0.2,0-0.3v-0.1c0-0.1,0-0.2,0-0.3s0-0.2,0-0.3c0-0.1,0-0.2-0.1-0.3c0-0.1,0-0.2-0.1-0.3l0,0v-0.1c0-0.1-0.1-0.3-0.1-0.4
	c0-0.1-0.1-0.2-0.1-0.3c0-0.1-0.1-0.2-0.1-0.3s-0.1-0.2-0.1-0.3c0-0.1-0.1-0.2-0.1-0.2c-0.1-0.1-0.1-0.2-0.2-0.2
	c-0.1-0.1-0.1-0.2-0.2-0.2c-0.1-0.1-0.1-0.1-0.2-0.2c-0.1-0.1-0.1-0.1-0.2-0.2c-0.1-0.1-0.1-0.1-0.2-0.2c-0.1-0.1-0.1-0.1-0.2-0.2
	c-0.1-0.1-0.1-0.1-0.2-0.2s-0.2-0.1-0.2-0.2c-0.1-0.1-0.2-0.1-0.2-0.2c-0.1-0.1-0.2-0.1-0.2-0.1c-0.1,0-0.2-0.1-0.3-0.1
	c-0.1,0-0.2-0.1-0.3-0.1c-0.1,0-0.2-0.1-0.3-0.1s-0.2-0.1-0.3-0.1c-0.1,0-0.2-0.1-0.3-0.1c-0.1,0-0.2-0.1-0.3-0.1s-0.2,0-0.3-0.1
	c-0.1,0-0.2,0-0.3,0s-0.2,0-0.3,0C337.7,390.7,337.6,390.7,337.4,390.7C337.5,390.7,337.5,390.7,337.4,390.7L337.4,390.7z"/>
<path fill="#FFFFFF" d="M337.4,390.7c-0.1,0-0.2,0-0.3,0h-0.1c-0.1,0-0.2,0-0.3,0s-0.2,0-0.3,0c-0.1,0-0.2,0-0.3,0.1
	c-0.1,0-0.2,0-0.3,0.1l0,0h-0.1c-0.1,0-0.3,0.1-0.4,0.1s-0.2,0.1-0.3,0.1c-0.1,0-0.2,0.1-0.3,0.1s-0.2,0.1-0.3,0.1
	c-0.1,0-0.2,0.1-0.2,0.1c-0.1,0-0.2,0.1-0.2,0.2c-0.1,0.1-0.2,0.1-0.2,0.2c-0.1,0.1-0.1,0.1-0.2,0.2c-0.1,0.1-0.1,0.1-0.2,0.2
	c-0.1,0.1-0.1,0.1-0.2,0.2c-0.1,0.1-0.1,0.1-0.2,0.2c-0.1,0.1-0.1,0.1-0.2,0.2s-0.1,0.2-0.2,0.2c-0.1,0.1-0.1,0.2-0.2,0.2
	c-0.1,0.1-0.1,0.2-0.1,0.2c0,0.1-0.1,0.2-0.1,0.3s-0.1,0.2-0.1,0.3c0,0.1-0.1,0.2-0.1,0.3s-0.1,0.2-0.1,0.3c0,0.1-0.1,0.2-0.1,0.3
	c0,0.1,0,0.2-0.1,0.3c0,0.1,0,0.2-0.1,0.3c0,0.1,0,0.2,0,0.3s0,0.2,0,0.3c0,0.1,0,0.2,0,0.3v0.1c0,0.1,0,0.2,0,0.3v0.1
	c0,0.1,0,0.2,0,0.3s0,0.2,0,0.3c0,0.1,0,0.2,0.1,0.3c0,0.1,0,0.2,0.1,0.3l0,0v0.1c0,0.1,0.1,0.3,0.1,0.4s0.1,0.2,0.1,0.3
	c0,0.1,0.1,0.2,0.1,0.3s0.1,0.2,0.1,0.3c0,0.1,0.1,0.2,0.1,0.2c0.1,0.1,0.1,0.2,0.2,0.2c0.1,0.1,0.1,0.2,0.2,0.2
	c0.1,0.1,0.1,0.1,0.2,0.2c0.1,0.1,0.1,0.1,0.2,0.2c0.1,0.1,0.1,0.1,0.2,0.2c0.1,0.1,0.1,0.1,0.2,0.2c0.1,0.1,0.1,0.1,0.2,0.2
	c0.1,0.1,0.2,0.1,0.2,0.2c0.1,0.1,0.2,0.1,0.2,0.2c0.1,0.1,0.2,0.1,0.2,0.1c0.1,0,0.2,0.1,0.3,0.1s0.2,0.1,0.3,0.1
	c0.1,0,0.2,0.1,0.3,0.1c0.1,0,0.2,0.1,0.3,0.1c0.1,0,0.2,0.1,0.3,0.1c0.1,0,0.2,0,0.3,0.1c0.1,0,0.2,0,0.3,0.1c0.1,0,0.2,0,0.3,0
	c0.1,0,0.2,0,0.3,0c0.1,0,0.2,0,0.3,0h0.1c0.1,0,0.2,0,0.3,0h0.1c0.1,0,0.2,0,0.3,0s0.2,0,0.3,0c0.1,0,0.2,0,0.3-0.1
	c0.1,0,0.2,0,0.3-0.1l0,0h0.1c0.1,0,0.3-0.1,0.4-0.1c0.1,0,0.2-0.1,0.3-0.1c0.1,0,0.2-0.1,0.3-0.1c0.1,0,0.2-0.1,0.3-0.1
	c0.1,0,0.2-0.1,0.2-0.1c0.1-0.1,0.2-0.1,0.2-0.2c0.1-0.1,0.2-0.1,0.2-0.2c0.1-0.1,0.1-0.1,0.2-0.2c0.1-0.1,0.1-0.1,0.2-0.2
	c0.1-0.1,0.1-0.1,0.2-0.2c0.1-0.1,0.1-0.1,0.2-0.2c0.1-0.1,0.1-0.1,0.2-0.2c0.1-0.1,0.1-0.2,0.2-0.2c0.1-0.1,0.1-0.2,0.2-0.2
	c0.1-0.1,0.1-0.2,0.1-0.2c0-0.1,0.1-0.2,0.1-0.3s0.1-0.2,0.1-0.3c0-0.1,0.1-0.2,0.1-0.3c0-0.1,0.1-0.2,0.1-0.3
	c0-0.1,0.1-0.2,0.1-0.3c0-0.1,0.1-0.2,0.1-0.3s0-0.2,0.1-0.3c0-0.1,0-0.2,0-0.3c0-0.1,0-0.2,0-0.3c0-0.1,0-0.2,0-0.3v-0.1
	c0-0.1,0-0.2,0-0.3v-0.1c0-0.1,0-0.2,0-0.3s0-0.2,0-0.3c0-0.1,0-0.2-0.1-0.3c0-0.1,0-0.2-0.1-0.3l0,0v-0.1c0-0.1-0.1-0.3-0.1-0.4
	c0-0.1-0.1-0.2-0.1-0.3c0-0.1-0.1-0.2-0.1-0.3s-0.1-0.2-0.1-0.3c0-0.1-0.1-0.2-0.1-0.2c-0.1-0.1-0.1-0.2-0.2-0.2
	c-0.1-0.1-0.1-0.2-0.2-0.2c-0.1-0.1-0.1-0.1-0.2-0.2c-0.1-0.1-0.1-0.1-0.2-0.2c-0.1-0.1-0.1-0.1-0.2-0.2c-0.1-0.1-0.1-0.1-0.2-0.2
	c-0.1-0.1-0.1-0.1-0.2-0.2s-0.2-0.1-0.2-0.2c-0.1-0.1-0.2-0.1-0.2-0.2c-0.1-0.1-0.2-0.1-0.2-0.1c-0.1,0-0.2-0.1-0.3-0.1
	c-0.1,0-0.2-0.1-0.3-0.1c-0.1,0-0.2-0.1-0.3-0.1s-0.2-0.1-0.3-0.1c-0.1,0-0.2-0.1-0.3-0.1c-0.1,0-0.2-0.1-0.3-0.1s-0.2,0-0.3-0.1
	c-0.1,0-0.2,0-0.3,0s-0.2,0-0.3,0C337.7,390.7,337.6,390.7,337.4,390.7C337.5,390.7,337.5,390.7,337.4,390.7L337.4,390.7z"/>
<path fill="#CCCCCC" d="M469.1,630.2c0,14.8-48.1,26.8-107.4,26.8s-107.4-12-107.4-26.8c0-7.1,11.3-13.9,31.4-19
	c20.2-5.1,47.4-7.9,75.9-7.9s55.8,2.8,75.9,7.9C457.8,616.2,469.1,623.1,469.1,630.2L469.1,630.2z"/>
<path fill="#EBD9B9" d="M330.4,559.9c0,27.5-9.1,66.6-20.5,66.6c-11.3,0-20.5-39.1-20.5-66.6c0-27.5,12.1-33,20.5-33
	C318.2,527,330.4,532.4,330.4,559.9L330.4,559.9z"/>
<path fill="#1A1A1A" d="M309.9,521.2c-5.4,0-12.5,2-17.8,8.2c-5.2,6.2-8.4,15.9-8.4,30.6c0,14.4,2.3,31.4,6.2,45.2
	c2,6.9,4.3,13.1,7.1,17.9c2.9,4.8,6.8,9.3,12.9,9.3c6.1,0,10-4.5,12.9-9.3s5.2-10.9,7.1-17.9c3.9-13.9,6.2-30.8,6.2-45.2
	c0-14.6-3.2-24.3-8.4-30.6C322.4,523.2,315.3,521.2,309.9,521.2L309.9,521.2z M309.9,532.6c2.9,0,6.1,0.7,9.1,4.2
	c2.9,3.5,5.8,10.2,5.8,23.1c0,13.1-2.2,29.5-5.8,42.1c-1.8,6.3-3.9,11.7-6,15.1c-1.5,2.5-2.8,3.4-3.1,3.6c-0.4-0.3-1.6-1.2-3.1-3.6
	c-2-3.4-4.2-8.8-6-15.1c-3.6-12.6-5.8-29-5.8-42.1c0-12.9,2.8-19.7,5.8-23.1C303.8,533.4,307,532.6,309.9,532.6L309.9,532.6z"/>
<path fill="#EBD9B9" d="M434.1,559.9c0,27.5-9.1,66.6-20.5,66.6c-11.3,0-20.5-39.1-20.5-66.6c0-27.5,12.1-33,20.5-33
	C421.9,527,434.1,532.4,434.1,559.9L434.1,559.9z"/>
<path fill="#1A1A1A" d="M413.5,521.2c-5.4,0-12.5,2-17.8,8.2c-5.2,6.2-8.4,15.9-8.4,30.6c0,14.4,2.3,31.4,6.2,45.2
	c2,6.9,4.3,13.1,7.1,17.9c2.9,4.8,6.8,9.3,12.9,9.3c6.1,0,10-4.5,12.9-9.3s5.2-10.9,7.1-17.9c3.9-13.9,6.2-30.8,6.2-45.2
	c0-14.6-3.2-24.3-8.4-30.6C426,523.2,419,521.2,413.5,521.2L413.5,521.2z M413.5,532.6c2.9,0,6.1,0.7,9.1,4.2
	c2.9,3.5,5.8,10.2,5.8,23.1c0,13.1-2.2,29.5-5.8,42.1c-1.8,6.3-3.9,11.7-6,15.1c-1.5,2.5-2.8,3.4-3.1,3.6c-0.4-0.3-1.6-1.2-3.1-3.6
	c-2-3.4-4.2-8.8-6-15.1c-3.6-12.6-5.8-29-5.8-42.1c0-12.9,2.8-19.7,5.8-23.1C407.4,533.4,410.6,532.6,413.5,532.6L413.5,532.6z"/>
<path fill="#EBD9B9" d="M529.7,410.2c10.6,25.4,17.1,65.1,6.6,69.5c-10.5,4.4-33.9-28.3-44.4-53.7c-10.6-25.4-1.4-35.2,6.3-38.4
	C505.8,384.4,519.2,384.8,529.7,410.2L529.7,410.2z"/>
<path fill="#1A1A1A" d="M496,382.4c-5.1,2-10.7,6.7-13.2,14.4c-2.5,7.7-1.7,17.9,3.9,31.4c5.5,13.3,14.1,28.1,23,39.3
	c4.4,5.7,8.9,10.4,13.4,13.8c4.5,3.4,9.9,6,15.5,3.6c5.6-2.4,7.6-8,8.3-13.6c0.8-5.6,0.6-12.1-0.3-19.2c-1.7-14.3-6-30.8-11.5-44.1
	c-5.6-13.5-12.3-21.2-19.5-25C508.2,379.4,500.9,380.2,496,382.4L496,382.4z M500.3,392.9c2.8-1.2,6-1.7,9.9,0.4
	c4,2,9.2,7.2,14.2,19.2c5.1,12.2,9.2,28.1,10.7,41.1c0.8,6.5,0.9,12.3,0.3,16.2c-0.4,2.9-1.2,4.2-1.4,4.5c-0.4-0.1-1.9-0.4-4.3-2.2
	c-3.2-2.3-7.2-6.5-11.2-11.6c-8.1-10.3-16.4-24.5-21.5-36.7c-5-11.9-4.9-19.3-3.6-23.5C494.9,395.9,497.6,394,500.3,392.9
	L500.3,392.9z"/>
<path fill="#1A1A1A" d="M249.3,215.9l-1.8,6.8c-3.3,12.7-14.7,21.5-27.8,21.5h-9.1v302.2h9.1c13.1,0,24.5,8.8,27.8,21.5l1.8,6.8
	h44.4l1.8-6.9c1.1-4.4,4.9-7.4,9.4-7.4h0.1c4.5,0,8.3,3,9.5,7.4l1.8,6.9h34.4l1.8-6.9c1.1-4.4,4.9-7.4,9.4-7.4h0.1
	c4.5,0,8.3,3,9.5,7.4l1.8,6.9h34.4l1.8-6.9c1.1-4.4,4.9-7.4,9.4-7.4h0.1c4.5,0,8.3,3,9.5,7.4l1.8,6.9h44.4l1.8-6.8
	c3.3-12.7,14.7-21.5,27.8-21.5h9.1V244.3h-9.1c-13.1,0-24.5-8.8-27.8-21.5l-1.8-6.8h-44.4l-1.8,6.9c-1.2,4.4-5,7.4-9.5,7.4h-0.1
	c-4.5,0-8.3-3-9.4-7.4l-1.8-6.9h-34.6l-1.8,6.9c-1.2,4.4-5,7.4-9.5,7.4h-0.1c-4.5,0-8.3-3-9.4-7.4l-1.8-6.9h-34.3l-1.8,6.9
	c-1.2,4.4-5,7.4-9.5,7.4h-0.1c-4.5,0-8.3-3-9.4-7.4l-1.8-6.9L249.3,215.9z M262.9,234.2h17.8c4.9,8.5,13.9,14.2,24.2,14.2h0.2
	c10.2,0,19.5-5.7,24.3-14.2h8.2c4.9,8.5,13.9,14.2,24.2,14.2h0.2c10.2,0,19.5-5.7,24.3-14.2h8.2c4.9,8.5,13.9,14.2,24.2,14.2h0.2
	c10.2,0,19.4-5.7,24.3-14.2h17.8c6.1,14.2,18.9,24.3,33.9,27.4v267.5c-15.1,3-27.8,13.2-33.9,27.4h-17.7
	c-4.9-8.6-14.1-14.3-24.3-14.3h-0.5c-10.2,0.1-19.3,5.7-24.2,14.3H386c-4.9-8.6-14.1-14.3-24.3-14.3h-0.2
	c-10.2,0.1-19.3,5.7-24.2,14.3h-8.1c-4.9-8.6-14.1-14.3-24.3-14.3h-0.2c-10.2,0.1-19.3,5.7-24.2,14.3h-17.7
	c-6.1-14.2-18.9-24.3-33.9-27.4V261.6C244,258.6,256.8,248.4,262.9,234.2L262.9,234.2z"/>
<path fill="#EBD9B9" d="M256.4,225c-4.4,16.7-19.4,28.4-36.7,28.4v283.9c17.2,0,32.3,11.6,36.7,28.4h30.2
	c2.1-8.3,9.6-14.2,18.2-14.3h0.1c8.6,0,16.3,5.9,18.4,14.3h20.1c2.1-8.3,9.6-14.2,18.2-14.3h0.1c8.6,0,16.3,5.9,18.4,14.3h20.1
	c2.1-8.3,9.6-14.2,18.2-14.3h0.1c8.7,0,16.3,5.9,18.4,14.3H467c4.4-16.7,19.4-28.4,36.7-28.4V253.5c-17.2,0-32.3-11.6-36.7-28.4
	h-30.2c-2.1,8.3-9.7,14.2-18.3,14.2h-0.1c-8.6-0.1-16.1-6-18.2-14.2h-20.2c-2.1,8.3-9.7,14.2-18.3,14.2h-0.1
	c-8.6-0.1-16.1-6-18.2-14.2h-20.3c-2.1,8.3-9.7,14.2-18.3,14.2h-0.1c-8.6-0.1-16.1-5.9-18.2-14.2H256.4z"/>
<path fill="#1A1A1A" d="M254.6,222.8l-0.4,1.7c-4.1,15.7-18.2,26.6-34.5,26.6h-2.3v288.5h2.3c16.3,0,30.4,10.9,34.5,26.6l0.4,1.7
	h33.8l0.4-1.7c1.9-7.4,8.4-12.5,16-12.5h0.1c7.6,0,14.2,5.2,16.2,12.5l0.4,1.7h23.6l0.4-1.7c1.9-7.4,8.4-12.5,16-12.5h0.1
	c7.6,0,14.2,5.2,16.2,12.5l0.4,1.7h23.6l0.4-1.7c1.9-7.4,8.4-12.5,16-12.5h0.1c7.6,0,14.2,5.2,16.2,12.5l0.4,1.7h33.8l0.4-1.7
	c4.1-15.7,18.2-26.6,34.5-26.6h2.3V251.2h-2.3c-16.3,0-30.4-10.9-34.5-26.6l-0.4-1.7H435l-0.4,1.7c-1.9,7.4-8.5,12.5-16.1,12.5h-0.1
	c-7.6-0.1-14.1-5.2-16-12.5l-0.4-1.7h-23.7l-0.4,1.7c-1.9,7.4-8.5,12.5-16.1,12.5h-0.1c-7.6-0.1-14.1-5.2-16-12.5l-0.4-1.7h-23.8
	l-0.4,1.7c-1.9,7.4-8.4,12.5-16.1,12.5h-0.1c-7.6-0.1-14.1-5.2-16-12.5l-0.4-1.7H254.6z M258,227.4h26.9
	c2.9,8.3,10.8,14.2,19.8,14.2h0.2c9.1,0,17-5.8,20-14.2h16.9c2.9,8.3,10.8,14.2,19.8,14.2h0.1c9.1,0,17-5.8,20-14.2h16.9
	c2.9,8.3,10.8,14.2,19.8,14.2h0.2c9.1,0,17-5.8,20-14.2h26.8c4.9,16,19.3,27.3,36,28.2v279.7c-16.7,1-31.1,12.2-36,28.2h-26.9
	c-2.9-8.4-10.9-14.3-20-14.3h-0.2c-9.1,0.1-16.9,5.9-19.8,14.3h-16.9c-2.9-8.4-10.9-14.3-20-14.3h-0.1c-9.1,0.1-16.9,5.9-19.8,14.3
	h-16.9c-2.9-8.4-10.9-14.3-20-14.3h-0.2c-9.1,0.1-16.9,5.9-19.8,14.3h-26.9c-4.9-16-19.3-27.3-36-28.2V255.5
	C238.7,254.6,253.1,243.3,258,227.4L258,227.4z"/>
<path fill="#ED5C6A" d="M276.5,260.7c-11.7,0-21.2,9.5-21.2,21.2V509c0,11.7,9.5,21.2,21.2,21.2h170.4c11.7,0,21.2-9.5,21.2-21.2
	V281.8c0-11.7-9.5-21.2-21.2-21.2L276.5,260.7L276.5,260.7z M276.5,265.2h170.4c9.2,0,16.6,7.4,16.6,16.6v227.1
	c0,9.2-7.4,16.6-16.6,16.6H276.5c-9.2,0-16.6-7.4-16.6-16.6V281.8C259.9,272.6,267.2,265.2,276.5,265.2L276.5,265.2z"/>
<rect x="257.6" y="487.7" fill="#ED5C6A" width="208.2" height="4.6"/>
<path d="M295,503.7v-1.8c1.2-0.3,1.8-0.8,2.3-1.3c0.3-0.3,0.4-0.6,0.6-1h1.6v18.5h-2.8v-14.5L295,503.7L295,503.7z"/>
<path d="M313.3,509.5c0-0.8-0.3-1.3-0.9-1.3c-0.3,0-0.5,0.3-0.7,0.5c-0.2,0.3-0.3,0.6-0.3,0.9h-2.3v-9.7h6.6v2.7h-4.2v3.8
	c0.3-0.3,0.6-0.4,1-0.5c0.2-0.1,0.4-0.1,0.5-0.1c1.4,0,2.1,0.8,2.6,1.7s0.4,1.9,0.4,2.1v4.1c0,0.9-0.1,2-0.5,3s-1.4,1.8-3,1.8
	c-1.7,0-2.6-0.8-3-1.9c-0.4-1.1-0.5-2.5-0.5-3.7h2.7v0.7c0,0.9,0.1,1.6,0.2,2c0.1,0.4,0.4,0.5,0.6,0.5s0.5-0.2,0.6-0.5
	c0.1-0.4,0.2-1,0.2-2L313.3,509.5L313.3,509.5z"/>
<path d="M332.4,514.3c0,0.7-0.2,1.4-0.4,2c-0.3,0.5-0.6,1-1.1,1.3c-0.5,0.4-1.2,0.6-2,0.6c-0.9,0-1.6-0.3-2.1-0.6
	c-0.5-0.4-0.8-0.9-1.1-1.3c-0.3-0.6-0.4-1.2-0.4-2v-10.8c0-0.7,0.2-1.4,0.4-2c0.3-0.5,0.5-1,1.1-1.4c0.5-0.4,1.2-0.6,2.1-0.6
	c0.9,0,1.6,0.3,2,0.6c0.5,0.4,0.9,0.9,1.1,1.4c0.3,0.6,0.4,1.2,0.4,2V514.3z M329.7,503.5c0-0.5-0.1-0.9-0.4-1.2
	c-0.1-0.1-0.4-0.2-0.5-0.2c-0.4,0-0.7,0.4-0.8,0.7c-0.1,0.2-0.1,0.4-0.1,0.7v10.8c0,0.5,0.1,0.9,0.4,1.2c0.1,0.1,0.3,0.2,0.5,0.2
	c0.4,0,0.7-0.3,0.8-0.7c0.1-0.2,0.1-0.4,0.1-0.7V503.5z"/>
<path d="M345.3,514.2h-4.2v-2.4l4-12.1h2.7v12.1h1.2v2.4h-1.2v4h-2.5V514.2z M343.5,511.8h1.9v-6.3h-0.2L345,506L343.5,511.8z"/>
<path d="M357.6,505.6v-1.2c0-1.2,0.2-2.4,0.7-3.3c0.5-0.9,1.4-1.4,2.9-1.4c1.4,0,2.3,0.5,2.8,1.3c0.5,0.8,0.7,2,0.7,3.3
	c0,1.9-0.7,4.1-1.6,6.2c-0.9,2.1-2,4-2.7,5.2h4.3v2.7h-7.4v-2.7c0.8-1.2,1.6-2.6,2.2-3.9c0.5-1.1,1.2-2.4,1.6-3.6s0.7-2.6,0.8-3.6
	c0-0.5,0-1.1-0.2-1.5c-0.1-0.4-0.4-0.7-0.7-0.7c-0.4,0-0.6,0.3-0.7,0.7c-0.1,0.4-0.2,1-0.2,1.6v1.2h-2.7V505.6z"/>
<path d="M377.6,502.4h-4.1v-2.7h6.8v2.7l-2.8,15.7h-2.8L377.6,502.4z"/>
<path d="M396.1,514.3c0,0.2,0,0.7-0.2,1.2c-0.1,0.6-0.4,1.3-1,1.9c-0.5,0.5-1.3,1-2.5,1c-1.2,0-2-0.4-2.5-1c-0.5-0.5-0.8-1.2-1-1.9
	c-0.1-0.6-0.2-1.1-0.2-1.2v-2.1c0-1.4,0.4-2.8,1.4-3.6c-0.8-0.8-1.2-2.1-1.2-3.4v-1.6c0-0.3,0-1.2,0.4-2.1s1.2-1.8,3-1.8
	c1.7,0,2.6,0.9,3,1.8s0.4,2,0.4,2.1v1.6c0,1.2-0.4,2.6-1.2,3.4c0.9,0.9,1.4,2.2,1.4,3.6V514.3z M393.3,504.5c0-0.9-0.1-1.5-0.1-1.9
	c-0.1-0.4-0.4-0.6-0.7-0.6c-0.3,0-0.5,0.2-0.6,0.5c-0.3,0.7-0.3,3.2-0.1,4.1c0.1,0.4,0.3,0.7,0.6,0.7c0.4,0,0.5-0.3,0.7-0.7
	C393.3,506.2,393.3,505.5,393.3,504.5L393.3,504.5z M393.5,513.2c0-1.1-0.1-2-0.1-2.5c-0.1-0.5-0.4-0.8-0.9-0.8
	c-0.4,0-0.7,0.3-0.8,0.8c-0.2,1.1-0.2,3.7,0.1,4.5c0.1,0.4,0.4,0.6,0.7,0.6c0.4,0,0.7-0.3,0.9-0.7
	C393.5,514.7,393.5,514,393.5,513.2L393.5,513.2z"/>
<path d="M409.6,509.5c0-0.8-0.3-1.3-0.9-1.3c-0.3,0-0.5,0.3-0.7,0.5c-0.2,0.3-0.3,0.6-0.3,0.9h-2.3v-9.7h6.6v2.7h-4.2v3.8
	c0.3-0.3,0.6-0.4,1-0.5c0.2-0.1,0.4-0.1,0.5-0.1c1.4,0,2.1,0.8,2.6,1.7c0.4,0.9,0.4,1.9,0.4,2.1v4.1c0,0.9-0.1,2-0.5,3
	s-1.4,1.8-3,1.8c-1.7,0-2.6-0.8-3-1.9c-0.4-1.1-0.5-2.5-0.5-3.7h2.8v0.7c0,0.9,0.1,1.6,0.2,2c0.1,0.4,0.4,0.5,0.6,0.5
	c0.3,0,0.5-0.2,0.6-0.5c0.1-0.4,0.2-1,0.2-2L409.6,509.5L409.6,509.5z"/>
<path d="M423.5,509.8v-2.2c1.2-0.1,1.7-0.3,1.9-0.8c0.1-0.3,0.2-0.5,0.2-1s0-0.9,0-1.5c0-0.5,0-1.1-0.1-1.6
	c-0.1-0.4-0.4-0.8-0.7-0.8c-0.4,0-0.5,0.2-0.6,0.6c-0.1,0.5-0.2,1.2-0.2,2.5h-2.7c0-1.1,0-2.4,0.4-3.6c0.4-1.1,1.2-2,3-2
	c1.7,0,2.6,0.9,3,1.8s0.4,2,0.4,2.1c0,2.8-0.4,4-1.3,4.9l0,0c1.3,1.1,1.6,2.9,1.6,5.1c0,0.1,0,0.3,0,0.5c0,0.5-0.2,1.3-0.4,2.1
	c-0.3,0.8-0.8,1.5-1.6,2c-0.4,0.3-0.9,0.4-1.4,0.4c-1.7,0-2.6-0.9-3-2c-0.4-1.1-0.5-2.5-0.5-3.6h2.7c0,1.2,0.1,2,0.3,2.5
	c0.2,0.5,0.4,0.6,0.7,0.6c0.4,0,0.6-0.4,0.7-0.8c0.1-0.4,0.1-1.1,0.1-1.6s0-1.1,0-1.6c0-0.9-0.2-1.5-0.7-1.9
	c-0.3-0.2-0.7-0.3-1.3-0.4L423.5,509.8L423.5,509.8z"/>
<path fill="#1A1A1A" d="M410.9,298.6c13.1,0,23.5,10.5,23.5,23.5v11.8c0,13.1-10.5,23.5-23.5,23.5s-23.5-10.5-23.5-23.5v-11.8
	C387.2,309.2,397.8,298.6,410.9,298.6L410.9,298.6z"/>
<path fill="#FFFFFF" d="M424.6,315.6c0,4.2-3.4,7.6-7.6,7.6c-4.2,0-7.6-3.4-7.6-7.6c0-2,0.8-4,2.2-5.4c1.4-1.4,3.4-2.2,5.4-2.2
	s4,0.8,5.4,2.2C423.8,311.6,424.6,313.5,424.6,315.6L424.6,315.6z"/>
<path fill="#1A1A1A" d="M288.9,339.3c0-8.8,4.7-17,12.3-21.3c7.6-4.4,17.1-4.4,24.6,0c7.6,4.4,12.3,12.5,12.3,21.3h-9.1
	c0-5.5-2.9-10.7-7.7-13.4c-4.8-2.8-10.7-2.8-15.5,0c-4.8,2.8-7.7,7.9-7.7,13.4H288.9z"/>
<path fill="#AF0035" d="M327.3,376.2c-4,0-7.2,3.2-7.2,7.2v8.1c0,23,18.7,41.6,41.6,41.6c23,0,41.6-18.7,41.6-41.6v-8.1
	c0-4-3.2-7.2-7.2-7.2H327.3L327.3,376.2z"/>
<path fill="#FF5574" d="M361.7,404.7c-12.5,0-23.7,5.5-31.4,14.2c7.6,8.7,18.8,14.2,31.4,14.2c12.5,0,23.7-5.5,31.4-14.2
	C385.4,410.2,374.2,404.7,361.7,404.7L361.7,404.7z"/>
<path fill="#FFFFFF" d="M327.3,376.2c-4,0-7.2,3.2-7.2,7.2v7.2c13,6.2,27.2,9.5,41.6,9.5c14.4,0,28.6-3.3,41.6-9.5v-7.3
	c0-4-3.2-7.2-7.2-7.2L327.3,376.2L327.3,376.2z"/>
<path fill="#B9DAE9" d="M327.3,376.2c-4,0-7.2,3.2-7.2,7.2v7.2c4.7,2.2,9.5,4,14.6,5.4c-2.8-2-3.4-4.5-3.4-8.7v-11.1L327.3,376.2
	L327.3,376.2z"/>
<path fill="#B9DAE9" d="M380.9,376.2v11.1c0,5.6-1.4,10.5-6.3,11.7c9.9-1.3,19.5-4.2,28.6-8.4v-7.3c0-4-3.2-7.2-7.2-7.2L380.9,376.2
	L380.9,376.2z"/>
<path fill="#8BB0CC" d="M396.1,376.2c4,0,7.2,3.2,7.2,7.2v7.2c-4.7,2.2-9.5,4-14.6,5.4c2.8-2,3.4-4.5,3.4-8.7v-11.1L396.1,376.2
	L396.1,376.2z"/>
<path fill="#1A1A1A" d="M327.3,374c-5.2,0-9.5,4.3-9.5,9.5v8.1c0,24.2,19.6,43.9,43.9,43.9c24.2,0,43.9-19.6,43.9-43.9v-8.1
	c0-5.2-4.3-9.5-9.5-9.5H327.3z M327.3,378.5h68.8c2.8,0,4.9,2.1,4.9,4.9v8.1c0,21.8-17.6,39.3-39.3,39.3
	c-21.8,0-39.3-17.6-39.3-39.3v-8.1C322.4,380.7,324.5,378.5,327.3,378.5L327.3,378.5z"/>
<path fill="#1A1A1A" d="M319.7,389.4l-1,2c27.1,13.2,58.8,13.2,85.9,0l-1-2C377.1,402.3,346.2,402.3,319.7,389.4L319.7,389.4z"/>
<path fill="#FF95A2" d="M357,415.8c0,1.3-0.7,2.5-2,3.5c-1.3,0.9-3,1.4-4.9,1.4c-3.8,0-6.9-2.2-6.9-4.9c0-2.7,3.1-4.9,6.9-4.9
	c1.9,0,3.6,0.5,4.9,1.4C356.3,413.3,357,414.5,357,415.8L357,415.8z"/>
<path fill="#1A1A1A" d="M77.5,437c-15.4,0-28,12.6-28,28v100.2c0,15.4,12.6,28,28,28h169.1c15.4,0,28-12.6,28-28V465
	c0-15.4-12.6-28-28-28H77.5z M77.5,455.3h169.1c5.5,0,9.7,4.2,9.7,9.7v100.2c0,5.5-4.2,9.7-9.7,9.7H77.5c-5.5,0-9.7-4.2-9.7-9.7V465
	C67.8,459.5,72,455.3,77.5,455.3L77.5,455.3z"/>
<path fill="#FFFFFF" d="M77.5,446.1h169.1c10.5,0,18.8,8.4,18.8,18.8v100.2c0,10.5-8.4,18.8-18.8,18.8H77.5
	c-10.5,0-18.8-8.4-18.8-18.8V465C58.7,454.6,67,446.1,77.5,446.1L77.5,446.1z"/>
<path fill="#D2D2D2" d="M265.5,487.3L58.7,542.8v22.4c0,10.5,8.4,18.8,18.8,18.8h169.1c10.5,0,18.8-8.4,18.8-18.8V487.3z"/>
<path fill="#1A1A1A" d="M77.5,443.8c-11.6,0-21.1,9.5-21.1,21.1v100.2c0,11.6,9.5,21.1,21.1,21.1h169.1c11.6,0,21.1-9.5,21.1-21.1
	V465c0-11.6-9.5-21.1-21.1-21.1L77.5,443.8L77.5,443.8z M77.5,448.4h169.1c9.2,0,16.5,7.4,16.5,16.5v100.2c0,9.2-7.4,16.5-16.5,16.5
	H77.5c-9.2,0-16.5-7.4-16.5-16.5V465C60.9,455.8,68.3,448.4,77.5,448.4L77.5,448.4z"/>
<path fill="#EBD9B9" d="M182.6,433.4c0,15.4-9.1,34.6-20.5,34.6c-11.3,0-20.5-19.4-20.5-34.6c0-15.4,12.1-20.9,20.5-20.9
	C170.4,412.6,182.6,418.2,182.6,433.4L182.6,433.4z"/>
<path fill="#1A1A1A" d="M162.1,406.9c-5.4,0-11.7,1.7-17,6c-5.3,4.3-9.2,11.5-9.2,20.6c0,8.8,2.5,18.1,6.8,25.8
	c4.3,7.7,10.6,14.6,19.5,14.6c8.9,0,15.3-6.8,19.5-14.6c4.3-7.7,6.8-17.1,6.8-25.8c0-9.1-3.9-16.3-9.2-20.6
	C173.8,408.6,167.5,406.9,162.1,406.9L162.1,406.9z M162.1,418.3c2.9,0,6.9,1.1,9.8,3.4c2.8,2.3,5,5.6,5,11.7
	c0,6.5-2.1,14.5-5.3,20.3c-3.2,5.8-7.1,8.6-9.5,8.6c-2.4,0-6.3-2.8-9.5-8.6s-5.3-13.8-5.3-20.3c0-6.1,2.1-9.4,5-11.7
	C155.2,419.4,159.1,418.3,162.1,418.3L162.1,418.3z"/>
<g>
	<path d="M117.2,506.5c1.3,1,2.8,1.7,4.4,2.3l-2,3.9c-0.8-0.3-1.6-0.6-2.4-1c-0.2-0.1-1.4-0.9-3.6-2.4c-1.8,0.8-3.7,1.2-5.9,1.2
		c-4.2,0-7.5-1.2-9.8-3.6c-2.4-2.5-3.6-5.9-3.6-10.3c0-4.4,1.2-7.9,3.6-10.3c2.4-2.5,5.6-3.7,9.7-3.7c4,0,7.2,1.2,9.6,3.7
		c2.4,2.5,3.6,6,3.6,10.3c0,2.3-0.4,4.4-1,6.2C119.1,504,118.4,505.3,117.2,506.5z M112.9,503.4c0.7-0.8,1.2-1.9,1.6-3
		c0.4-1.2,0.5-2.5,0.5-4c0-3.1-0.7-5.5-2-7c-1.4-1.5-3.2-2.3-5.4-2.3c-2.2,0-4.1,0.8-5.4,2.3c-1.3,1.5-2,3.9-2,7
		c0,3.2,0.7,5.5,2,7.1c1.4,1.6,3.1,2.4,5.2,2.4c0.8,0,1.5-0.1,2.2-0.4c-1.2-0.7-2.2-1.3-3.4-1.7l1.5-3.1
		C109.5,501.3,111.2,502.3,112.9,503.4z"/>
	<path d="M124.9,482.9h5.5v14.7c0,2.3,0.1,3.8,0.2,4.5c0.3,1.2,0.8,2,1.7,2.7c0.9,0.7,2.1,1,3.6,1c1.6,0,2.8-0.4,3.6-1
		c0.8-0.6,1.2-1.4,1.4-2.3s0.3-2.5,0.3-4.6v-15h5.5V497c0,3.3-0.2,5.6-0.4,6.9c-0.3,1.3-0.8,2.5-1.6,3.4c-0.8,0.9-1.9,1.7-3.2,2.2
		c-1.3,0.5-3.1,0.8-5.2,0.8c-2.6,0-4.5-0.3-5.9-0.9c-1.3-0.6-2.4-1.3-3.2-2.3s-1.3-2-1.5-3c-0.4-1.6-0.5-3.8-0.5-6.9v-14.3H124.9z"
		/>
	<path d="M152.3,510v-27.2h20.2v4.6h-14.7v6h13.6v4.5h-13.6v7.4H173v4.5L152.3,510L152.3,510z"/>
	<path d="M177.5,482.9h5.5v14.7c0,2.3,0.1,3.8,0.2,4.5c0.3,1.2,0.8,2,1.7,2.7c0.9,0.7,2.1,1,3.6,1c1.6,0,2.8-0.4,3.6-1
		c0.8-0.6,1.2-1.4,1.4-2.3s0.3-2.5,0.3-4.6v-15h5.5V497c0,3.3-0.2,5.6-0.4,6.9c-0.3,1.3-0.8,2.5-1.6,3.4c-0.8,0.9-1.9,1.7-3.2,2.2
		c-1.3,0.5-3.1,0.8-5.2,0.8c-2.6,0-4.5-0.3-5.9-0.9c-1.3-0.6-2.4-1.3-3.2-2.3c-0.8-1-1.3-2-1.5-3c-0.4-1.6-0.5-3.8-0.5-6.9v-14.3
		H177.5z"/>
	<path d="M205,510v-27.2h20.2v4.6h-14.7v6H224v4.5h-13.6v7.4h15.2v4.5L205,510L205,510z"/>
	<path d="M100.4,555.5v-22.6h-8.1v-4.5h21.6v4.6h-8v22.6L100.4,555.5L100.4,555.5z"/>
	<path d="M117.4,555.5v-27.1h5.5v27.2L117.4,555.5L117.4,555.5z"/>
	<path d="M145.4,545.5l5.3,1.7c-0.8,2.9-2.1,5.2-4.1,6.6c-1.9,1.4-4.3,2.1-7.2,2.1c-3.6,0-6.6-1.2-8.9-3.7
		c-2.3-2.5-3.5-5.9-3.5-10.1c0-4.5,1.2-8,3.5-10.5c2.3-2.5,5.4-3.7,9.2-3.7c3.3,0,6,1,8.1,2.9c1.2,1.2,2.1,2.8,2.8,5l-5.4,1.3
		c-0.4-1.4-1-2.5-2-3.4c-1-0.8-2.2-1.2-3.7-1.2c-2,0-3.6,0.7-4.9,2.1c-1.2,1.4-1.9,3.8-1.9,7c0,3.5,0.6,5.9,1.9,7.4
		c1.2,1.4,2.8,2.2,4.8,2.2c1.4,0,2.7-0.4,3.7-1.4C144.2,549,144.9,547.5,145.4,545.5z"/>
	<path d="M155.5,555.5v-27.1h5.5v12.1l11.1-12.1h7.4L169.3,539l10.7,16.6h-7.1l-7.5-12.7l-4.4,4.5v8.2L155.5,555.5L155.5,555.5z"/>
	<path d="M182.8,555.5v-27.1h20.2v4.6h-14.7v6h13.6v4.5h-13.6v7.4h15.2v4.5H182.8z"/>
	<path d="M214.2,555.5v-22.6h-8.1v-4.5h21.6v4.6h-8v22.6L214.2,555.5L214.2,555.5z"/>
</g>
</svg>
