<?xml version="1.0" encoding="utf-8"?>
<!-- Generator: Adobe Illustrator 18.1.1, SVG Export Plug-In . SVG Version: 6.00 Build 0)  -->
<svg version="1.1" id="Layer_1" xmlns="http://www.w3.org/2000/svg" xmlns:xlink="http://www.w3.org/1999/xlink" x="0px" y="0px"
	 viewBox="0 0 352 234" enable-background="new 0 0 352 234" xml:space="preserve">
<g>
	<path fill="none" stroke="#050C93" stroke-width="4" stroke-miterlimit="10" d="M294.6,201.2c-1.9,0-3.1,0-4.6,0
		c-76.1,0-152.4,0-228.5,0c-8.9,0-17.8-0.3-26.3-3.4c-11.8-4.4-17.8-13-18.5-25.3c-0.5-8.1,0-16.4,0-25c1.3,1.6,1.9,3.1,2.9,4.4
		c6.3,8.4,15.1,12,25,13c7.8,1,15.6,1.3,23.7,1.3c74.5,0.3,149,0,223.4,0c1,0,1.9-0.3,2.9-0.3c0-7.3,0-14.4,0-21.4
		c0.3-0.3,0.5-0.3,0.8-0.5c13.3,13,26.8,26.3,39.3,38.5c-13,13.8-26,26.9-38.8,40.4c-0.3-0.3-0.5-0.3-1-0.5
		C294.6,215.6,294.6,208.6,294.6,201.2z"/>
	<path fill="none" stroke="#050C93" stroke-width="4" stroke-miterlimit="10" d="M60.1,69c7.8,0,15.4,0,23.4,0
		c10.6,0,17.4,5.5,19.5,16.1c0.5,1.9,0.8,4.1,0.8,6c0,11.1,0.3,22.1,0,33.4c0,1.9-0.8,4.4-1.6,6c-1.9,3.1-5.8,4.4-8.9,3.4
		c-3.1-1-5.5-3.9-5.5-7.8c-0.3-7.5,0-14.9-0.3-22.4c0-3.6-0.3-7.3-0.8-10.6c-0.3-1-1.3-1.6-1.6-2.6c-0.5,1-1.3,1.6-1.5,2.6
		c-0.3,2.6-0.3,5.5-0.3,8.4c0,13.5,0,27.2,0,40.7c0,4.8-1.3,6-6,6c-11.3,0-22.9,0-34.2,0c-4.8,0-6-1.3-6-6c0-15.4,0-30.8,0-46.2
		c0-1.3-0.3-2.6-0.3-3.9c-0.3-0.5-1-1-1.3-1.5c-0.5,0.5-1.3,1-1.5,1.5c-0.5,1.9-0.8,3.6-0.8,5.5c-0.3,9.4,0,18.5-0.3,27.9
		c-0.3,6.8-5.8,10.6-11.3,7.9c-3.1-1.5-5-3.9-5-7.5c0-12.5-0.3-25,0.3-37.5c0.3-3.4,1.5-7,2.9-10.1c2.9-6,7.9-9.4,14.9-9.4
		C43,69.2,51.4,69,60.1,69z"/>
	<path fill="none" stroke="#050C93" stroke-width="4" stroke-miterlimit="10" d="M279.6,90.6c-0.3,1.6-0.5,3.1-0.5,4.8
		c0,15.4,0,31,0,46.4c0,4.8-1.3,6.3-6,6.3c-11.3,0-22.9,0-34.2,0c-4.8,0-6-1.3-6-6c0-15.6,0-31.3,0-46.7c0-1.5-0.5-3.1-0.5-4.8
		c-0.5,0-1-0.3-1.3-0.3c-0.5,1-1.3,1.9-1.3,2.9c-0.3,2.6-0.5,5.5-0.5,8.1c0,7.9,0,15.9,0,23.8c0,5.3-3.1,8.6-7.9,8.6
		s-8.6-3.6-8.6-8.4c-0.3-12-0.3-24.3,0.3-36.5c0.3-3.9,1.5-7.9,3.4-11.5c2.9-5.8,7.9-8.6,14.4-8.6c16.9,0,33.7,0,50.8,0
		c6.5,0,11.8,2.6,14.4,8.4c1.9,3.9,3.4,8.4,3.6,12.8c0.5,11.5,0.3,23.4,0.3,34.9c0,1-0.3,2.1-0.5,2.9c-1.3,3.9-5.3,6.5-9.4,6
		c-3.9-0.5-6.8-3.9-6.8-8.4c-0.3-8.6,0-17.5-0.3-26.3c0-1.9-0.3-4.1-0.5-6c-0.3-1-1-1.9-1.3-2.9C280.6,90.6,280.1,90.6,279.6,90.6z"
		/>
	<path fill="none" stroke="#050C93" stroke-width="4" stroke-miterlimit="10" d="M130.2,90.6c-0.5,1-1.3,1.9-1.3,2.9
		c-0.3,2.6-0.5,5.5-0.5,8.1c0,7.8,0,15.4,0,23.4c0,5.5-3.1,9.4-7.9,9.4c-5,0-8.6-3.9-8.6-9.4c0-11.3-0.3-22.6,0.3-33.9
		c0.3-3.9,1-7.9,2.6-11.5c2.9-6.8,8.4-10.4,15.9-10.4c16.4,0,32.8,0,49.3,0c8.4,0,14.3,3.9,17.1,11.3c1.3,3.1,1.9,6.5,1.9,9.9
		c0.3,11.8,0.3,23.4,0,34.9c0,1.5-0.5,2.9-1,4.1c-1.5,3.6-5.5,5.5-9.4,4.8c-3.6-0.8-6-3.9-6-7.8c-0.3-7.3,0-14.6-0.3-21.9
		c0-3.4-0.3-6.8-0.5-10.1c-0.3-1.3-1-2.4-1.3-3.6c-0.5,0-1,0.3-1.5,0.3c-0.3,1.5-0.5,2.6-0.5,4.1c0,15.9,0,31.8,0,47.4
		c0,4.8-1.5,6-6.3,6c-11.5,0-23.1,0-34.7,0c-4.4,0-5.5-1.5-5.5-5.5c0-15.9,0-31.3,0-47.2c0-1.6-0.5-3.1-0.5-4.8
		C131.1,90.6,130.6,90.6,130.2,90.6z"/>
	<path fill="none" stroke="#050C93" stroke-width="4" stroke-miterlimit="10" d="M82,41.6c0,12.3-10.1,22.1-22.1,22.1
		c-12.3-0.3-22.1-10.1-22.1-22.4s10.1-22.1,22.1-22.1C72.1,19.4,82,29.3,82,41.6z"/>
	<path fill="none" stroke="#050C93" stroke-width="4" stroke-miterlimit="10" d="M177.6,41.8c-0.3,12-10.1,21.9-22.1,21.9
		c-12.3,0-22.1-10.1-22.1-22.1c0.3-12.3,10.1-22.4,22.6-22.1C168,19.4,177.9,29.5,177.6,41.8z"/>
	<path fill="none" stroke="#050C93" stroke-width="4" stroke-miterlimit="10" d="M278.2,41.3c0,12.3-9.6,22.1-21.9,22.4
		c-12,0.3-22.1-9.9-22.1-22.1s9.6-22.1,21.9-22.1C268.1,19.4,278,29.3,278.2,41.3z"/>
</g>
</svg>
