<?xml version="1.0" encoding="utf-8"?>
<!-- Generator: Adobe Illustrator 23.0.3, SVG Export Plug-In . SVG Version: 6.00 Build 0)  -->
<svg version="1.1" id="Layer_1" xmlns="http://www.w3.org/2000/svg" xmlns:xlink="http://www.w3.org/1999/xlink" x="0px" y="0px"
	 viewBox="0 0 450 400" style="enable-background:new 0 0 450 400;" xml:space="preserve">
<style type="text/css">
	.st0{fill:#EF4136;}
	.st1{fill:none;stroke:#EF4136;stroke-width:7.9451;stroke-miterlimit:10;}
	.st2{fill:#FFFFFF;}
</style>
<ellipse class="st0" cx="224.7" cy="200.7" rx="178.8" ry="158.9"/>
<ellipse class="st1" cx="224.7" cy="200.7" rx="218.6" ry="194.4"/>
<g>
	<path class="st2" d="M313.3,262.2c-1.4,0-2.3,0-3.2,0c-54.1,0-108.2,0-162.3,0c-6.3,0-12.6-0.2-18.6-2.4
		c-8.3-3.1-12.7-9.2-13.1-17.9c-0.3-5.8,0-11.6,0-17.8c0.8,1.2,1.3,2.2,2,3.1c4.4,6,10.7,8.6,17.7,9.3c5.5,0.6,11.1,0.8,16.7,0.8
		c52.9,0.1,105.8,0,158.6,0c0.6,0,1.3-0.1,2.1-0.1c0-5.1,0-10.2,0-15.2c0.2-0.1,0.3-0.2,0.5-0.3c9.4,9.3,18.9,18.6,27.8,27.3
		c-9.3,9.7-18.4,19.2-27.5,28.8c-0.2-0.1-0.4-0.2-0.6-0.3C313.3,272.5,313.3,267.5,313.3,262.2z"/>
	<path class="st2" d="M146.8,168.4c5.5,0,11,0,16.5,0c7.6,0,12.3,3.9,13.8,11.4c0.3,1.4,0.5,2.9,0.5,4.3c0,7.9,0.1,15.8,0,23.7
		c0,1.4-0.5,3-1.2,4.3c-1.3,2.2-4.1,3.1-6.4,2.4c-2.3-0.7-3.9-2.7-4-5.4c-0.1-5.3,0-10.6-0.1-15.9c0-2.5-0.2-5.1-0.5-7.6
		c-0.1-0.6-0.8-1.2-1.2-1.8c-0.3,0.6-0.9,1.2-1,1.9c-0.2,1.9-0.1,3.9-0.1,5.9c0,9.6,0,19.3,0,28.9c0,3.4-0.9,4.2-4.3,4.2
		c-8.1,0-16.2,0-24.3,0c-3.4,0-4.3-0.8-4.3-4.2c0-10.9,0-21.9,0-32.8c0-0.9-0.1-1.9-0.2-2.8c-0.1-0.4-0.6-0.7-0.9-1.1
		c-0.3,0.3-0.9,0.6-1,1c-0.3,1.3-0.5,2.6-0.5,3.9c-0.1,6.6,0,13.2-0.1,19.8c-0.1,4.8-4.1,7.6-8.1,5.7c-2.2-1-3.6-2.8-3.6-5.3
		c0-8.9-0.1-17.8,0.1-26.7c0.1-2.4,1-5,2.1-7.2c2.1-4.3,5.7-6.6,10.6-6.6C134.8,168.5,140.8,168.4,146.8,168.4z"/>
	<path class="st2" d="M302.8,183.8c-0.1,1.2-0.4,2.3-0.4,3.5c0,11,0,22,0,33c0,3.5-0.9,4.4-4.3,4.4c-8.1,0-16.2,0-24.3,0
		c-3.4,0-4.3-0.9-4.3-4.2c0-11.1,0-22.2,0-33.2c0-1.1-0.3-2.3-0.4-3.4c-0.3,0-0.6-0.1-0.8-0.1c-0.3,0.7-0.9,1.3-0.9,2.1
		c-0.2,1.9-0.4,3.9-0.4,5.8c0,5.6,0,11.3,0,16.9c0,3.7-2.3,6.2-5.6,6.2c-3.3,0-6.1-2.6-6.1-6c-0.1-8.6-0.2-17.2,0.1-25.9
		c0.1-2.8,1.1-5.7,2.4-8.2c2-4.1,5.6-6.1,10.2-6.1c12,0,24,0,36.1,0c4.6,0,8.3,1.9,10.3,6c1.3,2.8,2.4,6,2.5,9.1
		c0.3,8.2,0.1,16.5,0.1,24.8c0,0.7-0.1,1.5-0.3,2.1c-0.9,2.8-3.7,4.6-6.6,4.3c-2.8-0.4-4.8-2.7-4.8-6c-0.1-6.2,0-12.5-0.1-18.7
		c0-1.4-0.2-2.9-0.4-4.3c-0.1-0.7-0.6-1.3-0.9-2C303.4,183.7,303.1,183.8,302.8,183.8z"/>
	<path class="st2" d="M196.7,183.7c-0.3,0.7-0.8,1.3-0.8,2c-0.2,1.9-0.3,3.9-0.4,5.8c0,5.5,0,11,0,16.5c0,4-2.2,6.6-5.6,6.7
		c-3.6,0-6.1-2.7-6.1-6.7c0-8-0.2-16.1,0.1-24.1c0.1-2.8,0.7-5.6,1.8-8.2c2-4.8,5.9-7.3,11.3-7.3c11.7,0,23.3,0,35,0
		c5.9,0,10,2.7,12.1,8.1c0.8,2.2,1.4,4.6,1.4,7c0.2,8.3,0.1,16.5,0,24.8c0,1-0.3,2-0.7,2.9c-1.1,2.5-4,3.9-6.6,3.4
		c-2.5-0.5-4.3-2.7-4.3-5.5c-0.1-5.2,0-10.4-0.1-15.6c0-2.4-0.1-4.8-0.4-7.2c-0.1-0.9-0.6-1.7-0.9-2.6c-0.3,0-0.6,0.1-1,0.1
		c-0.1,1-0.4,1.9-0.4,2.9c0,11.2,0,22.5,0,33.7c0,3.4-1,4.3-4.4,4.3c-8.2,0-16.4,0-24.6,0c-3.1,0-4-1-4-4c0-11.2,0-22.3,0-33.5
		c0-1.2-0.3-2.3-0.4-3.5C197.3,183.8,197,183.7,196.7,183.7z"/>
	<path class="st2" d="M162.5,148.9c0,8.7-7.2,15.8-15.8,15.7c-8.7-0.1-15.7-7.2-15.7-15.9c0-8.7,7.2-15.8,15.8-15.7
		C155.5,133.1,162.5,140.2,162.5,148.9z"/>
	<path class="st2" d="M230.3,149.1c-0.1,8.6-7.2,15.6-15.7,15.6c-8.7,0-15.8-7.2-15.8-15.8c0.1-8.8,7.2-15.9,16-15.8
		C223.4,133.2,230.4,140.3,230.3,149.1z"/>
	<path class="st2" d="M301.7,148.8c0,8.7-6.9,15.8-15.6,15.9c-8.6,0.1-15.8-7-15.8-15.7c0-8.7,6.9-15.8,15.6-15.8
		C294.6,133.1,301.6,140.1,301.7,148.8z"/>
</g>
</svg>
