<?xml version="1.0" encoding="utf-8"?>
<!-- Generator: Adobe Illustrator 18.1.1, SVG Export Plug-In . SVG Version: 6.00 Build 0)  -->
<svg version="1.1" id="Layer_1" xmlns="http://www.w3.org/2000/svg" xmlns:xlink="http://www.w3.org/1999/xlink" x="0px" y="0px"
	 viewBox="216 0 282 187" enable-background="new 216 0 282 187" xml:space="preserve">
<g>
	<path fill="#FFFFFF" d="M459,156.3c-1.5,0-2.5,0-3.7,0c-60.8,0-121.8,0-182.6,0c-7.1,0-14.2-0.2-21-2.7
		c-9.4-3.5-14.2-10.4-14.8-20.2c-0.4-6.5,0-13.1,0-20c1,1.3,1.5,2.5,2.3,3.5c5,6.7,12.1,9.6,20,10.4c6.2,0.8,12.5,1,18.9,1
		c59.5,0.2,119.1,0,178.5,0c0.8,0,1.5-0.2,2.3-0.2c0-5.8,0-11.5,0-17.1c0.2-0.2,0.4-0.2,0.6-0.4c10.6,10.4,21.4,21,31.4,30.8
		c-10.4,11-20.8,21.5-31,32.3c-0.2-0.2-0.4-0.2-0.8-0.4C459,167.8,459,162.2,459,156.3z"/>
	<path fill="#FFFFFF" d="M271.6,50.6c6.2,0,12.3,0,18.7,0c8.5,0,13.9,4.4,15.6,12.9c0.4,1.5,0.6,3.3,0.6,4.8c0,8.9,0.2,17.7,0,26.7
		c0,1.5-0.6,3.5-1.3,4.8c-1.5,2.5-4.6,3.5-7.1,2.7c-2.5-0.8-4.4-3.1-4.4-6.2c-0.2-6,0-11.9-0.2-17.9c0-2.9-0.2-5.8-0.6-8.5
		c-0.2-0.8-1-1.3-1.3-2.1c-0.4,0.8-1,1.3-1.2,2.1c-0.2,2.1-0.2,4.4-0.2,6.7c0,10.8,0,21.7,0,32.5c0,3.8-1,4.8-4.8,4.8
		c-9,0-18.3,0-27.3,0c-3.8,0-4.8-1-4.8-4.8c0-12.3,0-24.6,0-36.9c0-1-0.2-2.1-0.2-3.1c-0.2-0.4-0.8-0.8-1-1.2
		c-0.4,0.4-1,0.8-1.2,1.2c-0.4,1.5-0.6,2.9-0.6,4.4c-0.2,7.5,0,14.8-0.2,22.3c-0.2,5.4-4.6,8.5-9,6.3c-2.5-1.2-4-3.1-4-6
		c0-10-0.2-20,0.2-30c0.2-2.7,1.2-5.6,2.3-8.1c2.3-4.8,6.3-7.5,11.9-7.5C257.9,50.8,264.6,50.6,271.6,50.6z"/>
	<path fill="#FFFFFF" d="M447,67.9c-0.2,1.3-0.4,2.5-0.4,3.8c0,12.3,0,24.8,0,37.1c0,3.8-1,5-4.8,5c-9,0-18.3,0-27.3,0
		c-3.8,0-4.8-1-4.8-4.8c0-12.5,0-25,0-37.3c0-1.2-0.4-2.5-0.4-3.8c-0.4,0-0.8-0.2-1-0.2c-0.4,0.8-1,1.5-1,2.3
		c-0.2,2.1-0.4,4.4-0.4,6.5c0,6.3,0,12.7,0,19c0,4.2-2.5,6.9-6.3,6.9s-6.9-2.9-6.9-6.7c-0.2-9.6-0.2-19.4,0.2-29.2
		c0.2-3.1,1.2-6.3,2.7-9.2c2.3-4.6,6.3-6.9,11.5-6.9c13.5,0,26.9,0,40.6,0c5.2,0,9.4,2.1,11.5,6.7c1.5,3.1,2.7,6.7,2.9,10.2
		c0.4,9.2,0.2,18.7,0.2,27.9c0,0.8-0.2,1.7-0.4,2.3c-1,3.1-4.2,5.2-7.5,4.8c-3.1-0.4-5.4-3.1-5.4-6.7c-0.2-6.9,0-14-0.2-21
		c0-1.5-0.2-3.3-0.4-4.8c-0.2-0.8-0.8-1.5-1-2.3C447.8,67.9,447.4,67.9,447,67.9z"/>
	<path fill="#FFFFFF" d="M327.6,67.9c-0.4,0.8-1,1.5-1,2.3c-0.2,2.1-0.4,4.4-0.4,6.5c0,6.2,0,12.3,0,18.7c0,4.4-2.5,7.5-6.3,7.5
		c-4,0-6.9-3.1-6.9-7.5c0-9-0.2-18.1,0.2-27.1c0.2-3.1,0.8-6.3,2.1-9.2c2.3-5.4,6.7-8.3,12.7-8.3c13.1,0,26.2,0,39.4,0
		c6.7,0,11.4,3.1,13.7,9c1,2.5,1.5,5.2,1.5,7.9c0.2,9.4,0.2,18.7,0,27.9c0,1.2-0.4,2.3-0.8,3.3c-1.2,2.9-4.4,4.4-7.5,3.8
		c-2.9-0.6-4.8-3.1-4.8-6.2c-0.2-5.8,0-11.7-0.2-17.5c0-2.7-0.2-5.4-0.4-8.1c-0.2-1-0.8-1.9-1-2.9c-0.4,0-0.8,0.2-1.2,0.2
		c-0.2,1.2-0.4,2.1-0.4,3.3c0,12.7,0,25.4,0,37.9c0,3.8-1.2,4.8-5,4.8c-9.2,0-18.5,0-27.7,0c-3.5,0-4.4-1.2-4.4-4.4
		c0-12.7,0-25,0-37.7c0-1.3-0.4-2.5-0.4-3.8C328.3,67.9,327.9,67.9,327.6,67.9z"/>
	<path fill="#FFFFFF" d="M289.1,28.7c0,9.8-8.1,17.7-17.7,17.7c-9.8-0.2-17.7-8.1-17.7-17.9s8.1-17.7,17.7-17.7
		C281.2,11,289.1,18.9,289.1,28.7z"/>
	<path fill="#FFFFFF" d="M365.5,28.9c-0.2,9.6-8.1,17.5-17.7,17.5c-9.8,0-17.7-8.1-17.7-17.7c0.2-9.8,8.1-17.9,18.1-17.7
		C357.8,11,365.7,19.1,365.5,28.9z"/>
	<path fill="#FFFFFF" d="M445.9,28.5c0,9.8-7.7,17.7-17.5,17.9c-9.6,0.2-17.7-7.9-17.7-17.7S418.4,11,428.2,11
		C437.8,11,445.7,18.9,445.9,28.5z"/>
</g>
</svg>
