<?xml version="1.0" encoding="utf-8"?>
<!-- Generator: Adobe Illustrator 23.0.3, SVG Export Plug-In . SVG Version: 6.00 Build 0)  -->
<svg version="1.1" id="Layer_1" xmlns="http://www.w3.org/2000/svg" xmlns:xlink="http://www.w3.org/1999/xlink" x="0px" y="0px"
	 viewBox="0 0 880 880" style="enable-background:new 0 0 880 880;" xml:space="preserve">
<style type="text/css">
	.st0{fill-rule:evenodd;clip-rule:evenodd;fill:#FFFFFF;}
	.st1{fill-rule:evenodd;clip-rule:evenodd;fill:#2E3192;}
	.st2{fill-rule:evenodd;clip-rule:evenodd;fill:#2F3292;}
	.st3{fill-rule:evenodd;clip-rule:evenodd;fill:#FEFEFE;}
	.st4{fill-rule:evenodd;clip-rule:evenodd;fill:#FDFDFE;}
</style>
<ellipse class="st0" cx="440.6" cy="387.7" rx="439.4" ry="386.1"/>
<path class="st1" d="M452,643c-1.4-0.4-2.9-0.6-4.3-0.9c-3.6-0.6-6.8-1.7-7.6-5.3c-0.2-1-0.4-2-0.4-3c-0.2-5.4-0.4-10.8-0.7-16.3
	c-0.5-10.9-0.9-21.9-1.4-32.8c-0.1-2.8-0.3-5.7-0.2-8.5c0.1-5,0.1-9.9,0.5-14.9c0.3-3.7,2.5-6.3,7-6.9c0.7-0.1,1.4-0.3,2-0.4
	c1.9-0.4,2.8-1.7,2.5-3.3c-0.3-1.4-1.5-1.9-3.6-1.8c-4.7,0.1-9.3,0.3-14,0.2c-4.1-0.1-4.6,0-6.3,3.3c-12.8,24-25.6,48-38.4,72
	c-0.2,0.4-0.5,0.9-0.8,1.5c-0.3-0.5-0.5-0.8-0.7-1.1c-9.7-18.2-19.4-36.3-29.1-54.5c-3-5.5-5.9-11.1-8.9-16.6
	c-1.5-2.8-3.9-4.4-7.7-4.2c-4.4,0.3-8.9,0.3-13.3,0.3c-1.6,0-3.3-0.2-4.9-0.2s-2.6,0.8-2.8,1.9c-0.2,1.5,0.4,2.5,2,3
	c0.6,0.2,1.2,0.3,1.9,0.4c5.6,1.1,9.8,3.7,12,8.5c1.5,3.3,2.3,6.8,2.4,10.3c0.1,5.3,0.2,10.5,0,15.9c-0.5,11.4-1.1,22.8-1.8,34.3
	c-0.2,3.6-0.6,7.1-1.2,10.7c-0.4,2.6-1.6,5.2-4.3,6.8c-1.9,1.1-3.8,1.8-6,1.6c-0.1,0.1-0.2,0.1-0.3,0.2l0,0c-0.6,0.5-0.8,1.3-1,2.1
	c-0.1,0.4-0.2,1-0.1,1.5c0.2,0.1,0.3,0.4,0.4,0.6l0,0l0.1,0.1c0.1,0,0.3,0,0.4,0.1c1.7,0.9,3.4,0.5,5.1,0.4
	c5.3-0.2,10.6-0.4,15.9-0.4c4.1,0,8.1,0.4,12.2,0.5c1.6,0.1,2.7-0.8,3-1.9c0.3-1.3-0.3-2.2-1.9-2.7c-1.3-0.4-2.8-0.7-4.2-1
	c-2.6-0.4-5-1.4-6.2-3.5c-1-1.8-2-3.7-2.1-5.5c-0.3-6.2-0.3-12.4-0.1-18.6c0.3-8.4,0.8-16.9,1.2-25.3c0.1-1.8,0.2-3.8,0.4-5.6
	c0.5,0.3,0.7,0.6,0.9,1c4.8,9.1,9.6,18.1,14.4,27.1c5.5,10.2,11,20.4,16.5,30.6c0.6,1.1,1.4,2,2.3,2.9c1.4,1.3,3.2,1.2,4.6-0.1
	c0.8-0.8,1.5-1.7,2-2.6c6.5-12,12.9-24.2,19.5-36.2c4.5-8.3,9.3-16.5,14-24.8c0.3-0.4,0.6-0.9,1.2-1.6c0.3,6.4,0.6,12.4,0.9,18.4
	c0.4,9.8,0.9,19.5,1.2,29.3c0.1,3.3-0.2,6.7-0.5,9.9c-0.2,2.3-1.9,3.8-4.3,4.6c-0.9,0.4-1.9,0.5-2.8,0.9c-1.4,0.5-2.2,1.6-2.1,2.5
	c0.2,1.2,1.2,1.9,2.9,1.9c2.2,0,4.5,0,6.7-0.2c6.8-0.4,13.6-0.7,20.4,0c2.4,0.3,4.9,0.2,7.3,0.1c1.2-0.1,2.2-0.6,2.3-1.8
	C454.2,644.2,453.3,643.4,452,643z"/>
<path class="st1" d="M369.3,58.2c8.8,3.4,6.2,17.6-0.8,22.2c-27.6,18.6-29.6,49-18.3,72.3c0.2,0.4,0.5,0.6,1,1.2
	c5-2.2,10.1-4.3,15-6.7c1-0.4,1.6-2,1.8-3.2c5.2-30.4,24.6-48.4,59.2-53.2c35.3-4.8,67.4,11.7,78,37.1c2.1,5.1,2.6,10.7,3.9,16
	c0.3,1.1,0.8,2.7,1.7,3.2c6.9,3.3,14,6.3,21.9,9.8c0.9-5.4,2.3-10.4,2.6-15.5c1.4-21.6-5.5-40.4-24.8-55c-5.7-4.3-6.5-10.5-4.8-16.6
	c1.2-4.4,5.8-6.2,10.1-3.5c27.2,16.8,47.4,37.6,50.9,68.1c1.5,13.6-1.6,26.8-5.8,39.8c-0.4,1.4-0.5,3.6,0.5,4.6
	c20.6,21.4,19.4,44.1,5.5,67.6c-2.3,4-2.1,6.3,0.7,9.9c4.1,5.4,6.9,11.5,10.6,17.2c1.5,2.3,3.3,4.6,5.5,6.2
	c15.4,10.9,31.2,21.4,46.5,32.4c4.1,2.9,7.3,6.9,10.7,10.5c3.9,4.1,3.8,8.9,1.8,13.7c-1.9,4.7-6.9,7.4-12,5.4
	c-5.2-1.9-10.3-4.7-14.7-7.8c-9.9-7-20.8-12.4-32.6-17.8c-0.9,6.2-1.6,11.8-2.5,17.4c-2.3,14.3-6.6,28.1-12.9,41.5
	c-0.8,1.8-0.8,4.4,0,6.1c5.7,11.6,10.2,23.5,10.9,36.2c1.3,23-9.5,41.9-26.7,58.4c-4.6,4.4-9.7,8.4-15,12.3
	c-5.7,4.2-11.6,2-12.5-4.4c-0.9-6,0.7-11.1,6-15.6c14.1-12.3,19.3-27.6,17.7-44.7c-0.5-4.8-1.7-9.7-2.6-14.6
	c-8.5,6.9-15.9,13.6-24.3,19.4c-23.5,16.3-50.1,26.5-80,29.3c-14.6,1.3-28.6-2.2-42.3-6.3c-24-7.3-45.1-18.8-62.9-34.7
	c-1-0.9-1.8-2.1-3.4-4c-3.2,9.5-4.5,17.8-3.6,26.3c1.9,17.4,10.9,31.2,26.5,41.8c5.5,3.8,7.7,12.4,4.8,17.9
	c-1.9,3.6-6.4,5.2-10.5,2.8c-28.7-16.6-52.2-36.8-56.3-68.8c-1.9-14.5,2.1-28.5,9.1-41.5c3.8-7.1,3.7-12.8,0.2-20
	c-4.4-9.1-6.6-19.2-9.7-28.8c-0.4-1.3-0.7-2.7-1.2-4.5c-6.8,4.5-13.1,8.9-19.7,12.8c-7.1,4.3-14.3,8.4-21.8,12.1
	c-6.6,3.3-8.7,2.5-12.8-2.8c0-1.8,0-3.7,0-5.5c4.4-7,7.9-14.7,13.4-21c11.4-13.3,23.8-25.7,35.7-38.7c1.5-1.6,2.7-3.7,3.1-5.7
	c2.6-12.8,7.6-24.9,17.1-34.9c4.4-4.6,4.6-7.9,2-13.4c-10.3-21.7-9.1-42.6,8.3-61.5c3-3.3,3.6-5.6,1.5-9.6
	c-6.6-12.3-10.4-25.3-10.1-39c0.5-17,8.3-31.5,20.2-44.6c10-11.1,22.4-19.8,35.5-27.7C366.3,58.2,367.8,58.2,369.3,58.2z
	 M437.9,155.3c-7,0.7-15.6,1.1-24,2.5c-24.8,4-47.7,12-67,26.6c-9,6.9-16.5,14.9-18.2,25.7c-1.5,9.4,1.4,18.3,6.3,26.5
	c18.2,30.4,46.8,50.1,83.5,61.2c14.9,4.5,29.7,3.8,44.5-1.2c20.8-7.1,39.1-17.7,55.4-30.9c11.3-9.2,21.1-19.5,27.7-31.9
	c4.6-8.5,7.7-17.4,4.8-26.9c-2.5-8.1-8.3-14.5-15.4-19.9C507.8,166.1,475.3,157.1,437.9,155.3z M326.2,268.2
	c-6.5,7.8-10.8,16.8-11.5,26.8c-1.1,14.5,0.2,29,3.6,43.2c10.4,43.3,38,74.2,85.7,90.1c6.2,2,12.6,3.5,19.8,5.4c0-2.5,0-4,0-5.5
	c0-24.3-0.7-48.7,0.3-72.9c0.5-11.7-4-20.5-12.7-28.3c-2.4-2.2-4.5-4.6-7.2-6.4c-4.4-3-9-5.8-13.7-8.4c-12-6.8-24.7-12.7-35.9-20.3
	C344.4,284.9,335.7,276.3,326.2,268.2z M449.3,433c1.1,0,1.5,0,2,0c0.6-0.1,1.2-0.1,1.8-0.3c28.6-6.4,53.3-18.6,72.2-38.8
	c26.5-28.2,34.1-61.7,33.3-97.2c-0.2-9.3-3.8-18-10.2-26.1c-0.9,0.8-1.6,1.2-2.2,1.8c-19.9,19.1-43.4,33.7-70.7,43.5
	c-1.3,0.5-2.8,1.1-3.7,2c-6.8,7-13.6,14.1-19.9,21.4c-1.7,2-2.4,5.1-2.4,7.6c-0.2,27.1-0.1,54.1-0.1,81.2
	C449.3,429.8,449.3,431.2,449.3,433z M482,138.5c-3.9-15.8-26.4-27.9-47.4-26c-20,1.8-38.8,14.1-39,26
	C424.2,131.9,452.9,131.7,482,138.5z"/>
<path class="st1" d="M664.6,576c0,4.7,0,9.4,0,14.1c0,3.2,0.1,3.3,3.7,3.3c6.8-0.1,13.7-0.1,20.5-0.4c2.5-0.1,5.1-0.7,7.6-1.2
	c1.5-0.3,2.4-1.1,2.8-2.5c0.4-1.2,0.7-2.5,1.1-3.7c0.3-1.2,0.9-2.3,2.4-2.5c2.2-0.4,3.7,0.8,3.6,3c-0.1,2.5-0.5,5-0.5,7.5
	c0,4.9,0.1,9.8,0.2,14.7c0,0.7,0.1,1.4,0.1,2.1c0,1.5-0.9,2.4-2.4,2.5c-1.6,0.2-3-0.6-3.4-2c-0.3-1.1-0.5-2.2-0.9-3.3
	c-1.2-4-3.2-5.7-7.9-5.9c-7.7-0.3-15.3-0.2-23-0.3c-0.5,0-1.1,0.1-1.6,0.2c-1.9,0.3-2.3,0.6-2.3,2.3c0,9.5,0,19,0.1,28.5
	c0,1.2,0.3,2.5,0.6,3.8c0.3,1.5,1.4,2.5,3.1,2.6c3.5,0.3,6.9,0.8,10.4,0.7c5.5-0.2,11-0.6,16.5-1.2c5.2-0.6,10.3-2.1,14.8-4.6
	c2.7-1.5,5.1-3.3,6.9-5.7c0.4-0.4,0.8-0.9,1.2-1.3c0.8-0.7,1.9-1.1,2.8-0.4c0.7,0.4,1.5,1.4,1.4,2c-0.1,1.7-0.3,3.4-1,5
	c-2,4.3-5.2,7.9-9.5,10.8c-4.9,3.3-10.6,4.3-16.6,3.9c-7.2-0.4-14.3-1.1-21.5-1.2c-7.6-0.2-15.1,0-22.7,0.2
	c-2.4,0.1-4.8,0.6-7.2,0.9c-0.8,0.1-1.6,0-2.4-0.1c-1.3-0.2-2.2-0.8-2.4-2c-0.2-1.2,0.5-2.1,1.7-2.6c0.9-0.4,1.9-0.6,2.8-0.8
	c3.7-0.6,5.6-2.7,5.9-5.9c0.3-2.7,0.4-5.4,0.4-8.1c0-19.5,0.1-39,0-58.4c0-3.4-0.5-6.9-1.2-10.1c-0.7-3.3-3.2-4.9-7-5.3
	c-1.1-0.1-2.2-0.2-3.3-0.2c-1.7-0.1-2.7-0.8-2.9-1.9c-0.2-1.4,0.6-2.6,2.3-3c1.6-0.3,3.4-0.4,5-0.3c14,1.5,28,1.5,42.1,1.2
	c7.1-0.1,14.1-0.5,21.2-0.8c1.7-0.1,3.4-0.4,5-0.3c2,0.1,3.2,1.4,3,3.2c-0.5,5-1.1,10.1-1.8,15.1c-0.1,1.2-0.6,2.3-2.1,2.8
	c-1.9,0.6-3.6-0.3-3.8-2c-0.1-0.7-0.1-1.5-0.1-2.2c0-5.1-2.5-7.6-8.3-8.2c-3.6-0.4-7.2-0.5-10.9-0.6c-6.1-0.1-12.3-0.1-18.4,0.1
	c-3.3,0.1-3.8,0.5-4.2,3.4c-0.1,0.4-0.1,1-0.1,1.4C664.6,566.7,664.6,571.3,664.6,576z"/>
<path class="st1" d="M488.1,576c0,5,0,10,0,14.9c0,2.1,0.2,2.4,2.7,2.3c7.2-0.1,14.4-0.1,21.7-0.3c2.2-0.1,4.3-0.6,6.5-1
	s3.5-1.6,4-3.4c0.3-1.1,0.6-2.2,0.9-3.3c0.5-1.7,1.7-2.5,3.5-2.2c1.5,0.2,2.5,1.1,2.4,2.8c-0.2,3.3-0.6,6.7-0.6,9.9
	c0,4.7,0.3,9.2,0.5,13.9c0.1,2.4-1.7,3.8-4,2.9c-0.8-0.4-1.5-1.3-1.9-2.1c-0.4-0.9-0.5-1.8-0.7-2.8c-1-4-3.2-5.8-7.9-6.1
	c-5.1-0.3-10.2-0.3-15.2-0.3c-3.1,0-6.3,0-9.4,0.2c-1.9,0.1-2.3,0.6-2.3,2.3c0,9.8,0,19.4,0.1,29.2c0,4.4,1.1,5.6,6,6
	c4.8,0.4,9.6,0.4,14.5,0.2c6.4-0.2,12.7-1.1,18.7-3c5.5-1.8,10.2-4.3,13.4-8.8c0.3-0.4,0.6-0.7,1-1c1.6-1.1,3.9-0.6,4.1,1.2
	c0.2,1.5,0.1,3.2-0.5,4.5c-3.8,8-9.8,14.1-20.1,15.5c-3.1,0.4-6.3,0.2-9.4,0.1c-8.5-0.4-16.9-0.9-25.3-1.2
	c-7.7-0.4-15.4,0.1-23.1,1.2c-0.8,0.1-1.7,0-2.5-0.1c-1.3-0.2-2-0.8-2.3-1.9c-0.2-1.1,0.3-2,1.4-2.5c1-0.4,2-0.7,3.1-1
	c4.1-1.1,5.8-2.8,6.1-6.5c0.2-2.5,0.3-5,0.3-7.5c0-19.5,0.1-39,0-58.4c0-3.3-0.5-6.8-1.2-10c-0.8-3.5-3.2-5.1-7.4-5.4
	c-1-0.1-2.1-0.2-3.1-0.2c-1.6-0.1-2.7-0.9-2.9-2c-0.2-1.1,0.7-2.5,2.1-2.8c1.8-0.3,3.7-0.4,5.5-0.3c15.1,1.6,30.3,1.4,45.5,1.1
	c5.7-0.1,11.4-0.4,17.2-0.7c1.2-0.1,2.5-0.3,3.7-0.4c3.2-0.4,4.8,1,4.5,3.7c-0.5,4.7-1,9.3-1.5,14c-0.1,0.7-0.3,1.5-0.6,2.1
	c-0.6,1.2-1.8,1.6-3.2,1.5c-1.3-0.1-2-0.9-2.1-1.8c-0.2-1-0.2-1.9-0.2-2.9c0-4.5-2-6.9-7-7.6c-3.4-0.5-6.8-0.7-10.2-0.8
	c-6.8-0.1-13.6-0.1-20.3,0c-3.3,0-4.1,0.9-4.1,3.8C488,566,488.1,571,488.1,576z"/>
<path class="st1" d="M768.6,548c5.5-0.2,11.8,1.2,17.9,3.9c1.6,0.7,2.8,0.6,4.1-0.5c1.7-1.4,4.1-0.8,4.6,1.2c0.5,1.9,0.6,4,0.9,6
	c0.6,3.9,1.3,7.7,2,11.5c0.2,1,0.2,2,0.1,3c-0.1,1.1-0.8,1.8-2,2.1c-1.2,0.3-2.2,0-2.9-1c-0.5-0.6-1-1.3-1.3-2.1
	c-3.3-8.7-10.6-13.5-20.1-16.2c-5.4-1.5-10.9-2-16.3-0.6c-6.3,1.6-11.1,4.9-12.4,10.9c-1.5,6.7,1.3,12,7.5,15.8
	c2.5,1.5,5.5,2.5,8.3,3.4c6.2,2,12.6,3.8,18.8,5.9c6.7,2.3,12.9,5.5,17.6,10.5c4.8,5.1,6.7,11,6.4,17.6
	c-0.5,15.1-14.1,25.8-30.3,28.3c-10.2,1.6-20.1,0.4-29.8-2.6c-0.7-0.2-1.4-0.5-2.1-0.8c-3.1-1.1-4.9-2.9-5.7-5.9
	c-1.3-5.3-3-10.5-4.4-15.6c-0.3-1.1-0.3-2.2-0.1-3.3c0.2-0.7,0.9-1.7,1.7-1.8s2.2,0.1,2.7,0.6c0.9,0.9,1.5,2,1.9,3.2
	c4.2,10.8,13,17,25.4,19.2c8.2,1.5,16,0.1,22.7-4.6c6.9-4.8,9.4-11.9,6.5-18.7c-1.5-3.7-4.2-6.7-8.4-8.2C776,607,770,605,764,603
	c-6.3-2-12.5-4.1-18.2-7.2c-6.4-3.4-11.3-7.9-13.3-14.4c-4.3-14.4,4.4-27.6,21-31.9C758.3,548.5,762.8,548,768.6,548z"/>
<path class="st1" d="M590.7,548c6.8-0.2,13.2,1.2,19.3,3.9c1.5,0.6,2.6,0.6,3.9-0.4c1.9-1.6,4.3-0.9,4.8,1.4
	c0.4,1.5,0.4,3.1,0.6,4.6c0.7,4.5,1.6,9,2.3,13.5c0.1,1,0.1,1.9-0.2,2.8c-0.6,1.8-3.1,2.1-4.4,0.7c-0.7-0.7-1.2-1.5-1.5-2.4
	c-3.6-9.2-11.5-14.1-21.8-16.4c-5.3-1.2-10.7-1.5-16,0.2c-14.2,4.5-13.6,17.8-6.5,24.2c3,2.6,6.6,4.1,10.5,5.4
	c6.8,2.1,13.7,4,20.4,6.4c6.8,2.4,12.9,5.8,17.5,10.9c4.9,5.4,6.4,11.8,5.7,18.6c-1.5,14.3-14.4,23.7-28.6,26.3
	c-11.5,2.1-22.6,0.8-33.4-3c-3.2-1.1-5.1-3.1-5.9-6.2c-1.2-4.9-2.9-9.8-4.2-14.6c-0.4-1.3-0.4-2.8-0.2-4.1c0.1-0.7,1-1.7,1.8-1.8
	c0.8-0.2,2.1,0.3,2.7,0.8c0.8,0.6,1.3,1.7,1.6,2.6c4.2,11.4,13.5,17.8,26.7,19.8c9.9,1.5,18.8-0.9,25.3-8c7.3-7.8,4.5-19.5-6-23.8
	c-6.2-2.5-12.8-4.4-19.2-6.5c-7.2-2.4-14.2-4.8-20.3-9c-8.1-5.4-11-12.7-10.4-21.4c1-12.7,12.4-20.7,24.4-23.1
	c3.6-0.7,7.3-1,10.9-1.4C590.7,547.9,590.7,547.9,590.7,548z"/>
<g>
	<path class="st2" d="M316.8,647.9c0.1-0.1,0.3-0.1,0.4-0.2c1.1-0.7,1.6-1.8,1.6-2.8c-0.1-0.5-0.3-1-0.5-1.4c-0.1,0-0.2,0-0.2-0.1
		c-2.4-1.1-5-1.1-7.5-1.8c-2.7-0.8-4.7-2.1-6-4.4c-1.2-2.1-2.4-4.2-3.3-6.4c-11.8-26.5-23.7-52.8-35.5-79.3
		c-0.5-1.1-0.9-2.4-1.8-3.4c-1.3-1.6-3.4-1.7-4.8-0.2c-0.4,0.4-0.8,1.1-1.1,1.6c-14.3,27.8-28.6,55.5-42.9,83.3
		c-1.2,2.3-2.7,4.4-4.4,6.3c-0.7,0.8-1,0.9-1.8,0c-9.5-9.8-19-19.6-28.5-29.4c-5.6-5.8-11.2-11.8-16.9-17.6c-0.9-1-0.7-1.2,0.4-1.7
		c1.7-0.8,3.4-1.7,5.1-2.5c6.3-3.4,11.8-7.6,15.9-13.1c6.1-8.1,7.4-17,5.8-26.5c-1.5-8.8-6.3-15.8-14.9-20.7
		c-7.5-4.2-15.9-6.1-24.6-7c-10.2-1.1-20.4-0.8-30.6-0.2c-11.7,0.7-23.5,1-35.2,0c-1.1-0.1-2.3-0.1-3.4,0.1c-1.1,0.3-2,0.6-2.1,1.8
		c-0.1,1.1,0.6,1.7,1.6,2.1c0.4,0.2,0.8,0.3,1.3,0.4c1.8,0.3,3.5,0.5,5.3,0.8c5.7,0.6,9.8,3.2,11.9,8c0.8,1.8,1.3,3.9,1.5,5.9
		c0.5,5.1,0.5,10.1,0.5,15.2c0.1,20.7,0.1,41.4,0,62c0,4.7-0.2,9.3-1.1,14c-1.5,7.6-5.2,11.1-13.8,12.7c-0.7,0.2-1.5,0.4-2.1,0.6
		c-0.8,0.4-1.3,1-1.1,1.8c0.2,0.9,0.7,1.5,1.7,1.7c0.6,0.1,1.3,0.2,1.9,0.1c8.9-0.7,17.9-1.1,26.9-1c8.9,0.1,17.8,0.2,26.7,1
		c0.8,0.1,1.7,0,2.5-0.1c1-0.2,1.9-0.5,2-1.5c0.1-1-0.4-1.6-1.3-2c-0.9-0.4-1.8-0.5-2.7-0.6c-4.1-0.4-8.2-1-12-2.5
		c-5.6-2.3-8.9-6-9.3-11.5c-0.2-2.5-0.2-5.2-0.2-7.7c0-7.4,0-14.7,0-22.1c0-2,1.4-3.2,3.7-3.2c5.3,0,10.6,0.1,15.8,0
		c2.5-0.1,4.4,0.7,6.2,2.1c2.9,2.4,5.4,5.1,8,7.8c18.4,19.3,37.4,38.2,57,56.7c5.7,5.4,11.5,10.7,18.6,14.7
		c10.8,6.1,22.4,9.5,35.3,8.5c2-0.2,4.1-0.4,6.2-1.5c-3-0.5-5.5-1.1-8-2.1c-5.9-2.4-11.2-5.6-16.3-9.2
		c-10.6-7.6-19.9-16.3-28.8-25.3c-0.1-0.2-0.2-0.3-0.1-0.5c3.3-0.1,6.7,0.3,10.1,0.4c1.8,0.1,3.6,0.2,5.4,0.1c1.3,0,2.4-0.5,2.6-1.8
		c0.2-1.2-0.4-2.1-1.7-2.6c-0.6-0.3-1.2-0.4-1.8-0.5c-1.7-0.4-3.5-0.8-5.1-1.4c-1.8-0.7-2.8-1.9-2.9-3.7c-0.1-1.1,0-2.1,0.2-3.2
		c0.8-3.3,2.3-6.3,3.9-9.3c2.1-4,4-8.1,6.3-12c0.9-1.5,2-2.3,4-2.3c0.6,0,1.3-0.2,1.9-0.2c10.9,0,21.8,0,32.7,0
		c2.2,0,3.5,0.7,4.3,2.5c2.8,6.5,5.8,12.9,8.2,19.5c0.7,1.8,1.3,3.8,1.3,5.8c0,2.1-0.9,3-3.1,3.5c-1.2,0.3-2.6,0.4-3.7,0.9
		c-1.7,0.8-2.1,2.7-0.8,3.9c0.8,0.8,1.9,0.9,3.1,0.8s2.4-0.4,3.6-0.4c9.6-0.4,19.2-0.4,28.8,0.2
		C315.4,647.9,316.2,647.7,316.8,647.9z"/>
	<path class="st3" d="M119.3,559.5c0-6.5,0-13,0-19.4c0-2.5-0.4-4.9,0.3-7.3c0.9-3.3,2.9-5,7.3-5.4c16-1.1,29.6,2.9,39.4,14.8
		c5.5,6.7,7,14.3,6.3,22.4c-0.5,5.5-2.4,10.7-6.5,15.1c-5,5.4-11.6,8.1-19.3,8.9c-7.3,0.8-14.7,0.4-22.1,0.3c-3.6-0.1-5-1.4-5.2-4.6
		c-0.4-5.6-0.1-11.2-0.1-16.8C119.3,564.7,119.3,562.1,119.3,559.5z"/>
	<path class="st4" d="M257.4,569c0.7,1.5,1.3,2.8,1.9,4c3.8,8.3,7.6,16.7,11.3,25c0.4,1,0.7,1.9,1,2.9c0.2,0.7-0.1,1.1-0.8,1.1
		c-0.7,0.1-1.5,0.2-2.2,0.2c-8.7-0.1-17.4,0.2-26.1-0.1c-1.9-0.1-2.1-0.4-1.4-1.8c5.3-10.3,10.6-20.5,15.9-30.8
		C257,569.6,257.1,569.4,257.4,569z"/>
</g>
</svg>
