<?xml version="1.0" encoding="utf-8"?>
<!-- Generator: Adobe Illustrator 23.0.3, SVG Export Plug-In . SVG Version: 6.00 Build 0)  -->
<svg version="1.1" id="Layer_1" xmlns="http://www.w3.org/2000/svg" xmlns:xlink="http://www.w3.org/1999/xlink" x="0px" y="0px"
	 viewBox="0 0 880 880" style="enable-background:new 0 0 880 880;" xml:space="preserve">
<style type="text/css">
	.st0{fill-rule:evenodd;clip-rule:evenodd;fill:#FFFFFF;}
	.st1{fill-rule:evenodd;clip-rule:evenodd;fill:#2E3192;}
	.st2{fill-rule:evenodd;clip-rule:evenodd;fill:#2F3292;}
	.st3{fill-rule:evenodd;clip-rule:evenodd;fill:#FEFEFE;}
	.st4{fill-rule:evenodd;clip-rule:evenodd;fill:#FDFDFE;}
</style>
<circle class="st0" cx="440.6" cy="440.6" r="439.4"/>
<path class="st1" d="M452,731.2c-1.4-0.5-2.9-0.7-4.3-1c-3.6-0.7-6.8-1.9-7.6-6c-0.2-1.1-0.4-2.3-0.4-3.4
	c-0.2-6.2-0.4-12.3-0.7-18.5c-0.5-12.4-0.9-24.9-1.4-37.3c-0.1-3.2-0.3-6.5-0.2-9.7c0.1-5.7,0.1-11.3,0.5-17c0.3-4.2,2.5-7.2,7-7.9
	c0.7-0.1,1.4-0.3,2-0.5c1.9-0.5,2.8-1.9,2.5-3.7c-0.3-1.6-1.5-2.2-3.6-2.1c-4.7,0.1-9.3,0.3-14,0.2c-4.1-0.1-4.6,0-6.3,3.7
	c-12.8,27.3-25.6,54.6-38.4,81.9c-0.2,0.5-0.5,1-0.8,1.7c-0.3-0.6-0.5-0.9-0.7-1.3c-9.7-20.7-19.4-41.3-29.1-62
	c-3-6.3-5.9-12.6-8.9-18.9c-1.5-3.2-3.9-5-7.7-4.8c-4.4,0.3-8.9,0.3-13.3,0.3c-1.6,0-3.3-0.2-4.9-0.2c-1.6,0-2.6,0.9-2.8,2.2
	c-0.2,1.7,0.4,2.8,2,3.4c0.6,0.2,1.2,0.3,1.9,0.5c5.6,1.2,9.8,4.2,12,9.7c1.5,3.7,2.3,7.7,2.4,11.7c0.1,6,0.2,12,0,18.1
	c-0.5,13-1.1,26-1.8,39c-0.2,4.1-0.6,8.1-1.2,12.2c-0.4,3-1.6,5.9-4.3,7.7c-1.9,1.3-3.8,2-6,1.8c-0.1,0.1-0.2,0.1-0.3,0.2
	c0,0,0,0,0,0c-0.6,0.6-0.8,1.5-1,2.4c-0.1,0.5-0.2,1.1-0.1,1.7c0.2,0.1,0.3,0.4,0.4,0.7c0,0,0,0,0,0c0,0,0.1,0.1,0.1,0.1
	c0.1,0,0.3,0,0.4,0.1c1.7,1,3.4,0.6,5.1,0.5c5.3-0.2,10.6-0.5,15.9-0.5c4.1,0,8.1,0.5,12.2,0.6c1.6,0.1,2.7-0.9,3-2.2
	c0.3-1.5-0.3-2.5-1.9-3.1c-1.3-0.5-2.8-0.8-4.2-1.1c-2.6-0.5-5-1.6-6.2-4c-1-2-2-4.2-2.1-6.3c-0.3-7.1-0.3-14.1-0.1-21.2
	c0.3-9.6,0.8-19.2,1.2-28.8c0.1-2.1,0.2-4.3,0.4-6.4c0.5,0.3,0.7,0.7,0.9,1.1c4.8,10.3,9.6,20.6,14.4,30.8
	c5.5,11.6,11,23.2,16.5,34.8c0.6,1.2,1.4,2.3,2.3,3.3c1.4,1.5,3.2,1.4,4.6-0.1c0.8-0.9,1.5-1.9,2-3c6.5-13.7,12.9-27.5,19.5-41.2
	c4.5-9.5,9.3-18.8,14-28.2c0.3-0.5,0.6-1,1.2-1.8c0.3,7.3,0.6,14.1,0.9,20.9c0.4,11.1,0.9,22.2,1.2,33.3c0.1,3.8-0.2,7.6-0.5,11.3
	c-0.2,2.6-1.9,4.3-4.3,5.2c-0.9,0.4-1.9,0.6-2.8,1c-1.4,0.6-2.2,1.8-2.1,2.9c0.2,1.4,1.2,2.2,2.9,2.2c2.2,0,4.5,0,6.7-0.2
	c6.8-0.4,13.6-0.8,20.4,0c2.4,0.3,4.9,0.2,7.3,0.1c1.2-0.1,2.2-0.7,2.3-2.1C454.2,732.5,453.3,731.6,452,731.2z"/>
<path class="st1" d="M369.3,65.7c8.8,3.9,6.2,20-0.8,25.3c-27.6,21.2-29.6,55.8-18.3,82.3c0.2,0.4,0.5,0.7,1,1.4
	c5-2.5,10.1-4.9,15-7.6c1-0.5,1.6-2.3,1.8-3.6c5.2-34.6,24.6-55.1,59.2-60.5c35.3-5.5,67.4,13.3,78,42.2c2.1,5.8,2.6,12.2,3.9,18.2
	c0.3,1.3,0.8,3.1,1.7,3.6c6.9,3.7,14,7.2,21.9,11.2c0.9-6.1,2.3-11.8,2.6-17.6c1.4-24.6-5.5-46-24.8-62.6
	c-5.7-4.9-6.5-11.9-4.8-18.9c1.2-5,5.8-7,10.1-4c27.2,19.1,47.4,42.8,50.9,77.5c1.5,15.5-1.6,30.5-5.8,45.3
	c-0.4,1.6-0.5,4.1,0.5,5.2c20.6,24.3,19.4,50.2,5.5,76.9c-2.3,4.5-2.1,7.2,0.7,11.3c4.1,6.1,6.9,13.1,10.6,19.6
	c1.5,2.6,3.3,5.2,5.5,7c15.4,12.4,31.2,24.4,46.5,36.9c4.1,3.3,7.3,7.8,10.7,12c3.9,4.7,3.8,10.1,1.8,15.6c-1.9,5.3-6.9,8.4-12,6.2
	c-5.2-2.2-10.3-5.3-14.7-8.9c-9.9-8-20.8-14.1-32.6-20.2c-0.9,7-1.6,13.4-2.5,19.8c-2.3,16.3-6.6,32-12.9,47.2c-0.8,2-0.8,5,0,6.9
	c5.7,13.2,10.2,26.7,10.9,41.2c1.3,26.2-9.5,47.7-26.7,66.4c-4.6,5-9.7,9.6-15,14c-5.7,4.8-11.6,2.3-12.5-5
	c-0.9-6.8,0.7-12.6,6-17.8c14.1-14,19.3-31.4,17.7-50.9c-0.5-5.5-1.7-11-2.6-16.6c-8.5,7.8-15.9,15.5-24.3,22.1
	c-23.5,18.6-50.1,30.2-80,33.3c-14.6,1.5-28.6-2.5-42.3-7.2c-24-8.3-45.1-21.4-62.9-39.5c-1-1-1.8-2.4-3.4-4.5
	c-3.2,10.8-4.5,20.2-3.6,29.9c1.9,19.8,10.9,35.5,26.5,47.6c5.5,4.3,7.7,14.1,4.8,20.4c-1.9,4.1-6.4,5.9-10.5,3.2
	c-28.7-18.9-52.2-41.9-56.3-78.3c-1.9-16.5,2.1-32.4,9.1-47.2c3.8-8.1,3.7-14.6,0.2-22.8c-4.4-10.4-6.6-21.8-9.7-32.8
	c-0.4-1.5-0.7-3.1-1.2-5.1c-6.8,5.1-13.1,10.1-19.7,14.6c-7.1,4.9-14.3,9.6-21.8,13.8c-6.6,3.7-8.7,2.9-12.8-3.2c0-2.1,0-4.2,0-6.3
	c4.4-8,7.9-16.7,13.4-23.9c11.4-15.1,23.8-29.3,35.7-44c1.5-1.8,2.7-4.2,3.1-6.5c2.6-14.6,7.6-28.3,17.1-39.7c4.4-5.2,4.6-9,2-15.2
	c-10.3-24.7-9.1-48.5,8.3-70c3-3.8,3.6-6.4,1.5-10.9c-6.6-14-10.4-28.8-10.1-44.4c0.5-19.3,8.3-35.9,20.2-50.8
	c10-12.6,22.4-22.5,35.5-31.5C366.3,65.7,367.8,65.7,369.3,65.7z M437.9,176.2c-7,0.8-15.6,1.3-24,2.9c-24.8,4.5-47.7,13.6-67,30.3
	c-9,7.8-16.5,16.9-18.2,29.2c-1.5,10.7,1.4,20.8,6.3,30.1c18.2,34.6,46.8,57,83.5,69.6c14.9,5.1,29.7,4.3,44.5-1.4
	c20.8-8.1,39.1-20.1,55.4-35.2c11.3-10.5,21.1-22.2,27.7-36.3c4.6-9.7,7.7-19.8,4.8-30.6c-2.5-9.2-8.3-16.5-15.4-22.6
	C507.8,188.5,475.3,178.2,437.9,176.2z M326.2,304.7c-6.5,8.9-10.8,19.1-11.5,30.5c-1.1,16.5,0.2,33,3.6,49.2
	c10.4,49.3,38,84.4,85.7,102.5c6.2,2.3,12.6,4,19.8,6.2c0-2.9,0-4.6,0-6.3c0-27.7-0.7-55.4,0.3-83c0.5-13.3-4-23.3-12.7-32.2
	c-2.4-2.5-4.5-5.2-7.2-7.3c-4.4-3.4-9-6.6-13.7-9.6c-12-7.7-24.7-14.4-35.9-23.1C344.4,323.7,335.7,313.9,326.2,304.7z M449.3,492.2
	c1.1,0,1.5,0,2,0c0.6-0.1,1.2-0.1,1.8-0.3c28.6-7.3,53.3-21.2,72.2-44.1c26.5-32.1,34.1-70.2,33.3-110.6
	c-0.2-10.6-3.8-20.5-10.2-29.7c-0.9,0.9-1.6,1.4-2.2,2.1c-19.9,21.7-43.4,38.3-70.7,49.5c-1.3,0.6-2.8,1.3-3.7,2.3
	c-6.8,8-13.6,16-19.9,24.4c-1.7,2.3-2.4,5.8-2.4,8.7c-0.2,30.8-0.1,61.6-0.1,92.4C449.3,488.6,449.3,490.2,449.3,492.2z M482,157.1
	c-3.9-18-26.4-31.8-47.4-29.6c-20,2-38.8,16.1-39,29.6C424.2,149.6,452.9,149.3,482,157.1z"/>
<path class="st1" d="M664.6,654.9c0,5.3,0,10.7,0,16c0,3.6,0.1,3.7,3.7,3.7c6.8-0.1,13.7-0.1,20.5-0.4c2.5-0.1,5.1-0.8,7.6-1.4
	c1.5-0.3,2.4-1.3,2.8-2.8c0.4-1.4,0.7-2.8,1.1-4.2c0.3-1.4,0.9-2.6,2.4-2.9c2.2-0.5,3.7,0.9,3.6,3.4c-0.1,2.8-0.5,5.7-0.5,8.5
	c0,5.6,0.1,11.1,0.2,16.7c0,0.8,0.1,1.6,0.1,2.4c0,1.7-0.9,2.7-2.4,2.9c-1.6,0.2-3-0.7-3.4-2.3c-0.3-1.2-0.5-2.5-0.9-3.8
	c-1.2-4.6-3.2-6.5-7.9-6.7c-7.7-0.3-15.3-0.2-23-0.3c-0.5,0-1.1,0.1-1.6,0.2c-1.9,0.3-2.3,0.7-2.3,2.6c0,10.8,0,21.6,0.1,32.4
	c0,1.4,0.3,2.9,0.6,4.3c0.3,1.7,1.4,2.8,3.1,3c3.5,0.3,6.9,0.9,10.4,0.8c5.5-0.2,11-0.7,16.5-1.4c5.2-0.7,10.3-2.4,14.8-5.2
	c2.7-1.7,5.1-3.8,6.9-6.5c0.4-0.5,0.8-1,1.2-1.5c0.8-0.8,1.9-1.2,2.8-0.5c0.7,0.5,1.5,1.6,1.4,2.3c-0.1,1.9-0.3,3.9-1,5.7
	c-2,4.9-5.2,9-9.5,12.3c-4.9,3.8-10.6,4.9-16.6,4.4c-7.2-0.5-14.3-1.2-21.5-1.4c-7.6-0.2-15.1,0-22.7,0.2c-2.4,0.1-4.8,0.7-7.2,1
	c-0.8,0.1-1.6,0-2.4-0.1c-1.3-0.2-2.2-0.9-2.4-2.3c-0.2-1.4,0.5-2.4,1.7-3c0.9-0.4,1.9-0.7,2.8-0.9c3.7-0.7,5.6-3.1,5.9-6.7
	c0.3-3.1,0.4-6.2,0.4-9.2c0-22.2,0.1-44.4,0-66.5c0-3.9-0.5-7.8-1.2-11.5c-0.7-3.8-3.2-5.6-7-6c-1.1-0.1-2.2-0.2-3.3-0.2
	c-1.7-0.1-2.7-0.9-2.9-2.2c-0.2-1.6,0.6-3,2.3-3.4c1.6-0.3,3.4-0.5,5-0.3c14,1.7,28,1.7,42.1,1.4c7.1-0.1,14.1-0.6,21.2-0.9
	c1.7-0.1,3.4-0.4,5-0.3c2,0.1,3.2,1.6,3,3.6c-0.5,5.7-1.1,11.5-1.8,17.2c-0.1,1.4-0.6,2.6-2.1,3.2c-1.9,0.7-3.6-0.3-3.8-2.3
	c-0.1-0.8-0.1-1.7-0.1-2.5c0-5.8-2.5-8.7-8.3-9.3c-3.6-0.4-7.2-0.6-10.9-0.7c-6.1-0.1-12.3-0.1-18.4,0.1c-3.3,0.1-3.8,0.6-4.2,3.9
	c-0.1,0.5-0.1,1.1-0.1,1.6C664.6,644.3,664.6,649.6,664.6,654.9z"/>
<path class="st1" d="M488.1,654.9c0,5.7,0,11.4,0,17c0,2.4,0.2,2.7,2.7,2.6c7.2-0.1,14.4-0.1,21.7-0.3c2.2-0.1,4.3-0.7,6.5-1.1
	c2.2-0.4,3.5-1.8,4-3.9c0.3-1.3,0.6-2.5,0.9-3.8c0.5-1.9,1.7-2.8,3.5-2.5c1.5,0.2,2.5,1.3,2.4,3.2c-0.2,3.8-0.6,7.6-0.6,11.3
	c0,5.3,0.3,10.5,0.5,15.8c0.1,2.7-1.7,4.3-4,3.3c-0.8-0.4-1.5-1.5-1.9-2.4c-0.4-1-0.5-2.1-0.7-3.2c-1-4.6-3.2-6.6-7.9-6.9
	c-5.1-0.3-10.2-0.3-15.2-0.3c-3.1,0-6.3,0-9.4,0.2c-1.9,0.1-2.3,0.7-2.3,2.6c0,11.1,0,22.1,0.1,33.2c0,5,1.1,6.4,6,6.8
	c4.8,0.4,9.6,0.4,14.5,0.2c6.4-0.2,12.7-1.2,18.7-3.4c5.5-2,10.2-4.9,13.4-10c0.3-0.4,0.6-0.8,1-1.1c1.6-1.3,3.9-0.7,4.1,1.4
	c0.2,1.7,0.1,3.6-0.5,5.1c-3.8,9.1-9.8,16-20.1,17.6c-3.1,0.5-6.3,0.2-9.4,0.1c-8.5-0.4-16.9-1-25.3-1.4c-7.7-0.4-15.4,0.1-23.1,1.4
	c-0.8,0.1-1.7,0-2.5-0.1c-1.3-0.2-2-0.9-2.3-2.2c-0.2-1.3,0.3-2.3,1.4-2.9c1-0.5,2-0.8,3.1-1.1c4.1-1.2,5.8-3.2,6.1-7.4
	c0.2-2.8,0.3-5.7,0.3-8.5c0-22.2,0.1-44.4,0-66.5c0-3.8-0.5-7.7-1.2-11.4c-0.8-4-3.2-5.8-7.4-6.2c-1-0.1-2.1-0.2-3.1-0.2
	c-1.6-0.1-2.7-1-2.9-2.3c-0.2-1.3,0.7-2.9,2.1-3.2c1.8-0.3,3.7-0.5,5.5-0.3c15.1,1.8,30.3,1.6,45.5,1.3c5.7-0.1,11.4-0.5,17.2-0.8
	c1.2-0.1,2.5-0.3,3.7-0.4c3.2-0.4,4.8,1.1,4.5,4.2c-0.5,5.3-1,10.6-1.5,15.9c-0.1,0.8-0.3,1.7-0.6,2.4c-0.6,1.4-1.8,1.8-3.2,1.7
	c-1.3-0.1-2-1-2.1-2.1c-0.2-1.1-0.2-2.2-0.2-3.3c0-5.1-2-7.8-7-8.7c-3.4-0.6-6.8-0.8-10.2-0.9c-6.8-0.1-13.6-0.1-20.3,0
	c-3.3,0-4.1,1-4.1,4.3C488,643.5,488.1,649.2,488.1,654.9z"/>
<path class="st1" d="M768.6,623.1c5.5-0.2,11.8,1.4,17.9,4.4c1.6,0.8,2.8,0.7,4.1-0.6c1.7-1.6,4.1-0.9,4.6,1.4
	c0.5,2.2,0.6,4.5,0.9,6.8c0.6,4.4,1.3,8.8,2,13.1c0.2,1.1,0.2,2.3,0.1,3.4c-0.1,1.2-0.8,2.1-2,2.4c-1.2,0.3-2.2,0-2.9-1.1
	c-0.5-0.7-1-1.5-1.3-2.4c-3.3-9.9-10.6-15.4-20.1-18.4c-5.4-1.7-10.9-2.3-16.3-0.7c-6.3,1.8-11.1,5.6-12.4,12.4
	c-1.5,7.6,1.3,13.7,7.5,18c2.5,1.7,5.5,2.8,8.3,3.9c6.2,2.3,12.6,4.3,18.8,6.7c6.7,2.6,12.9,6.3,17.6,12c4.8,5.8,6.7,12.5,6.4,20
	c-0.5,17.2-14.1,29.4-30.3,32.2c-10.2,1.8-20.1,0.4-29.8-3c-0.7-0.2-1.4-0.6-2.1-0.9c-3.1-1.2-4.9-3.3-5.7-6.7
	c-1.3-6-3-11.9-4.4-17.8c-0.3-1.2-0.3-2.5-0.1-3.7c0.2-0.8,0.9-1.9,1.7-2.1c0.8-0.2,2.2,0.1,2.7,0.7c0.9,1,1.5,2.3,1.9,3.6
	c4.2,12.3,13,19.3,25.4,21.8c8.2,1.7,16,0.1,22.7-5.2c6.9-5.5,9.4-13.5,6.5-21.3c-1.5-4.2-4.2-7.6-8.4-9.3c-5.9-2.5-11.9-4.8-17.9-7
	c-6.3-2.3-12.5-4.7-18.2-8.2c-6.4-3.9-11.3-9-13.3-16.4c-4.3-16.4,4.4-31.4,21-36.3C758.3,623.6,762.8,623.1,768.6,623.1z"/>
<path class="st1" d="M590.7,623.1c6.8-0.2,13.2,1.4,19.3,4.4c1.5,0.7,2.6,0.7,3.9-0.5c1.9-1.8,4.3-1,4.8,1.6
	c0.4,1.7,0.4,3.5,0.6,5.2c0.7,5.1,1.6,10.2,2.3,15.4c0.1,1.1,0.1,2.2-0.2,3.2c-0.6,2-3.1,2.4-4.4,0.8c-0.7-0.8-1.2-1.7-1.5-2.7
	c-3.6-10.5-11.5-16-21.8-18.7c-5.3-1.4-10.7-1.7-16,0.2c-14.2,5.1-13.6,20.2-6.5,27.5c3,3,6.6,4.7,10.5,6.1
	c6.8,2.4,13.7,4.6,20.4,7.3c6.8,2.7,12.9,6.6,17.5,12.4c4.9,6.2,6.4,13.4,5.7,21.2c-1.5,16.3-14.4,27-28.6,29.9
	c-11.5,2.4-22.6,0.9-33.4-3.4c-3.2-1.3-5.1-3.5-5.9-7.1c-1.2-5.6-2.9-11.1-4.2-16.6c-0.4-1.5-0.4-3.2-0.2-4.7c0.1-0.8,1-1.9,1.8-2
	c0.8-0.2,2.1,0.3,2.7,0.9c0.8,0.7,1.3,1.9,1.6,3c4.2,13,13.5,20.3,26.7,22.5c9.9,1.7,18.8-1,25.3-9.1c7.3-8.9,4.5-22.2-6-27.1
	c-6.2-2.9-12.8-5-19.2-7.4c-7.2-2.7-14.2-5.5-20.3-10.2c-8.1-6.2-11-14.5-10.4-24.4c1-14.5,12.4-23.6,24.4-26.3
	c3.6-0.8,7.3-1.1,10.9-1.6C590.7,622.9,590.7,623,590.7,623.1z"/>
<g>
	<path class="st2" d="M316.8,736.7c0.1-0.1,0.3-0.1,0.4-0.2c1.1-0.8,1.6-2,1.6-3.2c-0.1-0.6-0.3-1.1-0.5-1.6c-0.1,0-0.2,0-0.2-0.1
		c-2.4-1.2-5-1.2-7.5-2c-2.7-0.9-4.7-2.4-6-5c-1.2-2.4-2.4-4.8-3.3-7.3c-11.8-30.1-23.7-60.1-35.5-90.2c-0.5-1.3-0.9-2.7-1.8-3.9
		c-1.3-1.8-3.4-1.9-4.8-0.2c-0.4,0.5-0.8,1.2-1.1,1.8c-14.3,31.6-28.6,63.2-42.9,94.8c-1.2,2.6-2.7,5-4.4,7.2c-0.7,0.9-1,1-1.8,0
		c-9.5-11.2-19-22.3-28.5-33.5c-5.6-6.6-11.2-13.4-16.9-20c-0.9-1.1-0.7-1.4,0.4-1.9c1.7-0.9,3.4-1.9,5.1-2.9
		c6.3-3.9,11.8-8.7,15.9-14.9c6.1-9.2,7.4-19.4,5.8-30.1c-1.5-10-6.3-18-14.9-23.6c-7.5-4.8-15.9-6.9-24.6-8
		c-10.2-1.3-20.4-0.9-30.6-0.2c-11.7,0.8-23.5,1.1-35.2,0c-1.1-0.1-2.3-0.1-3.4,0.1c-1.1,0.3-2,0.7-2.1,2c-0.1,1.2,0.6,1.9,1.6,2.4
		c0.4,0.2,0.8,0.3,1.3,0.4c1.8,0.3,3.5,0.6,5.3,0.9c5.7,0.7,9.8,3.6,11.9,9.1c0.8,2.1,1.3,4.4,1.5,6.7c0.5,5.8,0.5,11.5,0.5,17.3
		c0.1,23.5,0.1,47.1,0,70.6c0,5.3-0.2,10.6-1.1,15.9c-1.5,8.6-5.2,12.6-13.8,14.5c-0.7,0.2-1.5,0.4-2.1,0.7
		c-0.8,0.4-1.3,1.1-1.1,2.1c0.2,1,0.7,1.7,1.7,1.9c0.6,0.1,1.3,0.2,1.9,0.1c8.9-0.8,17.9-1.2,26.9-1.1c8.9,0.1,17.8,0.2,26.7,1.1
		c0.8,0.1,1.7,0,2.5-0.1c1-0.2,1.9-0.6,2-1.7c0.1-1.1-0.4-1.8-1.3-2.3c-0.9-0.4-1.8-0.6-2.7-0.7c-4.1-0.5-8.2-1.1-12-2.8
		c-5.6-2.6-8.9-6.8-9.3-13.1c-0.2-2.9-0.2-5.9-0.2-8.8c0-8.4,0-16.7,0-25.1c0-2.3,1.4-3.6,3.7-3.6c5.3,0,10.6,0.1,15.8,0
		c2.5-0.1,4.4,0.8,6.2,2.4c2.9,2.7,5.4,5.8,8,8.9c18.4,22,37.4,43.5,57,64.5c5.7,6.1,11.5,12.2,18.6,16.7
		c10.8,6.9,22.4,10.8,35.3,9.7c2-0.2,4.1-0.4,6.2-1.7c-3-0.6-5.5-1.3-8-2.4c-5.9-2.7-11.2-6.4-16.3-10.5
		c-10.6-8.6-19.9-18.5-28.8-28.8c-0.1-0.2-0.2-0.3-0.1-0.6c3.3-0.1,6.7,0.3,10.1,0.4c1.8,0.1,3.6,0.2,5.4,0.1c1.3,0,2.4-0.6,2.6-2
		c0.2-1.4-0.4-2.4-1.7-3c-0.6-0.3-1.2-0.4-1.8-0.6c-1.7-0.4-3.5-0.9-5.1-1.6c-1.8-0.8-2.8-2.2-2.9-4.2c-0.1-1.2,0-2.4,0.2-3.6
		c0.8-3.7,2.3-7.2,3.9-10.6c2.1-4.6,4-9.2,6.3-13.7c0.9-1.7,2-2.6,4-2.6c0.6,0,1.3-0.2,1.9-0.2c10.9,0,21.8,0,32.7,0
		c2.2,0,3.5,0.8,4.3,2.9c2.8,7.4,5.8,14.7,8.2,22.2c0.7,2.1,1.3,4.3,1.3,6.6c0,2.4-0.9,3.4-3.1,4c-1.2,0.3-2.6,0.4-3.7,1
		c-1.7,0.9-2.1,3.1-0.8,4.4c0.8,0.9,1.9,1,3.1,0.9c1.2-0.1,2.4-0.4,3.6-0.4c9.6-0.5,19.2-0.5,28.8,0.2
		C315.4,736.7,316.2,736.5,316.8,736.7z"/>
	<path class="st3" d="M119.3,636.1c0-7.4,0-14.8,0-22.1c0-2.8-0.4-5.6,0.3-8.3c0.9-3.8,2.9-5.7,7.3-6.1c16-1.3,29.6,3.3,39.4,16.8
		c5.5,7.6,7,16.3,6.3,25.5c-0.5,6.3-2.4,12.2-6.5,17.2c-5,6.1-11.6,9.2-19.3,10.1c-7.3,0.9-14.7,0.5-22.1,0.3
		c-3.6-0.1-5-1.6-5.2-5.2c-0.4-6.4-0.1-12.8-0.1-19.1C119.3,642.1,119.3,639.1,119.3,636.1z"/>
	<path class="st4" d="M257.4,647c0.7,1.7,1.3,3.2,1.9,4.6c3.8,9.5,7.6,19,11.3,28.5c0.4,1.1,0.7,2.2,1,3.3c0.2,0.8-0.1,1.2-0.8,1.2
		c-0.7,0.1-1.5,0.2-2.2,0.2c-8.7-0.1-17.4,0.2-26.1-0.1c-1.9-0.1-2.1-0.4-1.4-2c5.3-11.7,10.6-23.3,15.9-35
		C257,647.6,257.1,647.4,257.4,647z"/>
</g>
</svg>
