<?xml version="1.0" encoding="utf-8"?>
<!-- Generator: Adobe Illustrator 23.0.3, SVG Export Plug-In . SVG Version: 6.00 Build 0)  -->
<svg version="1.1" id="Layer_1" xmlns="http://www.w3.org/2000/svg" xmlns:xlink="http://www.w3.org/1999/xlink" x="0px" y="0px"
	 viewBox="0 0 473 274" style="enable-background:new 0 0 473 274;" xml:space="preserve">
<style type="text/css">
	.st0{fill-rule:evenodd;clip-rule:evenodd;}
	.st1{fill-rule:evenodd;clip-rule:evenodd;fill:#E6B9A2;}
	.st2{fill-rule:evenodd;clip-rule:evenodd;fill:#303F9F;}
	.st3{fill-rule:evenodd;clip-rule:evenodd;fill:#FFCEB4;}
	.st4{fill-rule:evenodd;clip-rule:evenodd;fill:#CFA792;}
	.st5{fill-rule:evenodd;clip-rule:evenodd;fill:#37474F;}
	.st6{fill-rule:evenodd;clip-rule:evenodd;fill:#2962FF;}
	.st7{fill-rule:evenodd;clip-rule:evenodd;fill:#FFFFFF;}
</style>
<path class="st0" d="M104.8,173.7l33.6-2.2c0,0,18.3,24.2,78.8,2.2c0,0,15.7-120.7-16.8-150.3c0,0-9.2-7.2-17.7-5.9
	c-8.5,1.3,0.5-0.1,0.5-0.1s-35.9-23.6-62.5,6C90.7,49.6,88.7,138.9,104.8,173.7z"/>
<rect x="131.8" y="117.6" class="st1" width="59.2" height="90.5"/>
<path class="st2" d="M62.6,207.1L62.6,207.1c-1,23.6-2.6,31.7-2.6,55.4h160c2.1-30.2,17-30.2,41.8-39.2V207h-0.5
	c-0.7-12.9-16.2-23.1-16.2-23.1l-53.8-35.3c-31.2,47.4-23.1,45.4-59.7,0.6l-52.9,34.7C78.8,183.9,63.2,194.1,62.6,207.1L62.6,207.1z
	"/>
<path class="st3" d="M113.3,89.4c0,31,19.9,56.2,44.5,56.2c24.6,0,44.5-25.2,44.5-56.2c0-31-19.9-56.2-44.5-56.2
	C133.3,33.2,113.3,58.4,113.3,89.4z"/>
<path class="st0" d="M204.7,73.7c0,0-27.6,2.5-41.4-10c0,0,4.2,7.3,11,12.5c0,0-19.3-5-27.6-25c0,0-14.9,16.6-31.4,21.6L111,53.7
	l30.3-27.5l53.8,3.9l6.8,23.7L204.7,73.7z"/>
<g>
	<rect x="280.9" y="126.3" class="st4" width="65" height="67.4"/>
	<path class="st5" d="M313.3,262.9h-98.6c-5.8-71.1,11.2-94.2,61.2-100.2c10.9-1.3,23.3,26.6,37.3,26.6c14.5,0,27.2-27.9,38.3-26.5
		c49.3,6.2,66.1,29.4,60.3,100.1H313.3z"/>
	<polygon class="st6" points="312.9,178.5 312.9,178.8 298,186.4 296.6,187.6 296.1,192.4 298,195.8 301.5,198.9 305,202 298,236.5 
		305,261.6 311.1,261.6 321.6,261.6 328.5,236.5 321.6,202 325.1,198.9 328.5,195.8 330.4,192.4 329.9,187.6 328.5,186.4 
		313.6,178.8 313.6,178.5 313.3,178.7 	"/>
	<polygon class="st7" points="273.4,160.9 288.7,196.4 313.3,178.6 279.5,150.3 	"/>
	<polygon class="st7" points="353.2,160.9 337.8,196.4 313.3,178.6 347,150.3 	"/>
	<path class="st1" d="M314.4,142.6c28.9,0,52.5-29,52.5-64.5s-23.6-64.5-52.5-64.5c-28.9,0-52.5,29-52.5,64.5
		S285.5,142.6,314.4,142.6z"/>
	<path class="st0" d="M272.7,97.8l-10.8-18.5l-2-31.7C256.4-10.7,398-7.1,366.4,87.8l-8.9,9.5l-1.5-19.1c0,0-5.3-23-24.8-18.4
		C285.3,70.8,263.5,32.3,272.7,97.8z"/>
</g>
</svg>
