<?xml version="1.0" encoding="utf-8"?>
<!-- Generator: Adobe Illustrator 18.1.1, SVG Export Plug-In . SVG Version: 6.00 Build 0)  -->
<svg version="1.1" id="Layer_1" xmlns="http://www.w3.org/2000/svg" xmlns:xlink="http://www.w3.org/1999/xlink" x="0px" y="0px"
	 viewBox="216 0 282 187" enable-background="new 216 0 282 187" xml:space="preserve">
<g>
	<path fill="#FFFFFF" d="M357.5,43.3c7.1,6.1,14.1,12.3,21.2,18.2c19,16,38,31.9,57.1,47.7c1.3,1.1,1.9,2.2,1.9,3.7
		c0,21.7,0,43.3,0,65c0,3.9-0.9,4.7-5.6,4.7c-16.5,0-32.8,0-49.2,0c-0.8,0-1.5-0.1-2.7-0.1c0-20.7,0-41.3,0-61.9
		c-13.9,0-27.3,0-41.2,0c0,20.7,0,41.3,0,62.1c-3.2,0-6.1,0-9,0c-16.1,0-32.3,0-48.4,0c-4.2,0-5.4-0.9-5.4-4.5c0-21.9,0-43.8,0-65.7
		c0-0.9,0.5-2.1,1.3-2.7c26.1-22,52.4-43.8,78.6-65.7C356.5,44,356.7,43.9,357.5,43.3z"/>
	<path fill="#FFFFFF" d="M356.7,29.8c-0.8,0.9-1.3,1.7-2,2.2c-26.3,22.1-52.5,44.1-78.8,66.2c-3.5,2.9-7.5,4.1-12,2.6
		c-7.5-2.3-9.3-10-3.5-15c9-7.6,17.7-15.4,27.2-22.6c5.1-3.9,7.4-8,6.9-13.9c-0.6-7.4-0.1-15-0.1-22.5c0-4.4,3.5-7.6,8.3-7.6
		c5.1,0,8.6,2.9,8.8,7.4c0.1,5.3,0,10.6,0,15.6c14.9-12.5,30-25.2,45-37.8c1.3,0.9,1.9,1.4,2.5,1.9c31.5,26.5,63,52.9,94.5,79.5
		c6.2,5.2,4.1,13.3-4.1,15.4c-4.2,1.1-7.8,0.1-11-2.5c-15.9-13.3-31.7-26.7-47.6-40C379.7,49.2,368.5,39.7,356.7,29.8z"/>
</g>
</svg>
