<?xml version="1.0" encoding="utf-8"?>
<!-- Generator: Adobe Illustrator 23.0.3, SVG Export Plug-In . SVG Version: 6.00 Build 0)  -->
<svg version="1.1" id="Layer_1" xmlns="http://www.w3.org/2000/svg" xmlns:xlink="http://www.w3.org/1999/xlink" x="0px" y="0px"
	 viewBox="0 0 450 400" style="enable-background:new 0 0 450 400;" xml:space="preserve">
<style type="text/css">
	.st0{fill:#009444;}
	.st1{fill:none;stroke:#009444;stroke-width:7.9451;stroke-miterlimit:10;}
	.st2{fill:#FFFFFF;}
</style>
<ellipse class="st0" cx="224.7" cy="200.7" rx="178.8" ry="158.9"/>
<ellipse class="st1" cx="224.7" cy="200.7" rx="218.6" ry="194.4"/>
<g>
	<path class="st2" d="M225.1,140.2c6.1,6.2,12.1,12.5,18.2,18.6c16.3,16.3,32.6,32.5,48.9,48.7c1.1,1.1,1.6,2.2,1.6,3.8
		c0,22.1,0,44.2,0,66.3c0,4-0.8,4.8-4.8,4.8c-14.1,0-28.1,0-42.2,0c-0.7,0-1.3-0.1-2.3-0.1c0-21.1,0-42.1,0-63.2
		c-11.9,0-23.4,0-35.3,0c0,21.1,0,42.1,0,63.4c-2.7,0-5.2,0-7.7,0c-13.8,0-27.7,0-41.5,0c-3.6,0-4.6-0.9-4.6-4.6c0-22.3,0-44.7,0-67
		c0-0.9,0.4-2.1,1.1-2.8c22.4-22.4,44.9-44.7,67.4-67C224.2,140.9,224.4,140.8,225.1,140.2z"/>
	<path class="st2" d="M224.4,126.4c-0.7,0.9-1.1,1.7-1.7,2.2c-22.5,22.5-45,45-67.5,67.5c-3,3-6.4,4.2-10.3,2.7
		c-6.4-2.3-8-10.2-3-15.3c7.7-7.8,15.2-15.7,23.3-23.1c4.4-4,6.3-8.2,5.9-14.2c-0.5-7.6-0.1-15.3-0.1-23c0-4.5,3-7.8,7.1-7.8
		c4.4,0,7.4,3,7.5,7.6c0.1,5.4,0,10.8,0,15.9c12.8-12.8,25.7-25.7,38.6-38.6c1.1,0.9,1.6,1.4,2.1,1.9c27,27,54,54,81,81.1
		c5.3,5.3,3.5,13.6-3.5,15.7c-3.6,1.1-6.7,0.1-9.4-2.6c-13.6-13.6-27.2-27.2-40.8-40.8C244.1,146.2,234.5,136.5,224.4,126.4z"/>
</g>
</svg>
