<?xml version="1.0" encoding="utf-8"?>
<!-- Generator: Adobe Illustrator 18.1.1, SVG Export Plug-In . SVG Version: 6.00 Build 0)  -->
<svg version="1.1" id="Layer_1" xmlns="http://www.w3.org/2000/svg" xmlns:xlink="http://www.w3.org/1999/xlink" x="0px" y="0px"
	 viewBox="0 0 259 234" enable-background="new 0 0 259 234" xml:space="preserve">
<path fill="#6B6B6B" d="M191,155.8c-5.3,4.7-10.1,8.9-15.1,13.4c-11-9.9-22.2-19.9-33.3-29.8c-29.2,10.6-52.5,5.9-66.1-13.2
	c-12.4-17.3-9.1-39.8,7.9-53.8c16.5-13.6,42.2-14.7,60.7-2.7c17,11,25.9,34,11.6,56.8c5.6,4.8,11.4,9.7,17.2,14.6
	C179.7,146.1,185.5,151,191,155.8z M90.2,103.2c-0.1,13.1,11.5,23.6,26.1,23.8c14.6,0.1,26.6-10.3,26.8-23.2
	c0.2-13-11.6-23.6-26.2-23.7C102.1,80,90.3,90.2,90.2,103.2z"/>
<path fill="#6B6B6B" d="M79.3,24c0,6.3,0,11.9,0,18.2c-10.4,0-20.6,0-31.5,0c0,9.7,0,18.8,0,28.1c-7.2,0-13.7,0-20.7,0
	c0-11.8-0.4-23.4,0.2-35c0.3-5.7,7.4-11.2,13.9-11.3C53.7,23.8,66.3,24,79.3,24z"/>
<path fill="#6B6B6B" d="M238,70.3c-7.2,0-13.7,0-20.7,0c0-9.2,0-18.2,0-27.8c-10.7,0-21,0-31.5,0c0-6.4,0-12.1,0-18.4
	c13.3,0,26.6-0.4,39.8,0.2c6.3,0.3,12.2,6.5,12.3,12.1C238.2,47.5,238,58.7,238,70.3z"/>
<path fill="#6B6B6B" d="M27,164.7c6.8,0,13.3,0,20.6,0c0,9.1,0,18.2,0,27.9c11,0,21.2,0,31.7,0c0,6.4,0,12.2,0,18.3
	c-13.3,0-26.4,0.3-39.5-0.1c-6.2-0.2-12.5-6.3-12.7-11.8C26.7,187.7,27,176.3,27,164.7z"/>
<path fill="#6B6B6B" d="M185.7,211.1c0-6.3,0-12.1,0-18.3c10.4,0,20.5,0,31.3,0c0-9.5,0-18.6,0-28c7.4,0,14,0,21,0
	c0,11.5,0.3,22.9-0.1,34.2c-0.2,6.2-7.3,11.9-14.3,12C211.2,211.2,198.8,211.1,185.7,211.1z"/>
</svg>
