<?xml version="1.0" encoding="utf-8"?>
<!-- Generator: Adobe Illustrator 23.0.3, SVG Export Plug-In . SVG Version: 6.00 Build 0)  -->
<svg version="1.1" id="Layer_1" xmlns="http://www.w3.org/2000/svg" xmlns:xlink="http://www.w3.org/1999/xlink" x="0px" y="0px"
	 viewBox="0 0 266 234" style="enable-background:new 0 0 266 234;" xml:space="preserve">
<style type="text/css">
	.st0{fill:#6B6B6B;}
</style>
<path class="st0" d="M0,155c7.2,0,14.5,0,22.5,0c0,9.8,0.7,19.3-0.1,28.6c-1.3,15.3,12.4,27.8,31.8,26.7c7.4-0.4,14.9-0.1,22.7-0.1
	c0,6.5,0,12.6,0,18.7c-10.6,0-21.3,0-31.9,0c-0.9-0.3-1.8-0.7-2.7-0.8c-14.7-2-26.4-8.1-33.7-18.9c-4.1-6.1-5.8-13.5-8.5-20.3
	C0,177.7,0,166.3,0,155z"/>
<path class="st0" d="M76.8,4c0,6.1,0,12.2,0,18.8c-8.3,0-16.3,0-24.3,0c-18.8,0.1-30,9.5-30,25.4c0,8.6,0,17.2,0,26.8
	C14.7,74.6,7.3,74.3,0,74c0-10,0-20,0-30c0.4-0.9,0.8-1.9,0.9-2.8c1.4-10.3,7-18.8,15.7-26C24.3,9,33.9,6.3,43.7,4
	C54.7,4,65.8,4,76.8,4z"/>
<path class="st0" d="M198.5,229c0-6,0-11.9,0-18.7c4.6,0,9.2-0.2,13.8,0c20,1.1,32.4-12.6,31.2-26.2c-0.8-9.4-0.1-18.9-0.1-29.1
	c7.7,0,15.1,0,22.5,0c0,11,0,22,0,33c-0.4,1.1-0.8,2.2-0.9,3.4c-1.3,10.7-7,19.5-16.2,26.8c-7.6,6-16.9,8.6-26.6,10.8
	C214.2,229,206.4,229,198.5,229z"/>
<path class="st0" d="M265.9,75c-7.2,0-14.4,0-22.3,0c0-9.2-0.6-17.7,0.1-26.1c1.2-14.2-11.7-27.3-31.2-26.3c-4.5,0.2-9,0-13.8,0
	c0-6.5,0-12.6,0-18.7c7.9,0,15.7,0,23.6,0c0.1,0.1,0.2,0.3,0.4,0.4c24.1,4.3,38.8,16.4,42.7,37.3c0.1,0.5,0.5,0.9,0.7,1.4
	C265.9,53.7,265.9,64.3,265.9,75z"/>
<path class="st0" d="M58.5,53.2c17.8,0,35.6,0,53.5,0c0,15.2,0,30.3,0,45.6c-17.8,0-35.5,0-53.5,0C58.5,83.8,58.5,68.8,58.5,53.2z
	 M98.9,87.8c0-8.2,0-15.8,0-23.4c-9.5,0-18.3,0-27.3,0c0,8,0,15.7,0,23.4C80.9,87.8,89.7,87.8,98.9,87.8z"/>
<path class="st0" d="M207.7,53.3c0,15.3,0,30.1,0,45.3c-17.8,0-35.6,0-53.8,0c0-14.9,0-29.9,0-45.3
	C171.7,53.3,189.4,53.3,207.7,53.3z M166.7,87.5c9.7,0,18.8,0,27.8,0c0-8,0-15.5,0-23.1c-9.5,0-18.6,0-27.8,0
	C166.7,72.3,166.7,79.7,166.7,87.5z"/>
<path class="st0" d="M111.8,179.5c-17.7,0-35.5,0-53.5,0c0-15,0-30.1,0-45.3c17.7,0,35.5,0,53.5,0
	C111.8,149.2,111.8,164.2,111.8,179.5z M71.5,145.2c0,8.2,0,15.7,0,23.2c9.5,0,18.4,0,27.4,0c0-7.9,0-15.5,0-23.2
	C89.5,145.2,80.6,145.2,71.5,145.2z"/>
<path class="st0" d="M139.3,110c4.5,0.3,9,0.6,13.9,0.9c0,3.4,0,6.8,0,10.6c4.5,0,8.5,0,13.1,0c0-3.3,0-6.7,0-10.6c5,0,9.3,0,13.9,0
	c0,3.4,0,6.8,0,10.8c-4,0-8.2,0-13,0c0,4,0,7.5,0,11.6c-4.8,0-9,0-13.7,0c0,7.7,0,14.9,0,22.7c-4.8,0-9,0-13.8,0
	c0,7.8,0,15.1,0,22.7c-4.7,0-8.9,0-13.4,0c0-11.1,0-22,0-33.5c4.1,0,8.2,0,12.5,0c0-4.1,0-7.7,0-11.9c-4,0-8,0-12.5,0
	c0-4.3,0-7.9,0-11.6l-0.2,0.2c4.4,0,8.7,0,13.1,0c0-4.6,0-8.4,0-12.1C139.4,109.9,139.3,110,139.3,110z"/>
<path class="st0" d="M154,157c4.3,0,8.2,0,12.6,0c0-3.7,0-7.1,0-11c5-0.3,9.3-0.5,14.1-0.7c0-7.5,0-14.6,0-22.1c4.6,0,8.7,0,13.6,0
	c0.2,3.4,0.4,6.8,0.6,10.6c4.3,0,8.3,0,12.6,0c0,3.9,0,7.3,0,11.3c-4,0-8,0-12.5,0c-0.2,4.1-0.5,7.7-0.6,11.8c-8.9,0-17.5,0-26.6,0
	c0,4,0,7.4,0,11.5c4.1,0,8.4,0,13,0c0,3.8,0,7,0,10.6c-8.9,0-17.6,0-26.7,0C154,171.8,154,164.7,154,157z"/>
<path class="st0" d="M126.6,110c0-11.1,0-22.2,0-33.6c4.1,0,8.4,0,12.8,0c0,11.3,0,22.5,0,33.7l0.1-0.1c-4.4,0-8.7,0-13.1,0
	L126.6,110z"/>
<path class="st0" d="M207.7,168.9c0,3.8,0,7.2,0,10.9c-4.5,0-8.6,0-13.2,0c0-3.7,0-7.1,0-10.9C198.9,168.9,203,168.9,207.7,168.9z"
	/>
<path class="st0" d="M126.6,121.9c-4.5,0-9,0-13.8,0c0-3.6,0-7.2,0-10.9c4.6-0.3,9.2-0.7,13.8-1l-0.1-0.1c0,4.1,0,8.1,0,12.2
	L126.6,121.9z"/>
<path class="st0" d="M139.4,64.3c-4.4,0-8.4,0-12.8,0c0-3.6,0-7.1,0-10.9c4,0,8.2,0,12.8,0C139.4,56.9,139.4,60.5,139.4,64.3z"/>
<path class="st0" d="M58.3,110.8c4.6,0,8.7,0,13.4,0c0,3.6,0,7,0,10.8c-4.4,0-8.6,0-13.4,0C58.3,118.2,58.3,114.8,58.3,110.8z"/>
<path class="st0" d="M85.6,110.9c4.6,0,8.9,0,13.4,0c0,3.7,0,7.1,0,10.8c-4.5,0-8.6,0-13.4,0C85.6,118.3,85.6,114.8,85.6,110.9z"/>
<path class="st0" d="M194.2,121.7c0-3.8,0-7.2,0-10.8c4.5,0,8.6,0,13.4,0c0,3.6,0,7.1,0,10.8C203.1,121.7,198.9,121.7,194.2,121.7z"
	/>
</svg>
