<?xml version="1.0" encoding="utf-8"?>
<!-- Generator: Adobe Illustrator 23.0.3, SVG Export Plug-In . SVG Version: 6.00 Build 0)  -->
<svg version="1.1" id="Layer_1" xmlns="http://www.w3.org/2000/svg" xmlns:xlink="http://www.w3.org/1999/xlink" x="0px" y="0px"
	 viewBox="0 0 266 234" style="enable-background:new 0 0 266 234;" xml:space="preserve">
<style type="text/css">
	.st0{fill:#6B6B6B;}
</style>
<path class="st0" d="M20,155c6.1,0,12.3,0,19,0c0,9.8,0.6,19.3-0.1,28.6c-1.1,15.3,10.5,27.8,26.9,26.7c6.3-0.4,12.6-0.1,19.2-0.1
	c0,6.5,0,12.6,0,18.7c-9,0-18,0-27,0c-0.8-0.3-1.5-0.7-2.3-0.8c-12.4-2-22.3-8.1-28.5-18.9c-3.5-6.1-4.9-13.5-7.2-20.3
	C20,177.7,20,166.3,20,155z"/>
<path class="st0" d="M85,4c0,6.1,0,12.2,0,18.8c-7,0-13.8,0-20.6,0C48.5,22.9,39,32.3,39,48.2c0,8.6,0,17.2,0,26.8
	c-6.6-0.4-12.8-0.7-19-1c0-10,0-20,0-30c0.3-0.9,0.7-1.9,0.8-2.8c1.2-10.3,5.9-18.8,13.3-26C40.6,9,48.7,6.3,57,4
	C66.3,4,75.7,4,85,4z"/>
<path class="st0" d="M188,229c0-6,0-11.9,0-18.7c3.9,0,7.8-0.2,11.7,0c16.9,1.1,27.4-12.6,26.4-26.2c-0.7-9.4-0.1-18.9-0.1-29.1
	c6.5,0,12.8,0,19,0c0,11,0,22,0,33c-0.3,1.1-0.7,2.2-0.8,3.4c-1.1,10.7-5.9,19.5-13.7,26.8c-6.4,6-14.3,8.6-22.5,10.8
	C201.3,229,194.7,229,188,229z"/>
<path class="st0" d="M245,75c-6.1,0-12.2,0-18.9,0c0-9.2-0.5-17.7,0.1-26.1c1-14.2-9.9-27.3-26.4-26.3c-3.8,0.2-7.6,0-11.7,0
	c0-6.5,0-12.6,0-18.7c6.7,0,13.3,0,20,0c0.1,0.1,0.2,0.3,0.3,0.4c20.4,4.3,32.8,16.4,36.1,37.3c0.1,0.5,0.4,0.9,0.6,1.4
	C245,53.7,245,64.3,245,75z"/>
<path class="st0" d="M69.5,53.2c15.1,0,30.1,0,45.3,0c0,15.2,0,30.3,0,45.6c-15.1,0-30,0-45.3,0C69.5,83.8,69.5,68.8,69.5,53.2z
	 M103.7,87.8c0-8.2,0-15.8,0-23.4c-8,0-15.5,0-23.1,0c0,8,0,15.7,0,23.4C88.5,87.8,95.9,87.8,103.7,87.8z"/>
<path class="st0" d="M195.8,53.3c0,15.3,0,30.1,0,45.3c-15.1,0-30.1,0-45.5,0c0-14.9,0-29.9,0-45.3
	C165.3,53.3,180.3,53.3,195.8,53.3z M161.1,87.5c8.2,0,15.9,0,23.5,0c0-8,0-15.5,0-23.1c-8,0-15.7,0-23.5,0
	C161.1,72.3,161.1,79.7,161.1,87.5z"/>
<path class="st0" d="M114.6,179.5c-15,0-30,0-45.3,0c0-15,0-30.1,0-45.3c15,0,30,0,45.3,0C114.6,149.2,114.6,164.2,114.6,179.5z
	 M80.5,145.2c0,8.2,0,15.7,0,23.2c8,0,15.6,0,23.2,0c0-7.9,0-15.5,0-23.2C95.7,145.2,88.2,145.2,80.5,145.2z"/>
<path class="st0" d="M137.9,110c3.8,0.3,7.6,0.6,11.8,0.9c0,3.4,0,6.8,0,10.6c3.8,0,7.2,0,11.1,0c0-3.3,0-6.7,0-10.6
	c4.2,0,7.9,0,11.8,0c0,3.4,0,6.8,0,10.8c-3.4,0-6.9,0-11,0c0,4,0,7.5,0,11.6c-4.1,0-7.6,0-11.6,0c0,7.7,0,14.9,0,22.7
	c-4.1,0-7.6,0-11.7,0c0,7.8,0,15.1,0,22.7c-4,0-7.5,0-11.3,0c0-11.1,0-22,0-33.5c3.5,0,6.9,0,10.6,0c0-4.1,0-7.7,0-11.9
	c-3.4,0-6.8,0-10.6,0c0-4.3,0-7.9,0-11.6l-0.2,0.2c3.7,0,7.4,0,11.1,0c0-4.6,0-8.4,0-12.1C138,109.9,137.9,110,137.9,110z"/>
<path class="st0" d="M150.3,157c3.6,0,6.9,0,10.7,0c0-3.7,0-7.1,0-11c4.2-0.3,7.9-0.5,11.9-0.7c0-7.5,0-14.6,0-22.1
	c3.9,0,7.4,0,11.5,0c0.2,3.4,0.3,6.8,0.5,10.6c3.6,0,7,0,10.7,0c0,3.9,0,7.3,0,11.3c-3.4,0-6.8,0-10.6,0c-0.2,4.1-0.4,7.7-0.5,11.8
	c-7.5,0-14.8,0-22.5,0c0,4,0,7.4,0,11.5c3.5,0,7.1,0,11,0c0,3.8,0,7,0,10.6c-7.5,0-14.9,0-22.6,0C150.3,171.8,150.3,164.7,150.3,157
	z"/>
<path class="st0" d="M127.1,110c0-11.1,0-22.2,0-33.6c3.5,0,7.1,0,10.8,0c0,11.3,0,22.5,0,33.7c0,0,0.1-0.1,0.1-0.1
	c-3.7,0-7.4,0-11.1,0L127.1,110z"/>
<path class="st0" d="M195.8,168.9c0,3.8,0,7.2,0,10.9c-3.8,0-7.3,0-11.2,0c0-3.7,0-7.1,0-10.9C188.3,168.9,191.8,168.9,195.8,168.9z
	"/>
<path class="st0" d="M127.1,121.9c-3.8,0-7.6,0-11.7,0c0-3.6,0-7.2,0-10.9c3.9-0.3,7.8-0.7,11.7-1c0,0-0.1-0.1-0.1-0.1
	c0,4.1,0,8.1,0,12.2L127.1,121.9z"/>
<path class="st0" d="M138,64.3c-3.7,0-7.1,0-10.8,0c0-3.6,0-7.1,0-10.9c3.4,0,6.9,0,10.8,0C138,56.9,138,60.5,138,64.3z"/>
<path class="st0" d="M69.3,110.8c3.9,0,7.4,0,11.3,0c0,3.6,0,7,0,10.8c-3.7,0-7.3,0-11.3,0C69.3,118.2,69.3,114.8,69.3,110.8z"/>
<path class="st0" d="M92.4,110.9c3.9,0,7.5,0,11.3,0c0,3.7,0,7.1,0,10.8c-3.8,0-7.3,0-11.3,0C92.4,118.3,92.4,114.8,92.4,110.9z"/>
<path class="st0" d="M184.3,121.7c0-3.8,0-7.2,0-10.8c3.8,0,7.3,0,11.3,0c0,3.6,0,7.1,0,10.8C191.9,121.7,188.3,121.7,184.3,121.7z"
	/>
<path class="st0" d="M126.9,122.1c0-4.1,0-8.1,0-12.2c3.7,0,7.4,0,11.1,0c0,3.8,0,7.5,0,12.1C134.3,122.1,130.6,122.1,126.9,122.1z"
	/>
</svg>
