<?xml version="1.0" encoding="utf-8"?>
<!-- Generator: Adobe Illustrator 23.0.3, SVG Export Plug-In . SVG Version: 6.00 Build 0)  -->
<svg version="1.1" id="Layer_1" xmlns="http://www.w3.org/2000/svg" xmlns:xlink="http://www.w3.org/1999/xlink" x="0px" y="0px"
	 viewBox="0 0 473 274" style="enable-background:new 0 0 473 274;" xml:space="preserve">
<style type="text/css">
	.st0{fill:#F3BDA5;}
	.st1{fill:#F1F2F2;}
	.st2{fill:#353E49;}
	.st3{fill:#2FB2DC;}
	.st4{fill:#BA9A8B;}
	.st5{fill:#F9F0E6;}
	.st6{fill:#E6E7E8;}
	.st7{fill:#FFD8C7;}
	.st8{fill:#780047;}
	.st9{fill:#E6E6E6;}
	.st10{fill:#595241;}
</style>
<g>
	<g id="top_3_">
		<g>
			<polygon class="st0" points="173.3,169.8 173.3,225.2 141.5,225.5 141.5,225.5 100.6,225.2 100.6,170 111.8,165.7 114.5,164.7 
				116.2,145.3 158.2,145.3 158.8,151.9 159.9,164.7 			"/>
			<path class="st1" d="M158.8,151.9C148.7,164,134.2,174,116.8,174h-0.7l-0.2,0c-5.7-0.3-10.8-1.3-15.3-2.9V170l11.2-4.3l2.6-1
				l1.7-19.5h42L158.8,151.9z"/>
		</g>
		<path class="st2" d="M226.4,185.2c-5.6-3.8-45-18.9-60.6-24.9c-3.7-1.4-6.3-2.5-6.5-2.5c0,0-0.2,5.3-0.8,14.4
			c-0.1,1-0.1,2.2-0.2,3.3c-5.5,5.7-13.2,10.4-21.8,10.4c-7.6,0-14.6-3.5-19.9-8.3c-0.1-1-0.1-1.9-0.2-2.8
			c-0.6-10.7-1.4-16.8-1.4-16.8c-0.2,0.1-2.6,1.1-6.9,2.7C92,166.8,54,181.4,48.5,185.2c-2.1,1.4-4.1,3.8-5.9,6.9
			c3.2,16.5,14,60.5,16.6,71.1h23.4h38.4h32.7h38.9h20.1l17.1-74.5C228.8,187.2,227.6,186,226.4,185.2z"/>
		<g>
			<polygon class="st3" points="159.3,157.8 169.7,161.8 153.9,209.7 137.5,185.9 			"/>
			<polygon class="st3" points="115.1,157.9 103.5,162.4 120.9,209.7 137.4,185.9 			"/>
		</g>
	</g>
	<g id="face_1_">
		<g>
			<path class="st0" d="M194.9,104.8c-0.7,8.9-4.1,15.6-7.6,14.8c-0.6-0.1-1.2-0.5-1.7-1.1c-1.3,6.7-2.4,12.6-6.1,17.5
				c-8,11.2-22.5,25.6-41.1,25.9c-1.8,0-3.5-0.2-5.3-0.4c-16.5-2.5-31.8-15.4-39-25.5c-3.7-4.9-4.7-10.8-6.1-17.4
				c-0.1,0.1-0.3,0.2-0.4,0.3c-0.3,0.2-0.5,0.3-0.8,0.4c-3.4,1-7-5.3-8-14.2c-1-8.9,1-16.9,4.4-17.9c1.4-0.4,2.8,0.4,4,2
				c2.5-24.5-4.2-29.2,8.1-46.7c8.2-11.8,27.2-17.9,41.7-18c14.5,0.2,31.9,3.8,40.1,15.7c8.2,11.5,7.3,30.3,9.2,48.8
				c1.1-1.5,2.4-2.2,3.7-1.9C193.4,88,195.6,95.8,194.9,104.8z"/>
			<g>
				<path class="st4" d="M84.7,92.6c-0.7-0.1-1.4,0.3-2.1,0.9c-0.6,0.6-1.2,1.6-1.5,2.7l-0.2,0.8c-0.1,0.3-0.1,0.6-0.2,0.9
					c-0.1,0.6-0.1,1.2-0.2,1.8c0,0.3,0,0.6,0,0.9l0,0.9c0,0.6,0.1,1.2,0.1,1.8c0.2,2.3,0.5,4.6,1.2,6.7c0.3,1.1,0.7,2.1,1.2,3
					c0.1,0.2,0.3,0.4,0.4,0.6c0.1,0.2,0.3,0.4,0.4,0.5c0.3,0.3,0.6,0.6,1,0.6c-0.6-0.5-1.1-1.4-1.4-2.3c-0.4-0.9-0.6-1.9-0.8-3
					c-0.4-2.1-0.7-4.3-0.9-6.4c-0.2-2.1-0.2-4.3,0.2-6.3c0.2-1,0.6-1.9,1-2.6C83.5,93.5,84.1,92.9,84.7,92.6z"/>
				<path class="st4" d="M186.9,114.3c0.7,0.4,1.4,0.5,2.1,0.2c0.7-0.3,1.4-0.9,1.9-1.8l0.4-0.7c0.1-0.2,0.2-0.5,0.3-0.8
					c0.2-0.5,0.4-1.1,0.5-1.6c0.1-0.3,0.1-0.6,0.2-0.8l0.2-0.9c0.1-0.6,0.2-1.2,0.2-1.7c0.2-2.3,0.3-4.6,0.2-7
					c-0.1-1.2-0.3-2.3-0.6-3.4c-0.1-0.3-0.2-0.5-0.3-0.8c-0.1-0.3-0.2-0.5-0.3-0.7c-0.2-0.4-0.5-0.9-0.8-1.1
					c0.5,0.8,0.7,1.9,0.9,2.9c0.2,1.1,0.2,2.1,0.2,3.2c0,2.2-0.2,4.4-0.4,6.6c-0.2,2.1-0.6,4.2-1.4,5.9c-0.4,0.8-0.9,1.5-1.5,1.9
					C188.2,114.1,187.5,114.3,186.9,114.3z"/>
			</g>
		</g>
		<path class="st5" d="M165.4,135.7c0-2.3,0.7-5.2-1.3-7.2c-6.5-6.6-22.7-8.8-27.4-8.8c-5.8,0-21,2.6-27.3,9.1
			c-2.1,2.1-1.3,4.5-1.3,6.9c1.6-0.5,3.8-0.6,5.3-1.4c1.3-0.6,1.7-2,2.6-3.1c0.1,0.8,0.3,1.7,0.6,2.5c0.9,0,1.7-0.4,2.3-1
			c0.6-0.6,1.1-1.3,1.5-2.1c0.7,0.6,1.4,1.3,2.1,1.9c0.1,0.1,0.2,0.2,0.4,0.2c0.1,0,0.3,0,0.4-0.1c2.9-1.1,6.9-1,9.9-1.1
			c3.7-0.2,7.4-0.1,11.1,0.1c1.5,0.1,4.6,1.2,5.1-1c0.1-0.2,0.1-0.5,0.3-0.6c0.4,0.8,0.8,1.7,1.3,2.5c0,0.1,3.7,0.4,4.2,0.5
			c1.4,0.3,3.8,1.5,5,0.5c0.6-0.5,0.8-1.2,0.7-1.9c0.4,0.9,0.8,1.9,1.1,2.8C162.3,135.3,165.4,134.6,165.4,135.7z"/>
		<path class="st5" d="M76,60.7c0.3-0.8,0.3-3.3,1-4.1c0.3-0.6,0.6-1.2,1-1.8c1.9-2.9,3.2-5.5,4.9-8.4c0.5-0.5,1.1-1,1.7-1.5
			c1.9-1.9,3.4-4.2,4.8-6.5c0.5-0.8,1-1.5,1.4-2.3c4.2-10.1,16.2-11.3,25.6-8.8c1.3,0,1.6,0.6,1.5,1.4c-0.1,0.4-0.3,0.9-0.5,1.5
			c-1.6,2.1-2.7,4.4-3.5,6.8c-0.3,0.8-0.6,1.6-0.9,2.4c-2.3,7.5-9.7,12.4-12.1,19.3c-0.2,0.6-0.5,1.1-0.7,1.7
			c-0.1,0.3-0.3,0.6-0.3,0.8c1.4,3.1-2.5,4.7-3.6,7.4c-0.2,0.3-0.4,0.7-0.6,1c-0.4,0.5-0.8,1-1.2,1.5c0.7,2.5-3.3,3.7-1.5,6.4
			c-0.1,0.3-0.2,0.7-0.3,1c-1.2,4.2-2.1,8.2-2.4,11C90,90.1,90,90.8,90,91.6c0,1.3-1.1,2.4-2.4,2.4l0,0c-0.8-1.8-1.5-3.5-1.9-4.7
			c-0.4-0.9-0.8-1.9-1.2-2.9c-0.2-0.5-0.4-1-0.5-1.5c-5-6.3-6.3-13.8-8.1-22.6C75.9,61.8,76,61.2,76,60.7z"/>
		<path class="st5" d="M197.8,59.7c-0.3-0.8-0.3-3.3-1-4.1c-0.3-0.6-0.6-1.2-1-1.8c-1.9-2.9-3.2-5.5-4.9-8.4c-0.5-0.5-1.1-1-1.7-1.5
			c-1.9-1.9-3.4-4.2-4.8-6.5c-0.5-0.8-1-1.5-1.4-2.3c-4.2-10.1-16.2-11.3-25.6-8.8c-1.3,0-1.6,0.6-1.5,1.4c0.1,0.4,0.3,0.9,0.5,1.5
			c1.6,2.1,2.7,4.4,3.5,6.8c0.3,0.8,0.6,1.6,0.9,2.4c2.3,7.5,9.7,12.4,12.1,19.3c0.2,0.6,0.5,1.1,0.7,1.7c0.1,0.3,0.3,0.6,0.3,0.8
			c-1.4,3.1,2.5,4.7,3.6,7.4c0.2,0.3,0.4,0.7,0.6,1c0.4,0.5,0.8,1,1.2,1.5c-0.7,2.5,3.3,3.7,1.5,6.4c0.1,0.3,0.2,0.7,0.3,1
			c1.2,4.2,2.1,8.2,2.4,11c0.1,0.6,0.1,1.3,0.1,2.1c0,1.3,1.1,2.4,2.4,2.4l0,0c0.8-1.8,1.5-3.5,1.9-4.7c0.4-0.9,0.8-1.9,1.2-2.9
			c0.2-0.5,0.4-1,0.5-1.5c5-6.3,6.3-13.8,8.1-22.6C197.9,60.8,197.9,60.3,197.8,59.7z"/>
		<g>
			<path class="st6" d="M118.5,74.5c3.1-2.1,6.7-3.5,10.3-4.5c3.6-1,7.4-1.5,11.2-1.5c1.9,0,3.8,0.2,5.7,0.3
				c1.9,0.4,3.8,0.5,5.6,1.1c3.7,0.9,7.1,2.6,10.3,4.5c-3.7-0.8-7.2-1.7-10.8-2.1c-3.6-0.5-7.2-0.8-10.7-0.7
				c-3.6,0-7.2,0.3-10.8,0.8C125.7,72.9,122.1,73.6,118.5,74.5z"/>
			<path class="st6" d="M126.5,66.6c1.9-1.5,4.1-2.6,6.4-3.3c2.3-0.7,4.7-1.1,7.2-1.1c2.4,0,4.9,0.3,7.2,1c2.3,0.7,4.5,1.8,6.4,3.3
				c-2.4-0.3-4.6-0.7-6.9-0.9c-2.2-0.2-4.4-0.3-6.7-0.3c-2.2,0-4.4,0.1-6.7,0.3C131.1,66,128.8,66.3,126.5,66.6z"/>
		</g>
	</g>
</g>
<g>
	<g id="top_7_">
		<g>
			<polygon class="st7" points="368.4,171.1 368.4,226.5 336.7,226.7 336.7,226.8 295.8,226.5 295.8,171.3 307,167 309.6,166 
				311.3,146.5 353.4,146.5 353.9,153.2 355,166 			"/>
			<path class="st1" d="M353.9,153.2c-10.1,12.1-24.5,22.1-41.9,22.1h-0.7l-0.2,0c-5.7-0.3-10.8-1.3-15.3-2.9v-1.1L307,167l2.6-1
				l1.7-19.5h42L353.9,153.2z"/>
		</g>
		<path class="st8" d="M425.1,189.9L408,264.4H254.4c-2.6-10.6-13.4-54.6-16.6-71.1c1.8-3.1,3.8-5.4,5.9-6.9
			c5.5-3.7,43.6-18.4,59.7-24.5c4.2-1.6,6.6-2.6,6.9-2.7l17.9-0.1l10.5,0l15.9,0c0.2,0.1,2.8,1.1,6.5,2.5
			c15.6,5.9,55,21.1,60.6,24.9C422.8,187.3,424,188.4,425.1,189.9z"/>
		<g>
			<polygon class="st1" points="338.5,159.1 338.5,264.4 328.1,264.4 328.1,159.1 			"/>
			<path class="st1" d="M328.9,192.3c0,2.4,2,4.4,4.4,4.4s4.4-2,4.4-4.4s-2-4.4-4.4-4.4S328.9,189.9,328.9,192.3z"/>
			<path class="st1" d="M328.9,223.9c0,2.4,2,4.4,4.4,4.4s4.4-2,4.4-4.4c0-2.4-2-4.4-4.4-4.4S328.9,221.5,328.9,223.9z"/>
			<circle class="st1" cx="333.3" cy="255.5" r="4.4"/>
		</g>
	</g>
	<g id="face_23_">
		<path class="st5" d="M391,82.2c2,17.7-0.6,32.8-10.3,42.4c-9.4,9.7-25.8,13.9-45.3,14.2c-19.4-0.1-35.9-4.2-45.4-13.9
			c-9.7-9.5-12.5-24.5-10.6-42.3c2.2-17.7,8.2-33,17.7-43c9.5-10.1,22.6-14.9,37.8-15.1c3.9,0,25.4,5.5,22.4-5
			c2.5,2.3,3,6.6,1.3,9.5c1.5-2.4,10.5,10.2,11.5,4.1c0.2-1-0.5-2.1-1.5-2.3c1.4,0,2.9,1,3.4,2.4c1.2,3.3-1.8,3.4,0.8,6.1
			C382.6,49.2,388.7,64.4,391,82.2z"/>
		<g>
			<path class="st7" d="M384,107.9c-1.3-0.3-2.6,0.2-3.8,1.2c-1-19.3-5.9-36-15.2-47.2c-9.2-11.3-22.6-17-37.3-17.5
				c-14.2-0.1-25.3,5-31.6,16.3c-6.4,10.9-8.5,28.1-8.7,48.2c0.1,19.9-1.7,37.4,9,47.7c7.6,7.3,5.5,10.5,22,16.8
				c2.7,3.3,8.4,7.3,12.1,7.3c3.8,0,9-3.8,11.6-7c18.8-9.5,17.3-8.1,26.2-16.3c5.8-5.3,8.9-11.6,10.5-18.8c0.7,0.7,1.5,1.2,2.3,1.4
				c4.2,0.9,8.3-5.6,9.1-14.5C391,116.6,388.2,108.7,384,107.9z"/>
			<path class="st4" d="M379.4,134.7c0.8,0.4,1.7,0.5,2.6,0.3c0.9-0.3,1.7-0.9,2.3-1.7l0.5-0.7c0.2-0.2,0.3-0.5,0.4-0.7
				c0.3-0.5,0.4-1,0.6-1.6c0.1-0.3,0.2-0.6,0.2-0.8l0.2-0.8c0.1-0.6,0.2-1.1,0.3-1.7c0.3-2.3,0.4-4.6,0.1-7
				c-0.1-1.2-0.4-2.3-0.8-3.4c-0.1-0.3-0.2-0.5-0.3-0.8c-0.1-0.3-0.3-0.5-0.4-0.7c-0.3-0.5-0.6-0.9-1-1.1c0.6,0.8,0.9,1.9,1.1,2.9
				c0.2,1.1,0.3,2.1,0.3,3.2c0,2.2-0.1,4.4-0.4,6.5c-0.2,2.1-0.7,4.2-1.6,5.8c-0.5,0.8-1.1,1.4-1.8,1.8
				C381.1,134.6,380.3,134.8,379.4,134.7z"/>
		</g>
		<g>
			<path class="st6" d="M313.7,90.9c1-1,2.2-1.8,3.6-2.3c1.4-0.4,3.1-0.4,4.7,0.2c3.2,1.1,6.1,3.1,9.1,4c2.9,0.9,5.8,0.2,8.6-0.7
				c2.8-0.9,5.7-1.8,8.7-2.6c-2.6,1.4-5.3,2.7-8,3.9c-1.4,0.6-2.8,1.1-4.4,1.4c-1.5,0.3-3.3,0.2-4.9-0.3c-3.3-1-6.2-3.1-9.1-4.4
				C319.1,88.8,316.1,89.5,313.7,90.9z"/>
			<path class="st6" d="M316.3,85c0.9-1.1,2-2.1,3.4-2.7c1.4-0.6,3-0.7,4.7-0.3c3.3,0.8,6.3,2.6,9.2,3.1c3,0.7,5.7-0.3,8.4-1.5
				c2.7-1.2,5.5-2.4,8.3-3.5c-2.5,1.7-5,3.3-7.6,4.7c-1.3,0.7-2.7,1.4-4.2,1.8c-1.5,0.4-3.2,0.5-4.9,0.2c-3.4-0.7-6.4-2.6-9.3-3.6
				C321.4,82.3,318.6,83.3,316.3,85z"/>
			<path class="st6" d="M315.1,87.4c0.8-0.9,1.9-1.5,3-1.9c1.2-0.4,2.6-0.3,4,0.1c2.7,0.9,5.1,2.6,7.6,3.3c2.5,0.8,4.8,0.2,7.2-0.6
				c2.3-0.8,4.7-1.5,7.2-2.2c-2.2,1.2-4.4,2.3-6.7,3.2c-1.1,0.5-2.3,0.9-3.6,1.1c-1.3,0.2-2.7,0.2-4.1-0.3c-2.8-0.8-5.2-2.6-7.6-3.6
				C319.6,85.6,317.1,86.2,315.1,87.4z"/>
			<path class="st6" d="M354.3,147.6c1.1,1.3,2.1,2.8,3,4.3c0.9,1.5,1.7,3.2,2.2,5c0.5,1.8,0.5,3.8-0.1,5.5
				c-0.6,1.7-1.6,3.1-2.9,4.1c1.1-1.2,1.9-2.7,2.4-4.3c0.4-1.6,0.5-3.4,0-5.1c-0.5-1.7-1.2-3.3-2-4.9
				C356,150.6,355.2,149.1,354.3,147.6z"/>
			<path class="st6" d="M310.5,146.8c-1,1.2-1.9,2.5-2.7,3.9c-0.8,1.4-1.5,2.9-1.9,4.5c-0.4,1.7-0.4,3.5,0.2,5.2
				c0.5,1.7,1.5,3.1,2.6,4.2c-1-1.3-1.8-2.8-2.2-4.4c-0.4-1.6-0.4-3.3,0-4.8c0.4-1.6,1.1-3,1.7-4.5
				C308.9,149.5,309.7,148.1,310.5,146.8z"/>
			<path class="st6" d="M321.5,162.1c2.6,2.7,6.1,4,9.6,4c3.5,0,6.9-1.2,10-3c-2.6,2.5-6.2,4-9.9,4c-1.9,0-3.7-0.4-5.5-1.3
				C323.9,165,322.5,163.7,321.5,162.1z"/>
		</g>
		<g>
			<path class="st5" d="M385.9,54c1.4-3.5,2.3-7.3,2.7-11.4c1.5-17.8-8.9-33.7-23.1-35.5c-9.8-1.2-18.9,4.6-24.1,14.2
				c-2.1-1.4-4.4-2.4-7-2.7c-9.9-1.2-18.8,7.8-19.9,20.2c-14.7,3.6-24.8,11-24.8,19.5c0,11.9,44.1,21.5,44.1,21.5s14.3-3.2,26.6-8.1
				c3.4,0.4,6.7-0.1,9.8-1.3c0.7,6.8,5.1,12.4,10.8,13.1c6.7,0.8,12.6-5.3,13.3-13.7C394.9,62.6,391.2,56.1,385.9,54z"/>
			<path class="st9" d="M341.9,22.3c1-0.7,2.3-1.1,3.6-1.4c1.3-0.2,2.6-0.2,3.9-0.2c2.6,0.2,5.1,0.8,7.6,1.6c4.9,1.6,9.4,4,13.5,6.8
				c2,1.5,4,3.1,5.7,5c1.7,1.9,3.2,3.9,4.3,6.1c2.3,4.3,3.6,9,4.5,13.6c-2.1-4.3-4-8.7-6.6-12.5c-2.6-3.9-5.9-7.1-9.8-9.8
				c-1.9-1.3-4-2.6-6.1-3.8c-2.1-1.2-4.3-2.3-6.5-3.2c-2.2-0.9-4.5-1.8-6.8-2.3C346.7,21.7,344.3,21.5,341.9,22.3z"/>
		</g>
		<path class="st10" d="M359.8,107.2c-8.4,0-15.3,6-16.9,13.9c-7.2-3.8-14.2-2-18-0.4c-1.7-7.7-8.6-13.6-16.8-13.6
			c-9.5,0-17.2,7.7-17.2,17.2s7.7,17.2,17.2,17.2c9.4,0,17-7.5,17.2-16.9c2.8-1.5,10.1-4.2,17.4,0.6c0.5,9,8,16.2,17.1,16.2
			c9.5,0,17.2-7.7,17.2-17.2S369.2,107.2,359.8,107.2z M308,137.8c-7.4,0-13.4-6-13.4-13.4c0-7.4,6-13.4,13.4-13.4
			c7.4,0,13.4,6,13.4,13.4C321.4,131.8,315.4,137.8,308,137.8z M359.8,137.8c-7.4,0-13.4-6-13.4-13.4c0-7.4,6-13.4,13.4-13.4
			c7.4,0,13.4,6,13.4,13.4C373.2,131.8,367.2,137.8,359.8,137.8z"/>
	</g>
</g>
</svg>
