<?xml version="1.0" encoding="utf-8"?>
<!-- Generator: Adobe Illustrator 19.0.0, SVG Export Plug-In . SVG Version: 6.00 Build 0)  -->
<svg version="1.1" id="Layer_1" xmlns="http://www.w3.org/2000/svg" xmlns:xlink="http://www.w3.org/1999/xlink" x="0px" y="0px"
	 viewBox="0 278 612 454" enable-background="new 0 278 612 454" xml:space="preserve">
<path fill="#132963" d="M515.8,356c0,3.1-2.5,5.6-5.6,5.6h-323c-3.1,0-5.6-2.5-5.6-5.6v-52.2c0-3.1,2.5-5.6,5.6-5.6h323
	c3.1,0,5.6,2.5,5.6,5.6V356z"/>
<path fill="#144F93" d="M492.9,342.6c0,1.5-2.1,2.7-4.8,2.7H209.4c-2.7,0-4.8-1.2-4.8-2.7v-25.5c0-1.5,2.1-2.7,4.8-2.7h278.7
	c2.7,0,4.8,1.2,4.8,2.7V342.6z"/>
<path fill="#BACCEA" d="M254,326c-21.8,0-39.5,16.9-39.5,37.7v305.9c0,0-0.7,13.9-22.4,24.8c-12.7,6.4-49.9,27.8-49.9,27.8h229.6
	l57.4-32.1c0,0,22.4-11.2,21.7-31.1l0.1-298c0-18.9,15.2-34.2,34.1-34.9V326L254,326L254,326z"/>
<path fill="#D9E3F4" d="M254,326c-21.8,0-39.5,16.9-39.5,37.7v305.9L451,361c0-18.9,15.2-34.2,34.1-34.9V326H254z"/>
<path d="M259.2,497.8V470h-10v-5.7h26.6v5.7H266v27.9H259.2z"/>
<path d="M280.1,497.8v-33.5h6.8v33.5H280.1z"/>
<path d="M314.7,485.5l6.6,2.1c-1,3.7-2.7,6.4-5,8.2c-2.3,1.8-5.3,2.7-8.9,2.7c-4.5,0-8.1-1.5-11-4.6c-2.9-3-4.3-7.2-4.3-12.5
	c0-5.6,1.4-9.9,4.3-13c2.9-3.1,6.7-4.6,11.4-4.6c4.1,0,7.4,1.2,10,3.6c1.5,1.4,2.7,3.5,3.4,6.2l-6.7,1.6c-0.4-1.7-1.2-3.1-2.5-4.1
	c-1.3-1-2.8-1.5-4.6-1.5c-2.5,0-4.5,0.9-6.1,2.7c-1.5,1.8-2.3,4.7-2.3,8.7c0,4.2,0.8,7.3,2.3,9.1c1.5,1.8,3.5,2.7,5.9,2.7
	c1.8,0,3.3-0.6,4.6-1.7C313.2,489.7,314.2,487.9,314.7,485.5z"/>
<path d="M327.2,497.8v-33.5h6.8v14.9l13.7-14.9h9.1l-12.6,13.1l13.3,20.5h-8.8l-9.2-15.7l-5.5,5.6v10.1H327.2z"/>
<path d="M360.9,497.8v-33.5h24.9v5.7h-18.1v7.4h16.8v5.6h-16.8v9.1h18.7v5.6H360.9z"/>
<path d="M399.7,497.8V470h-10v-5.7h26.6v5.7h-9.9v27.9H399.7z"/>
<g>
	<path d="M279.9,437.2c1.7,1.2,3.5,2.1,5.4,2.8l-2.5,4.8c-1-0.3-2-0.7-3-1.3c-0.2-0.1-1.7-1.1-4.5-3c-2.2,1-4.6,1.4-7.3,1.4
		c-5.2,0-9.2-1.5-12.1-4.6c-2.9-3-4.4-7.3-4.4-12.8c0-5.5,1.5-9.7,4.4-12.8c2.9-3,6.9-4.6,11.9-4.6c5,0,8.9,1.5,11.8,4.6
		c2.9,3,4.4,7.3,4.4,12.8c0,2.9-0.4,5.4-1.2,7.6C282.2,434,281.3,435.6,279.9,437.2z M274.5,433.3c0.9-1,1.5-2.3,2-3.7
		c0.4-1.4,0.7-3.1,0.7-5c0-3.9-0.9-6.8-2.6-8.7c-1.7-1.9-3.9-2.9-6.7-2.9c-2.8,0-5,1-6.7,2.9s-2.6,4.8-2.6,8.7
		c0,3.9,0.9,6.9,2.6,8.8c1.7,1.9,3.9,2.9,6.5,2.9c1,0,1.9-0.2,2.8-0.5c-1.4-0.9-2.8-1.6-4.2-2.1l1.9-3.9
		C270.3,430.7,272.4,431.8,274.5,433.3z"/>
	<path d="M289.3,407.9h6.8V426c0,2.9,0.1,4.8,0.3,5.6c0.3,1.4,1,2.5,2.1,3.3c1.1,0.8,2.6,1.2,4.5,1.2c1.9,0,3.4-0.4,4.3-1.2
		c1-0.8,1.6-1.7,1.8-2.9c0.2-1.1,0.3-3,0.3-5.7v-18.6h6.8v17.6c0,4-0.2,6.9-0.5,8.5c-0.4,1.7-1,3.1-2,4.2c-1,1.1-2.3,2.1-3.9,2.7
		c-1.6,0.7-3.8,1-6.5,1c-3.2,0-5.6-0.4-7.3-1.1c-1.7-0.7-3-1.7-3.9-2.9c-1-1.2-1.6-2.4-1.9-3.7c-0.4-1.9-0.7-4.8-0.7-8.5V407.9z"/>
	<path d="M323.2,441.4v-33.5h24.9v5.7H330v7.4h16.8v5.6H330v9.1h18.7v5.6H323.2z"/>
	<path d="M354.4,407.9h6.8V426c0,2.9,0.1,4.8,0.3,5.6c0.3,1.4,1,2.5,2.1,3.3c1.1,0.8,2.6,1.2,4.5,1.2c1.9,0,3.4-0.4,4.3-1.2
		c1-0.8,1.6-1.7,1.8-2.9c0.2-1.1,0.3-3,0.3-5.7v-18.6h6.8v17.6c0,4-0.2,6.9-0.5,8.5c-0.4,1.7-1,3.1-2,4.2c-1,1.1-2.3,2.1-3.9,2.7
		c-1.6,0.7-3.8,1-6.5,1c-3.2,0-5.6-0.4-7.3-1.1c-1.7-0.7-3-1.7-3.9-2.9c-1-1.2-1.6-2.4-1.9-3.7c-0.4-1.9-0.7-4.8-0.7-8.5V407.9z"/>
	<path d="M388.3,441.4v-33.5h24.9v5.7H395v7.4h16.8v5.6H395v9.1h18.7v5.6H388.3z"/>
</g>
<g>
	<path d="M285.3,620.8h-12.4v-20.1h16.4l5.5-26.9h-21.9v-20.2h26l7.2-35.6h20.4l-7.2,35.6h20.2l7-35.6h21.2l-7.3,35.6H373v20.2
		h-16.7l-5.5,26.9H373v20.1h-26.3l-7.2,35.6h-20.3l7-35.6h-20.3l-7.2,35.6h-20.6L285.3,620.8z M315.3,573.8l-5.4,26.9h20.3l5.3-26.9
		H315.3z"/>
</g>
</svg>
