<?xml version="1.0" encoding="utf-8"?>
<!-- Generator: Adobe Illustrator 19.0.0, SVG Export Plug-In . SVG Version: 6.00 Build 0)  -->
<svg version="1.1" id="Layer_1" xmlns="http://www.w3.org/2000/svg" xmlns:xlink="http://www.w3.org/1999/xlink" x="0px" y="0px"
	 viewBox="0 207 612 454" enable-background="new 0 207 612 454" xml:space="preserve">
<g id="XMLID_1_">
	<path id="XMLID_177_" fill="#BDA470" d="M607.4,443h-2.1c-7.7-39.9-36.7-73.7-86.7-104.3c-117.8-72.1-308.3-72.2-425.4,0
		C43.5,369.2,15,403.1,7.7,443H5.7v35.8h0.5c3.9,44.1,33.4,87.4,88.3,121.1c117.8,72.1,308.3,72.1,425.4,0
		c54.6-33.7,83.6-77,87.1-121.1h0.4V443z"/>
	<path id="XMLID_179_" fill="#9FCB00" d="M607.4,421.5h-2.1c-7.7-39.9-36.7-78.5-86.7-109.1c-117.8-72.1-308.3-72.2-425.4,0
		C43.5,343,15,381.6,7.7,421.5H5.7v31.1h0.5c3.9,44.1,33.4,87.4,88.3,121.1c117.8,72.1,308.3,72.1,425.4,0
		c54.6-33.7,83.6-77,87.1-121.1h0.4V421.5z"/>
	<path id="XMLID_169_" fill="#B3E247" d="M518.6,298c-117.8-72.1-308.3-72.2-425.4,0s-116.5,189.1,1.4,261.3s308.3,72.1,425.4,0
		C637.1,487.1,636.4,370.1,518.6,298"/>
	<g id="XMLID_170_">
		<path id="XMLID_176_" fill="#9AD447" d="M541,419.2c-15.7-9.6-41-9.6-56.6,0c-15.6,9.6-15.5,25.2,0.2,34.8c15.7,9.6,41,9.6,56.6,0
			C556.7,444.3,556.7,428.8,541,419.2"/>
		<path id="XMLID_175_" fill="#8E642F" d="M519.2,380.2h-12.8v57.6c0,1,0.6,2,1.9,2.8c2.5,1.5,6.6,1.5,9,0c1.2-0.8,1.9-1.8,1.9-2.8
			l0,0L519.2,380.2L519.2,380.2z"/>
		<path id="XMLID_174_" fill="#A8773A" d="M506.4,380.2v57.6c0,0.1,0.1,0.3,0.1,0.3c2.5,1.1,5.9,0.9,8.2-0.4
			c1.2-0.8,1.9-1.8,1.9-2.8l0,0v-54.7L506.4,380.2L506.4,380.2z"/>
		<path id="XMLID_173_" fill="#2B621D" d="M569.6,320.4c0,33-25.4,59.9-56.8,59.9S456,353.4,456,320.4s25.4-59.9,56.8-59.9
			C544.1,260.5,569.6,287.3,569.6,320.4"/>
		<path id="XMLID_172_" fill="#3F7D2A" d="M512.8,260.5c-31.4,0-56.8,26.8-56.8,59.9c0,11.8,3.2,22.7,8.8,31.9
			c10.2,10.3,24.1,16.7,39.3,16.7c31.4,0,56.8-26.8,56.8-59.9c0-11.8-3.2-22.7-8.8-31.9C541.9,266.8,528.1,260.5,512.8,260.5"/>
		<path id="XMLID_171_" fill="#599F3A" d="M514.6,296.7c0,12.6-9.6,22.8-21.5,22.8c-11.9,0-21.5-10.2-21.5-22.8
			c0-12.6,9.6-22.8,21.5-22.8C504.9,273.9,514.5,284.1,514.6,296.7"/>
	</g>
	<g id="XMLID_3_">
		<polygon id="XMLID_160_" fill="#65563D" points="112.4,362.2 112.6,381 243.9,461.8 243.7,443 		"/>
		<polygon id="XMLID_159_" fill="#46596D" points="243.7,443 243.9,461.8 335,406 334.8,387.2 		"/>
		<polygon id="XMLID_158_" fill="#7D6D53" points="112.4,362.2 243.7,443 334.8,387.2 203.5,306.4 		"/>
		<polygon id="XMLID_157_" fill="#C9BB94" points="124.9,289 125.1,362.9 242.8,435.6 242.6,353.6 		"/>
		<polygon id="XMLID_156_" fill="#559FD7" points="242.6,353.6 242.8,435.6 322.8,386.6 322.6,304.7 		"/>
		<polygon id="XMLID_155_" fill="#559FD7" points="163.1,304.7 242.6,353.6 322.6,304.7 243.1,255.7 		"/>
		<polygon id="XMLID_154_" fill="#3898DC" points="191.8,357.7 218.7,372.9 217.5,394.9 190.9,378.7 		"/>
		<polygon id="XMLID_153_" fill="#BFBEBC" points="191.8,378.7 193.8,377.4 193.9,365.1 191.9,366.3 		"/>
		<polygon id="XMLID_152_" fill="#BFBEBC" points="191.9,363.8 193.9,362.6 193.9,357.7 191.9,359 		"/>
		<polygon id="XMLID_151_" fill="#EBF0F2" points="216.6,393.8 218.6,392.6 193.8,377.4 191.8,378.7 		"/>
		<polygon id="XMLID_150_" fill="#EBF0F2" points="216.6,379 218.6,377.8 193.9,362.6 191.9,363.8 		"/>
		<polygon id="XMLID_149_" fill="#EBF0F2" points="218.7,372.9 220.7,371.6 191.9,354 189.9,355.3 		"/>
		<polygon id="XMLID_148_" fill="#BFBEBC" points="218.6,397.5 220.6,396.3 220.7,371.6 218.7,372.9 		"/>
		<path id="XMLID_144_" fill="#D7DBDA" d="M218.6,397.5l-28.8-17.6l0.1-24.6l28.8,17.6L218.6,397.5z M191.8,378.7l24.7,15.1
			l0.1-12.3l-24.7-15.2L191.8,378.7z M191.9,363.8l24.7,15.1v-4.9L191.9,359V363.8z"/>
		<polygon id="XMLID_143_" fill="#3898DC" points="141.8,327 168.5,342.1 167.5,364.1 140.8,347.9 		"/>
		<polygon id="XMLID_142_" fill="#BFBEBC" points="141.8,347.9 143.8,346.7 143.8,334.3 141.8,335.6 		"/>
		<polygon id="XMLID_141_" fill="#BFBEBC" points="141.8,333.1 143.8,331.9 143.8,327 141.8,328.2 		"/>
		<polygon id="XMLID_140_" fill="#EBF0F2" points="166.5,363 168.5,361.8 143.8,346.7 141.8,347.9 		"/>
		<polygon id="XMLID_139_" fill="#EBF0F2" points="166.5,348.2 168.5,347 143.8,331.9 141.8,333.1 		"/>
		<polygon id="XMLID_138_" fill="#EBF0F2" points="168.5,342.1 170.5,340.9 141.8,323.3 139.8,324.5 		"/>
		<polygon id="XMLID_137_" fill="#BFBEBC" points="168.5,366.7 170.5,365.5 170.5,340.9 168.5,342.1 		"/>
		<path id="XMLID_133_" fill="#D7DBDA" d="M168.5,366.7l-28.8-17.6l0.1-24.6l28.8,17.6L168.5,366.7z M141.8,347.9l24.7,15.1
			l0.1-12.3l-24.8-15.1V347.9z M141.8,333.1l24.7,15.1v-4.9l-24.7-15.1V333.1z"/>
		<polygon id="XMLID_132_" fill="#BFBEBC" points="328.8,305.3 328.8,307.7 239.4,362.3 239.4,359.9 		"/>
		<polygon id="XMLID_131_" fill="#EBE9EB" points="239.4,359.9 239.4,362.3 237,360.9 237,358.4 		"/>
		<polygon id="XMLID_130_" fill="#EBF0F2" points="328.8,305.3 239.4,359.9 237,358.4 326.5,303.8 		"/>
		<polygon id="XMLID_129_" fill="#67402F" points="337.9,302.2 224.2,232.2 169.3,219 283,289 		"/>
		<polygon id="XMLID_128_" fill="#D24815" points="283,289 228.3,369.3 239.8,362.3 283,298.8 326.4,309.2 337.9,302.2 		"/>
		<polygon id="XMLID_127_" fill="#754D3A" points="283,289 169.3,219 114.7,299.2 228.3,369.3 		"/>
		<polygon id="XMLID_126_" fill="#7D6D53" points="361.5,544 361.5,549.8 326.8,570.9 326.9,565.2 		"/>
		<polygon id="XMLID_125_" fill="#FFFFFF" points="199.2,488.3 203.7,491.1 208.2,488.3 203.7,485.6 		"/>
		<polygon id="XMLID_124_" fill="#65563D" points="235.5,374.1 235.7,472.3 361.5,549.8 361.2,451.6 		"/>
		<polygon id="XMLID_123_" fill="#7D6D53" points="361.2,451.6 361.5,549.8 488.1,472.3 487.7,374.2 		"/>
		<polygon id="XMLID_122_" fill="#F0ECDF" points="235.5,374.1 361.2,451.6 487.7,374.2 362,296.6 		"/>
		<polygon id="XMLID_121_" fill="#C9BB94" points="235.5,355.1 235.7,453.2 361.5,530.7 361.2,432.5 		"/>
		<polygon id="XMLID_120_" fill="#F0ECDF" points="361.2,432.5 361.5,530.7 488.1,453.2 487.7,355.1 		"/>
		<polygon id="XMLID_119_" fill="#F0ECDF" points="235.5,355.1 361.2,432.5 487.7,355.1 362,277.6 		"/>
		<polygon id="XMLID_118_" fill="#65563D" points="326.9,565.2 326.8,570.9 199.2,492.6 199.2,486.9 		"/>
		<polygon id="XMLID_117_" fill="#98876E" points="361.5,544 326.9,565.2 199.2,486.9 234.1,465.8 		"/>
		<polygon id="XMLID_116_" fill="#B4B5B5" points="235.3,470 233.1,468.6 233,449.5 235.2,450.9 		"/>
		<polygon id="XMLID_115_" fill="#B4B5B5" points="229,473.8 226.7,472.5 226.6,453.4 228.9,454.8 		"/>
		<polygon id="XMLID_114_" fill="#B4B5B5" points="222.6,477.7 220.4,476.4 220.3,457.3 222.5,458.7 		"/>
		<polygon id="XMLID_113_" fill="#B4B5B5" points="216.2,481.6 214,480.3 214,461.2 216.2,462.6 		"/>
		<polygon id="XMLID_112_" fill="#B4B5B5" points="209.8,485.5 207.7,484.2 207.6,465.1 209.8,466.5 		"/>
		<polygon id="XMLID_111_" fill="#6C2C05" points="203.5,489.4 201.3,488.1 201.3,465.5 203.5,466.9 		"/>
		<polygon id="XMLID_110_" fill="#EDEEEE" points="203.5,466.9 201.3,465.5 235.9,444.3 238.1,445.7 		"/>
		<polygon id="XMLID_109_" fill="#C8C8C9" points="238.1,449.2 238.1,446.5 238.1,445.7 203.5,466.9 203.5,470.3 203.5,489.4 
			206.4,487.7 206.4,468.6 209.8,466.5 209.8,485.5 212.8,483.8 212.7,464.7 216.2,462.6 216.2,481.6 219.1,479.9 219.1,460.8 
			222.5,458.7 222.6,477.7 225.5,476 225.4,456.9 228.9,454.8 229,473.8 231.8,472.1 231.7,453 235.2,450.9 235.3,470 238.2,468.2 
					"/>
		<polygon id="XMLID_108_" fill="#B4B5B5" points="358.7,545.7 356.4,544.4 356.3,525.4 358.6,526.7 		"/>
		<polygon id="XMLID_107_" fill="#B4B5B5" points="352.3,549.6 350.1,548.3 350,529.3 352.3,530.6 		"/>
		<polygon id="XMLID_106_" fill="#B4B5B5" points="346,553.5 343.7,552.2 343.7,533.1 345.9,534.5 		"/>
		<polygon id="XMLID_105_" fill="#B4B5B5" points="339.6,557.4 337.4,556.1 337.3,537 339.6,538.4 		"/>
		<polygon id="XMLID_104_" fill="#B4B5B5" points="333.2,561.3 331,560 331,540.9 333.2,542.2 		"/>
		<polygon id="XMLID_103_" fill="#6C2C05" points="326.9,565.2 324.7,563.8 324.6,541.3 326.8,542.7 		"/>
		<polygon id="XMLID_102_" fill="#EDEEEE" points="326.8,542.7 324.6,541.3 359.2,520.1 361.4,521.5 		"/>
		<polygon id="XMLID_101_" fill="#C8C8C9" points="361.4,524.9 361.4,522.3 361.4,521.5 326.8,542.7 326.8,546.1 326.9,565.2 
			329.8,563.5 329.7,544.4 333.2,542.2 333.2,561.3 336.1,559.6 336.1,540.5 339.6,538.4 339.6,557.4 342.5,555.7 342.4,536.6 
			345.9,534.5 346,553.5 348.8,551.8 348.8,532.7 352.3,530.6 352.3,549.6 355.2,547.9 355.1,528.8 358.6,526.7 358.7,545.7 
			361.5,544 		"/>
		<polygon id="XMLID_100_" fill="#C8C8C9" points="238.7,511.1 240.9,509.8 241,490.7 238.7,492 		"/>
		<polygon id="XMLID_99_" fill="#C8C8C9" points="245,515 247.3,513.6 247.3,494.6 245.1,495.9 		"/>
		<polygon id="XMLID_98_" fill="#C8C8C9" points="251.3,518.9 253.6,517.5 253.7,498.5 251.4,499.8 		"/>
		<polygon id="XMLID_97_" fill="#C8C8C9" points="257.7,522.8 259.9,521.4 260,502.4 257.8,503.7 		"/>
		<polygon id="XMLID_96_" fill="#C8C8C9" points="264.1,526.7 266.3,525.3 266.4,506.3 264.1,507.6 		"/>
		<polygon id="XMLID_95_" fill="#F1F1F1" points="235.9,490.3 235.9,487.7 235.9,486.8 270.4,508 270.4,511.5 270.4,530.5 
			267.5,528.8 267.6,509.8 264.1,507.6 264.1,526.7 261.2,524.9 261.2,505.9 257.8,503.7 257.7,522.8 254.8,521 254.9,502 
			251.4,499.8 251.3,518.9 248.5,517.1 248.6,498.1 245.1,495.9 245,515 242.1,513.2 242.2,494.2 238.7,492 238.7,511.1 
			235.8,509.3 		"/>
		<polygon id="XMLID_94_" fill="#A0551A" points="249.3,415.6 251.7,414.1 244.6,409.7 242.1,411.2 		"/>
		<path id="XMLID_93_" fill="#873D10" d="M244.6,405.4l2.5-1.5c-1.5,1-2.5,2.9-2.5,5.8l-2.5,1.5
			C242.1,408.4,243.1,406.4,244.6,405.4"/>
		<polygon id="XMLID_92_" fill="#A0551A" points="259.3,421.8 261.7,420.3 254.2,415.6 251.7,417.1 		"/>
		<polygon id="XMLID_91_" fill="#873D10" points="251.7,417.1 254.2,415.6 254.2,405.2 251.8,406.7 		"/>
		<polygon id="XMLID_90_" fill="#A0551A" points="292.6,429.2 296,427.2 266.6,409.2 263.3,411.3 		"/>
		<polygon id="XMLID_89_" fill="#F1F1F1" points="199.6,384.1 199.2,486.9 203.7,489.6 204,386.8 		"/>
		<polygon id="XMLID_88_" fill="#C8C8C9" points="204,386.8 203.7,489.6 208.2,486.9 208.5,384.1 		"/>
		<polygon id="XMLID_87_" fill="#FFFFFF" points="199.6,384.1 204,386.8 208.5,384.1 204,381.3 		"/>
		<polygon id="XMLID_86_" fill="#C8C8C9" points="206.9,491.6 209.1,490.3 209.2,471.2 206.9,472.6 		"/>
		<polygon id="XMLID_85_" fill="#C8C8C9" points="213.3,495.5 215.5,494.2 215.5,475.1 213.3,476.5 		"/>
		<polygon id="XMLID_84_" fill="#C8C8C9" points="219.6,499.4 221.9,498.1 221.9,479 219.7,480.4 		"/>
		<polygon id="XMLID_83_" fill="#C8C8C9" points="226,503.3 228.2,502 228.2,482.9 226,484.3 		"/>
		<polygon id="XMLID_82_" fill="#C8C8C9" points="232.3,507.2 234.6,505.9 234.6,486.8 232.4,488.2 		"/>
		<polygon id="XMLID_81_" fill="#C8C8C9" points="270.4,530.5 272.6,529.2 272.7,506.6 270.4,508 		"/>
		<polygon id="XMLID_80_" fill="#F5F6F6" points="241,487.2 241,487.2 206.3,466 204.1,467.3 238.7,488.5 270.4,508 272.7,506.6 		
			"/>
		<polygon id="XMLID_79_" fill="#F1F1F1" points="204.1,470.9 204.1,468.2 204.1,467.3 238.7,488.5 238.7,492 238.7,511.1 
			235.8,509.3 235.9,490.3 232.4,488.2 232.3,507.2 229.5,505.4 229.5,486.4 226,484.3 226,503.3 223.1,501.5 223.1,482.5 
			219.7,480.4 219.6,499.4 216.8,497.6 216.8,478.6 213.3,476.5 213.3,495.5 210.4,493.8 210.4,474.7 206.9,472.6 206.9,491.6 
			204,489.9 		"/>
		<polygon id="XMLID_78_" fill="#67402F" points="500.2,353.7 356.6,265.2 287.2,248.4 337.5,285.2 430.8,336.9 		"/>
		<polygon id="XMLID_77_" fill="#835742" points="430.8,337 333.6,277.2 287.2,248.6 218.1,349.9 361.8,438.5 		"/>
		<polygon id="XMLID_76_" fill="#F0ECDF" points="280.1,348.1 280.2,367.4 297.2,350.3 		"/>
		<polygon id="XMLID_75_" fill="#C9BB94" points="280.1,348.1 298.6,329.8 280.3,314.7 253,331.4 253,350.6 280.2,367.4 		"/>
		<polygon id="XMLID_74_" fill="#754D3A" points="246.8,331.7 289.5,305.4 322,288.4 265.5,321.9 		"/>
		<polygon id="XMLID_73_" fill="#C8C8C9" points="284,354.5 301.7,343.6 299.7,348.8 284,358.5 		"/>
		<polygon id="XMLID_72_" fill="#67402F" points="322,288.4 301.7,343.6 284,354.5 265.5,321.9 		"/>
		<polygon id="XMLID_71_" fill="#F1F1F1" points="265.5,321.9 284,354.5 284,358.5 265.4,325.9 246.8,335.7 246.8,331.7 		"/>
		<polygon id="XMLID_70_" fill="#C8C8C9" points="430.8,337 432.4,340.8 361.2,444.9 361.2,438.1 		"/>
		<polygon id="XMLID_69_" fill="#C8C8C9" points="430.6,337 430.7,340.4 500.2,357.1 500.2,353.7 		"/>
		<polygon id="XMLID_68_" fill="#3898DC" points="417.5,434.5 382.8,454.1 384.3,482.7 418.8,461.6 		"/>
		<polygon id="XMLID_67_" fill="#B4B5B5" points="417.5,461.6 414.9,460 414.9,444 417.5,445.7 		"/>
		<polygon id="XMLID_66_" fill="#B4B5B5" points="417.5,442.4 414.9,440.8 414.9,434.5 417.5,436.1 		"/>
		<polygon id="XMLID_65_" fill="#EDEEEE" points="385.4,481.2 382.9,479.7 414.9,460 417.5,461.6 		"/>
		<polygon id="XMLID_64_" fill="#EDEEEE" points="385.4,462.1 382.8,460.4 414.9,440.8 417.5,442.4 		"/>
		<polygon id="XMLID_63_" fill="#EDEEEE" points="382.8,454.1 380.2,452.6 417.5,429.7 420.1,431.4 		"/>
		<polygon id="XMLID_62_" fill="#FFFFFF" points="382.9,486 380.3,484.4 380.2,452.6 382.8,454.1 		"/>
		<path id="XMLID_58_" fill="#C8C8C9" d="M382.8,454.1l37.3-22.8l0.1,31.9L382.9,486L382.8,454.1z M417.5,461.6l-0.1-16l-32.1,19.6
			l0.1,16L417.5,461.6z M417.5,442.4v-6.3l-32.1,19.6v6.3L417.5,442.4z"/>
		<polygon id="XMLID_57_" fill="#3898DC" points="466.4,404.5 431.7,424.2 433.2,452.7 467.7,431.7 		"/>
		<polygon id="XMLID_56_" fill="#B4B5B5" points="466.4,431.7 463.9,430.1 463.8,414.1 466.4,415.7 		"/>
		<polygon id="XMLID_55_" fill="#B4B5B5" points="466.4,412.5 463.8,410.9 463.8,404.5 466.4,406.2 		"/>
		<polygon id="XMLID_54_" fill="#EDEEEE" points="434.4,451.3 431.8,449.7 463.9,430.1 466.4,431.7 		"/>
		<polygon id="XMLID_53_" fill="#EDEEEE" points="434.4,432.1 431.7,430.5 463.8,410.9 466.4,412.5 		"/>
		<polygon id="XMLID_52_" fill="#EDEEEE" points="431.7,424.2 429.1,422.6 466.4,399.7 469,401.4 		"/>
		<polygon id="XMLID_51_" fill="#FFFFFF" points="431.8,456.1 429.2,454.5 429.1,422.6 431.7,424.2 		"/>
		<path id="XMLID_47_" fill="#C8C8C9" d="M431.7,424.2l37.3-22.8l0.1,31.9l-37.3,22.8L431.7,424.2z M466.4,431.7l-0.1-16l-32.1,19.6
			l0.1,16L466.4,431.7z M466.4,412.5v-6.3l-32.1,19.6v6.3L466.4,412.5z"/>
		<polygon id="XMLID_46_" fill="#3898DC" points="277.2,440.2 301.6,454 300.6,474.1 276.3,459.3 		"/>
		<polygon id="XMLID_45_" fill="#B4B5B5" points="277.2,459.3 279,458.2 279,446.9 277.2,448 		"/>
		<polygon id="XMLID_44_" fill="#B4B5B5" points="277.2,445.7 279,444.6 279,440.2 277.2,441.3 		"/>
		<polygon id="XMLID_43_" fill="#EDEEEE" points="299.7,473.1 301.6,472 279,458.2 277.2,459.3 		"/>
		<polygon id="XMLID_42_" fill="#EDEEEE" points="299.8,459.6 301.6,458.4 279,444.6 277.2,445.7 		"/>
		<polygon id="XMLID_41_" fill="#EDEEEE" points="301.6,454 303.5,452.9 277.2,436.8 275.4,437.9 		"/>
		<polygon id="XMLID_40_" fill="#FFFFFF" points="301.6,476.5 303.4,475.3 303.5,452.9 301.6,454 		"/>
		<path id="XMLID_36_" fill="#C8C8C9" d="M301.6,454l-26.3-16.1l-0.1,22.5l26.3,16.1V454z M277.2,459.3V448l22.6,13.8v11.3
			L277.2,459.3z M277.2,445.7v-4.4l22.7,13.8v4.4L277.2,445.7z"/>
		<polygon id="XMLID_35_" fill="#3898DC" points="242.6,419 267.2,432.9 266.1,453 241.7,438.1 		"/>
		<polygon id="XMLID_34_" fill="#B4B5B5" points="242.6,438.1 244.4,437 244.5,425.7 242.6,426.8 		"/>
		<polygon id="XMLID_33_" fill="#B4B5B5" points="242.6,424.6 244.5,423.5 244.5,419 242.7,420.1 		"/>
		<polygon id="XMLID_32_" fill="#EDEEEE" points="265.2,452 267.1,450.8 244.4,437 242.6,438.1 		"/>
		<polygon id="XMLID_31_" fill="#EDEEEE" points="265.3,438.5 267.1,437.3 244.5,423.5 242.6,424.6 		"/>
		<polygon id="XMLID_30_" fill="#EDEEEE" points="267.2,432.9 269,431.8 242.7,415.6 240.8,416.8 		"/>
		<polygon id="XMLID_29_" fill="#FFFFFF" points="267.1,455.4 268.9,454.3 269,431.8 267.2,432.9 		"/>
		<path id="XMLID_25_" fill="#C8C8C9" d="M267.2,432.9l-26.3-16.1l-0.1,22.5l26.3,16.1L267.2,432.9z M242.6,438.1v-11.3l22.6,13.8
			v11.3L242.6,438.1z M242.6,424.6v-4.4l22.7,13.8v4.4L242.6,424.6z"/>
		<polygon id="XMLID_24_" fill="#7D6D53" points="308,460.6 307.9,511.6 331.6,526.2 331.8,475.1 		"/>
		<polygon id="XMLID_23_" fill="#B4B5B5" points="309.6,516.5 312.7,514.5 312.8,461.6 309.7,463.4 		"/>
		<polygon id="XMLID_22_" fill="#C8C8C9" points="306.7,457.8 306.5,514.5 309.6,516.5 309.7,463.4 329.9,475.8 329.8,528.8 
			332.9,530.7 333,474 		"/>
		<polygon id="XMLID_21_" fill="#FFFFFF" points="332.9,530.7 335.9,528.8 336.1,472.1 333,474 		"/>
		<polygon id="XMLID_20_" fill="#EDEEEE" points="333,474 336.1,472.1 309.7,456 306.7,457.8 		"/>
		<polygon id="XMLID_19_" fill="#F1F1F1" points="322.5,462.7 322.5,562.4 326.9,565.2 326.9,465.4 		"/>
		<polygon id="XMLID_18_" fill="#C8C8C9" points="326.9,465.4 326.9,565.2 331.4,562.4 331.4,462.7 		"/>
		<polygon id="XMLID_17_" fill="#C8C8C9" points="362.5,437.3 361.4,444.8 327.3,465.7 327.4,459 		"/>
		<polygon id="XMLID_16_" fill="#F1F1F1" points="327.4,459 327.3,465.7 183.8,377.8 183.9,371 		"/>
		<polygon id="XMLID_15_" fill="#754D3A" points="361.2,438.1 327.4,459 183.9,371 221.7,347.8 		"/>
		<polygon id="XMLID_14_" fill="#3898DC" points="260.1,337 272.8,344.2 272.2,354.6 259.6,346.9 		"/>
		<polygon id="XMLID_13_" fill="#B4B5B5" points="260.1,346.9 261,346.3 261,340.5 260.1,341.1 		"/>
		<polygon id="XMLID_12_" fill="#B4B5B5" points="260.1,340 261,339.3 261,337 260.1,337.6 		"/>
		<polygon id="XMLID_11_" fill="#EDEEEE" points="271.7,354.1 272.7,353.5 261,346.3 260.1,346.9 		"/>
		<polygon id="XMLID_10_" fill="#EDEEEE" points="271.8,347.1 272.7,346.5 261,339.3 260.1,340 		"/>
		<polygon id="XMLID_9_" fill="#EDEEEE" points="272.8,344.2 273.7,343.6 260.1,335.3 259.2,335.8 		"/>
		<polygon id="XMLID_8_" fill="#FFFFFF" points="272.7,355.8 273.7,355.3 273.7,343.6 272.8,344.2 		"/>
		<path id="XMLID_4_" fill="#C8C8C9" d="M272.8,344.2l-13.6-8.3v11.6l13.6,8.3V344.2z M260.1,346.9v-5.8l11.7,7.2v5.8L260.1,346.9z
			 M260.1,340v-2.3l11.7,7.2v2.3L260.1,340z"/>
	</g>
	<path id="XMLID_161_" fill="none" d="M134.7,259.4"/>
	<g id="XMLID_691_">
		<path id="XMLID_697_" fill="#9AD447" d="M95.6,411.6c-16.6-10.1-43.4-10.1-59.8,0c-16.5,10.1-16.4,26.6,0.2,36.7
			c16.5,10.1,43.3,10.1,59.8,0C112.2,438.2,112.1,421.7,95.6,411.6"/>
		<path id="XMLID_696_" fill="#8E642F" d="M72.5,370.5H59v60.9c0,1.1,0.6,2.1,2,2.9c2.6,1.6,7,1.6,9.6,0c1.3-0.8,2-1.8,2-2.9l0,0
			L72.5,370.5L72.5,370.5z"/>
		<path id="XMLID_695_" fill="#A8773A" d="M59,370.5v60.9c0,0.1,0.1,0.3,0.1,0.4c2.6,1.1,6.3,1,8.6-0.5c1.3-0.8,2-1.8,2-2.9l0,0
			v-57.9H59z"/>
		<path id="XMLID_694_" fill="#2B621D" d="M125.8,307.2c0,35-26.9,63.3-60,63.3c-33.2,0-60-28.3-60-63.3s26.9-63.3,60-63.3
			S125.8,272.2,125.8,307.2"/>
		<path id="XMLID_693_" fill="#3F7D2A" d="M65.7,243.9c-33.2,0-60,28.3-60,63.3c0,12.4,3.4,23.9,9.2,33.7
			c10.8,10.9,25.4,17.7,41.6,17.7c33.2,0,60-28.3,60-63.3c0-12.4-3.4-23.9-9.2-33.7C96.5,250.6,81.9,243.9,65.7,243.9"/>
		<path id="XMLID_692_" fill="#599F3A" d="M67.6,282.2c0,13.3-10.2,24.1-22.7,24.1s-22.7-10.8-22.7-24.1c0-13.3,10.2-24.1,22.7-24.1
			C57.5,258.1,67.6,268.9,67.6,282.2"/>
	</g>
	<g id="XMLID_162_">
		<path id="XMLID_168_" fill="#9AD447" d="M573.7,444.8c-10-6.1-26.1-6.1-36,0c-9.9,6.1-9.9,16,0.1,22.1c9.9,6.1,26.1,6.1,36,0
			C583.7,460.8,583.6,450.8,573.7,444.8"/>
		<path id="XMLID_167_" fill="#8E642F" d="M559.8,420h-8.1v36.7c0,0.6,0.4,1.3,1.2,1.8c1.6,1,4.2,1,5.7,0c0.8-0.5,1.2-1.1,1.2-1.8
			l0,0L559.8,420L559.8,420z"/>
		<path id="XMLID_166_" fill="#A8773A" d="M551.6,420v36.7c0,0.1,0,0.1,0.1,0.2c1.6,0.7,3.8,0.6,5.2-0.3c0.8-0.5,1.2-1.1,1.2-1.8
			l0,0V420H551.6z"/>
		<path id="XMLID_165_" fill="#2B621D" d="M591.9,381.8c0,21.1-16.2,38.1-36.1,38.1s-36.1-17-36.1-38.1c0-21.1,16.2-38.1,36.1-38.1
			S591.9,360.8,591.9,381.8"/>
		<path id="XMLID_164_" fill="#3F7D2A" d="M555.7,343.7c-19.9,0-36.1,17-36.1,38.1c0,7.5,2.1,14.4,5.5,20.3
			c6.5,6.6,15.3,10.6,25,10.6c20,0,36.1-17,36.1-38.1c0-7.5-2.1-14.4-5.5-20.3C574.3,347.8,565.4,343.7,555.7,343.7"/>
		<path id="XMLID_163_" fill="#599F3A" d="M556.8,366.8c0,8-6.1,14.5-13.7,14.5c-7.6,0-13.7-6.5-13.7-14.5c0-8,6.1-14.5,13.7-14.5
			C550.7,352.3,556.8,358.8,556.8,366.8"/>
	</g>
</g>
</svg>
